M48
; DRILL file {KiCad 9.0.3} date 2025-11-25T10:19:31-0500
; FORMAT={-:-/ absolute / inch / decimal}
; #@! TF.CreationDate,2025-11-25T10:19:31-05:00
; #@! TF.GenerationSoftware,Kicad,Pcbnew,9.0.3
; #@! TF.FileFunction,NonPlated,1,4,NPTH
FMAT,2
INCH
; #@! TA.AperFunction,NonPlated,NPTH,ComponentDrill
T1C0.0689
; #@! TA.AperFunction,NonPlated,NPTH,ComponentDrill
T2C0.1260
; #@! TA.AperFunction,NonPlated,NPTH,ComponentDrill
T3C0.1575
%
G90
G05
T1
X10.8322Y-6.9117
X11.0431Y-6.1001
X11.1716Y-7.6063
X11.2235Y-6.8285
X11.4344Y-6.0169
X11.4834Y-9.0735
X11.5109Y-8.3009
X11.5628Y-7.5231
X11.5658Y-6.7558
X11.7767Y-5.9442
X11.8747Y-8.9904
X11.9022Y-8.2178
X11.9052Y-7.4504
X11.9571Y-6.6726
X12.168Y-5.861
X12.217Y-8.9176
X12.2445Y-8.145
X12.2964Y-7.3672
X12.2995Y-6.5998
X12.5103Y-5.7882
X12.6083Y-8.8344
X12.6358Y-8.0618
X12.6388Y-7.2944
X12.6907Y-6.5167
X12.9016Y-5.7051
X12.9507Y-8.7617
X12.9781Y-7.9891
X13.03Y-7.2113
X13.0331Y-6.4439
X13.2439Y-5.6323
X13.3419Y-8.6785
X13.3694Y-7.9059
X13.3724Y-7.1385
X13.4243Y-6.3607
X13.6352Y-5.5491
X13.6843Y-8.6057
X13.7117Y-7.8331
X13.7637Y-7.0553
X13.7667Y-6.2879
X14.0301Y-5.4246
X14.0755Y-8.5226
X14.103Y-7.75
X14.1579Y-6.2048
X14.175Y-6.9836
X14.4301Y-5.4246
X14.55Y-7.7336
X14.55Y-8.4836
X14.5691Y-6.2336
X14.575Y-6.9836
X14.7801Y-5.4836
X14.925Y-6.9836
X14.95Y-7.7336
X14.95Y-8.4836
X14.9691Y-6.2336
X15.1801Y-5.4836
X15.3Y-7.7336
X15.3Y-8.4836
X15.3191Y-6.2336
X15.325Y-6.9836
X15.5301Y-5.4836
X15.675Y-6.9836
X15.7Y-7.7336
X15.7Y-8.4836
X15.7191Y-6.2336
X15.9301Y-5.4836
X16.05Y-7.7336
X16.05Y-8.4836
X16.075Y-6.9836
X16.45Y-7.7336
X16.45Y-8.4836
T2
X10.748Y-6.378
X11.063Y-8.5827
X13.7795Y-5.1181
X14.3307Y-8.937
X16.7323Y-6.7717
T3
X11.0279Y-6.8701
X11.2387Y-6.0585
X11.3672Y-7.5647
X11.6791Y-9.032
X11.7065Y-8.2594
X11.7615Y-6.7142
X11.9723Y-5.9026
X12.1008Y-7.4088
X12.4127Y-8.876
X12.4401Y-8.1034
X12.4951Y-6.5582
X12.706Y-5.7467
X12.8344Y-7.2529
X13.1463Y-8.7201
X13.1738Y-7.9475
X13.2287Y-6.4023
X13.4396Y-5.5907
X13.568Y-7.0969
X13.8799Y-8.5641
X13.9074Y-7.7916
X13.9623Y-6.2464
X14.2301Y-5.4246
X14.375Y-6.9836
X14.75Y-7.7336
X14.75Y-8.4836
X14.7691Y-6.2336
X14.9801Y-5.4836
X15.125Y-6.9836
X15.5Y-7.7336
X15.5Y-8.4836
X15.5191Y-6.2336
X15.7301Y-5.4836
X15.875Y-6.9836
X16.25Y-7.7336
X16.25Y-8.4836
M30
