%TF.GenerationSoftware,KiCad,Pcbnew,9.0.3*%
%TF.CreationDate,2025-11-25T10:19:29-05:00*%
%TF.ProjectId,Wren,5772656e-2e6b-4696-9361-645f70636258,rev?*%
%TF.SameCoordinates,Original*%
%TF.FileFunction,Soldermask,Top*%
%TF.FilePolarity,Negative*%
%FSLAX46Y46*%
G04 Gerber Fmt 4.6, Leading zero omitted, Abs format (unit mm)*
G04 Created by KiCad (PCBNEW 9.0.3) date 2025-11-25 10:19:29*
%MOMM*%
%LPD*%
G01*
G04 APERTURE LIST*
%ADD10C,1.750000*%
%ADD11C,4.000000*%
%ADD12C,2.500000*%
%ADD13C,3.200000*%
%ADD14C,3.600000*%
%ADD15C,2.109000*%
G04 APERTURE END LIST*
D10*
%TO.C,SW54*%
X360044929Y-177384623D03*
D11*
X365124929Y-177384623D03*
D10*
X370204929Y-177384623D03*
D12*
X361314929Y-174844623D03*
X367664929Y-172304623D03*
%TD*%
D10*
%TO.C,SW55*%
X379094929Y-177384623D03*
D11*
X384174929Y-177384623D03*
D10*
X389254929Y-177384623D03*
D12*
X380364929Y-174844623D03*
X386714929Y-172304623D03*
%TD*%
D10*
%TO.C,SW50*%
X283757761Y-193200312D03*
D11*
X288726751Y-192144121D03*
D10*
X293695741Y-191087930D03*
D12*
X284471913Y-190451770D03*
X290155054Y-186647036D03*
%TD*%
D10*
%TO.C,SW67*%
X347580333Y-218585583D03*
D11*
X352549323Y-217529392D03*
D10*
X357518313Y-216473201D03*
D12*
X348294485Y-215837041D03*
X353977626Y-212032307D03*
%TD*%
D10*
%TO.C,SW58*%
X311010591Y-206883106D03*
D11*
X315979581Y-205826915D03*
D10*
X320948571Y-204770724D03*
D12*
X311724743Y-204134564D03*
X317407884Y-200329830D03*
%TD*%
D10*
%TO.C,SW51*%
X302391473Y-189239594D03*
D11*
X307360463Y-188183403D03*
D10*
X312329453Y-187127212D03*
D12*
X303105625Y-186491052D03*
X308788766Y-182686318D03*
%TD*%
D10*
%TO.C,SW37*%
X299128637Y-150981971D03*
D11*
X304097627Y-149925780D03*
D10*
X309066617Y-148869589D03*
D12*
X299842789Y-148233429D03*
X305525930Y-144428695D03*
%TD*%
D13*
%TO.C,H10*%
X425000000Y-172000000D03*
%TD*%
%TO.C,H9*%
X350000000Y-130000000D03*
%TD*%
D10*
%TO.C,SW62*%
X388619929Y-196434623D03*
D11*
X393699929Y-196434623D03*
D10*
X398779929Y-196434623D03*
D12*
X389889929Y-193894623D03*
X396239929Y-191354623D03*
%TD*%
D10*
%TO.C,SW53*%
X339658897Y-181318159D03*
D11*
X344627887Y-180261968D03*
D10*
X349596877Y-179205777D03*
D12*
X340373049Y-178569617D03*
X346056190Y-174764883D03*
%TD*%
D10*
%TO.C,SW70*%
X407669929Y-215484623D03*
D11*
X412749929Y-215484623D03*
D10*
X417829929Y-215484623D03*
D12*
X408939929Y-212944623D03*
X415289929Y-210404623D03*
%TD*%
D13*
%TO.C,H8*%
X364000000Y-227000000D03*
%TD*%
D10*
%TO.C,SW45*%
X312406067Y-167635365D03*
D11*
X317375057Y-166579174D03*
D10*
X322344047Y-165522983D03*
D12*
X313120219Y-164886823D03*
X318803360Y-161082089D03*
%TD*%
D10*
%TO.C,SW59*%
X329644303Y-202922388D03*
D11*
X334613293Y-201866197D03*
D10*
X339582283Y-200810006D03*
D12*
X330358455Y-200173846D03*
X336041596Y-196369112D03*
%TD*%
D13*
%TO.C,H6*%
X273000000Y-162000000D03*
%TD*%
D10*
%TO.C,SW64*%
X291679197Y-230467736D03*
D11*
X296648187Y-229411545D03*
D10*
X301617177Y-228355354D03*
D12*
X292393349Y-227719194D03*
X298076490Y-223914460D03*
%TD*%
D10*
%TO.C,SW36*%
X280494925Y-154942688D03*
D11*
X285463915Y-153886497D03*
D10*
X290432905Y-152830306D03*
D12*
X281209077Y-152194146D03*
X286892218Y-148389412D03*
%TD*%
D10*
%TO.C,SW63*%
X407669929Y-196434623D03*
D11*
X412749929Y-196434623D03*
D10*
X417829929Y-196434623D03*
D12*
X408939929Y-193894623D03*
X415289929Y-191354623D03*
%TD*%
D10*
%TO.C,SW41*%
X375415048Y-139284629D03*
D11*
X380495048Y-139284629D03*
D10*
X385575048Y-139284629D03*
D12*
X376685048Y-136744629D03*
X383035048Y-134204629D03*
%TD*%
D10*
%TO.C,SW43*%
X275138643Y-175556800D03*
D11*
X280107633Y-174500609D03*
D10*
X285076623Y-173444418D03*
D12*
X275852795Y-172808258D03*
X281535936Y-169003524D03*
%TD*%
D10*
%TO.C,SW40*%
X356365048Y-137784229D03*
D11*
X361445048Y-137784229D03*
D10*
X366525048Y-137784229D03*
D12*
X357635048Y-135244229D03*
X363985048Y-132704229D03*
%TD*%
D14*
%TO.C,J1*%
X417250000Y-178600000D03*
%TD*%
D10*
%TO.C,SW56*%
X398144929Y-177384623D03*
D11*
X403224929Y-177384623D03*
D10*
X408304929Y-177384623D03*
D12*
X399414929Y-174844623D03*
X405764929Y-172304623D03*
%TD*%
D10*
%TO.C,SW52*%
X321025185Y-185278876D03*
D11*
X325994175Y-184222685D03*
D10*
X330963165Y-183166494D03*
D12*
X321739337Y-182530334D03*
X327422478Y-178725600D03*
%TD*%
D10*
%TO.C,SW46*%
X331039779Y-163674647D03*
D11*
X336008769Y-162618456D03*
D10*
X340977759Y-161562265D03*
D12*
X331753931Y-160926105D03*
X337437072Y-157121371D03*
%TD*%
D10*
%TO.C,SW44*%
X293772355Y-171596082D03*
D11*
X298741345Y-170539891D03*
D10*
X303710335Y-169483700D03*
D12*
X294486507Y-168847540D03*
X300169648Y-165042806D03*
%TD*%
D13*
%TO.C,H7*%
X281000000Y-218000000D03*
%TD*%
D10*
%TO.C,SW61*%
X369569929Y-196434623D03*
D11*
X374649929Y-196434623D03*
D10*
X379729929Y-196434623D03*
D12*
X370839929Y-193894623D03*
X377189929Y-191354623D03*
%TD*%
D10*
%TO.C,SW38*%
X317762349Y-147021253D03*
D11*
X322731339Y-145965062D03*
D10*
X327700329Y-144908871D03*
D12*
X318476501Y-144272711D03*
X324159642Y-140467977D03*
%TD*%
D10*
%TO.C,SW49*%
X389104929Y-158334623D03*
D11*
X394184929Y-158334623D03*
D10*
X399264929Y-158334623D03*
D12*
X390374929Y-155794623D03*
X396724929Y-153254623D03*
%TD*%
D10*
%TO.C,SW60*%
X348278015Y-198961671D03*
D11*
X353247005Y-197905480D03*
D10*
X358215995Y-196849289D03*
D12*
X348992167Y-196213129D03*
X354675308Y-192408395D03*
%TD*%
D10*
%TO.C,SW68*%
X369569929Y-215484623D03*
D11*
X374649929Y-215484623D03*
D10*
X379729929Y-215484623D03*
D12*
X370839929Y-212944623D03*
X377189929Y-210404623D03*
%TD*%
D10*
%TO.C,SW65*%
X310312909Y-226507018D03*
D11*
X315281899Y-225450827D03*
D10*
X320250889Y-224394636D03*
D12*
X311027061Y-223758476D03*
X316710202Y-219953742D03*
%TD*%
D10*
%TO.C,SW39*%
X336396061Y-143060535D03*
D11*
X341365051Y-142004344D03*
D10*
X346334041Y-140948153D03*
D12*
X337110213Y-140311993D03*
X342793354Y-136507259D03*
%TD*%
D10*
%TO.C,SW66*%
X328946621Y-222546301D03*
D11*
X333915611Y-221490110D03*
D10*
X338884601Y-220433919D03*
D12*
X329660773Y-219797759D03*
X335343914Y-215993025D03*
%TD*%
D14*
%TO.C,J2*%
X417250000Y-184250000D03*
%TD*%
D10*
%TO.C,SW69*%
X388619929Y-215484623D03*
D11*
X393699929Y-215484623D03*
D10*
X398779929Y-215484623D03*
D12*
X389889929Y-212944623D03*
X396239929Y-210404623D03*
%TD*%
D10*
%TO.C,SW42*%
X394465048Y-139284629D03*
D11*
X399545048Y-139284629D03*
D10*
X404625048Y-139284629D03*
D12*
X395735048Y-136744629D03*
X402085048Y-134204629D03*
%TD*%
D10*
%TO.C,SW57*%
X292376879Y-210843824D03*
D11*
X297345869Y-209787633D03*
D10*
X302314859Y-208731442D03*
D12*
X293091031Y-208095282D03*
X298774172Y-204290548D03*
%TD*%
D10*
%TO.C,SW47*%
X349673442Y-159713929D03*
D11*
X354642432Y-158657738D03*
D10*
X359611422Y-157601547D03*
D12*
X350387594Y-156965387D03*
X356070735Y-153160653D03*
%TD*%
D10*
%TO.C,SW48*%
X370054929Y-158334623D03*
D11*
X375134929Y-158334623D03*
D10*
X380214929Y-158334623D03*
D12*
X371324929Y-155794623D03*
X377674929Y-153254623D03*
%TD*%
D15*
%TO.C,U2*%
X411380000Y-147880000D03*
X411380000Y-145340000D03*
X411380000Y-142800000D03*
X411380000Y-140260000D03*
X411380000Y-135180000D03*
X411380000Y-137720000D03*
X426620000Y-130100000D03*
X411380000Y-130100000D03*
X426620000Y-132640000D03*
X426620000Y-135180000D03*
X426620000Y-137720000D03*
X426620000Y-140260000D03*
X426620000Y-142800000D03*
X426620000Y-145340000D03*
X426620000Y-147880000D03*
X411380000Y-132640000D03*
%TD*%
M02*
