%TF.GenerationSoftware,KiCad,Pcbnew,9.0.3*%
%TF.CreationDate,2025-11-25T10:19:29-05:00*%
%TF.ProjectId,Wren,5772656e-2e6b-4696-9361-645f70636258,rev?*%
%TF.SameCoordinates,Original*%
%TF.FileFunction,Soldermask,Bot*%
%TF.FilePolarity,Negative*%
%FSLAX46Y46*%
G04 Gerber Fmt 4.6, Leading zero omitted, Abs format (unit mm)*
G04 Created by KiCad (PCBNEW 9.0.3) date 2025-11-25 10:19:29*
%MOMM*%
%LPD*%
G01*
G04 APERTURE LIST*
G04 Aperture macros list*
%AMRoundRect*
0 Rectangle with rounded corners*
0 $1 Rounding radius*
0 $2 $3 $4 $5 $6 $7 $8 $9 X,Y pos of 4 corners*
0 Add a 4 corners polygon primitive as box body*
4,1,4,$2,$3,$4,$5,$6,$7,$8,$9,$2,$3,0*
0 Add four circle primitives for the rounded corners*
1,1,$1+$1,$2,$3*
1,1,$1+$1,$4,$5*
1,1,$1+$1,$6,$7*
1,1,$1+$1,$8,$9*
0 Add four rect primitives between the rounded corners*
20,1,$1+$1,$2,$3,$4,$5,0*
20,1,$1+$1,$4,$5,$6,$7,0*
20,1,$1+$1,$6,$7,$8,$9,0*
20,1,$1+$1,$8,$9,$2,$3,0*%
%AMRotRect*
0 Rectangle, with rotation*
0 The origin of the aperture is its center*
0 $1 length*
0 $2 width*
0 $3 Rotation angle, in degrees counterclockwise*
0 Add horizontal line*
21,1,$1,$2,0,0,$3*%
%AMOutline5P*
0 Free polygon, 5 corners , with rotation*
0 The origin of the aperture is its center*
0 number of corners: always 5*
0 $1 to $10 corner X, Y*
0 $11 Rotation angle, in degrees counterclockwise*
0 create outline with 5 corners*
4,1,5,$1,$2,$3,$4,$5,$6,$7,$8,$9,$10,$1,$2,$11*%
%AMOutline6P*
0 Free polygon, 6 corners , with rotation*
0 The origin of the aperture is its center*
0 number of corners: always 6*
0 $1 to $12 corner X, Y*
0 $13 Rotation angle, in degrees counterclockwise*
0 create outline with 6 corners*
4,1,6,$1,$2,$3,$4,$5,$6,$7,$8,$9,$10,$11,$12,$1,$2,$13*%
%AMOutline7P*
0 Free polygon, 7 corners , with rotation*
0 The origin of the aperture is its center*
0 number of corners: always 7*
0 $1 to $14 corner X, Y*
0 $15 Rotation angle, in degrees counterclockwise*
0 create outline with 7 corners*
4,1,7,$1,$2,$3,$4,$5,$6,$7,$8,$9,$10,$11,$12,$13,$14,$1,$2,$15*%
%AMOutline8P*
0 Free polygon, 8 corners , with rotation*
0 The origin of the aperture is its center*
0 number of corners: always 8*
0 $1 to $16 corner X, Y*
0 $17 Rotation angle, in degrees counterclockwise*
0 create outline with 8 corners*
4,1,8,$1,$2,$3,$4,$5,$6,$7,$8,$9,$10,$11,$12,$13,$14,$15,$16,$1,$2,$17*%
G04 Aperture macros list end*
%ADD10C,1.750000*%
%ADD11C,4.000000*%
%ADD12C,2.500000*%
%ADD13C,3.200000*%
%ADD14C,3.600000*%
%ADD15RoundRect,0.250000X0.231367X0.534790X-0.428883X0.394450X-0.231367X-0.534790X0.428883X-0.394450X0*%
%ADD16RoundRect,0.250000X0.625000X-0.375000X0.625000X0.375000X-0.625000X0.375000X-0.625000X-0.375000X0*%
%ADD17R,1.800000X0.820000*%
%ADD18Outline5P,-0.900000X0.410000X0.900000X0.410000X0.900000X-0.246000X0.736000X-0.410000X-0.900000X-0.410000X0.000000*%
%ADD19RoundRect,0.250000X0.337500X0.475000X-0.337500X0.475000X-0.337500X-0.475000X0.337500X-0.475000X0*%
%ADD20RotRect,1.800000X0.820000X12.000000*%
%ADD21Outline5P,-0.900000X0.410000X0.900000X0.410000X0.900000X-0.246000X0.736000X-0.410000X-0.900000X-0.410000X12.000000*%
%ADD22RoundRect,0.250000X0.689309X-0.236861X0.533375X0.496750X-0.689309X0.236861X-0.533375X-0.496750X0*%
%ADD23C,2.109000*%
G04 APERTURE END LIST*
D10*
%TO.C,SW54*%
X360044929Y-177384623D03*
D11*
X365124929Y-177384623D03*
D10*
X370204929Y-177384623D03*
D12*
X361314929Y-174844623D03*
X367664929Y-172304623D03*
%TD*%
D10*
%TO.C,SW55*%
X379094929Y-177384623D03*
D11*
X384174929Y-177384623D03*
D10*
X389254929Y-177384623D03*
D12*
X380364929Y-174844623D03*
X386714929Y-172304623D03*
%TD*%
D10*
%TO.C,SW50*%
X283757761Y-193200312D03*
D11*
X288726751Y-192144121D03*
D10*
X293695741Y-191087930D03*
D12*
X284471913Y-190451770D03*
X290155054Y-186647036D03*
%TD*%
D10*
%TO.C,SW67*%
X347580333Y-218585583D03*
D11*
X352549323Y-217529392D03*
D10*
X357518313Y-216473201D03*
D12*
X348294485Y-215837041D03*
X353977626Y-212032307D03*
%TD*%
D10*
%TO.C,SW58*%
X311010591Y-206883106D03*
D11*
X315979581Y-205826915D03*
D10*
X320948571Y-204770724D03*
D12*
X311724743Y-204134564D03*
X317407884Y-200329830D03*
%TD*%
D10*
%TO.C,SW51*%
X302391473Y-189239594D03*
D11*
X307360463Y-188183403D03*
D10*
X312329453Y-187127212D03*
D12*
X303105625Y-186491052D03*
X308788766Y-182686318D03*
%TD*%
D10*
%TO.C,SW37*%
X299128637Y-150981971D03*
D11*
X304097627Y-149925780D03*
D10*
X309066617Y-148869589D03*
D12*
X299842789Y-148233429D03*
X305525930Y-144428695D03*
%TD*%
D13*
%TO.C,H10*%
X425000000Y-172000000D03*
%TD*%
%TO.C,H9*%
X350000000Y-130000000D03*
%TD*%
D10*
%TO.C,SW62*%
X388619929Y-196434623D03*
D11*
X393699929Y-196434623D03*
D10*
X398779929Y-196434623D03*
D12*
X389889929Y-193894623D03*
X396239929Y-191354623D03*
%TD*%
D10*
%TO.C,SW53*%
X339658897Y-181318159D03*
D11*
X344627887Y-180261968D03*
D10*
X349596877Y-179205777D03*
D12*
X340373049Y-178569617D03*
X346056190Y-174764883D03*
%TD*%
D10*
%TO.C,SW70*%
X407669929Y-215484623D03*
D11*
X412749929Y-215484623D03*
D10*
X417829929Y-215484623D03*
D12*
X408939929Y-212944623D03*
X415289929Y-210404623D03*
%TD*%
D13*
%TO.C,H8*%
X364000000Y-227000000D03*
%TD*%
D10*
%TO.C,SW45*%
X312406067Y-167635365D03*
D11*
X317375057Y-166579174D03*
D10*
X322344047Y-165522983D03*
D12*
X313120219Y-164886823D03*
X318803360Y-161082089D03*
%TD*%
D10*
%TO.C,SW59*%
X329644303Y-202922388D03*
D11*
X334613293Y-201866197D03*
D10*
X339582283Y-200810006D03*
D12*
X330358455Y-200173846D03*
X336041596Y-196369112D03*
%TD*%
D13*
%TO.C,H6*%
X273000000Y-162000000D03*
%TD*%
D10*
%TO.C,SW64*%
X291679197Y-230467736D03*
D11*
X296648187Y-229411545D03*
D10*
X301617177Y-228355354D03*
D12*
X292393349Y-227719194D03*
X298076490Y-223914460D03*
%TD*%
D10*
%TO.C,SW36*%
X280494925Y-154942688D03*
D11*
X285463915Y-153886497D03*
D10*
X290432905Y-152830306D03*
D12*
X281209077Y-152194146D03*
X286892218Y-148389412D03*
%TD*%
D10*
%TO.C,SW63*%
X407669929Y-196434623D03*
D11*
X412749929Y-196434623D03*
D10*
X417829929Y-196434623D03*
D12*
X408939929Y-193894623D03*
X415289929Y-191354623D03*
%TD*%
D10*
%TO.C,SW41*%
X375415048Y-139284629D03*
D11*
X380495048Y-139284629D03*
D10*
X385575048Y-139284629D03*
D12*
X376685048Y-136744629D03*
X383035048Y-134204629D03*
%TD*%
D10*
%TO.C,SW43*%
X275138643Y-175556800D03*
D11*
X280107633Y-174500609D03*
D10*
X285076623Y-173444418D03*
D12*
X275852795Y-172808258D03*
X281535936Y-169003524D03*
%TD*%
D10*
%TO.C,SW40*%
X356365048Y-137784229D03*
D11*
X361445048Y-137784229D03*
D10*
X366525048Y-137784229D03*
D12*
X357635048Y-135244229D03*
X363985048Y-132704229D03*
%TD*%
D14*
%TO.C,J1*%
X417250000Y-178600000D03*
%TD*%
D10*
%TO.C,SW56*%
X398144929Y-177384623D03*
D11*
X403224929Y-177384623D03*
D10*
X408304929Y-177384623D03*
D12*
X399414929Y-174844623D03*
X405764929Y-172304623D03*
%TD*%
D10*
%TO.C,SW52*%
X321025185Y-185278876D03*
D11*
X325994175Y-184222685D03*
D10*
X330963165Y-183166494D03*
D12*
X321739337Y-182530334D03*
X327422478Y-178725600D03*
%TD*%
D10*
%TO.C,SW46*%
X331039779Y-163674647D03*
D11*
X336008769Y-162618456D03*
D10*
X340977759Y-161562265D03*
D12*
X331753931Y-160926105D03*
X337437072Y-157121371D03*
%TD*%
D10*
%TO.C,SW44*%
X293772355Y-171596082D03*
D11*
X298741345Y-170539891D03*
D10*
X303710335Y-169483700D03*
D12*
X294486507Y-168847540D03*
X300169648Y-165042806D03*
%TD*%
D13*
%TO.C,H7*%
X281000000Y-218000000D03*
%TD*%
D10*
%TO.C,SW61*%
X369569929Y-196434623D03*
D11*
X374649929Y-196434623D03*
D10*
X379729929Y-196434623D03*
D12*
X370839929Y-193894623D03*
X377189929Y-191354623D03*
%TD*%
D10*
%TO.C,SW38*%
X317762349Y-147021253D03*
D11*
X322731339Y-145965062D03*
D10*
X327700329Y-144908871D03*
D12*
X318476501Y-144272711D03*
X324159642Y-140467977D03*
%TD*%
D10*
%TO.C,SW49*%
X389104929Y-158334623D03*
D11*
X394184929Y-158334623D03*
D10*
X399264929Y-158334623D03*
D12*
X390374929Y-155794623D03*
X396724929Y-153254623D03*
%TD*%
D10*
%TO.C,SW60*%
X348278015Y-198961671D03*
D11*
X353247005Y-197905480D03*
D10*
X358215995Y-196849289D03*
D12*
X348992167Y-196213129D03*
X354675308Y-192408395D03*
%TD*%
D10*
%TO.C,SW68*%
X369569929Y-215484623D03*
D11*
X374649929Y-215484623D03*
D10*
X379729929Y-215484623D03*
D12*
X370839929Y-212944623D03*
X377189929Y-210404623D03*
%TD*%
D10*
%TO.C,SW65*%
X310312909Y-226507018D03*
D11*
X315281899Y-225450827D03*
D10*
X320250889Y-224394636D03*
D12*
X311027061Y-223758476D03*
X316710202Y-219953742D03*
%TD*%
D10*
%TO.C,SW39*%
X336396061Y-143060535D03*
D11*
X341365051Y-142004344D03*
D10*
X346334041Y-140948153D03*
D12*
X337110213Y-140311993D03*
X342793354Y-136507259D03*
%TD*%
D10*
%TO.C,SW66*%
X328946621Y-222546301D03*
D11*
X333915611Y-221490110D03*
D10*
X338884601Y-220433919D03*
D12*
X329660773Y-219797759D03*
X335343914Y-215993025D03*
%TD*%
D14*
%TO.C,J2*%
X417250000Y-184250000D03*
%TD*%
D10*
%TO.C,SW69*%
X388619929Y-215484623D03*
D11*
X393699929Y-215484623D03*
D10*
X398779929Y-215484623D03*
D12*
X389889929Y-212944623D03*
X396239929Y-210404623D03*
%TD*%
D10*
%TO.C,SW42*%
X394465048Y-139284629D03*
D11*
X399545048Y-139284629D03*
D10*
X404625048Y-139284629D03*
D12*
X395735048Y-136744629D03*
X402085048Y-134204629D03*
%TD*%
D10*
%TO.C,SW57*%
X292376879Y-210843824D03*
D11*
X297345869Y-209787633D03*
D10*
X302314859Y-208731442D03*
D12*
X293091031Y-208095282D03*
X298774172Y-204290548D03*
%TD*%
D10*
%TO.C,SW47*%
X349673442Y-159713929D03*
D11*
X354642432Y-158657738D03*
D10*
X359611422Y-157601547D03*
D12*
X350387594Y-156965387D03*
X356070735Y-153160653D03*
%TD*%
D10*
%TO.C,SW48*%
X370054929Y-158334623D03*
D11*
X375134929Y-158334623D03*
D10*
X380214929Y-158334623D03*
D12*
X371324929Y-155794623D03*
X377674929Y-153254623D03*
%TD*%
D15*
%TO.C,C60*%
X355992177Y-205830405D03*
X353962521Y-206261821D03*
%TD*%
D16*
%TO.C,D90*%
X392542929Y-175107123D03*
X392542929Y-172307123D03*
%TD*%
D17*
%TO.C,D112*%
X396945048Y-145359629D03*
D18*
X402145048Y-145359629D03*
D17*
X402145048Y-143859629D03*
X396945048Y-143859629D03*
%TD*%
D19*
%TO.C,C41*%
X381532548Y-147607129D03*
X379457548Y-147607129D03*
%TD*%
D16*
%TO.C,D97*%
X402067929Y-194157123D03*
X402067929Y-191357123D03*
%TD*%
D17*
%TO.C,D139*%
X391099929Y-221559623D03*
D18*
X396299929Y-221559623D03*
D17*
X396299929Y-220059623D03*
X391099929Y-220059623D03*
%TD*%
D16*
%TO.C,D98*%
X421117929Y-194157123D03*
X421117929Y-191357123D03*
%TD*%
D15*
%TO.C,C65*%
X318027072Y-233375753D03*
X315997416Y-233807169D03*
%TD*%
D20*
%TO.C,D127*%
X296065749Y-216270450D03*
D21*
X301152118Y-215189309D03*
D20*
X300840249Y-213722088D03*
X295753880Y-214803229D03*
%TD*%
D16*
%TO.C,D77*%
X407913048Y-137007129D03*
X407913048Y-134207129D03*
%TD*%
D15*
%TO.C,C66*%
X336660784Y-229415035D03*
X334631128Y-229846451D03*
%TD*%
D17*
%TO.C,D140*%
X410149929Y-221559623D03*
D18*
X415349929Y-221559623D03*
D17*
X415349929Y-220059623D03*
X410149929Y-220059623D03*
%TD*%
D20*
%TO.C,D109*%
X340084930Y-148487161D03*
D21*
X345171299Y-147406020D03*
D20*
X344859430Y-145938799D03*
X339773061Y-147019940D03*
%TD*%
D22*
%TO.C,D82*%
X362354052Y-154690202D03*
X361771900Y-151951388D03*
%TD*%
D19*
%TO.C,C55*%
X385212429Y-185707123D03*
X383137429Y-185707123D03*
%TD*%
%TO.C,C48*%
X376172429Y-166657123D03*
X374097429Y-166657123D03*
%TD*%
D17*
%TO.C,D124*%
X362524929Y-183459623D03*
D18*
X367724929Y-183459623D03*
D17*
X367724929Y-181959623D03*
X362524929Y-181959623D03*
%TD*%
D19*
%TO.C,C40*%
X362482548Y-146106729D03*
X360407548Y-146106729D03*
%TD*%
D15*
%TO.C,C52*%
X328739348Y-192147611D03*
X326709692Y-192579027D03*
%TD*%
%TO.C,C37*%
X306842800Y-157850705D03*
X304813144Y-158282121D03*
%TD*%
D22*
%TO.C,D87*%
X333705794Y-180255149D03*
X333123642Y-177516335D03*
%TD*%
D17*
%TO.C,D133*%
X410149929Y-202509623D03*
D18*
X415349929Y-202509623D03*
D17*
X415349929Y-201009623D03*
X410149929Y-201009623D03*
%TD*%
D15*
%TO.C,C44*%
X301486518Y-178464817D03*
X299456862Y-178896233D03*
%TD*%
D22*
%TO.C,D95*%
X360958624Y-193937944D03*
X360376472Y-191199130D03*
%TD*%
%TO.C,D101*%
X341627231Y-217522574D03*
X341045079Y-214783760D03*
%TD*%
D19*
%TO.C,C61*%
X375687429Y-204757123D03*
X373612429Y-204757123D03*
%TD*%
%TO.C,C68*%
X375687429Y-223807123D03*
X373612429Y-223807123D03*
%TD*%
D20*
%TO.C,D116*%
X334728648Y-169101273D03*
D21*
X339815017Y-168020132D03*
D20*
X339503148Y-166552911D03*
X334416779Y-167634052D03*
%TD*%
D22*
%TO.C,D93*%
X323691201Y-201859379D03*
X323109049Y-199120565D03*
%TD*%
D19*
%TO.C,C49*%
X395222429Y-166657123D03*
X393147429Y-166657123D03*
%TD*%
D17*
%TO.C,D131*%
X372049929Y-202509623D03*
D18*
X377249929Y-202509623D03*
D17*
X377249929Y-201009623D03*
X372049929Y-201009623D03*
%TD*%
D15*
%TO.C,C50*%
X291471924Y-200069046D03*
X289442268Y-200500462D03*
%TD*%
D19*
%TO.C,C62*%
X394737429Y-204757123D03*
X392662429Y-204757123D03*
%TD*%
D22*
%TO.C,D71*%
X293175535Y-149918962D03*
X292593383Y-147180148D03*
%TD*%
%TO.C,D81*%
X343720388Y-158650920D03*
X343138236Y-155912106D03*
%TD*%
D17*
%TO.C,D138*%
X372049929Y-221559623D03*
D18*
X377249929Y-221559623D03*
D17*
X377249929Y-220059623D03*
X372049929Y-220059623D03*
%TD*%
D22*
%TO.C,D80*%
X325086676Y-162611638D03*
X324504524Y-159872824D03*
%TD*%
%TO.C,D72*%
X311809247Y-145958244D03*
X311227095Y-143219430D03*
%TD*%
D17*
%TO.C,D118*%
X372534929Y-164409623D03*
D18*
X377734929Y-164409623D03*
D17*
X377734929Y-162909623D03*
X372534929Y-162909623D03*
%TD*%
D15*
%TO.C,C58*%
X318724754Y-213751840D03*
X316695098Y-214183256D03*
%TD*%
D22*
%TO.C,D94*%
X342324912Y-197898662D03*
X341742760Y-195159848D03*
%TD*%
D16*
%TO.C,D76*%
X388863048Y-137007129D03*
X388863048Y-134207129D03*
%TD*%
D22*
%TO.C,D92*%
X305057489Y-205820097D03*
X304475337Y-203081283D03*
%TD*%
D20*
%TO.C,D114*%
X297461224Y-177022708D03*
D21*
X302547593Y-175941567D03*
D20*
X302235724Y-174474346D03*
X297149355Y-175555487D03*
%TD*%
D16*
%TO.C,D89*%
X373492929Y-175107123D03*
X373492929Y-172307123D03*
%TD*%
D20*
%TO.C,D137*%
X351269202Y-224012209D03*
D21*
X356355571Y-222931068D03*
D20*
X356043702Y-221463847D03*
X350957333Y-222544988D03*
%TD*%
%TO.C,D120*%
X287446631Y-198626938D03*
D21*
X292533000Y-197545797D03*
D20*
X292221131Y-196078576D03*
X287134762Y-197159717D03*
%TD*%
D15*
%TO.C,C67*%
X355294495Y-225454317D03*
X353264839Y-225885733D03*
%TD*%
D19*
%TO.C,C63*%
X413787429Y-204757123D03*
X411712429Y-204757123D03*
%TD*%
D16*
%TO.C,D105*%
X421117929Y-213207123D03*
X421117929Y-210407123D03*
%TD*%
D20*
%TO.C,D130*%
X351966884Y-204388297D03*
D21*
X357053253Y-203307156D03*
D20*
X356741384Y-201839935D03*
X351655015Y-202921076D03*
%TD*%
%TO.C,D107*%
X302817507Y-156408597D03*
D21*
X307903876Y-155327456D03*
D20*
X307592007Y-153860235D03*
X302505638Y-154941376D03*
%TD*%
%TO.C,D123*%
X343347766Y-186744785D03*
D21*
X348434135Y-185663644D03*
D20*
X348122266Y-184196423D03*
X343035897Y-185277564D03*
%TD*%
%TO.C,D128*%
X314699460Y-212309732D03*
D21*
X319785829Y-211228591D03*
D20*
X319473960Y-209761370D03*
X314387591Y-210842511D03*
%TD*%
D16*
%TO.C,D75*%
X369813048Y-135506729D03*
X369813048Y-132706729D03*
%TD*%
D20*
%TO.C,D113*%
X278827513Y-180983426D03*
D21*
X283913882Y-179902285D03*
D20*
X283602013Y-178435064D03*
X278515644Y-179516205D03*
%TD*%
%TO.C,D108*%
X321451218Y-152447879D03*
D21*
X326537587Y-151366738D03*
D20*
X326225718Y-149899517D03*
X321139349Y-150980658D03*
%TD*%
D16*
%TO.C,D103*%
X383017929Y-213207123D03*
X383017929Y-210407123D03*
%TD*%
%TO.C,D91*%
X411592929Y-175107123D03*
X411592929Y-172307123D03*
%TD*%
D15*
%TO.C,C46*%
X338753941Y-170543381D03*
X336724285Y-170974797D03*
%TD*%
D20*
%TO.C,D117*%
X353362312Y-165140555D03*
D21*
X358448681Y-164059414D03*
D20*
X358136812Y-162592193D03*
X353050443Y-163673334D03*
%TD*%
D17*
%TO.C,D132*%
X391099929Y-202509623D03*
D18*
X396299929Y-202509623D03*
D17*
X396299929Y-201009623D03*
X391099929Y-201009623D03*
%TD*%
D22*
%TO.C,D102*%
X360260942Y-213561856D03*
X359678790Y-210823042D03*
%TD*%
D19*
%TO.C,C69*%
X394737429Y-223807123D03*
X392662429Y-223807123D03*
%TD*%
D20*
%TO.C,D122*%
X324714054Y-190705502D03*
D21*
X329800423Y-189624361D03*
D20*
X329488554Y-188157140D03*
X324402185Y-189238281D03*
%TD*%
D22*
%TO.C,D99*%
X304359807Y-225444009D03*
X303777655Y-222705195D03*
%TD*%
D20*
%TO.C,D136*%
X332635490Y-227972927D03*
D21*
X337721859Y-226891786D03*
D20*
X337409990Y-225424565D03*
X332323621Y-226505706D03*
%TD*%
D19*
%TO.C,C56*%
X404262429Y-185707123D03*
X402187429Y-185707123D03*
%TD*%
D15*
%TO.C,C39*%
X344110223Y-149929270D03*
X342080567Y-150360686D03*
%TD*%
D20*
%TO.C,D129*%
X333333172Y-208349014D03*
D21*
X338419541Y-207267873D03*
D20*
X338107672Y-205800652D03*
X333021303Y-206881793D03*
%TD*%
D19*
%TO.C,C54*%
X366162429Y-185707123D03*
X364087429Y-185707123D03*
%TD*%
D22*
%TO.C,D88*%
X352339506Y-176294432D03*
X351757354Y-173555618D03*
%TD*%
D15*
%TO.C,C64*%
X299393360Y-237336470D03*
X297363704Y-237767886D03*
%TD*%
%TO.C,C43*%
X282852806Y-182425535D03*
X280823150Y-182856951D03*
%TD*%
%TO.C,C47*%
X357387605Y-166582663D03*
X355357949Y-167014079D03*
%TD*%
D20*
%TO.C,D121*%
X306080342Y-194666220D03*
D21*
X311166711Y-193585079D03*
D20*
X310854842Y-192117858D03*
X305768473Y-193198999D03*
%TD*%
D15*
%TO.C,C38*%
X325476512Y-153889987D03*
X323446856Y-154321403D03*
%TD*%
D20*
%TO.C,D135*%
X314001779Y-231933644D03*
D21*
X319088148Y-230852503D03*
D20*
X318776279Y-229385282D03*
X313689910Y-230466423D03*
%TD*%
D15*
%TO.C,C51*%
X310105636Y-196108328D03*
X308075980Y-196539744D03*
%TD*%
D16*
%TO.C,D104*%
X402067929Y-213207123D03*
X402067929Y-210407123D03*
%TD*%
D20*
%TO.C,D106*%
X284183795Y-160369314D03*
D21*
X289270164Y-159288173D03*
D20*
X288958295Y-157820952D03*
X283871926Y-158902093D03*
%TD*%
D22*
%TO.C,D74*%
X349076670Y-138036809D03*
X348494518Y-135297995D03*
%TD*%
D20*
%TO.C,D115*%
X316094936Y-173061991D03*
D21*
X321181305Y-171980850D03*
D20*
X320869436Y-170513629D03*
X315783067Y-171594770D03*
%TD*%
D22*
%TO.C,D85*%
X296438371Y-188176585D03*
X295856219Y-185437771D03*
%TD*%
D17*
%TO.C,D125*%
X381574929Y-183459623D03*
D18*
X386774929Y-183459623D03*
D17*
X386774929Y-181959623D03*
X381574929Y-181959623D03*
%TD*%
D22*
%TO.C,D86*%
X315072083Y-184215867D03*
X314489931Y-181477053D03*
%TD*%
%TO.C,D78*%
X287819253Y-170533073D03*
X287237101Y-167794259D03*
%TD*%
D16*
%TO.C,D83*%
X383502929Y-156057123D03*
X383502929Y-153257123D03*
%TD*%
D20*
%TO.C,D134*%
X295368067Y-235894362D03*
D21*
X300454436Y-234813221D03*
D20*
X300142567Y-233346000D03*
X295056198Y-234427141D03*
%TD*%
D17*
%TO.C,D119*%
X391584929Y-164409623D03*
D18*
X396784929Y-164409623D03*
D17*
X396784929Y-162909623D03*
X391584929Y-162909623D03*
%TD*%
D19*
%TO.C,C70*%
X413787429Y-223807123D03*
X411712429Y-223807123D03*
%TD*%
D15*
%TO.C,C45*%
X320120230Y-174504099D03*
X318090574Y-174935515D03*
%TD*%
D17*
%TO.C,D126*%
X400624929Y-183459623D03*
D18*
X405824929Y-183459623D03*
D17*
X405824929Y-181959623D03*
X400624929Y-181959623D03*
%TD*%
D16*
%TO.C,D84*%
X402552929Y-156057123D03*
X402552929Y-153257123D03*
%TD*%
D15*
%TO.C,C36*%
X288209088Y-161811423D03*
X286179432Y-162242839D03*
%TD*%
D19*
%TO.C,C42*%
X400582548Y-147607129D03*
X398507548Y-147607129D03*
%TD*%
D22*
%TO.C,D100*%
X322993519Y-221483292D03*
X322411367Y-218744478D03*
%TD*%
D23*
%TO.C,U2*%
X411380000Y-147880000D03*
X411380000Y-145340000D03*
X411380000Y-142800000D03*
X411380000Y-140260000D03*
X411380000Y-135180000D03*
X411380000Y-137720000D03*
X426620000Y-130100000D03*
X411380000Y-130100000D03*
X426620000Y-132640000D03*
X426620000Y-135180000D03*
X426620000Y-137720000D03*
X426620000Y-140260000D03*
X426620000Y-142800000D03*
X426620000Y-145340000D03*
X426620000Y-147880000D03*
X411380000Y-132640000D03*
%TD*%
D17*
%TO.C,D111*%
X377895048Y-145359629D03*
D18*
X383095048Y-145359629D03*
D17*
X383095048Y-143859629D03*
X377895048Y-143859629D03*
%TD*%
D22*
%TO.C,D79*%
X306452965Y-166572356D03*
X305870813Y-163833542D03*
%TD*%
D15*
%TO.C,C53*%
X347373059Y-188186893D03*
X345343403Y-188618309D03*
%TD*%
D16*
%TO.C,D96*%
X383017929Y-194157123D03*
X383017929Y-191357123D03*
%TD*%
D17*
%TO.C,D110*%
X358845048Y-143859229D03*
D18*
X364045048Y-143859229D03*
D17*
X364045048Y-142359229D03*
X358845048Y-142359229D03*
%TD*%
D15*
%TO.C,C59*%
X337358466Y-209791123D03*
X335328810Y-210222539D03*
%TD*%
%TO.C,C57*%
X300091042Y-217712558D03*
X298061386Y-218143974D03*
%TD*%
D22*
%TO.C,D73*%
X330442959Y-141997526D03*
X329860807Y-139258712D03*
%TD*%
M02*
