M48
; DRILL file {KiCad 9.0.3} date 2025-11-25T10:19:31-0500
; FORMAT={-:-/ absolute / inch / decimal}
; #@! TF.CreationDate,2025-11-25T10:19:31-05:00
; #@! TF.GenerationSoftware,Kicad,Pcbnew,9.0.3
; #@! TF.FileFunction,Plated,1,4,PTH
FMAT,2
INCH
; #@! TA.AperFunction,Plated,PTH,ViaDrill
T1C0.0118
; #@! TA.AperFunction,Plated,PTH,ComponentDrill
T2C0.0500
; #@! TA.AperFunction,Plated,PTH,ComponentDrill
T3C0.0591
; #@! TA.AperFunction,Plated,PTH,ComponentDrill
T4C0.0787
%
G90
G05
T1
X10.9589Y-7.0256
X11.0591Y-7.2559
X11.1654Y-6.2146
X11.1777Y-7.1339
X11.2717Y-6.4449
X11.2933Y-7.7185
X11.3886Y-6.3228
X11.3996Y-7.9508
X11.517Y-7.8287
X11.6063Y-9.187
X11.6319Y-8.4154
X11.689Y-6.8701
X11.7087Y-9.4173
X11.7382Y-8.6457
X11.7953Y-7.0984
X11.8289Y-9.2953
X11.8564Y-8.5236
X11.8996Y-6.0591
X11.9113Y-6.9783
X12.0039Y-6.2894
X12.0276Y-7.563
X12.1222Y-6.1654
X12.1339Y-7.7933
X12.2507Y-7.6732
X12.3406Y-9.0315
X12.3661Y-8.2579
X12.4213Y-6.7146
X12.4429Y-9.2618
X12.4705Y-8.4902
X12.5295Y-6.9429
X12.5625Y-9.1398
X12.59Y-8.3661
X12.6339Y-5.9016
X12.6449Y-6.8209
X12.7382Y-6.1339
X12.7618Y-7.4075
X12.8558Y-6.0098
X12.8642Y-7.6398
X12.9843Y-7.5157
X13.0728Y-8.876
X13.1004Y-8.1024
X13.1555Y-6.5571
X13.1791Y-9.1063
X13.2067Y-8.3327
X13.2618Y-6.7894
X13.2961Y-8.9843
X13.3236Y-8.2106
X13.3661Y-5.7461
X13.3785Y-6.6654
X13.4677Y-5.9705
X13.4941Y-7.252
X13.5894Y-5.8543
X13.5984Y-7.4843
X13.7179Y-7.3602
X13.8071Y-8.7205
X13.8346Y-7.9469
X13.8898Y-6.4016
X13.9173Y-8.9488
X13.9409Y-8.1772
X14.0043Y-6.6296
X14.0234Y-5.6597
X14.0297Y-8.8287
X14.0572Y-8.0551
X14.1122Y-6.5098
X14.1909Y-5.8091
X14.2717Y-7.1201
X14.3325Y-5.7138
X14.3631Y-7.3633
X14.4774Y-7.2729
X14.6457Y-7.8701
X14.6457Y-8.6201
X14.6614Y-6.3701
X14.7106Y-8.1181
X14.7126Y-8.8681
X14.7415Y-6.6168
X14.8524Y-8.0229
X14.8524Y-8.7729
X14.8714Y-6.523
X14.872Y-5.6181
X14.9429Y-5.8681
X15.0177Y-7.1201
X15.0825Y-5.7729
X15.1131Y-7.3633
X15.2274Y-7.2729
X15.3917Y-7.8681
X15.3937Y-8.6201
X15.4114Y-6.3681
X15.4626Y-8.1181
X15.4626Y-8.8681
X15.4925Y-6.6177
X15.602Y-8.0233
X15.602Y-8.7733
X15.6215Y-6.5229
X15.624Y-5.6181
X15.6909Y-5.8681
X15.7657Y-7.1161
X15.8322Y-5.7732
X15.8484Y-6.1969
X15.8631Y-7.3633
X15.9774Y-7.2729
X16.1417Y-7.8681
X16.1437Y-8.6201
X16.2047Y-6.9469
X16.2106Y-8.8681
X16.2126Y-8.1181
X16.352Y-8.0233
X16.3524Y-8.7729
X16.5827Y-7.6969
X16.5827Y-8.4469
T2
X16.1961Y-5.122
X16.1961Y-5.222
X16.1961Y-5.322
X16.1961Y-5.422
X16.1961Y-5.522
X16.1961Y-5.622
X16.1961Y-5.722
X16.1961Y-5.822
X16.7961Y-5.122
X16.7961Y-5.222
X16.7961Y-5.322
X16.7961Y-5.422
X16.7961Y-5.522
X16.7961Y-5.622
X16.7961Y-5.722
X16.7961Y-5.822
T3
X10.8603Y-6.8035
X11.0712Y-5.9919
X11.0841Y-6.6537
X11.1997Y-7.4981
X11.295Y-5.8421
X11.4234Y-7.3483
X11.5115Y-8.9653
X11.539Y-8.1927
X11.594Y-6.6475
X11.7353Y-8.8155
X11.7628Y-8.0429
X11.8048Y-5.836
X11.8177Y-6.4977
X11.9333Y-7.3422
X12.0286Y-5.6862
X12.157Y-7.1924
X12.2452Y-8.8094
X12.2726Y-8.0368
X12.3276Y-6.4916
X12.4689Y-8.6596
X12.4964Y-7.887
X12.5384Y-5.68
X12.5513Y-6.3418
X12.6669Y-7.1862
X12.7622Y-5.5302
X12.8906Y-7.0364
X12.9788Y-8.6535
X13.0062Y-7.8809
X13.0612Y-6.3357
X13.2025Y-8.5037
X13.23Y-7.7311
X13.2721Y-5.5241
X13.2849Y-6.1859
X13.4005Y-7.0303
X13.4958Y-5.3743
X13.6243Y-6.8805
X13.7124Y-8.4975
X13.7398Y-7.7249
X13.7948Y-6.1797
X13.9361Y-8.3477
X13.9636Y-7.5751
X14.0185Y-6.0299
X14.0801Y-5.3246
X14.225Y-6.8836
X14.3301Y-5.2246
X14.475Y-6.7836
X14.6Y-7.6336
X14.6Y-8.3836
X14.6191Y-6.1336
X14.8301Y-5.3836
X14.85Y-7.5336
X14.85Y-8.2836
X14.8691Y-6.0336
X14.975Y-6.8836
X15.0801Y-5.2836
X15.225Y-6.7836
X15.35Y-7.6336
X15.35Y-8.3836
X15.3691Y-6.1336
X15.5801Y-5.3836
X15.6Y-7.5336
X15.6Y-8.2836
X15.6191Y-6.0336
X15.725Y-6.8836
X15.8301Y-5.2836
X15.975Y-6.7836
X16.1Y-7.6336
X16.1Y-8.3836
X16.35Y-7.5336
X16.35Y-8.2836
T4
X16.4272Y-7.0315
X16.4272Y-7.2539
M30
