%TF.GenerationSoftware,KiCad,Pcbnew,9.0.3*%
%TF.CreationDate,2025-11-25T19:37:03-05:00*%
%TF.ProjectId,Wren,5772656e-2e6b-4696-9361-645f70636258,rev?*%
%TF.SameCoordinates,Original*%
%TF.FileFunction,Copper,L1,Top*%
%TF.FilePolarity,Positive*%
%FSLAX46Y46*%
G04 Gerber Fmt 4.6, Leading zero omitted, Abs format (unit mm)*
G04 Created by KiCad (PCBNEW 9.0.3) date 2025-11-25 19:37:03*
%MOMM*%
%LPD*%
G01*
G04 APERTURE LIST*
G04 Aperture macros list*
%AMRoundRect*
0 Rectangle with rounded corners*
0 $1 Rounding radius*
0 $2 $3 $4 $5 $6 $7 $8 $9 X,Y pos of 4 corners*
0 Add a 4 corners polygon primitive as box body*
4,1,4,$2,$3,$4,$5,$6,$7,$8,$9,$2,$3,0*
0 Add four circle primitives for the rounded corners*
1,1,$1+$1,$2,$3*
1,1,$1+$1,$4,$5*
1,1,$1+$1,$6,$7*
1,1,$1+$1,$8,$9*
0 Add four rect primitives between the rounded corners*
20,1,$1+$1,$2,$3,$4,$5,0*
20,1,$1+$1,$4,$5,$6,$7,0*
20,1,$1+$1,$6,$7,$8,$9,0*
20,1,$1+$1,$8,$9,$2,$3,0*%
G04 Aperture macros list end*
%TA.AperFunction,SMDPad,CuDef*%
%ADD10RoundRect,0.075000X-0.910000X-0.225000X0.910000X-0.225000X0.910000X0.225000X-0.910000X0.225000X0*%
%TD*%
%TA.AperFunction,SMDPad,CuDef*%
%ADD11R,2.413000X3.302000*%
%TD*%
%TA.AperFunction,SMDPad,CuDef*%
%ADD12RoundRect,0.143397X-0.616603X-0.696603X0.616603X-0.696603X0.616603X0.696603X-0.616603X0.696603X0*%
%TD*%
%TA.AperFunction,SMDPad,CuDef*%
%ADD13RoundRect,0.250000X0.337500X0.475000X-0.337500X0.475000X-0.337500X-0.475000X0.337500X-0.475000X0*%
%TD*%
%TA.AperFunction,SMDPad,CuDef*%
%ADD14RoundRect,0.250000X-0.475000X0.337500X-0.475000X-0.337500X0.475000X-0.337500X0.475000X0.337500X0*%
%TD*%
%TA.AperFunction,SMDPad,CuDef*%
%ADD15RoundRect,0.175000X-0.425000X0.175000X-0.425000X-0.175000X0.425000X-0.175000X0.425000X0.175000X0*%
%TD*%
%TA.AperFunction,SMDPad,CuDef*%
%ADD16RoundRect,0.190000X0.410000X-0.190000X0.410000X0.190000X-0.410000X0.190000X-0.410000X-0.190000X0*%
%TD*%
%TA.AperFunction,SMDPad,CuDef*%
%ADD17RoundRect,0.200000X0.400000X-0.200000X0.400000X0.200000X-0.400000X0.200000X-0.400000X-0.200000X0*%
%TD*%
%TA.AperFunction,SMDPad,CuDef*%
%ADD18RoundRect,0.175000X0.425000X-0.175000X0.425000X0.175000X-0.425000X0.175000X-0.425000X-0.175000X0*%
%TD*%
%TA.AperFunction,SMDPad,CuDef*%
%ADD19RoundRect,0.190000X-0.410000X0.190000X-0.410000X-0.190000X0.410000X-0.190000X0.410000X0.190000X0*%
%TD*%
%TA.AperFunction,SMDPad,CuDef*%
%ADD20RoundRect,0.200000X-0.400000X0.200000X-0.400000X-0.200000X0.400000X-0.200000X0.400000X0.200000X0*%
%TD*%
%TA.AperFunction,HeatsinkPad*%
%ADD21O,1.700000X1.100000*%
%TD*%
%TA.AperFunction,SMDPad,CuDef*%
%ADD22RoundRect,0.250000X-0.337500X-0.475000X0.337500X-0.475000X0.337500X0.475000X-0.337500X0.475000X0*%
%TD*%
%TA.AperFunction,SMDPad,CuDef*%
%ADD23RoundRect,0.147500X-0.457500X-0.147500X0.457500X-0.147500X0.457500X0.147500X-0.457500X0.147500X0*%
%TD*%
%TA.AperFunction,SMDPad,CuDef*%
%ADD24RoundRect,0.250000X0.350000X0.450000X-0.350000X0.450000X-0.350000X-0.450000X0.350000X-0.450000X0*%
%TD*%
%TA.AperFunction,SMDPad,CuDef*%
%ADD25RoundRect,0.147500X0.147500X-0.457500X0.147500X0.457500X-0.147500X0.457500X-0.147500X-0.457500X0*%
%TD*%
%TA.AperFunction,SMDPad,CuDef*%
%ADD26RoundRect,0.250000X-0.350000X-0.450000X0.350000X-0.450000X0.350000X0.450000X-0.350000X0.450000X0*%
%TD*%
%TA.AperFunction,SMDPad,CuDef*%
%ADD27RoundRect,0.250000X-0.450000X0.350000X-0.450000X-0.350000X0.450000X-0.350000X0.450000X0.350000X0*%
%TD*%
%TA.AperFunction,SMDPad,CuDef*%
%ADD28R,1.600000X2.200000*%
%TD*%
%TA.AperFunction,SMDPad,CuDef*%
%ADD29RoundRect,0.250000X0.475000X-0.337500X0.475000X0.337500X-0.475000X0.337500X-0.475000X-0.337500X0*%
%TD*%
%TA.AperFunction,ComponentPad*%
%ADD30R,1.000000X1.000000*%
%TD*%
%TA.AperFunction,SMDPad,CuDef*%
%ADD31RoundRect,0.250000X0.450000X-0.350000X0.450000X0.350000X-0.450000X0.350000X-0.450000X-0.350000X0*%
%TD*%
%TA.AperFunction,SMDPad,CuDef*%
%ADD32RoundRect,0.147500X-0.147500X0.457500X-0.147500X-0.457500X0.147500X-0.457500X0.147500X0.457500X0*%
%TD*%
%TA.AperFunction,ComponentPad*%
%ADD33C,1.400000*%
%TD*%
%TA.AperFunction,ViaPad*%
%ADD34C,0.600000*%
%TD*%
%TA.AperFunction,Conductor*%
%ADD35C,0.200000*%
%TD*%
G04 APERTURE END LIST*
D10*
%TO.P,U8,1,TEMP*%
%TO.N,GND*%
X96850000Y-174190000D03*
%TO.P,U8,2,PROG*%
%TO.N,Net-(U8-PROG)*%
X96850000Y-175460000D03*
%TO.P,U8,3,GND*%
%TO.N,GND*%
X96850000Y-176730000D03*
%TO.P,U8,4,VCC*%
%TO.N,Net-(D145-A)*%
X96850000Y-178000000D03*
%TO.P,U8,5,BAT*%
%TO.N,Net-(J12-Pin_1)*%
X101800000Y-178000000D03*
%TO.P,U8,6,STDBY#*%
%TO.N,Net-(U8-STDBY#)*%
X101800000Y-176730000D03*
%TO.P,U8,7,CHRG#*%
%TO.N,Net-(U8-CHRG#)*%
X101800000Y-175460000D03*
%TO.P,U8,8,CE*%
%TO.N,Net-(D145-A)*%
X101800000Y-174190000D03*
D11*
%TO.P,U8,9,EP*%
%TO.N,unconnected-(U8-EP-Pad9)*%
X99325000Y-176095000D03*
%TD*%
D12*
%TO.P,D144,1,K*%
%TO.N,Net-(D144-K)*%
X94785000Y-183000000D03*
%TO.P,D144,2,A*%
%TO.N,Net-(D144-A)*%
X98715000Y-183000000D03*
%TD*%
D13*
%TO.P,C77,1*%
%TO.N,Net-(D145-A)*%
X101837500Y-172250000D03*
%TO.P,C77,2*%
%TO.N,GND*%
X99762500Y-172250000D03*
%TD*%
D14*
%TO.P,C76,1*%
%TO.N,GND*%
X104115000Y-185862500D03*
%TO.P,C76,2*%
%TO.N,Net-(U6-EN)*%
X104115000Y-187937500D03*
%TD*%
D15*
%TO.P,J13,A5,CC1*%
%TO.N,unconnected-(J13-CC1-PadA5)*%
X92130000Y-175980000D03*
D16*
%TO.P,J13,A9,VBUS*%
%TO.N,Net-(D145-A)*%
X92130000Y-178000000D03*
D17*
%TO.P,J13,A12,GND*%
%TO.N,GND*%
X92130000Y-179230000D03*
D18*
%TO.P,J13,B5,CC2*%
%TO.N,unconnected-(J13-CC2-PadB5)*%
X92130000Y-176980000D03*
D19*
%TO.P,J13,B9,VBUS*%
%TO.N,Net-(D145-A)*%
X92130000Y-174960000D03*
D20*
%TO.P,J13,B12,GND*%
%TO.N,GND*%
X92130000Y-173730000D03*
D21*
%TO.P,J13,S1,SHIELD*%
X92050000Y-172160000D03*
X88250000Y-172160000D03*
X92050000Y-180800000D03*
X88250000Y-180800000D03*
%TD*%
D22*
%TO.P,D146,1,K*%
%TO.N,Net-(D146-K)*%
X108550000Y-176100000D03*
%TO.P,D146,2,A*%
%TO.N,Net-(D145-A)*%
X110625000Y-176100000D03*
%TD*%
%TO.P,C78,1*%
%TO.N,Net-(J14-Pin_1)*%
X103862500Y-172091500D03*
%TO.P,C78,2*%
%TO.N,Net-(U7-VCC)*%
X105937500Y-172091500D03*
%TD*%
D23*
%TO.P,U6,1,SW*%
%TO.N,Net-(D144-A)*%
X99713500Y-185950000D03*
%TO.P,U6,2,GND*%
%TO.N,GND*%
X99713500Y-186900000D03*
%TO.P,U6,3,FB*%
%TO.N,Net-(U6-FB)*%
X99713500Y-187850000D03*
%TO.P,U6,4,EN*%
%TO.N,Net-(U6-EN)*%
X102223500Y-187850000D03*
%TO.P,U6,5,IN*%
X102223500Y-186900000D03*
%TO.P,U6,6,NC*%
%TO.N,unconnected-(U6-NC-Pad6)*%
X102223500Y-185950000D03*
%TD*%
D24*
%TO.P,R9,1*%
%TO.N,Net-(U6-FB)*%
X99715000Y-189750000D03*
%TO.P,R9,2*%
%TO.N,GND*%
X97715000Y-189750000D03*
%TD*%
D25*
%TO.P,Q2,1,S1*%
%TO.N,GND*%
X101500000Y-170250000D03*
%TO.P,Q2,2,D12*%
%TO.N,unconnected-(Q2-D12-Pad2)*%
X102450000Y-170250000D03*
%TO.P,Q2,3,S2*%
%TO.N,Net-(J14-Pin_1)*%
X103400000Y-170250000D03*
%TO.P,Q2,4,G2*%
%TO.N,Net-(Q2-G2)*%
X103400000Y-167740000D03*
%TO.P,Q2,5,D12*%
%TO.N,unconnected-(Q2-D12-Pad5)*%
X102450000Y-167740000D03*
%TO.P,Q2,6,G1*%
%TO.N,Net-(Q2-G1)*%
X101500000Y-167740000D03*
%TD*%
D26*
%TO.P,R11,1*%
%TO.N,Net-(U8-CHRG#)*%
X104762500Y-174050000D03*
%TO.P,R11,2*%
%TO.N,Net-(D145-K)*%
X106762500Y-174050000D03*
%TD*%
D27*
%TO.P,R8,1*%
%TO.N,Net-(D144-K)*%
X96915000Y-185850000D03*
%TO.P,R8,2*%
%TO.N,Net-(U6-FB)*%
X96915000Y-187850000D03*
%TD*%
D28*
%TO.P,L2,1*%
%TO.N,Net-(U6-EN)*%
X105525000Y-182000000D03*
%TO.P,L2,2*%
%TO.N,Net-(D144-A)*%
X100725000Y-182000000D03*
%TD*%
D29*
%TO.P,C75,1*%
%TO.N,GND*%
X94765000Y-187937500D03*
%TO.P,C75,2*%
%TO.N,Net-(D144-K)*%
X94765000Y-185862500D03*
%TD*%
D26*
%TO.P,R13,1*%
%TO.N,Net-(U8-STDBY#)*%
X104762500Y-176050000D03*
%TO.P,R13,2*%
%TO.N,Net-(D146-K)*%
X106762500Y-176050000D03*
%TD*%
D30*
%TO.P,J11,1,Pin_1*%
%TO.N,GND*%
X108950000Y-182800000D03*
%TD*%
D27*
%TO.P,R12,1*%
%TO.N,Net-(U7-CS)*%
X108650000Y-167741500D03*
%TO.P,R12,2*%
%TO.N,GND*%
X108650000Y-169741500D03*
%TD*%
D31*
%TO.P,R14,1*%
%TO.N,Net-(U8-PROG)*%
X94600000Y-175450000D03*
%TO.P,R14,2*%
%TO.N,GND*%
X94600000Y-173450000D03*
%TD*%
D26*
%TO.P,R10,1*%
%TO.N,Net-(J12-Pin_1)*%
X103950000Y-178000000D03*
%TO.P,R10,2*%
%TO.N,Net-(U7-VCC)*%
X105950000Y-178000000D03*
%TD*%
D30*
%TO.P,J10,1,Pin_1*%
%TO.N,Net-(D144-K)*%
X108950000Y-179750000D03*
%TD*%
%TO.P,J12,1,Pin_1*%
%TO.N,Net-(J12-Pin_1)*%
X108950000Y-188900000D03*
%TD*%
D32*
%TO.P,U7,1,OD*%
%TO.N,Net-(Q2-G2)*%
X106900000Y-167733000D03*
%TO.P,U7,2,CS*%
%TO.N,Net-(U7-CS)*%
X105950000Y-167733000D03*
%TO.P,U7,3,OC*%
%TO.N,Net-(Q2-G1)*%
X105000000Y-167733000D03*
%TO.P,U7,4,TD*%
%TO.N,unconnected-(U7-TD-Pad4)*%
X105000000Y-170243000D03*
%TO.P,U7,5,VCC*%
%TO.N,Net-(U7-VCC)*%
X105950000Y-170243000D03*
%TO.P,U7,6,GND*%
%TO.N,Net-(J14-Pin_1)*%
X106900000Y-170243000D03*
%TD*%
D22*
%TO.P,D145,1,K*%
%TO.N,Net-(D145-K)*%
X108550000Y-174000000D03*
%TO.P,D145,2,A*%
%TO.N,Net-(D145-A)*%
X110625000Y-174000000D03*
%TD*%
D33*
%TO.P,TP2,2,2*%
%TO.N,Net-(U6-EN)*%
X105250000Y-189950000D03*
%TO.P,TP2,1,1*%
%TO.N,Net-(J12-Pin_1)*%
X102710000Y-189950000D03*
%TD*%
D30*
%TO.P,J14,1,Pin_1*%
%TO.N,Net-(J14-Pin_1)*%
X108950000Y-185850000D03*
%TD*%
D34*
%TO.N,Net-(D145-A)*%
X110600000Y-177600000D03*
%TO.N,Net-(D144-K)*%
X94800000Y-181650000D03*
%TO.N,Net-(D145-A)*%
X101850000Y-173450000D03*
X96850000Y-179000000D03*
%TD*%
D35*
%TO.N,Net-(U6-EN)*%
X102223500Y-187850000D02*
X104027500Y-187850000D01*
%TO.N,GND*%
X94320000Y-173730000D02*
X94600000Y-173450000D01*
%TO.N,Net-(J14-Pin_1)*%
X109438500Y-172781500D02*
X109438500Y-176810160D01*
X106900000Y-183800000D02*
X108950000Y-185850000D01*
%TO.N,Net-(D144-A)*%
X100725000Y-182000000D02*
X99715000Y-182000000D01*
%TO.N,Net-(U6-EN)*%
X104027500Y-187850000D02*
X104115000Y-187937500D01*
%TO.N,Net-(J12-Pin_1)*%
X102710000Y-189950000D02*
X101020500Y-188260500D01*
X101020500Y-187346538D02*
X100650000Y-186976038D01*
%TO.N,GND*%
X92130000Y-173730000D02*
X94320000Y-173730000D01*
%TO.N,Net-(J12-Pin_1)*%
X100650000Y-186976038D02*
X100650000Y-185064862D01*
X101020500Y-188260500D02*
X101020500Y-187346538D01*
X100650000Y-185064862D02*
X103950000Y-181764862D01*
%TO.N,Net-(U6-EN)*%
X101317500Y-185612638D02*
X104930138Y-182000000D01*
X102223500Y-186900000D02*
X101618501Y-186900000D01*
%TO.N,Net-(J12-Pin_1)*%
X103950000Y-181764862D02*
X103950000Y-178000000D01*
%TO.N,GND*%
X97910348Y-185390210D02*
X97910348Y-184141000D01*
%TO.N,Net-(U7-VCC)*%
X105950000Y-172079000D02*
X105937500Y-172091500D01*
%TO.N,Net-(D146-K)*%
X106762500Y-176050000D02*
X108500000Y-176050000D01*
%TO.N,Net-(U6-EN)*%
X102223500Y-187850000D02*
X102223500Y-186900000D01*
%TO.N,Net-(J14-Pin_1)*%
X104313000Y-169337000D02*
X103400000Y-170250000D01*
%TO.N,Net-(U7-VCC)*%
X105861500Y-172167500D02*
X105861500Y-177911500D01*
%TO.N,GND*%
X93599000Y-176035160D02*
X93599000Y-174864840D01*
%TO.N,Net-(J12-Pin_1)*%
X106899000Y-190951000D02*
X103711000Y-190951000D01*
%TO.N,Net-(J14-Pin_1)*%
X106900000Y-170243000D02*
X109438500Y-172781500D01*
%TO.N,Net-(D144-A)*%
X99715000Y-182000000D02*
X98715000Y-183000000D01*
%TO.N,GND*%
X94273840Y-174190000D02*
X96850000Y-174190000D01*
%TO.N,Net-(U6-EN)*%
X101317500Y-186598999D02*
X101317500Y-185612638D01*
%TO.N,Net-(Q2-G1)*%
X101500000Y-167135001D02*
X101801001Y-166834000D01*
%TO.N,Net-(U6-EN)*%
X105250000Y-189950000D02*
X104115000Y-188815000D01*
%TO.N,Net-(U7-CS)*%
X107735500Y-166827000D02*
X108650000Y-167741500D01*
%TO.N,Net-(U8-PROG)*%
X96840000Y-175450000D02*
X96850000Y-175460000D01*
%TO.N,GND*%
X100619500Y-187512638D02*
X100619500Y-190431660D01*
%TO.N,Net-(D145-A)*%
X92130000Y-178000000D02*
X96850000Y-178000000D01*
%TO.N,Net-(U8-STDBY#)*%
X104762500Y-176050000D02*
X104082500Y-176730000D01*
%TO.N,Net-(U6-FB)*%
X99713500Y-189748500D02*
X99715000Y-189750000D01*
%TO.N,Net-(U6-EN)*%
X104930138Y-182000000D02*
X105525000Y-182000000D01*
%TO.N,GND*%
X99713500Y-186900000D02*
X100006862Y-186900000D01*
%TO.N,Net-(D145-A)*%
X101837500Y-173437500D02*
X101850000Y-173450000D01*
%TO.N,Net-(D146-K)*%
X108500000Y-176050000D02*
X108550000Y-176100000D01*
%TO.N,Net-(U6-EN)*%
X101618501Y-186900000D02*
X101317500Y-186598999D01*
%TO.N,GND*%
X95401000Y-181301000D02*
X94900000Y-180800000D01*
%TO.N,Net-(Q2-G1)*%
X101500000Y-167740000D02*
X101500000Y-167135001D01*
%TO.N,GND*%
X100300160Y-190751000D02*
X98716000Y-190751000D01*
%TO.N,Net-(D145-K)*%
X108500000Y-174050000D02*
X108550000Y-174000000D01*
%TO.N,Net-(J14-Pin_1)*%
X106598999Y-169337000D02*
X104313000Y-169337000D01*
%TO.N,Net-(Q2-G1)*%
X104101000Y-166834000D02*
X105000000Y-167733000D01*
%TO.N,Net-(J14-Pin_1)*%
X109438500Y-176810160D02*
X106900000Y-179348660D01*
%TO.N,Net-(D145-A)*%
X92130000Y-174960000D02*
X91871986Y-174960000D01*
%TO.N,GND*%
X96850000Y-176730000D02*
X94293840Y-176730000D01*
X94900000Y-180800000D02*
X92050000Y-180800000D01*
%TO.N,Net-(Q2-G2)*%
X106900000Y-167733000D02*
X106900000Y-168337999D01*
%TO.N,GND*%
X99713500Y-186900000D02*
X95802500Y-186900000D01*
X98790000Y-172250000D02*
X99762500Y-172250000D01*
X97910348Y-184141000D02*
X95401000Y-181631652D01*
%TO.N,Net-(U6-FB)*%
X96915000Y-187850000D02*
X99713500Y-187850000D01*
%TO.N,GND*%
X95802500Y-186900000D02*
X94765000Y-187937500D01*
X96850000Y-174190000D02*
X98790000Y-172250000D01*
%TO.N,Net-(D145-A)*%
X91871986Y-178000000D02*
X92130000Y-178000000D01*
X91871986Y-174960000D02*
X91229000Y-175602986D01*
%TO.N,Net-(U6-EN)*%
X104115000Y-188815000D02*
X104115000Y-187937500D01*
%TO.N,GND*%
X95401000Y-181631652D02*
X95401000Y-181301000D01*
X93599000Y-174864840D02*
X94273840Y-174190000D01*
X99420138Y-186900000D02*
X97910348Y-185390210D01*
X100006862Y-186900000D02*
X100619500Y-187512638D01*
X94293840Y-176730000D02*
X93599000Y-176035160D01*
X100619500Y-190431660D02*
X100300160Y-190751000D01*
%TO.N,Net-(U6-FB)*%
X99713500Y-187850000D02*
X99713500Y-189748500D01*
%TO.N,Net-(D144-K)*%
X96902500Y-185862500D02*
X96915000Y-185850000D01*
X94800000Y-181650000D02*
X94800000Y-182985000D01*
X94785000Y-185842500D02*
X94765000Y-185862500D01*
X94800000Y-182985000D02*
X94785000Y-183000000D01*
%TO.N,Net-(J12-Pin_1)*%
X103711000Y-190951000D02*
X102710000Y-189950000D01*
%TO.N,Net-(D144-K)*%
X94765000Y-185862500D02*
X96902500Y-185862500D01*
%TO.N,Net-(D145-A)*%
X91229000Y-177357014D02*
X91871986Y-178000000D01*
%TO.N,Net-(D144-K)*%
X94785000Y-183000000D02*
X94785000Y-185842500D01*
%TO.N,GND*%
X98716000Y-190751000D02*
X97715000Y-189750000D01*
%TO.N,Net-(U7-CS)*%
X105950000Y-167128001D02*
X106251001Y-166827000D01*
%TO.N,Net-(J12-Pin_1)*%
X108950000Y-188900000D02*
X106899000Y-190951000D01*
X101800000Y-178000000D02*
X103950000Y-178000000D01*
%TO.N,GND*%
X99713500Y-186900000D02*
X99420138Y-186900000D01*
%TO.N,Net-(D145-A)*%
X110625000Y-176100000D02*
X110625000Y-177575000D01*
X101850000Y-173450000D02*
X101850000Y-174140000D01*
X110625000Y-177575000D02*
X110600000Y-177600000D01*
X96850000Y-178000000D02*
X96850000Y-179000000D01*
X110625000Y-174000000D02*
X110625000Y-176100000D01*
X91229000Y-175602986D02*
X91229000Y-177357014D01*
X101837500Y-172250000D02*
X101837500Y-173437500D01*
X101850000Y-174140000D02*
X101800000Y-174190000D01*
%TO.N,Net-(J14-Pin_1)*%
X106900000Y-179348660D02*
X106900000Y-183800000D01*
X103400000Y-171629000D02*
X103862500Y-172091500D01*
X103400000Y-170250000D02*
X103400000Y-171629000D01*
%TO.N,Net-(U8-CHRG#)*%
X103352500Y-175460000D02*
X101800000Y-175460000D01*
%TO.N,Net-(J14-Pin_1)*%
X106900000Y-170243000D02*
X106900000Y-169638001D01*
X106900000Y-169638001D02*
X106598999Y-169337000D01*
%TO.N,Net-(U7-VCC)*%
X105937500Y-172091500D02*
X105861500Y-172167500D01*
X105950000Y-170243000D02*
X105950000Y-172079000D01*
X105861500Y-177911500D02*
X105950000Y-178000000D01*
%TO.N,Net-(D144-A)*%
X98715000Y-184951500D02*
X99713500Y-185950000D01*
X98715000Y-183000000D02*
X98715000Y-184951500D01*
%TO.N,Net-(D145-K)*%
X106762500Y-174050000D02*
X108500000Y-174050000D01*
%TO.N,Net-(Q2-G2)*%
X104299000Y-168639000D02*
X103400000Y-167740000D01*
X106900000Y-168337999D02*
X106598999Y-168639000D01*
X106598999Y-168639000D02*
X104299000Y-168639000D01*
%TO.N,Net-(Q2-G1)*%
X101801001Y-166834000D02*
X104101000Y-166834000D01*
%TO.N,Net-(U8-CHRG#)*%
X104762500Y-174050000D02*
X103352500Y-175460000D01*
%TO.N,Net-(U7-CS)*%
X105950000Y-167733000D02*
X105950000Y-167128001D01*
X106251001Y-166827000D02*
X107735500Y-166827000D01*
%TO.N,Net-(U8-STDBY#)*%
X104082500Y-176730000D02*
X101800000Y-176730000D01*
%TO.N,Net-(U8-PROG)*%
X94600000Y-175450000D02*
X96840000Y-175450000D01*
%TD*%
%TA.AperFunction,Conductor*%
%TO.N,GND*%
G36*
X112242539Y-165920185D02*
G01*
X112288294Y-165972989D01*
X112299500Y-166024500D01*
X112299500Y-191225500D01*
X112279815Y-191292539D01*
X112227011Y-191338294D01*
X112175500Y-191349500D01*
X107649096Y-191349500D01*
X107582057Y-191329815D01*
X107536302Y-191277011D01*
X107526358Y-191207853D01*
X107555383Y-191144297D01*
X107561415Y-191137819D01*
X108762416Y-189936818D01*
X108823739Y-189903333D01*
X108850097Y-189900499D01*
X109497871Y-189900499D01*
X109497872Y-189900499D01*
X109557483Y-189894091D01*
X109692331Y-189843796D01*
X109807546Y-189757546D01*
X109893796Y-189642331D01*
X109944091Y-189507483D01*
X109950500Y-189447873D01*
X109950499Y-188352128D01*
X109944091Y-188292517D01*
X109928236Y-188250008D01*
X109893797Y-188157671D01*
X109893793Y-188157664D01*
X109807547Y-188042455D01*
X109807544Y-188042452D01*
X109692335Y-187956206D01*
X109692328Y-187956202D01*
X109557482Y-187905908D01*
X109557483Y-187905908D01*
X109497883Y-187899501D01*
X109497881Y-187899500D01*
X109497873Y-187899500D01*
X109497864Y-187899500D01*
X108402129Y-187899500D01*
X108402123Y-187899501D01*
X108342516Y-187905908D01*
X108207671Y-187956202D01*
X108207664Y-187956206D01*
X108092455Y-188042452D01*
X108092452Y-188042455D01*
X108006206Y-188157664D01*
X108006202Y-188157671D01*
X107955908Y-188292517D01*
X107949501Y-188352116D01*
X107949501Y-188352123D01*
X107949500Y-188352135D01*
X107949500Y-188999902D01*
X107929815Y-189066941D01*
X107913181Y-189087583D01*
X106686584Y-190314181D01*
X106659656Y-190328884D01*
X106633838Y-190345477D01*
X106627637Y-190346368D01*
X106625261Y-190347666D01*
X106598903Y-190350500D01*
X106547217Y-190350500D01*
X106480178Y-190330815D01*
X106434423Y-190278011D01*
X106424479Y-190208853D01*
X106424744Y-190207102D01*
X106450500Y-190044486D01*
X106450500Y-189855513D01*
X106420940Y-189668881D01*
X106389620Y-189572489D01*
X106362547Y-189489168D01*
X106362545Y-189489165D01*
X106362545Y-189489163D01*
X106276759Y-189320800D01*
X106165690Y-189167927D01*
X106032073Y-189034310D01*
X105879199Y-188923240D01*
X105710836Y-188837454D01*
X105531119Y-188779060D01*
X105373679Y-188754123D01*
X105310545Y-188724193D01*
X105273614Y-188664882D01*
X105274612Y-188595019D01*
X105275324Y-188592794D01*
X105329999Y-188427797D01*
X105340500Y-188325009D01*
X105340499Y-187549992D01*
X105329999Y-187447203D01*
X105274814Y-187280666D01*
X105182712Y-187131344D01*
X105058656Y-187007288D01*
X105055342Y-187005243D01*
X105053546Y-187003248D01*
X105052989Y-187002807D01*
X105053064Y-187002711D01*
X105008618Y-186953297D01*
X104997397Y-186884334D01*
X105025240Y-186820252D01*
X105055348Y-186794165D01*
X105058342Y-186792318D01*
X105182315Y-186668345D01*
X105274356Y-186519124D01*
X105274358Y-186519119D01*
X105329505Y-186352697D01*
X105329506Y-186352690D01*
X105339999Y-186249986D01*
X105340000Y-186249973D01*
X105340000Y-186112500D01*
X104239000Y-186112500D01*
X104171961Y-186092815D01*
X104126206Y-186040011D01*
X104115000Y-185988500D01*
X104115000Y-185862500D01*
X103989000Y-185862500D01*
X103921961Y-185842815D01*
X103876206Y-185790011D01*
X103865000Y-185738500D01*
X103865000Y-185612500D01*
X104365000Y-185612500D01*
X105339999Y-185612500D01*
X105339999Y-185475028D01*
X105339998Y-185475013D01*
X105329505Y-185372302D01*
X105274358Y-185205880D01*
X105274356Y-185205875D01*
X105182315Y-185056654D01*
X105058345Y-184932684D01*
X104909124Y-184840643D01*
X104909119Y-184840641D01*
X104742697Y-184785494D01*
X104742690Y-184785493D01*
X104639986Y-184775000D01*
X104365000Y-184775000D01*
X104365000Y-185612500D01*
X103865000Y-185612500D01*
X103865000Y-184775000D01*
X103590029Y-184775000D01*
X103590012Y-184775001D01*
X103487302Y-184785494D01*
X103320880Y-184840641D01*
X103320871Y-184840645D01*
X103226539Y-184898830D01*
X103159147Y-184917270D01*
X103092483Y-184896347D01*
X103047714Y-184842705D01*
X103039053Y-184773374D01*
X103069250Y-184710367D01*
X103073748Y-184705624D01*
X104265385Y-183513986D01*
X104326706Y-183480503D01*
X104396398Y-183485487D01*
X104427372Y-183502401D01*
X104480385Y-183542086D01*
X104482668Y-183543795D01*
X104482671Y-183543797D01*
X104617517Y-183594091D01*
X104617516Y-183594091D01*
X104624444Y-183594835D01*
X104677127Y-183600500D01*
X106175499Y-183600499D01*
X106242538Y-183620184D01*
X106288293Y-183672987D01*
X106299499Y-183724499D01*
X106299499Y-183879054D01*
X106299498Y-183879054D01*
X106340423Y-184031785D01*
X106369358Y-184081900D01*
X106369359Y-184081904D01*
X106369360Y-184081904D01*
X106419479Y-184168714D01*
X106419481Y-184168717D01*
X106538349Y-184287585D01*
X106538355Y-184287590D01*
X107913181Y-185662417D01*
X107946666Y-185723740D01*
X107949500Y-185750098D01*
X107949500Y-186397870D01*
X107949501Y-186397876D01*
X107955908Y-186457483D01*
X108006202Y-186592328D01*
X108006206Y-186592335D01*
X108092452Y-186707544D01*
X108092455Y-186707547D01*
X108207664Y-186793793D01*
X108207671Y-186793797D01*
X108342517Y-186844091D01*
X108342516Y-186844091D01*
X108349444Y-186844835D01*
X108402127Y-186850500D01*
X109497872Y-186850499D01*
X109557483Y-186844091D01*
X109692331Y-186793796D01*
X109807546Y-186707546D01*
X109893796Y-186592331D01*
X109944091Y-186457483D01*
X109950500Y-186397873D01*
X109950499Y-185302128D01*
X109944091Y-185242517D01*
X109930426Y-185205880D01*
X109893797Y-185107671D01*
X109893793Y-185107664D01*
X109807547Y-184992455D01*
X109807544Y-184992452D01*
X109692335Y-184906206D01*
X109692328Y-184906202D01*
X109557482Y-184855908D01*
X109557483Y-184855908D01*
X109497883Y-184849501D01*
X109497881Y-184849500D01*
X109497873Y-184849500D01*
X109497865Y-184849500D01*
X108850098Y-184849500D01*
X108783059Y-184829815D01*
X108762417Y-184813181D01*
X107536819Y-183587583D01*
X107503334Y-183526260D01*
X107500500Y-183499902D01*
X107500500Y-183347844D01*
X107950000Y-183347844D01*
X107956401Y-183407372D01*
X107956403Y-183407379D01*
X108006645Y-183542086D01*
X108006649Y-183542093D01*
X108092809Y-183657187D01*
X108092812Y-183657190D01*
X108207906Y-183743350D01*
X108207913Y-183743354D01*
X108342620Y-183793596D01*
X108342627Y-183793598D01*
X108402155Y-183799999D01*
X108402172Y-183800000D01*
X108700000Y-183800000D01*
X109200000Y-183800000D01*
X109497828Y-183800000D01*
X109497844Y-183799999D01*
X109557372Y-183793598D01*
X109557379Y-183793596D01*
X109692086Y-183743354D01*
X109692093Y-183743350D01*
X109807187Y-183657190D01*
X109807190Y-183657187D01*
X109893350Y-183542093D01*
X109893354Y-183542086D01*
X109943596Y-183407379D01*
X109943598Y-183407372D01*
X109949999Y-183347844D01*
X109950000Y-183347827D01*
X109950000Y-183050000D01*
X109200000Y-183050000D01*
X109200000Y-183800000D01*
X108700000Y-183800000D01*
X108700000Y-183050000D01*
X107950000Y-183050000D01*
X107950000Y-183347844D01*
X107500500Y-183347844D01*
X107500500Y-182750272D01*
X108700000Y-182750272D01*
X108700000Y-182849728D01*
X108738060Y-182941614D01*
X108808386Y-183011940D01*
X108900272Y-183050000D01*
X108999728Y-183050000D01*
X109091614Y-183011940D01*
X109161940Y-182941614D01*
X109200000Y-182849728D01*
X109200000Y-182750272D01*
X109161940Y-182658386D01*
X109091614Y-182588060D01*
X108999728Y-182550000D01*
X109200000Y-182550000D01*
X109950000Y-182550000D01*
X109950000Y-182252172D01*
X109949999Y-182252155D01*
X109943598Y-182192627D01*
X109943596Y-182192620D01*
X109893354Y-182057913D01*
X109893350Y-182057906D01*
X109807190Y-181942812D01*
X109807187Y-181942809D01*
X109692093Y-181856649D01*
X109692086Y-181856645D01*
X109557379Y-181806403D01*
X109557372Y-181806401D01*
X109497844Y-181800000D01*
X109200000Y-181800000D01*
X109200000Y-182550000D01*
X108999728Y-182550000D01*
X108900272Y-182550000D01*
X108808386Y-182588060D01*
X108738060Y-182658386D01*
X108700000Y-182750272D01*
X107500500Y-182750272D01*
X107500500Y-182252155D01*
X107950000Y-182252155D01*
X107950000Y-182550000D01*
X108700000Y-182550000D01*
X108700000Y-181800000D01*
X108402155Y-181800000D01*
X108342627Y-181806401D01*
X108342620Y-181806403D01*
X108207913Y-181856645D01*
X108207906Y-181856649D01*
X108092812Y-181942809D01*
X108092809Y-181942812D01*
X108006649Y-182057906D01*
X108006645Y-182057913D01*
X107956403Y-182192620D01*
X107956401Y-182192627D01*
X107950000Y-182252155D01*
X107500500Y-182252155D01*
X107500500Y-179648756D01*
X107520185Y-179581717D01*
X107536815Y-179561079D01*
X107737820Y-179360074D01*
X107799142Y-179326590D01*
X107868834Y-179331574D01*
X107924767Y-179373446D01*
X107949184Y-179438910D01*
X107949500Y-179447756D01*
X107949500Y-180297870D01*
X107949501Y-180297876D01*
X107955908Y-180357483D01*
X108006202Y-180492328D01*
X108006206Y-180492335D01*
X108092452Y-180607544D01*
X108092455Y-180607547D01*
X108207664Y-180693793D01*
X108207671Y-180693797D01*
X108342517Y-180744091D01*
X108342516Y-180744091D01*
X108349444Y-180744835D01*
X108402127Y-180750500D01*
X109497872Y-180750499D01*
X109557483Y-180744091D01*
X109692331Y-180693796D01*
X109807546Y-180607546D01*
X109893796Y-180492331D01*
X109944091Y-180357483D01*
X109950500Y-180297873D01*
X109950499Y-179202128D01*
X109944091Y-179142517D01*
X109941217Y-179134812D01*
X109893797Y-179007671D01*
X109893793Y-179007664D01*
X109807547Y-178892455D01*
X109807544Y-178892452D01*
X109692335Y-178806206D01*
X109692328Y-178806202D01*
X109557482Y-178755908D01*
X109557483Y-178755908D01*
X109497883Y-178749501D01*
X109497881Y-178749500D01*
X109497873Y-178749500D01*
X109497865Y-178749500D01*
X108647755Y-178749500D01*
X108580716Y-178729815D01*
X108534961Y-178677011D01*
X108525017Y-178607853D01*
X108554042Y-178544297D01*
X108560060Y-178537833D01*
X109587819Y-177510075D01*
X109649142Y-177476590D01*
X109718834Y-177481574D01*
X109774767Y-177523446D01*
X109799184Y-177588910D01*
X109799500Y-177597756D01*
X109799500Y-177678846D01*
X109830261Y-177833489D01*
X109830264Y-177833501D01*
X109890602Y-177979172D01*
X109890609Y-177979185D01*
X109978210Y-178110288D01*
X109978213Y-178110292D01*
X110089707Y-178221786D01*
X110089711Y-178221789D01*
X110220814Y-178309390D01*
X110220827Y-178309397D01*
X110366498Y-178369735D01*
X110366503Y-178369737D01*
X110521153Y-178400499D01*
X110521156Y-178400500D01*
X110521158Y-178400500D01*
X110678844Y-178400500D01*
X110678845Y-178400499D01*
X110833497Y-178369737D01*
X110964720Y-178315383D01*
X110979172Y-178309397D01*
X110979172Y-178309396D01*
X110979179Y-178309394D01*
X111110289Y-178221789D01*
X111221789Y-178110289D01*
X111309394Y-177979179D01*
X111369737Y-177833497D01*
X111400500Y-177678842D01*
X111400500Y-177521158D01*
X111400500Y-177521155D01*
X111400499Y-177521153D01*
X111383574Y-177436068D01*
X111369737Y-177366503D01*
X111357058Y-177335895D01*
X111349590Y-177266426D01*
X111380865Y-177203947D01*
X111406518Y-177182908D01*
X111431156Y-177167712D01*
X111555212Y-177043656D01*
X111647314Y-176894334D01*
X111702499Y-176727797D01*
X111713000Y-176625009D01*
X111712999Y-175574992D01*
X111702499Y-175472203D01*
X111647314Y-175305666D01*
X111555212Y-175156344D01*
X111536549Y-175137681D01*
X111503064Y-175076358D01*
X111508048Y-175006666D01*
X111536549Y-174962319D01*
X111545618Y-174953250D01*
X111555212Y-174943656D01*
X111647314Y-174794334D01*
X111702499Y-174627797D01*
X111713000Y-174525009D01*
X111712999Y-173474992D01*
X111711702Y-173462300D01*
X111702499Y-173372203D01*
X111702498Y-173372200D01*
X111685305Y-173320315D01*
X111647314Y-173205666D01*
X111555212Y-173056344D01*
X111431156Y-172932288D01*
X111338388Y-172875069D01*
X111281836Y-172840187D01*
X111281831Y-172840185D01*
X111249088Y-172829335D01*
X111115297Y-172785001D01*
X111115295Y-172785000D01*
X111012510Y-172774500D01*
X110237498Y-172774500D01*
X110237478Y-172774502D01*
X110168126Y-172781586D01*
X110139588Y-172776280D01*
X110110667Y-172773829D01*
X110105653Y-172769972D01*
X110099434Y-172768816D01*
X110078293Y-172748923D01*
X110055290Y-172731226D01*
X110051863Y-172724053D01*
X110048550Y-172720935D01*
X110038784Y-172700029D01*
X110037072Y-172695248D01*
X110015974Y-172616508D01*
X109998077Y-172549715D01*
X109969139Y-172499595D01*
X109919020Y-172412784D01*
X109807216Y-172300980D01*
X109807215Y-172300979D01*
X109802885Y-172296649D01*
X109802874Y-172296639D01*
X108436319Y-170930084D01*
X108402834Y-170868761D01*
X108400000Y-170842403D01*
X108400000Y-170841499D01*
X108900000Y-170841499D01*
X109149972Y-170841499D01*
X109149986Y-170841498D01*
X109252697Y-170831005D01*
X109419119Y-170775858D01*
X109419124Y-170775856D01*
X109568345Y-170683815D01*
X109692315Y-170559845D01*
X109784356Y-170410624D01*
X109784358Y-170410619D01*
X109839505Y-170244197D01*
X109839506Y-170244190D01*
X109849999Y-170141486D01*
X109850000Y-170141473D01*
X109850000Y-169991500D01*
X108900000Y-169991500D01*
X108900000Y-170841499D01*
X108400000Y-170841499D01*
X108400000Y-169865500D01*
X108419685Y-169798461D01*
X108472489Y-169752706D01*
X108524000Y-169741500D01*
X108650000Y-169741500D01*
X108650000Y-169615500D01*
X108669685Y-169548461D01*
X108722489Y-169502706D01*
X108774000Y-169491500D01*
X109849999Y-169491500D01*
X109849999Y-169341528D01*
X109849998Y-169341513D01*
X109839505Y-169238802D01*
X109784358Y-169072380D01*
X109784356Y-169072375D01*
X109692315Y-168923154D01*
X109598695Y-168829534D01*
X109565210Y-168768211D01*
X109570194Y-168698519D01*
X109598691Y-168654176D01*
X109692712Y-168560156D01*
X109784814Y-168410834D01*
X109839999Y-168244297D01*
X109850500Y-168141509D01*
X109850499Y-167341492D01*
X109839999Y-167238703D01*
X109784814Y-167072166D01*
X109692712Y-166922844D01*
X109568656Y-166798788D01*
X109419334Y-166706686D01*
X109252797Y-166651501D01*
X109252795Y-166651500D01*
X109150016Y-166641000D01*
X109150009Y-166641000D01*
X108450097Y-166641000D01*
X108420656Y-166632355D01*
X108390670Y-166625832D01*
X108385654Y-166622077D01*
X108383058Y-166621315D01*
X108362416Y-166604681D01*
X108223090Y-166465355D01*
X108223088Y-166465352D01*
X108104217Y-166346481D01*
X108104216Y-166346480D01*
X108017404Y-166296360D01*
X108017404Y-166296359D01*
X108017400Y-166296358D01*
X107967285Y-166267423D01*
X107814557Y-166226499D01*
X107656443Y-166226499D01*
X107648847Y-166226499D01*
X107648831Y-166226500D01*
X106337671Y-166226500D01*
X106337655Y-166226499D01*
X106330059Y-166226499D01*
X106171944Y-166226499D01*
X106095580Y-166246961D01*
X106019215Y-166267423D01*
X106019210Y-166267426D01*
X105882291Y-166346475D01*
X105882283Y-166346481D01*
X105637584Y-166591181D01*
X105581285Y-166647480D01*
X105581284Y-166647481D01*
X105577265Y-166651500D01*
X105576731Y-166652034D01*
X105549058Y-166670840D01*
X105549806Y-166672104D01*
X105538109Y-166679020D01*
X105517914Y-166684141D01*
X105515404Y-166685512D01*
X105513148Y-166685350D01*
X105470384Y-166696196D01*
X105411882Y-166679016D01*
X105406898Y-166676069D01*
X105406896Y-166676068D01*
X105249679Y-166630391D01*
X105249673Y-166630390D01*
X105212947Y-166627500D01*
X105212940Y-166627500D01*
X104795097Y-166627500D01*
X104765656Y-166618855D01*
X104735670Y-166612332D01*
X104730654Y-166608577D01*
X104728058Y-166607815D01*
X104707416Y-166591181D01*
X104588590Y-166472355D01*
X104588588Y-166472352D01*
X104469717Y-166353481D01*
X104469716Y-166353480D01*
X104382904Y-166303360D01*
X104382904Y-166303359D01*
X104382900Y-166303358D01*
X104332785Y-166274423D01*
X104180057Y-166233499D01*
X104021943Y-166233499D01*
X104014347Y-166233499D01*
X104014331Y-166233500D01*
X101887671Y-166233500D01*
X101887655Y-166233499D01*
X101880059Y-166233499D01*
X101721944Y-166233499D01*
X101645580Y-166253961D01*
X101569215Y-166274423D01*
X101569210Y-166274426D01*
X101432291Y-166353475D01*
X101432283Y-166353481D01*
X101194584Y-166591181D01*
X101131285Y-166654480D01*
X101131284Y-166654481D01*
X101126731Y-166659034D01*
X101099069Y-166677833D01*
X101099817Y-166679098D01*
X100952183Y-166766408D01*
X100952174Y-166766414D01*
X100836414Y-166882174D01*
X100836408Y-166882182D01*
X100753068Y-167023104D01*
X100753066Y-167023107D01*
X100707391Y-167180320D01*
X100707390Y-167180326D01*
X100704500Y-167217052D01*
X100704500Y-168262947D01*
X100707390Y-168299673D01*
X100707391Y-168299679D01*
X100753066Y-168456892D01*
X100753068Y-168456895D01*
X100836408Y-168597817D01*
X100836414Y-168597825D01*
X100952174Y-168713585D01*
X100952178Y-168713588D01*
X100952180Y-168713590D01*
X101093103Y-168796931D01*
X101093104Y-168796931D01*
X101093107Y-168796933D01*
X101250320Y-168842608D01*
X101250323Y-168842608D01*
X101250325Y-168842609D01*
X101287060Y-168845500D01*
X101287068Y-168845500D01*
X101712932Y-168845500D01*
X101712940Y-168845500D01*
X101749675Y-168842609D01*
X101749677Y-168842608D01*
X101749679Y-168842608D01*
X101906892Y-168796933D01*
X101906893Y-168796932D01*
X101906897Y-168796931D01*
X101911877Y-168793985D01*
X101918558Y-168792290D01*
X101923782Y-168787788D01*
X101951990Y-168783806D01*
X101979600Y-168776801D01*
X101986138Y-168778987D01*
X101992966Y-168778024D01*
X102038122Y-168793985D01*
X102043103Y-168796931D01*
X102043104Y-168796931D01*
X102043107Y-168796933D01*
X102200320Y-168842608D01*
X102200323Y-168842608D01*
X102200325Y-168842609D01*
X102237060Y-168845500D01*
X102237068Y-168845500D01*
X102662932Y-168845500D01*
X102662940Y-168845500D01*
X102699675Y-168842609D01*
X102699677Y-168842608D01*
X102699679Y-168842608D01*
X102856892Y-168796933D01*
X102856893Y-168796932D01*
X102856897Y-168796931D01*
X102861877Y-168793985D01*
X102868401Y-168792330D01*
X102873489Y-168787922D01*
X102901836Y-168783846D01*
X102929600Y-168776801D01*
X102935984Y-168778935D01*
X102942647Y-168777978D01*
X102988122Y-168793985D01*
X102993103Y-168796931D01*
X102993104Y-168796931D01*
X102993107Y-168796933D01*
X103150320Y-168842608D01*
X103150323Y-168842608D01*
X103150325Y-168842609D01*
X103187060Y-168845500D01*
X103187068Y-168845500D01*
X103604903Y-168845500D01*
X103634343Y-168854144D01*
X103664330Y-168860668D01*
X103669345Y-168864422D01*
X103671942Y-168865185D01*
X103692584Y-168881819D01*
X103718083Y-168907318D01*
X103751568Y-168968641D01*
X103746584Y-169038333D01*
X103718083Y-169082680D01*
X103692582Y-169108181D01*
X103631259Y-169141666D01*
X103604901Y-169144500D01*
X103187052Y-169144500D01*
X103150326Y-169147390D01*
X103150320Y-169147391D01*
X102993103Y-169193068D01*
X102993102Y-169193068D01*
X102988113Y-169196019D01*
X102981592Y-169197672D01*
X102976511Y-169202076D01*
X102948157Y-169206152D01*
X102920388Y-169213196D01*
X102913414Y-169211148D01*
X102907353Y-169212020D01*
X102891093Y-169204594D01*
X102861887Y-169196019D01*
X102856896Y-169193068D01*
X102699679Y-169147391D01*
X102699673Y-169147390D01*
X102662947Y-169144500D01*
X102662940Y-169144500D01*
X102237060Y-169144500D01*
X102237052Y-169144500D01*
X102200326Y-169147390D01*
X102200320Y-169147391D01*
X102043104Y-169193067D01*
X102037627Y-169196307D01*
X102030946Y-169198001D01*
X102025727Y-169202501D01*
X101997512Y-169206482D01*
X101969902Y-169213487D01*
X101962754Y-169211388D01*
X101956543Y-169212265D01*
X101940292Y-169204792D01*
X101911388Y-169196305D01*
X101906700Y-169193532D01*
X101906691Y-169193529D01*
X101750001Y-169148005D01*
X101750000Y-169148006D01*
X101750000Y-169419824D01*
X101732733Y-169482944D01*
X101703067Y-169533106D01*
X101703066Y-169533107D01*
X101657391Y-169690320D01*
X101657390Y-169690326D01*
X101654500Y-169727052D01*
X101654500Y-170126000D01*
X101634815Y-170193039D01*
X101582011Y-170238794D01*
X101530500Y-170250000D01*
X101500000Y-170250000D01*
X101500000Y-170376000D01*
X101480315Y-170443039D01*
X101427511Y-170488794D01*
X101376000Y-170500000D01*
X100705001Y-170500000D01*
X100705001Y-170772897D01*
X100707889Y-170809597D01*
X100753529Y-170966692D01*
X100753531Y-170966697D01*
X100834522Y-171103646D01*
X100851705Y-171171370D01*
X100829545Y-171237633D01*
X100775079Y-171281396D01*
X100705599Y-171288765D01*
X100643164Y-171257401D01*
X100640109Y-171254448D01*
X100568345Y-171182684D01*
X100419124Y-171090643D01*
X100419119Y-171090641D01*
X100252697Y-171035494D01*
X100252690Y-171035493D01*
X100149986Y-171025000D01*
X100012500Y-171025000D01*
X100012500Y-173474999D01*
X100149972Y-173474999D01*
X100149986Y-173474998D01*
X100252695Y-173464506D01*
X100266533Y-173459920D01*
X100336361Y-173457515D01*
X100396405Y-173493243D01*
X100427601Y-173555762D01*
X100420044Y-173625222D01*
X100403920Y-173653108D01*
X100387304Y-173674762D01*
X100387300Y-173674769D01*
X100329313Y-173814763D01*
X100329313Y-173814765D01*
X100326559Y-173835685D01*
X100298293Y-173899581D01*
X100239969Y-173938053D01*
X100203620Y-173943500D01*
X98445876Y-173943500D01*
X98378837Y-173923815D01*
X98333082Y-173871011D01*
X98322937Y-173835686D01*
X98320199Y-173814895D01*
X98320198Y-173814891D01*
X98262263Y-173675021D01*
X98170094Y-173554905D01*
X98049978Y-173462736D01*
X97910108Y-173404801D01*
X97910104Y-173404800D01*
X97797697Y-173390000D01*
X97100000Y-173390000D01*
X97100000Y-174066000D01*
X97080315Y-174133039D01*
X97027511Y-174178794D01*
X96976000Y-174190000D01*
X96724000Y-174190000D01*
X96656961Y-174170315D01*
X96611206Y-174117511D01*
X96600000Y-174066000D01*
X96600000Y-173390000D01*
X95923999Y-173390000D01*
X95856960Y-173370315D01*
X95811205Y-173317511D01*
X95799999Y-173266000D01*
X95799999Y-173050028D01*
X95799998Y-173050013D01*
X95789505Y-172947302D01*
X95734358Y-172780880D01*
X95734356Y-172780875D01*
X95730724Y-172774986D01*
X98675001Y-172774986D01*
X98685494Y-172877697D01*
X98740641Y-173044119D01*
X98740643Y-173044124D01*
X98832684Y-173193345D01*
X98956654Y-173317315D01*
X99105875Y-173409356D01*
X99105880Y-173409358D01*
X99272302Y-173464505D01*
X99272309Y-173464506D01*
X99375019Y-173474999D01*
X99512499Y-173474999D01*
X99512500Y-173474998D01*
X99512500Y-172500000D01*
X98675001Y-172500000D01*
X98675001Y-172774986D01*
X95730724Y-172774986D01*
X95642315Y-172631654D01*
X95518345Y-172507684D01*
X95369124Y-172415643D01*
X95369119Y-172415641D01*
X95202697Y-172360494D01*
X95202690Y-172360493D01*
X95099986Y-172350000D01*
X94850000Y-172350000D01*
X94850000Y-173326000D01*
X94830315Y-173393039D01*
X94777511Y-173438794D01*
X94726000Y-173450000D01*
X94474000Y-173450000D01*
X94406961Y-173430315D01*
X94361206Y-173377511D01*
X94350000Y-173326000D01*
X94350000Y-172350000D01*
X94100029Y-172350000D01*
X94100012Y-172350001D01*
X93997302Y-172360494D01*
X93830880Y-172415641D01*
X93830875Y-172415643D01*
X93681654Y-172507684D01*
X93557683Y-172631655D01*
X93553202Y-172637323D01*
X93551996Y-172636369D01*
X93506287Y-172677481D01*
X93437324Y-172688701D01*
X93373243Y-172660856D01*
X93334389Y-172602786D01*
X93333098Y-172532928D01*
X93338139Y-172518205D01*
X93359648Y-172466276D01*
X93359649Y-172466274D01*
X93370843Y-172410000D01*
X92516988Y-172410000D01*
X92534205Y-172400060D01*
X92590060Y-172344205D01*
X92629556Y-172275796D01*
X92650000Y-172199496D01*
X92650000Y-172120504D01*
X92629556Y-172044204D01*
X92590060Y-171975795D01*
X92534205Y-171919940D01*
X92516988Y-171910000D01*
X93370843Y-171910000D01*
X93359649Y-171853725D01*
X93359648Y-171853723D01*
X93324686Y-171769317D01*
X93306335Y-171725013D01*
X98675000Y-171725013D01*
X98675000Y-172000000D01*
X99512500Y-172000000D01*
X99512500Y-171025000D01*
X99375027Y-171025000D01*
X99375012Y-171025001D01*
X99272302Y-171035494D01*
X99105880Y-171090641D01*
X99105875Y-171090643D01*
X98956654Y-171182684D01*
X98832684Y-171306654D01*
X98740643Y-171455875D01*
X98740641Y-171455880D01*
X98685494Y-171622302D01*
X98685493Y-171622309D01*
X98675000Y-171725013D01*
X93306335Y-171725013D01*
X93280499Y-171662640D01*
X93280494Y-171662631D01*
X93165589Y-171490664D01*
X93165586Y-171490660D01*
X93019339Y-171344413D01*
X93019335Y-171344410D01*
X92847368Y-171229505D01*
X92847358Y-171229500D01*
X92656274Y-171150350D01*
X92656266Y-171150348D01*
X92453420Y-171110000D01*
X92300000Y-171110000D01*
X92300000Y-171860000D01*
X91800000Y-171860000D01*
X91800000Y-171110000D01*
X91646579Y-171110000D01*
X91443733Y-171150348D01*
X91443725Y-171150350D01*
X91252641Y-171229500D01*
X91252631Y-171229505D01*
X91080664Y-171344410D01*
X91080660Y-171344413D01*
X90934413Y-171490660D01*
X90934410Y-171490664D01*
X90819505Y-171662631D01*
X90819500Y-171662641D01*
X90740351Y-171853723D01*
X90740350Y-171853725D01*
X90729157Y-171910000D01*
X91583012Y-171910000D01*
X91565795Y-171919940D01*
X91509940Y-171975795D01*
X91470444Y-172044204D01*
X91450000Y-172120504D01*
X91450000Y-172199496D01*
X91470444Y-172275796D01*
X91509940Y-172344205D01*
X91565795Y-172400060D01*
X91583012Y-172410000D01*
X90729157Y-172410000D01*
X90740350Y-172466274D01*
X90740351Y-172466276D01*
X90819500Y-172657358D01*
X90819505Y-172657368D01*
X90934410Y-172829335D01*
X90934413Y-172829339D01*
X91080659Y-172975585D01*
X91100741Y-172989003D01*
X91145547Y-173042615D01*
X91154256Y-173111940D01*
X91137969Y-173156256D01*
X91086982Y-173240599D01*
X91086980Y-173240603D01*
X91036409Y-173402893D01*
X91030000Y-173473427D01*
X91030000Y-173480000D01*
X91880000Y-173480000D01*
X91880000Y-173340000D01*
X91861709Y-173321709D01*
X91856961Y-173320315D01*
X91811206Y-173267511D01*
X91800000Y-173216000D01*
X91800000Y-172460000D01*
X92300000Y-172460000D01*
X92300000Y-172700000D01*
X92318290Y-172718290D01*
X92323039Y-172719685D01*
X92368794Y-172772489D01*
X92380000Y-172824000D01*
X92380000Y-173606000D01*
X92360315Y-173673039D01*
X92307511Y-173718794D01*
X92256000Y-173730000D01*
X92130000Y-173730000D01*
X92130000Y-173856000D01*
X92110315Y-173923039D01*
X92057511Y-173968794D01*
X92006000Y-173980000D01*
X91030001Y-173980000D01*
X91030001Y-173986582D01*
X91036408Y-174057102D01*
X91036409Y-174057107D01*
X91086981Y-174219398D01*
X91086982Y-174219400D01*
X91127703Y-174286761D01*
X91145539Y-174354315D01*
X91127704Y-174415058D01*
X91085710Y-174484525D01*
X91035822Y-174644623D01*
X91030763Y-174700291D01*
X91029511Y-174714084D01*
X91029500Y-174714201D01*
X91029500Y-174901888D01*
X91009815Y-174968927D01*
X90993181Y-174989569D01*
X90748481Y-175234268D01*
X90748479Y-175234271D01*
X90721695Y-175280664D01*
X90721694Y-175280666D01*
X90669423Y-175371200D01*
X90669423Y-175371201D01*
X90628499Y-175523929D01*
X90628499Y-175523931D01*
X90628499Y-175692032D01*
X90628500Y-175692045D01*
X90628500Y-177270344D01*
X90628499Y-177270362D01*
X90628499Y-177436068D01*
X90628498Y-177436068D01*
X90651298Y-177521158D01*
X90669423Y-177588799D01*
X90690188Y-177624764D01*
X90721410Y-177678842D01*
X90748479Y-177725729D01*
X90867349Y-177844599D01*
X90867355Y-177844604D01*
X90993181Y-177970430D01*
X91026666Y-178031753D01*
X91029500Y-178058110D01*
X91029500Y-178245808D01*
X91035821Y-178315376D01*
X91035823Y-178315383D01*
X91085708Y-178475470D01*
X91085709Y-178475472D01*
X91127703Y-178544939D01*
X91145539Y-178612494D01*
X91127704Y-178673236D01*
X91086981Y-178740601D01*
X91086980Y-178740603D01*
X91036409Y-178902893D01*
X91030000Y-178973427D01*
X91030000Y-178980000D01*
X93229999Y-178980000D01*
X93229999Y-178973417D01*
X93223591Y-178902897D01*
X93223590Y-178902892D01*
X93179497Y-178761391D01*
X93178345Y-178691530D01*
X93215146Y-178632138D01*
X93278215Y-178602070D01*
X93297882Y-178600500D01*
X95443236Y-178600500D01*
X95510275Y-178620185D01*
X95523093Y-178630514D01*
X95523102Y-178630503D01*
X95529547Y-178635448D01*
X95529549Y-178635451D01*
X95649767Y-178727698D01*
X95789764Y-178785687D01*
X95902280Y-178800500D01*
X95925500Y-178800500D01*
X95992539Y-178820185D01*
X96038294Y-178872989D01*
X96049500Y-178924500D01*
X96049500Y-179078846D01*
X96080261Y-179233489D01*
X96080264Y-179233501D01*
X96140602Y-179379172D01*
X96140609Y-179379185D01*
X96228210Y-179510288D01*
X96228213Y-179510292D01*
X96339707Y-179621786D01*
X96339711Y-179621789D01*
X96470814Y-179709390D01*
X96470827Y-179709397D01*
X96568853Y-179750000D01*
X96616503Y-179769737D01*
X96771153Y-179800499D01*
X96771156Y-179800500D01*
X96771158Y-179800500D01*
X96928844Y-179800500D01*
X96928845Y-179800499D01*
X97083497Y-179769737D01*
X97229179Y-179709394D01*
X97360289Y-179621789D01*
X97471789Y-179510289D01*
X97559394Y-179379179D01*
X97619737Y-179233497D01*
X97650500Y-179078842D01*
X97650500Y-178924500D01*
X97670185Y-178857461D01*
X97722989Y-178811706D01*
X97774500Y-178800500D01*
X97797713Y-178800500D01*
X97797720Y-178800500D01*
X97910236Y-178785687D01*
X98050233Y-178727698D01*
X98170451Y-178635451D01*
X98262698Y-178515233D01*
X98320687Y-178375236D01*
X98323441Y-178354314D01*
X98351707Y-178290418D01*
X98410031Y-178251946D01*
X98446380Y-178246499D01*
X100203620Y-178246499D01*
X100270659Y-178266184D01*
X100316414Y-178318988D01*
X100326559Y-178354315D01*
X100329312Y-178375233D01*
X100329313Y-178375236D01*
X100370831Y-178475470D01*
X100387302Y-178515233D01*
X100479549Y-178635451D01*
X100599767Y-178727698D01*
X100739764Y-178785687D01*
X100852280Y-178800500D01*
X100852287Y-178800500D01*
X102747713Y-178800500D01*
X102747720Y-178800500D01*
X102840804Y-178788245D01*
X102909838Y-178799010D01*
X102962094Y-178845390D01*
X102962528Y-178846088D01*
X103005778Y-178916209D01*
X103007288Y-178918656D01*
X103131344Y-179042712D01*
X103280666Y-179134814D01*
X103280667Y-179134814D01*
X103286813Y-179138605D01*
X103285706Y-179140399D01*
X103330337Y-179179687D01*
X103349500Y-179245908D01*
X103349500Y-181464763D01*
X103329815Y-181531802D01*
X103313181Y-181552444D01*
X102237180Y-182628445D01*
X102175857Y-182661930D01*
X102106165Y-182656946D01*
X102050232Y-182615074D01*
X102025815Y-182549610D01*
X102025499Y-182540764D01*
X102025499Y-180852129D01*
X102025498Y-180852123D01*
X102025497Y-180852116D01*
X102019091Y-180792517D01*
X102003419Y-180750499D01*
X101968797Y-180657671D01*
X101968793Y-180657664D01*
X101882547Y-180542455D01*
X101882544Y-180542452D01*
X101767335Y-180456206D01*
X101767328Y-180456202D01*
X101632482Y-180405908D01*
X101632483Y-180405908D01*
X101572883Y-180399501D01*
X101572881Y-180399500D01*
X101572873Y-180399500D01*
X101572864Y-180399500D01*
X99877129Y-180399500D01*
X99877123Y-180399501D01*
X99817516Y-180405908D01*
X99682671Y-180456202D01*
X99682664Y-180456206D01*
X99567455Y-180542452D01*
X99567452Y-180542455D01*
X99481206Y-180657664D01*
X99481202Y-180657671D01*
X99430908Y-180792517D01*
X99425858Y-180839496D01*
X99424501Y-180852123D01*
X99424500Y-180852135D01*
X99424500Y-181402730D01*
X99404815Y-181469769D01*
X99384051Y-181494355D01*
X99374126Y-181503405D01*
X99346284Y-181519480D01*
X99240575Y-181625187D01*
X99238451Y-181627125D01*
X99209511Y-181641238D01*
X99181257Y-181656666D01*
X99176920Y-181657132D01*
X99175652Y-181657751D01*
X99173513Y-181657498D01*
X99154900Y-181659500D01*
X98033375Y-181659500D01*
X98033350Y-181659501D01*
X97996871Y-181662371D01*
X97840640Y-181707760D01*
X97700615Y-181790571D01*
X97700606Y-181790578D01*
X97585578Y-181905606D01*
X97585571Y-181905615D01*
X97502760Y-182045640D01*
X97457372Y-182201869D01*
X97457371Y-182201874D01*
X97454500Y-182238355D01*
X97454500Y-183761624D01*
X97454501Y-183761649D01*
X97457371Y-183798128D01*
X97502760Y-183954359D01*
X97585571Y-184094384D01*
X97585578Y-184094393D01*
X97700606Y-184209421D01*
X97700615Y-184209428D01*
X97820826Y-184280521D01*
X97840642Y-184292240D01*
X97996869Y-184337628D01*
X97999598Y-184337842D01*
X98000222Y-184337892D01*
X98001976Y-184338560D01*
X98003107Y-184338767D01*
X98003068Y-184338976D01*
X98065512Y-184362772D01*
X98106986Y-184419001D01*
X98114500Y-184461509D01*
X98114500Y-184872439D01*
X98114499Y-184872443D01*
X98114499Y-184888774D01*
X98103220Y-184927181D01*
X98094814Y-184955808D01*
X98094813Y-184955808D01*
X98094812Y-184955813D01*
X98051135Y-184993656D01*
X98042010Y-185001563D01*
X98042009Y-185001563D01*
X98042006Y-185001566D01*
X98001535Y-185007382D01*
X97972852Y-185011507D01*
X97972849Y-185011505D01*
X97972847Y-185011506D01*
X97939644Y-184996341D01*
X97909296Y-184982482D01*
X97909293Y-184982479D01*
X97909292Y-184982479D01*
X97909290Y-184982477D01*
X97902818Y-184976450D01*
X97833657Y-184907289D01*
X97833656Y-184907288D01*
X97684334Y-184815186D01*
X97517797Y-184760001D01*
X97517795Y-184760000D01*
X97415010Y-184749500D01*
X96414998Y-184749500D01*
X96414980Y-184749501D01*
X96312203Y-184760000D01*
X96312200Y-184760001D01*
X96145668Y-184815185D01*
X96145663Y-184815187D01*
X95996342Y-184907289D01*
X95927679Y-184975951D01*
X95866355Y-185009436D01*
X95796664Y-185004450D01*
X95752318Y-184975950D01*
X95708657Y-184932289D01*
X95708656Y-184932288D01*
X95574436Y-184849501D01*
X95559336Y-184840187D01*
X95559331Y-184840185D01*
X95470496Y-184810748D01*
X95450463Y-184796877D01*
X95428297Y-184786755D01*
X95422248Y-184777342D01*
X95413051Y-184770975D01*
X95403697Y-184748476D01*
X95390523Y-184727977D01*
X95388064Y-184710875D01*
X95386228Y-184706459D01*
X95385500Y-184693042D01*
X95385500Y-184461509D01*
X95405185Y-184394470D01*
X95457989Y-184348715D01*
X95499781Y-184337891D01*
X95503131Y-184337628D01*
X95659358Y-184292240D01*
X95799389Y-184209425D01*
X95914425Y-184094389D01*
X95997240Y-183954358D01*
X96042628Y-183798131D01*
X96045500Y-183761637D01*
X96045499Y-182238364D01*
X96042628Y-182201869D01*
X95997240Y-182045642D01*
X95936426Y-181942812D01*
X95914428Y-181905615D01*
X95914421Y-181905606D01*
X95799393Y-181790578D01*
X95799387Y-181790573D01*
X95661378Y-181708954D01*
X95613695Y-181657884D01*
X95600500Y-181602222D01*
X95600500Y-181571155D01*
X95600499Y-181571153D01*
X95569737Y-181416503D01*
X95520386Y-181297358D01*
X95509397Y-181270827D01*
X95509390Y-181270814D01*
X95421789Y-181139711D01*
X95421786Y-181139707D01*
X95310292Y-181028213D01*
X95310288Y-181028210D01*
X95179185Y-180940609D01*
X95179172Y-180940602D01*
X95033501Y-180880264D01*
X95033489Y-180880261D01*
X94878845Y-180849500D01*
X94878842Y-180849500D01*
X94721158Y-180849500D01*
X94721155Y-180849500D01*
X94566510Y-180880261D01*
X94566498Y-180880264D01*
X94420827Y-180940602D01*
X94420814Y-180940609D01*
X94289711Y-181028210D01*
X94289707Y-181028213D01*
X94178213Y-181139707D01*
X94178210Y-181139711D01*
X94090609Y-181270814D01*
X94090602Y-181270827D01*
X94030264Y-181416498D01*
X94030261Y-181416510D01*
X93999500Y-181571153D01*
X93999500Y-181588842D01*
X93979815Y-181655881D01*
X93927011Y-181701636D01*
X93911368Y-181707445D01*
X93910640Y-181707760D01*
X93770615Y-181790571D01*
X93770606Y-181790578D01*
X93655578Y-181905606D01*
X93655571Y-181905615D01*
X93572760Y-182045640D01*
X93527372Y-182201869D01*
X93527371Y-182201874D01*
X93524500Y-182238355D01*
X93524500Y-183761624D01*
X93524501Y-183761649D01*
X93527371Y-183798128D01*
X93572760Y-183954359D01*
X93655571Y-184094384D01*
X93655578Y-184094393D01*
X93770606Y-184209421D01*
X93770615Y-184209428D01*
X93890826Y-184280521D01*
X93910642Y-184292240D01*
X94066869Y-184337628D01*
X94069598Y-184337842D01*
X94070222Y-184337892D01*
X94071976Y-184338560D01*
X94073107Y-184338767D01*
X94073068Y-184338976D01*
X94074069Y-184339358D01*
X94078147Y-184338772D01*
X94106447Y-184351696D01*
X94135512Y-184362772D01*
X94137956Y-184366085D01*
X94141703Y-184367797D01*
X94158522Y-184393968D01*
X94176986Y-184419001D01*
X94177887Y-184424101D01*
X94179477Y-184426575D01*
X94184500Y-184461510D01*
X94184500Y-184679787D01*
X94164815Y-184746826D01*
X94112011Y-184792581D01*
X94099505Y-184797493D01*
X93970666Y-184840186D01*
X93970663Y-184840187D01*
X93821342Y-184932289D01*
X93697289Y-185056342D01*
X93605187Y-185205663D01*
X93605185Y-185205668D01*
X93605115Y-185205880D01*
X93550001Y-185372203D01*
X93550001Y-185372204D01*
X93550000Y-185372204D01*
X93539500Y-185474983D01*
X93539500Y-186250001D01*
X93539501Y-186250019D01*
X93550000Y-186352796D01*
X93550001Y-186352799D01*
X93595003Y-186488605D01*
X93605186Y-186519334D01*
X93697288Y-186668656D01*
X93821344Y-186792712D01*
X93823700Y-186794165D01*
X93824653Y-186794753D01*
X93826445Y-186796746D01*
X93827011Y-186797193D01*
X93826934Y-186797289D01*
X93871379Y-186846699D01*
X93882603Y-186915661D01*
X93854761Y-186979744D01*
X93824665Y-187005826D01*
X93821660Y-187007679D01*
X93821655Y-187007683D01*
X93697684Y-187131654D01*
X93605643Y-187280875D01*
X93605641Y-187280880D01*
X93550494Y-187447302D01*
X93550493Y-187447309D01*
X93540000Y-187550013D01*
X93540000Y-187687500D01*
X94641000Y-187687500D01*
X94708039Y-187707185D01*
X94753794Y-187759989D01*
X94765000Y-187811500D01*
X94765000Y-187937500D01*
X94891000Y-187937500D01*
X94958039Y-187957185D01*
X95003794Y-188009989D01*
X95015000Y-188061500D01*
X95015000Y-189024999D01*
X95289972Y-189024999D01*
X95289986Y-189024998D01*
X95392697Y-189014505D01*
X95559119Y-188959358D01*
X95559124Y-188959356D01*
X95708342Y-188867317D01*
X95801964Y-188773695D01*
X95863287Y-188740210D01*
X95932979Y-188745194D01*
X95977327Y-188773695D01*
X95996344Y-188792712D01*
X96145666Y-188884814D01*
X96312203Y-188939999D01*
X96414991Y-188950500D01*
X96518990Y-188950499D01*
X96586026Y-188970183D01*
X96631782Y-189022986D01*
X96641726Y-189092145D01*
X96636695Y-189113501D01*
X96625494Y-189147303D01*
X96625493Y-189147309D01*
X96615000Y-189250013D01*
X96615000Y-189500000D01*
X97591000Y-189500000D01*
X97658039Y-189519685D01*
X97703794Y-189572489D01*
X97715000Y-189624000D01*
X97715000Y-189750000D01*
X97841000Y-189750000D01*
X97908039Y-189769685D01*
X97953794Y-189822489D01*
X97965000Y-189874000D01*
X97965000Y-190949999D01*
X98114972Y-190949999D01*
X98114986Y-190949998D01*
X98217697Y-190939505D01*
X98384119Y-190884358D01*
X98384124Y-190884356D01*
X98533342Y-190792317D01*
X98626964Y-190698695D01*
X98688287Y-190665210D01*
X98757979Y-190670194D01*
X98802327Y-190698695D01*
X98896344Y-190792712D01*
X99045666Y-190884814D01*
X99212203Y-190939999D01*
X99314991Y-190950500D01*
X100115008Y-190950499D01*
X100115016Y-190950498D01*
X100115019Y-190950498D01*
X100171302Y-190944748D01*
X100217797Y-190939999D01*
X100384334Y-190884814D01*
X100533656Y-190792712D01*
X100657712Y-190668656D01*
X100749814Y-190519334D01*
X100804999Y-190352797D01*
X100815500Y-190250009D01*
X100815499Y-189249992D01*
X100811638Y-189212195D01*
X100824408Y-189143502D01*
X100872288Y-189092617D01*
X100940078Y-189075697D01*
X101006255Y-189098113D01*
X101022677Y-189111912D01*
X101499933Y-189589168D01*
X101533418Y-189650491D01*
X101534725Y-189696247D01*
X101509500Y-189855513D01*
X101509500Y-190044486D01*
X101539059Y-190231118D01*
X101597454Y-190410836D01*
X101652737Y-190519334D01*
X101683240Y-190579199D01*
X101794310Y-190732073D01*
X101927927Y-190865690D01*
X102080801Y-190976760D01*
X102160347Y-191017290D01*
X102249163Y-191062545D01*
X102249165Y-191062545D01*
X102249168Y-191062547D01*
X102342360Y-191092827D01*
X102387730Y-191107569D01*
X102445405Y-191147007D01*
X102472603Y-191211366D01*
X102460688Y-191280212D01*
X102413444Y-191331688D01*
X102349411Y-191349500D01*
X86324500Y-191349500D01*
X86257461Y-191329815D01*
X86211706Y-191277011D01*
X86200500Y-191225500D01*
X86200500Y-190249986D01*
X96615001Y-190249986D01*
X96625494Y-190352697D01*
X96680641Y-190519119D01*
X96680643Y-190519124D01*
X96772684Y-190668345D01*
X96896654Y-190792315D01*
X97045875Y-190884356D01*
X97045880Y-190884358D01*
X97212302Y-190939505D01*
X97212309Y-190939506D01*
X97315019Y-190949999D01*
X97464999Y-190949999D01*
X97465000Y-190949998D01*
X97465000Y-190000000D01*
X96615001Y-190000000D01*
X96615001Y-190249986D01*
X86200500Y-190249986D01*
X86200500Y-188153711D01*
X87399500Y-188153711D01*
X87399500Y-188396288D01*
X87425914Y-188596931D01*
X87431162Y-188636789D01*
X87433496Y-188645500D01*
X87493947Y-188871104D01*
X87583616Y-189087583D01*
X87586776Y-189095212D01*
X87708064Y-189305289D01*
X87708066Y-189305292D01*
X87708067Y-189305293D01*
X87855733Y-189497736D01*
X87855739Y-189497743D01*
X88027256Y-189669260D01*
X88027263Y-189669266D01*
X88132478Y-189750000D01*
X88219711Y-189816936D01*
X88429788Y-189938224D01*
X88653900Y-190031054D01*
X88888211Y-190093838D01*
X89068586Y-190117584D01*
X89128711Y-190125500D01*
X89128712Y-190125500D01*
X89371289Y-190125500D01*
X89419388Y-190119167D01*
X89611789Y-190093838D01*
X89846100Y-190031054D01*
X90070212Y-189938224D01*
X90280289Y-189816936D01*
X90472738Y-189669265D01*
X90644265Y-189497738D01*
X90791936Y-189305289D01*
X90913224Y-189095212D01*
X91006054Y-188871100D01*
X91068838Y-188636789D01*
X91100500Y-188396288D01*
X91100500Y-188324986D01*
X93540001Y-188324986D01*
X93550494Y-188427697D01*
X93605641Y-188594119D01*
X93605643Y-188594124D01*
X93697684Y-188743345D01*
X93821654Y-188867315D01*
X93970875Y-188959356D01*
X93970880Y-188959358D01*
X94137302Y-189014505D01*
X94137309Y-189014506D01*
X94240019Y-189024999D01*
X94514999Y-189024999D01*
X94515000Y-189024998D01*
X94515000Y-188187500D01*
X93540001Y-188187500D01*
X93540001Y-188324986D01*
X91100500Y-188324986D01*
X91100500Y-188153712D01*
X91068838Y-187913211D01*
X91006054Y-187678900D01*
X90913224Y-187454788D01*
X90791936Y-187244711D01*
X90719262Y-187150000D01*
X90644266Y-187052263D01*
X90644260Y-187052256D01*
X90472743Y-186880739D01*
X90472736Y-186880733D01*
X90280293Y-186733067D01*
X90280292Y-186733066D01*
X90280289Y-186733064D01*
X90070212Y-186611776D01*
X90070205Y-186611773D01*
X89846104Y-186518947D01*
X89611785Y-186456161D01*
X89371289Y-186424500D01*
X89371288Y-186424500D01*
X89128712Y-186424500D01*
X89128711Y-186424500D01*
X88888214Y-186456161D01*
X88653895Y-186518947D01*
X88429794Y-186611773D01*
X88429785Y-186611777D01*
X88219706Y-186733067D01*
X88027263Y-186880733D01*
X88027256Y-186880739D01*
X87855739Y-187052256D01*
X87855733Y-187052263D01*
X87708067Y-187244706D01*
X87586777Y-187454785D01*
X87586773Y-187454794D01*
X87493947Y-187678895D01*
X87431161Y-187913214D01*
X87399500Y-188153711D01*
X86200500Y-188153711D01*
X86200500Y-180550000D01*
X86929157Y-180550000D01*
X87783012Y-180550000D01*
X87765795Y-180559940D01*
X87709940Y-180615795D01*
X87670444Y-180684204D01*
X87650000Y-180760504D01*
X87650000Y-180839496D01*
X87670444Y-180915796D01*
X87709940Y-180984205D01*
X87765795Y-181040060D01*
X87783012Y-181050000D01*
X86929157Y-181050000D01*
X86940350Y-181106274D01*
X86940351Y-181106276D01*
X87019500Y-181297358D01*
X87019505Y-181297368D01*
X87134410Y-181469335D01*
X87134413Y-181469339D01*
X87280660Y-181615586D01*
X87280664Y-181615589D01*
X87452631Y-181730494D01*
X87452641Y-181730499D01*
X87643725Y-181809649D01*
X87643733Y-181809651D01*
X87846579Y-181849999D01*
X87846583Y-181850000D01*
X88000000Y-181850000D01*
X88000000Y-181100000D01*
X88500000Y-181100000D01*
X88500000Y-181850000D01*
X88653417Y-181850000D01*
X88653420Y-181849999D01*
X88856266Y-181809651D01*
X88856274Y-181809649D01*
X89047358Y-181730499D01*
X89047368Y-181730494D01*
X89219335Y-181615589D01*
X89219339Y-181615586D01*
X89365586Y-181469339D01*
X89365589Y-181469335D01*
X89480494Y-181297368D01*
X89480499Y-181297358D01*
X89559648Y-181106276D01*
X89559649Y-181106274D01*
X89570843Y-181050000D01*
X88716988Y-181050000D01*
X88734205Y-181040060D01*
X88790060Y-180984205D01*
X88829556Y-180915796D01*
X88850000Y-180839496D01*
X88850000Y-180760504D01*
X88829556Y-180684204D01*
X88790060Y-180615795D01*
X88734205Y-180559940D01*
X88716988Y-180550000D01*
X89570843Y-180550000D01*
X90729157Y-180550000D01*
X91583012Y-180550000D01*
X91565795Y-180559940D01*
X91509940Y-180615795D01*
X91470444Y-180684204D01*
X91450000Y-180760504D01*
X91450000Y-180839496D01*
X91470444Y-180915796D01*
X91509940Y-180984205D01*
X91565795Y-181040060D01*
X91583012Y-181050000D01*
X90729157Y-181050000D01*
X90740350Y-181106274D01*
X90740351Y-181106276D01*
X90819500Y-181297358D01*
X90819505Y-181297368D01*
X90934410Y-181469335D01*
X90934413Y-181469339D01*
X91080660Y-181615586D01*
X91080664Y-181615589D01*
X91252631Y-181730494D01*
X91252641Y-181730499D01*
X91443725Y-181809649D01*
X91443733Y-181809651D01*
X91646579Y-181849999D01*
X91646583Y-181850000D01*
X91800000Y-181850000D01*
X91800000Y-181100000D01*
X92300000Y-181100000D01*
X92300000Y-181850000D01*
X92453417Y-181850000D01*
X92453420Y-181849999D01*
X92656266Y-181809651D01*
X92656274Y-181809649D01*
X92847358Y-181730499D01*
X92847368Y-181730494D01*
X93019335Y-181615589D01*
X93019339Y-181615586D01*
X93165586Y-181469339D01*
X93165589Y-181469335D01*
X93280494Y-181297368D01*
X93280499Y-181297358D01*
X93359648Y-181106276D01*
X93359649Y-181106274D01*
X93370843Y-181050000D01*
X92516988Y-181050000D01*
X92534205Y-181040060D01*
X92590060Y-180984205D01*
X92629556Y-180915796D01*
X92650000Y-180839496D01*
X92650000Y-180760504D01*
X92629556Y-180684204D01*
X92590060Y-180615795D01*
X92534205Y-180559940D01*
X92516988Y-180550000D01*
X93370843Y-180550000D01*
X93359649Y-180493725D01*
X93359648Y-180493723D01*
X93280499Y-180302641D01*
X93280494Y-180302631D01*
X93165589Y-180130664D01*
X93165586Y-180130660D01*
X93080118Y-180045192D01*
X93046633Y-179983869D01*
X93051617Y-179914177D01*
X93080126Y-179869821D01*
X93085075Y-179864872D01*
X93173019Y-179719395D01*
X93223590Y-179557106D01*
X93230000Y-179486572D01*
X93230000Y-179480000D01*
X92380000Y-179480000D01*
X92380000Y-180136000D01*
X92370552Y-180168173D01*
X92361843Y-180200601D01*
X92360583Y-180202124D01*
X92360315Y-180203039D01*
X92358596Y-180204527D01*
X92339355Y-180227804D01*
X92300000Y-180263537D01*
X92300000Y-180500000D01*
X91800000Y-180500000D01*
X91800000Y-179744000D01*
X91819685Y-179676961D01*
X91844809Y-179655190D01*
X91880000Y-179620000D01*
X91880000Y-179480000D01*
X91030001Y-179480000D01*
X91030001Y-179486582D01*
X91036408Y-179557102D01*
X91036409Y-179557107D01*
X91086981Y-179719396D01*
X91137969Y-179803741D01*
X91155805Y-179871296D01*
X91134287Y-179937769D01*
X91100746Y-179970991D01*
X91080665Y-179984409D01*
X91080660Y-179984413D01*
X90934413Y-180130660D01*
X90934410Y-180130664D01*
X90819505Y-180302631D01*
X90819500Y-180302641D01*
X90740351Y-180493723D01*
X90740350Y-180493725D01*
X90729157Y-180550000D01*
X89570843Y-180550000D01*
X89559649Y-180493725D01*
X89559648Y-180493723D01*
X89480499Y-180302641D01*
X89480494Y-180302631D01*
X89365589Y-180130664D01*
X89365586Y-180130660D01*
X89219339Y-179984413D01*
X89219335Y-179984410D01*
X89047368Y-179869505D01*
X89047358Y-179869500D01*
X88856274Y-179790350D01*
X88856266Y-179790348D01*
X88653420Y-179750000D01*
X88500000Y-179750000D01*
X88500000Y-180500000D01*
X88000000Y-180500000D01*
X88000000Y-179750000D01*
X87846579Y-179750000D01*
X87643733Y-179790348D01*
X87643725Y-179790350D01*
X87452641Y-179869500D01*
X87452631Y-179869505D01*
X87280664Y-179984410D01*
X87280660Y-179984413D01*
X87134413Y-180130660D01*
X87134410Y-180130664D01*
X87019505Y-180302631D01*
X87019500Y-180302641D01*
X86940351Y-180493723D01*
X86940350Y-180493725D01*
X86929157Y-180550000D01*
X86200500Y-180550000D01*
X86200500Y-171910000D01*
X86929157Y-171910000D01*
X87783012Y-171910000D01*
X87765795Y-171919940D01*
X87709940Y-171975795D01*
X87670444Y-172044204D01*
X87650000Y-172120504D01*
X87650000Y-172199496D01*
X87670444Y-172275796D01*
X87709940Y-172344205D01*
X87765795Y-172400060D01*
X87783012Y-172410000D01*
X86929157Y-172410000D01*
X86940350Y-172466274D01*
X86940351Y-172466276D01*
X87019500Y-172657358D01*
X87019505Y-172657368D01*
X87134410Y-172829335D01*
X87134413Y-172829339D01*
X87280660Y-172975586D01*
X87280664Y-172975589D01*
X87452631Y-173090494D01*
X87452641Y-173090499D01*
X87643725Y-173169649D01*
X87643733Y-173169651D01*
X87846579Y-173209999D01*
X87846583Y-173210000D01*
X88000000Y-173210000D01*
X88000000Y-172460000D01*
X88500000Y-172460000D01*
X88500000Y-173210000D01*
X88653417Y-173210000D01*
X88653420Y-173209999D01*
X88856266Y-173169651D01*
X88856274Y-173169649D01*
X89047358Y-173090499D01*
X89047368Y-173090494D01*
X89219335Y-172975589D01*
X89219339Y-172975586D01*
X89365586Y-172829339D01*
X89365589Y-172829335D01*
X89480494Y-172657368D01*
X89480499Y-172657358D01*
X89559648Y-172466276D01*
X89559649Y-172466274D01*
X89570843Y-172410000D01*
X88716988Y-172410000D01*
X88734205Y-172400060D01*
X88790060Y-172344205D01*
X88829556Y-172275796D01*
X88850000Y-172199496D01*
X88850000Y-172120504D01*
X88829556Y-172044204D01*
X88790060Y-171975795D01*
X88734205Y-171919940D01*
X88716988Y-171910000D01*
X89570843Y-171910000D01*
X89559649Y-171853725D01*
X89559648Y-171853723D01*
X89480499Y-171662641D01*
X89480494Y-171662631D01*
X89365589Y-171490664D01*
X89365586Y-171490660D01*
X89219339Y-171344413D01*
X89219335Y-171344410D01*
X89047368Y-171229505D01*
X89047358Y-171229500D01*
X88856274Y-171150350D01*
X88856266Y-171150348D01*
X88653420Y-171110000D01*
X88500000Y-171110000D01*
X88500000Y-171860000D01*
X88000000Y-171860000D01*
X88000000Y-171110000D01*
X87846579Y-171110000D01*
X87643733Y-171150348D01*
X87643725Y-171150350D01*
X87452641Y-171229500D01*
X87452631Y-171229505D01*
X87280664Y-171344410D01*
X87280660Y-171344413D01*
X87134413Y-171490660D01*
X87134410Y-171490664D01*
X87019505Y-171662631D01*
X87019500Y-171662641D01*
X86940351Y-171853723D01*
X86940350Y-171853725D01*
X86929157Y-171910000D01*
X86200500Y-171910000D01*
X86200500Y-168653711D01*
X94399500Y-168653711D01*
X94399500Y-168896288D01*
X94427395Y-169108181D01*
X94431162Y-169136789D01*
X94443266Y-169181961D01*
X94493947Y-169371104D01*
X94561051Y-169533106D01*
X94586776Y-169595212D01*
X94708064Y-169805289D01*
X94708066Y-169805292D01*
X94708067Y-169805293D01*
X94855733Y-169997736D01*
X94855739Y-169997743D01*
X95027256Y-170169260D01*
X95027263Y-170169266D01*
X95058245Y-170193039D01*
X95219711Y-170316936D01*
X95429788Y-170438224D01*
X95653900Y-170531054D01*
X95888211Y-170593838D01*
X96068586Y-170617584D01*
X96128711Y-170625500D01*
X96128712Y-170625500D01*
X96371289Y-170625500D01*
X96419388Y-170619167D01*
X96611789Y-170593838D01*
X96846100Y-170531054D01*
X97070212Y-170438224D01*
X97280289Y-170316936D01*
X97472738Y-170169265D01*
X97644265Y-169997738D01*
X97791936Y-169805289D01*
X97837076Y-169727105D01*
X100705000Y-169727105D01*
X100705000Y-170000000D01*
X101250000Y-170000000D01*
X101250000Y-169148006D01*
X101249998Y-169148005D01*
X101093307Y-169193528D01*
X101093304Y-169193530D01*
X100952491Y-169276806D01*
X100952483Y-169276812D01*
X100836812Y-169392483D01*
X100836806Y-169392491D01*
X100753531Y-169533302D01*
X100753529Y-169533307D01*
X100707889Y-169690399D01*
X100707888Y-169690405D01*
X100705000Y-169727105D01*
X97837076Y-169727105D01*
X97913224Y-169595212D01*
X98006054Y-169371100D01*
X98068838Y-169136789D01*
X98100500Y-168896288D01*
X98100500Y-168653712D01*
X98068838Y-168413211D01*
X98006054Y-168178900D01*
X97913224Y-167954788D01*
X97791936Y-167744711D01*
X97644265Y-167552262D01*
X97644260Y-167552256D01*
X97472743Y-167380739D01*
X97472736Y-167380733D01*
X97280293Y-167233067D01*
X97280292Y-167233066D01*
X97280289Y-167233064D01*
X97070212Y-167111776D01*
X96974590Y-167072168D01*
X96846104Y-167018947D01*
X96611785Y-166956161D01*
X96371289Y-166924500D01*
X96371288Y-166924500D01*
X96128712Y-166924500D01*
X96128711Y-166924500D01*
X95888214Y-166956161D01*
X95653895Y-167018947D01*
X95429794Y-167111773D01*
X95429785Y-167111777D01*
X95219706Y-167233067D01*
X95027263Y-167380733D01*
X95027256Y-167380739D01*
X94855739Y-167552256D01*
X94855733Y-167552263D01*
X94708067Y-167744706D01*
X94586777Y-167954785D01*
X94586773Y-167954794D01*
X94493947Y-168178895D01*
X94431161Y-168413214D01*
X94399500Y-168653711D01*
X86200500Y-168653711D01*
X86200500Y-166024500D01*
X86220185Y-165957461D01*
X86272989Y-165911706D01*
X86324500Y-165900500D01*
X112175500Y-165900500D01*
X112242539Y-165920185D01*
G37*
%TD.AperFunction*%
%TA.AperFunction,Conductor*%
G36*
X98243813Y-185379776D02*
G01*
X98257146Y-185377859D01*
X98277288Y-185387057D01*
X98298924Y-185391764D01*
X98316653Y-185405034D01*
X98320702Y-185406884D01*
X98327173Y-185412909D01*
X98346284Y-185432020D01*
X98346286Y-185432021D01*
X98353355Y-185439090D01*
X98571681Y-185657416D01*
X98605166Y-185718739D01*
X98608000Y-185745097D01*
X98608000Y-186162947D01*
X98610890Y-186199673D01*
X98610891Y-186199679D01*
X98656567Y-186356892D01*
X98656570Y-186356901D01*
X98659808Y-186362376D01*
X98676986Y-186430101D01*
X98659808Y-186488605D01*
X98657034Y-186493294D01*
X98657029Y-186493308D01*
X98611505Y-186649998D01*
X98611507Y-186650000D01*
X98883324Y-186650000D01*
X98946443Y-186667266D01*
X98996603Y-186696931D01*
X98996605Y-186696931D01*
X98996606Y-186696932D01*
X98996607Y-186696933D01*
X99153820Y-186742608D01*
X99153823Y-186742608D01*
X99153825Y-186742609D01*
X99190560Y-186745500D01*
X99589500Y-186745500D01*
X99598185Y-186748050D01*
X99607147Y-186746762D01*
X99631187Y-186757740D01*
X99656539Y-186765185D01*
X99662466Y-186772025D01*
X99670703Y-186775787D01*
X99684992Y-186798021D01*
X99702294Y-186817989D01*
X99704581Y-186828503D01*
X99708477Y-186834565D01*
X99713500Y-186869500D01*
X99713500Y-186930500D01*
X99693815Y-186997539D01*
X99641011Y-187043294D01*
X99589500Y-187054500D01*
X99190552Y-187054500D01*
X99153826Y-187057390D01*
X99153820Y-187057391D01*
X98996607Y-187103066D01*
X98996606Y-187103067D01*
X98996603Y-187103069D01*
X98948793Y-187131344D01*
X98946444Y-187132733D01*
X98883324Y-187150000D01*
X98611507Y-187150000D01*
X98574304Y-187199549D01*
X98570769Y-187196895D01*
X98556115Y-187219513D01*
X98492452Y-187248302D01*
X98475260Y-187249500D01*
X98160908Y-187249500D01*
X98093869Y-187229815D01*
X98055363Y-187185728D01*
X98053605Y-187186813D01*
X98030899Y-187150000D01*
X97957712Y-187031344D01*
X97864049Y-186937681D01*
X97830564Y-186876358D01*
X97835548Y-186806666D01*
X97864049Y-186762319D01*
X97893304Y-186733064D01*
X97957712Y-186668656D01*
X98049814Y-186519334D01*
X98104999Y-186352797D01*
X98115500Y-186250009D01*
X98115499Y-185500596D01*
X98121736Y-185479352D01*
X98123316Y-185457266D01*
X98131388Y-185446482D01*
X98135183Y-185433558D01*
X98151917Y-185419057D01*
X98165187Y-185401331D01*
X98177807Y-185396623D01*
X98187987Y-185387803D01*
X98209903Y-185384651D01*
X98230651Y-185376913D01*
X98243813Y-185379776D01*
G37*
%TD.AperFunction*%
%TA.AperFunction,Conductor*%
G36*
X93435703Y-176081662D02*
G01*
X93460097Y-176113987D01*
X93461395Y-176113187D01*
X93465185Y-176119332D01*
X93465186Y-176119334D01*
X93557288Y-176268656D01*
X93681344Y-176392712D01*
X93830666Y-176484814D01*
X93997203Y-176539999D01*
X94099991Y-176550500D01*
X95100008Y-176550499D01*
X95100016Y-176550498D01*
X95100019Y-176550498D01*
X95156302Y-176544748D01*
X95202797Y-176539999D01*
X95364869Y-176486293D01*
X95403870Y-176480000D01*
X96726000Y-176480000D01*
X96793039Y-176499685D01*
X96838794Y-176552489D01*
X96850000Y-176604000D01*
X96850000Y-176856000D01*
X96830315Y-176923039D01*
X96777511Y-176968794D01*
X96726000Y-176980000D01*
X95365000Y-176980000D01*
X95365000Y-176992697D01*
X95379800Y-177105104D01*
X95379801Y-177105108D01*
X95430724Y-177228048D01*
X95438193Y-177297517D01*
X95406918Y-177359996D01*
X95346829Y-177395648D01*
X95316163Y-177399500D01*
X93349022Y-177399500D01*
X93281983Y-177379815D01*
X93236228Y-177327011D01*
X93225531Y-177264279D01*
X93230500Y-177209592D01*
X93230500Y-176750408D01*
X93228445Y-176727795D01*
X93224315Y-176682343D01*
X93183231Y-176550500D01*
X93173281Y-176518568D01*
X93176021Y-176517713D01*
X93168264Y-176461727D01*
X93174143Y-176441700D01*
X93173281Y-176441432D01*
X93198316Y-176361088D01*
X93224315Y-176277657D01*
X93230500Y-176209594D01*
X93230500Y-176175375D01*
X93250185Y-176108336D01*
X93302989Y-176062581D01*
X93372147Y-176052637D01*
X93435703Y-176081662D01*
G37*
%TD.AperFunction*%
%TD*%
M02*
