%TF.GenerationSoftware,KiCad,Pcbnew,9.0.3*%
%TF.CreationDate,2025-11-25T19:37:03-05:00*%
%TF.ProjectId,Wren,5772656e-2e6b-4696-9361-645f70636258,rev?*%
%TF.SameCoordinates,Original*%
%TF.FileFunction,Soldermask,Top*%
%TF.FilePolarity,Negative*%
%FSLAX46Y46*%
G04 Gerber Fmt 4.6, Leading zero omitted, Abs format (unit mm)*
G04 Created by KiCad (PCBNEW 9.0.3) date 2025-11-25 19:37:03*
%MOMM*%
%LPD*%
G01*
G04 APERTURE LIST*
G04 Aperture macros list*
%AMRoundRect*
0 Rectangle with rounded corners*
0 $1 Rounding radius*
0 $2 $3 $4 $5 $6 $7 $8 $9 X,Y pos of 4 corners*
0 Add a 4 corners polygon primitive as box body*
4,1,4,$2,$3,$4,$5,$6,$7,$8,$9,$2,$3,0*
0 Add four circle primitives for the rounded corners*
1,1,$1+$1,$2,$3*
1,1,$1+$1,$4,$5*
1,1,$1+$1,$6,$7*
1,1,$1+$1,$8,$9*
0 Add four rect primitives between the rounded corners*
20,1,$1+$1,$2,$3,$4,$5,0*
20,1,$1+$1,$4,$5,$6,$7,0*
20,1,$1+$1,$6,$7,$8,$9,0*
20,1,$1+$1,$8,$9,$2,$3,0*%
G04 Aperture macros list end*
%ADD10RoundRect,0.100500X-0.986500X-0.301500X0.986500X-0.301500X0.986500X0.301500X-0.986500X0.301500X0*%
%ADD11RoundRect,0.102000X-1.206500X-1.651000X1.206500X-1.651000X1.206500X1.651000X-1.206500X1.651000X0*%
%ADD12RoundRect,0.143397X-0.616603X-0.696603X0.616603X-0.696603X0.616603X0.696603X-0.616603X0.696603X0*%
%ADD13RoundRect,0.250000X0.337500X0.475000X-0.337500X0.475000X-0.337500X-0.475000X0.337500X-0.475000X0*%
%ADD14RoundRect,0.250000X-0.475000X0.337500X-0.475000X-0.337500X0.475000X-0.337500X0.475000X0.337500X0*%
%ADD15RoundRect,0.175000X-0.425000X0.175000X-0.425000X-0.175000X0.425000X-0.175000X0.425000X0.175000X0*%
%ADD16RoundRect,0.190000X0.410000X-0.190000X0.410000X0.190000X-0.410000X0.190000X-0.410000X-0.190000X0*%
%ADD17RoundRect,0.200000X0.400000X-0.200000X0.400000X0.200000X-0.400000X0.200000X-0.400000X-0.200000X0*%
%ADD18RoundRect,0.175000X0.425000X-0.175000X0.425000X0.175000X-0.425000X0.175000X-0.425000X-0.175000X0*%
%ADD19RoundRect,0.190000X-0.410000X0.190000X-0.410000X-0.190000X0.410000X-0.190000X0.410000X0.190000X0*%
%ADD20RoundRect,0.200000X-0.400000X0.200000X-0.400000X-0.200000X0.400000X-0.200000X0.400000X0.200000X0*%
%ADD21O,1.700000X1.100000*%
%ADD22RoundRect,0.250000X-0.337500X-0.475000X0.337500X-0.475000X0.337500X0.475000X-0.337500X0.475000X0*%
%ADD23RoundRect,0.198500X-0.508500X-0.198500X0.508500X-0.198500X0.508500X0.198500X-0.508500X0.198500X0*%
%ADD24RoundRect,0.250000X0.350000X0.450000X-0.350000X0.450000X-0.350000X-0.450000X0.350000X-0.450000X0*%
%ADD25RoundRect,0.198500X0.198500X-0.508500X0.198500X0.508500X-0.198500X0.508500X-0.198500X-0.508500X0*%
%ADD26C,3.200000*%
%ADD27RoundRect,0.250000X-0.350000X-0.450000X0.350000X-0.450000X0.350000X0.450000X-0.350000X0.450000X0*%
%ADD28RoundRect,0.250000X-0.450000X0.350000X-0.450000X-0.350000X0.450000X-0.350000X0.450000X0.350000X0*%
%ADD29R,1.600000X2.200000*%
%ADD30RoundRect,0.250000X0.475000X-0.337500X0.475000X0.337500X-0.475000X0.337500X-0.475000X-0.337500X0*%
%ADD31R,1.000000X1.000000*%
%ADD32RoundRect,0.250000X0.450000X-0.350000X0.450000X0.350000X-0.450000X0.350000X-0.450000X-0.350000X0*%
%ADD33RoundRect,0.198500X-0.198500X0.508500X-0.198500X-0.508500X0.198500X-0.508500X0.198500X0.508500X0*%
%ADD34C,1.400000*%
G04 APERTURE END LIST*
D10*
%TO.C,U8*%
X96850000Y-174190000D03*
X96850000Y-175460000D03*
X96850000Y-176730000D03*
X96850000Y-178000000D03*
X101800000Y-178000000D03*
X101800000Y-176730000D03*
X101800000Y-175460000D03*
X101800000Y-174190000D03*
D11*
X99325000Y-176095000D03*
%TD*%
D12*
%TO.C,D144*%
X94785000Y-183000000D03*
X98715000Y-183000000D03*
%TD*%
D13*
%TO.C,C77*%
X101837500Y-172250000D03*
X99762500Y-172250000D03*
%TD*%
D14*
%TO.C,C76*%
X104115000Y-185862500D03*
X104115000Y-187937500D03*
%TD*%
D15*
%TO.C,J13*%
X92130000Y-175980000D03*
D16*
X92130000Y-178000000D03*
D17*
X92130000Y-179230000D03*
D18*
X92130000Y-176980000D03*
D19*
X92130000Y-174960000D03*
D20*
X92130000Y-173730000D03*
D21*
X92050000Y-172160000D03*
X88250000Y-172160000D03*
X92050000Y-180800000D03*
X88250000Y-180800000D03*
%TD*%
D22*
%TO.C,D146*%
X108550000Y-176100000D03*
X110625000Y-176100000D03*
%TD*%
%TO.C,C78*%
X103862500Y-172091500D03*
X105937500Y-172091500D03*
%TD*%
D23*
%TO.C,U6*%
X99713500Y-185950000D03*
X99713500Y-186900000D03*
X99713500Y-187850000D03*
X102223500Y-187850000D03*
X102223500Y-186900000D03*
X102223500Y-185950000D03*
%TD*%
D24*
%TO.C,R9*%
X99715000Y-189750000D03*
X97715000Y-189750000D03*
%TD*%
D25*
%TO.C,Q2*%
X101500000Y-170250000D03*
X102450000Y-170250000D03*
X103400000Y-170250000D03*
X103400000Y-167740000D03*
X102450000Y-167740000D03*
X101500000Y-167740000D03*
%TD*%
D26*
%TO.C,H11*%
X96250000Y-168775000D03*
%TD*%
D27*
%TO.C,R11*%
X104762500Y-174050000D03*
X106762500Y-174050000D03*
%TD*%
D28*
%TO.C,R8*%
X96915000Y-185850000D03*
X96915000Y-187850000D03*
%TD*%
D29*
%TO.C,L2*%
X105525000Y-182000000D03*
X100725000Y-182000000D03*
%TD*%
D30*
%TO.C,C75*%
X94765000Y-187937500D03*
X94765000Y-185862500D03*
%TD*%
D27*
%TO.C,R13*%
X104762500Y-176050000D03*
X106762500Y-176050000D03*
%TD*%
D31*
%TO.C,J11*%
X108950000Y-182800000D03*
%TD*%
D28*
%TO.C,R12*%
X108650000Y-167741500D03*
X108650000Y-169741500D03*
%TD*%
D32*
%TO.C,R14*%
X94600000Y-175450000D03*
X94600000Y-173450000D03*
%TD*%
D27*
%TO.C,R10*%
X103950000Y-178000000D03*
X105950000Y-178000000D03*
%TD*%
D26*
%TO.C,H12*%
X89250000Y-188275000D03*
%TD*%
D31*
%TO.C,J10*%
X108950000Y-179750000D03*
%TD*%
%TO.C,J12*%
X108950000Y-188900000D03*
%TD*%
D33*
%TO.C,U7*%
X106900000Y-167733000D03*
X105950000Y-167733000D03*
X105000000Y-167733000D03*
X105000000Y-170243000D03*
X105950000Y-170243000D03*
X106900000Y-170243000D03*
%TD*%
D22*
%TO.C,D145*%
X108550000Y-174000000D03*
X110625000Y-174000000D03*
%TD*%
D34*
%TO.C,TP2*%
X105250000Y-189950000D03*
X102710000Y-189950000D03*
%TD*%
D31*
%TO.C,J14*%
X108950000Y-185850000D03*
%TD*%
M02*
