%TF.GenerationSoftware,KiCad,Pcbnew,9.0.3*%
%TF.CreationDate,2025-11-25T19:37:03-05:00*%
%TF.ProjectId,Wren,5772656e-2e6b-4696-9361-645f70636258,rev?*%
%TF.SameCoordinates,Original*%
%TF.FileFunction,Legend,Top*%
%TF.FilePolarity,Positive*%
%FSLAX46Y46*%
G04 Gerber Fmt 4.6, Leading zero omitted, Abs format (unit mm)*
G04 Created by KiCad (PCBNEW 9.0.3) date 2025-11-25 19:37:03*
%MOMM*%
%LPD*%
G01*
G04 APERTURE LIST*
%ADD10C,0.100000*%
%ADD11C,0.150000*%
%ADD12C,0.127000*%
%ADD13C,0.200000*%
%ADD14C,0.120000*%
G04 APERTURE END LIST*
D10*
X110470038Y-183172306D02*
X110422419Y-183267544D01*
X110422419Y-183267544D02*
X110422419Y-183410401D01*
X110422419Y-183410401D02*
X110470038Y-183553258D01*
X110470038Y-183553258D02*
X110565276Y-183648496D01*
X110565276Y-183648496D02*
X110660514Y-183696115D01*
X110660514Y-183696115D02*
X110850990Y-183743734D01*
X110850990Y-183743734D02*
X110993847Y-183743734D01*
X110993847Y-183743734D02*
X111184323Y-183696115D01*
X111184323Y-183696115D02*
X111279561Y-183648496D01*
X111279561Y-183648496D02*
X111374800Y-183553258D01*
X111374800Y-183553258D02*
X111422419Y-183410401D01*
X111422419Y-183410401D02*
X111422419Y-183315163D01*
X111422419Y-183315163D02*
X111374800Y-183172306D01*
X111374800Y-183172306D02*
X111327180Y-183124687D01*
X111327180Y-183124687D02*
X110993847Y-183124687D01*
X110993847Y-183124687D02*
X110993847Y-183315163D01*
X111422419Y-182696115D02*
X110422419Y-182696115D01*
X110422419Y-182696115D02*
X111422419Y-182124687D01*
X111422419Y-182124687D02*
X110422419Y-182124687D01*
X111422419Y-181648496D02*
X110422419Y-181648496D01*
X110422419Y-181648496D02*
X110422419Y-181410401D01*
X110422419Y-181410401D02*
X110470038Y-181267544D01*
X110470038Y-181267544D02*
X110565276Y-181172306D01*
X110565276Y-181172306D02*
X110660514Y-181124687D01*
X110660514Y-181124687D02*
X110850990Y-181077068D01*
X110850990Y-181077068D02*
X110993847Y-181077068D01*
X110993847Y-181077068D02*
X111184323Y-181124687D01*
X111184323Y-181124687D02*
X111279561Y-181172306D01*
X111279561Y-181172306D02*
X111374800Y-181267544D01*
X111374800Y-181267544D02*
X111422419Y-181410401D01*
X111422419Y-181410401D02*
X111422419Y-181648496D01*
X108387217Y-190648609D02*
X108530074Y-190696228D01*
X108530074Y-190696228D02*
X108577693Y-190743847D01*
X108577693Y-190743847D02*
X108625312Y-190839085D01*
X108625312Y-190839085D02*
X108625312Y-190981942D01*
X108625312Y-190981942D02*
X108577693Y-191077180D01*
X108577693Y-191077180D02*
X108530074Y-191124800D01*
X108530074Y-191124800D02*
X108434836Y-191172419D01*
X108434836Y-191172419D02*
X108053884Y-191172419D01*
X108053884Y-191172419D02*
X108053884Y-190172419D01*
X108053884Y-190172419D02*
X108387217Y-190172419D01*
X108387217Y-190172419D02*
X108482455Y-190220038D01*
X108482455Y-190220038D02*
X108530074Y-190267657D01*
X108530074Y-190267657D02*
X108577693Y-190362895D01*
X108577693Y-190362895D02*
X108577693Y-190458133D01*
X108577693Y-190458133D02*
X108530074Y-190553371D01*
X108530074Y-190553371D02*
X108482455Y-190600990D01*
X108482455Y-190600990D02*
X108387217Y-190648609D01*
X108387217Y-190648609D02*
X108053884Y-190648609D01*
X109006265Y-190886704D02*
X109482455Y-190886704D01*
X108911027Y-191172419D02*
X109244360Y-190172419D01*
X109244360Y-190172419D02*
X109577693Y-191172419D01*
X109768170Y-190172419D02*
X110339598Y-190172419D01*
X110053884Y-191172419D02*
X110053884Y-190172419D01*
X110672932Y-190791466D02*
X111434837Y-190791466D01*
X111053884Y-191172419D02*
X111053884Y-190410514D01*
X110798609Y-187062782D02*
X110846228Y-186919925D01*
X110846228Y-186919925D02*
X110893847Y-186872306D01*
X110893847Y-186872306D02*
X110989085Y-186824687D01*
X110989085Y-186824687D02*
X111131942Y-186824687D01*
X111131942Y-186824687D02*
X111227180Y-186872306D01*
X111227180Y-186872306D02*
X111274800Y-186919925D01*
X111274800Y-186919925D02*
X111322419Y-187015163D01*
X111322419Y-187015163D02*
X111322419Y-187396115D01*
X111322419Y-187396115D02*
X110322419Y-187396115D01*
X110322419Y-187396115D02*
X110322419Y-187062782D01*
X110322419Y-187062782D02*
X110370038Y-186967544D01*
X110370038Y-186967544D02*
X110417657Y-186919925D01*
X110417657Y-186919925D02*
X110512895Y-186872306D01*
X110512895Y-186872306D02*
X110608133Y-186872306D01*
X110608133Y-186872306D02*
X110703371Y-186919925D01*
X110703371Y-186919925D02*
X110750990Y-186967544D01*
X110750990Y-186967544D02*
X110798609Y-187062782D01*
X110798609Y-187062782D02*
X110798609Y-187396115D01*
X111036704Y-186443734D02*
X111036704Y-185967544D01*
X111322419Y-186538972D02*
X110322419Y-186205639D01*
X110322419Y-186205639D02*
X111322419Y-185872306D01*
X110322419Y-185681829D02*
X110322419Y-185110401D01*
X111322419Y-185396115D02*
X110322419Y-185396115D01*
X110941466Y-184777067D02*
X110941466Y-184015163D01*
X110522419Y-179919925D02*
X110522419Y-180396115D01*
X110522419Y-180396115D02*
X110998609Y-180443734D01*
X110998609Y-180443734D02*
X110950990Y-180396115D01*
X110950990Y-180396115D02*
X110903371Y-180300877D01*
X110903371Y-180300877D02*
X110903371Y-180062782D01*
X110903371Y-180062782D02*
X110950990Y-179967544D01*
X110950990Y-179967544D02*
X110998609Y-179919925D01*
X110998609Y-179919925D02*
X111093847Y-179872306D01*
X111093847Y-179872306D02*
X111331942Y-179872306D01*
X111331942Y-179872306D02*
X111427180Y-179919925D01*
X111427180Y-179919925D02*
X111474800Y-179967544D01*
X111474800Y-179967544D02*
X111522419Y-180062782D01*
X111522419Y-180062782D02*
X111522419Y-180300877D01*
X111522419Y-180300877D02*
X111474800Y-180396115D01*
X111474800Y-180396115D02*
X111427180Y-180443734D01*
X110522419Y-179586591D02*
X111522419Y-179253258D01*
X111522419Y-179253258D02*
X110522419Y-178919925D01*
D11*
X97768095Y-172187819D02*
X97768095Y-172997342D01*
X97768095Y-172997342D02*
X97815714Y-173092580D01*
X97815714Y-173092580D02*
X97863333Y-173140200D01*
X97863333Y-173140200D02*
X97958571Y-173187819D01*
X97958571Y-173187819D02*
X98149047Y-173187819D01*
X98149047Y-173187819D02*
X98244285Y-173140200D01*
X98244285Y-173140200D02*
X98291904Y-173092580D01*
X98291904Y-173092580D02*
X98339523Y-172997342D01*
X98339523Y-172997342D02*
X98339523Y-172187819D01*
X98958571Y-172616390D02*
X98863333Y-172568771D01*
X98863333Y-172568771D02*
X98815714Y-172521152D01*
X98815714Y-172521152D02*
X98768095Y-172425914D01*
X98768095Y-172425914D02*
X98768095Y-172378295D01*
X98768095Y-172378295D02*
X98815714Y-172283057D01*
X98815714Y-172283057D02*
X98863333Y-172235438D01*
X98863333Y-172235438D02*
X98958571Y-172187819D01*
X98958571Y-172187819D02*
X99149047Y-172187819D01*
X99149047Y-172187819D02*
X99244285Y-172235438D01*
X99244285Y-172235438D02*
X99291904Y-172283057D01*
X99291904Y-172283057D02*
X99339523Y-172378295D01*
X99339523Y-172378295D02*
X99339523Y-172425914D01*
X99339523Y-172425914D02*
X99291904Y-172521152D01*
X99291904Y-172521152D02*
X99244285Y-172568771D01*
X99244285Y-172568771D02*
X99149047Y-172616390D01*
X99149047Y-172616390D02*
X98958571Y-172616390D01*
X98958571Y-172616390D02*
X98863333Y-172664009D01*
X98863333Y-172664009D02*
X98815714Y-172711628D01*
X98815714Y-172711628D02*
X98768095Y-172806866D01*
X98768095Y-172806866D02*
X98768095Y-172997342D01*
X98768095Y-172997342D02*
X98815714Y-173092580D01*
X98815714Y-173092580D02*
X98863333Y-173140200D01*
X98863333Y-173140200D02*
X98958571Y-173187819D01*
X98958571Y-173187819D02*
X99149047Y-173187819D01*
X99149047Y-173187819D02*
X99244285Y-173140200D01*
X99244285Y-173140200D02*
X99291904Y-173092580D01*
X99291904Y-173092580D02*
X99339523Y-172997342D01*
X99339523Y-172997342D02*
X99339523Y-172806866D01*
X99339523Y-172806866D02*
X99291904Y-172711628D01*
X99291904Y-172711628D02*
X99244285Y-172664009D01*
X99244285Y-172664009D02*
X99149047Y-172616390D01*
X95059524Y-179924819D02*
X95059524Y-178924819D01*
X95059524Y-178924819D02*
X95297619Y-178924819D01*
X95297619Y-178924819D02*
X95440476Y-178972438D01*
X95440476Y-178972438D02*
X95535714Y-179067676D01*
X95535714Y-179067676D02*
X95583333Y-179162914D01*
X95583333Y-179162914D02*
X95630952Y-179353390D01*
X95630952Y-179353390D02*
X95630952Y-179496247D01*
X95630952Y-179496247D02*
X95583333Y-179686723D01*
X95583333Y-179686723D02*
X95535714Y-179781961D01*
X95535714Y-179781961D02*
X95440476Y-179877200D01*
X95440476Y-179877200D02*
X95297619Y-179924819D01*
X95297619Y-179924819D02*
X95059524Y-179924819D01*
X96583333Y-179924819D02*
X96011905Y-179924819D01*
X96297619Y-179924819D02*
X96297619Y-178924819D01*
X96297619Y-178924819D02*
X96202381Y-179067676D01*
X96202381Y-179067676D02*
X96107143Y-179162914D01*
X96107143Y-179162914D02*
X96011905Y-179210533D01*
X97440476Y-179258152D02*
X97440476Y-179924819D01*
X97202381Y-178877200D02*
X96964286Y-179591485D01*
X96964286Y-179591485D02*
X97583333Y-179591485D01*
X98392857Y-179258152D02*
X98392857Y-179924819D01*
X98154762Y-178877200D02*
X97916667Y-179591485D01*
X97916667Y-179591485D02*
X98535714Y-179591485D01*
X100157142Y-174289580D02*
X100109523Y-174337200D01*
X100109523Y-174337200D02*
X99966666Y-174384819D01*
X99966666Y-174384819D02*
X99871428Y-174384819D01*
X99871428Y-174384819D02*
X99728571Y-174337200D01*
X99728571Y-174337200D02*
X99633333Y-174241961D01*
X99633333Y-174241961D02*
X99585714Y-174146723D01*
X99585714Y-174146723D02*
X99538095Y-173956247D01*
X99538095Y-173956247D02*
X99538095Y-173813390D01*
X99538095Y-173813390D02*
X99585714Y-173622914D01*
X99585714Y-173622914D02*
X99633333Y-173527676D01*
X99633333Y-173527676D02*
X99728571Y-173432438D01*
X99728571Y-173432438D02*
X99871428Y-173384819D01*
X99871428Y-173384819D02*
X99966666Y-173384819D01*
X99966666Y-173384819D02*
X100109523Y-173432438D01*
X100109523Y-173432438D02*
X100157142Y-173480057D01*
X100490476Y-173384819D02*
X101157142Y-173384819D01*
X101157142Y-173384819D02*
X100728571Y-174384819D01*
X101442857Y-173384819D02*
X102109523Y-173384819D01*
X102109523Y-173384819D02*
X101680952Y-174384819D01*
X106154580Y-187542857D02*
X106202200Y-187590476D01*
X106202200Y-187590476D02*
X106249819Y-187733333D01*
X106249819Y-187733333D02*
X106249819Y-187828571D01*
X106249819Y-187828571D02*
X106202200Y-187971428D01*
X106202200Y-187971428D02*
X106106961Y-188066666D01*
X106106961Y-188066666D02*
X106011723Y-188114285D01*
X106011723Y-188114285D02*
X105821247Y-188161904D01*
X105821247Y-188161904D02*
X105678390Y-188161904D01*
X105678390Y-188161904D02*
X105487914Y-188114285D01*
X105487914Y-188114285D02*
X105392676Y-188066666D01*
X105392676Y-188066666D02*
X105297438Y-187971428D01*
X105297438Y-187971428D02*
X105249819Y-187828571D01*
X105249819Y-187828571D02*
X105249819Y-187733333D01*
X105249819Y-187733333D02*
X105297438Y-187590476D01*
X105297438Y-187590476D02*
X105345057Y-187542857D01*
X105249819Y-187209523D02*
X105249819Y-186542857D01*
X105249819Y-186542857D02*
X106249819Y-186971428D01*
X105249819Y-185733333D02*
X105249819Y-185923809D01*
X105249819Y-185923809D02*
X105297438Y-186019047D01*
X105297438Y-186019047D02*
X105345057Y-186066666D01*
X105345057Y-186066666D02*
X105487914Y-186161904D01*
X105487914Y-186161904D02*
X105678390Y-186209523D01*
X105678390Y-186209523D02*
X106059342Y-186209523D01*
X106059342Y-186209523D02*
X106154580Y-186161904D01*
X106154580Y-186161904D02*
X106202200Y-186114285D01*
X106202200Y-186114285D02*
X106249819Y-186019047D01*
X106249819Y-186019047D02*
X106249819Y-185828571D01*
X106249819Y-185828571D02*
X106202200Y-185733333D01*
X106202200Y-185733333D02*
X106154580Y-185685714D01*
X106154580Y-185685714D02*
X106059342Y-185638095D01*
X106059342Y-185638095D02*
X105821247Y-185638095D01*
X105821247Y-185638095D02*
X105726009Y-185685714D01*
X105726009Y-185685714D02*
X105678390Y-185733333D01*
X105678390Y-185733333D02*
X105630771Y-185828571D01*
X105630771Y-185828571D02*
X105630771Y-186019047D01*
X105630771Y-186019047D02*
X105678390Y-186114285D01*
X105678390Y-186114285D02*
X105726009Y-186161904D01*
X105726009Y-186161904D02*
X105821247Y-186209523D01*
X94695180Y-175670476D02*
X93980895Y-175670476D01*
X93980895Y-175670476D02*
X93838038Y-175622857D01*
X93838038Y-175622857D02*
X93742800Y-175527619D01*
X93742800Y-175527619D02*
X93695180Y-175384762D01*
X93695180Y-175384762D02*
X93695180Y-175289524D01*
X93695180Y-176670476D02*
X93695180Y-176099048D01*
X93695180Y-176384762D02*
X94695180Y-176384762D01*
X94695180Y-176384762D02*
X94552323Y-176289524D01*
X94552323Y-176289524D02*
X94457085Y-176194286D01*
X94457085Y-176194286D02*
X94409466Y-176099048D01*
X94695180Y-177003810D02*
X94695180Y-177622857D01*
X94695180Y-177622857D02*
X94314228Y-177289524D01*
X94314228Y-177289524D02*
X94314228Y-177432381D01*
X94314228Y-177432381D02*
X94266609Y-177527619D01*
X94266609Y-177527619D02*
X94218990Y-177575238D01*
X94218990Y-177575238D02*
X94123752Y-177622857D01*
X94123752Y-177622857D02*
X93885657Y-177622857D01*
X93885657Y-177622857D02*
X93790419Y-177575238D01*
X93790419Y-177575238D02*
X93742800Y-177527619D01*
X93742800Y-177527619D02*
X93695180Y-177432381D01*
X93695180Y-177432381D02*
X93695180Y-177146667D01*
X93695180Y-177146667D02*
X93742800Y-177051429D01*
X93742800Y-177051429D02*
X93790419Y-177003810D01*
X107897024Y-174874819D02*
X107897024Y-173874819D01*
X107897024Y-173874819D02*
X108135119Y-173874819D01*
X108135119Y-173874819D02*
X108277976Y-173922438D01*
X108277976Y-173922438D02*
X108373214Y-174017676D01*
X108373214Y-174017676D02*
X108420833Y-174112914D01*
X108420833Y-174112914D02*
X108468452Y-174303390D01*
X108468452Y-174303390D02*
X108468452Y-174446247D01*
X108468452Y-174446247D02*
X108420833Y-174636723D01*
X108420833Y-174636723D02*
X108373214Y-174731961D01*
X108373214Y-174731961D02*
X108277976Y-174827200D01*
X108277976Y-174827200D02*
X108135119Y-174874819D01*
X108135119Y-174874819D02*
X107897024Y-174874819D01*
X109420833Y-174874819D02*
X108849405Y-174874819D01*
X109135119Y-174874819D02*
X109135119Y-173874819D01*
X109135119Y-173874819D02*
X109039881Y-174017676D01*
X109039881Y-174017676D02*
X108944643Y-174112914D01*
X108944643Y-174112914D02*
X108849405Y-174160533D01*
X110277976Y-174208152D02*
X110277976Y-174874819D01*
X110039881Y-173827200D02*
X109801786Y-174541485D01*
X109801786Y-174541485D02*
X110420833Y-174541485D01*
X111230357Y-173874819D02*
X111039881Y-173874819D01*
X111039881Y-173874819D02*
X110944643Y-173922438D01*
X110944643Y-173922438D02*
X110897024Y-173970057D01*
X110897024Y-173970057D02*
X110801786Y-174112914D01*
X110801786Y-174112914D02*
X110754167Y-174303390D01*
X110754167Y-174303390D02*
X110754167Y-174684342D01*
X110754167Y-174684342D02*
X110801786Y-174779580D01*
X110801786Y-174779580D02*
X110849405Y-174827200D01*
X110849405Y-174827200D02*
X110944643Y-174874819D01*
X110944643Y-174874819D02*
X111135119Y-174874819D01*
X111135119Y-174874819D02*
X111230357Y-174827200D01*
X111230357Y-174827200D02*
X111277976Y-174779580D01*
X111277976Y-174779580D02*
X111325595Y-174684342D01*
X111325595Y-174684342D02*
X111325595Y-174446247D01*
X111325595Y-174446247D02*
X111277976Y-174351009D01*
X111277976Y-174351009D02*
X111230357Y-174303390D01*
X111230357Y-174303390D02*
X111135119Y-174255771D01*
X111135119Y-174255771D02*
X110944643Y-174255771D01*
X110944643Y-174255771D02*
X110849405Y-174303390D01*
X110849405Y-174303390D02*
X110801786Y-174351009D01*
X110801786Y-174351009D02*
X110754167Y-174446247D01*
X104257142Y-170771080D02*
X104209523Y-170818700D01*
X104209523Y-170818700D02*
X104066666Y-170866319D01*
X104066666Y-170866319D02*
X103971428Y-170866319D01*
X103971428Y-170866319D02*
X103828571Y-170818700D01*
X103828571Y-170818700D02*
X103733333Y-170723461D01*
X103733333Y-170723461D02*
X103685714Y-170628223D01*
X103685714Y-170628223D02*
X103638095Y-170437747D01*
X103638095Y-170437747D02*
X103638095Y-170294890D01*
X103638095Y-170294890D02*
X103685714Y-170104414D01*
X103685714Y-170104414D02*
X103733333Y-170009176D01*
X103733333Y-170009176D02*
X103828571Y-169913938D01*
X103828571Y-169913938D02*
X103971428Y-169866319D01*
X103971428Y-169866319D02*
X104066666Y-169866319D01*
X104066666Y-169866319D02*
X104209523Y-169913938D01*
X104209523Y-169913938D02*
X104257142Y-169961557D01*
X104590476Y-169866319D02*
X105257142Y-169866319D01*
X105257142Y-169866319D02*
X104828571Y-170866319D01*
X105780952Y-170294890D02*
X105685714Y-170247271D01*
X105685714Y-170247271D02*
X105638095Y-170199652D01*
X105638095Y-170199652D02*
X105590476Y-170104414D01*
X105590476Y-170104414D02*
X105590476Y-170056795D01*
X105590476Y-170056795D02*
X105638095Y-169961557D01*
X105638095Y-169961557D02*
X105685714Y-169913938D01*
X105685714Y-169913938D02*
X105780952Y-169866319D01*
X105780952Y-169866319D02*
X105971428Y-169866319D01*
X105971428Y-169866319D02*
X106066666Y-169913938D01*
X106066666Y-169913938D02*
X106114285Y-169961557D01*
X106114285Y-169961557D02*
X106161904Y-170056795D01*
X106161904Y-170056795D02*
X106161904Y-170104414D01*
X106161904Y-170104414D02*
X106114285Y-170199652D01*
X106114285Y-170199652D02*
X106066666Y-170247271D01*
X106066666Y-170247271D02*
X105971428Y-170294890D01*
X105971428Y-170294890D02*
X105780952Y-170294890D01*
X105780952Y-170294890D02*
X105685714Y-170342509D01*
X105685714Y-170342509D02*
X105638095Y-170390128D01*
X105638095Y-170390128D02*
X105590476Y-170485366D01*
X105590476Y-170485366D02*
X105590476Y-170675842D01*
X105590476Y-170675842D02*
X105638095Y-170771080D01*
X105638095Y-170771080D02*
X105685714Y-170818700D01*
X105685714Y-170818700D02*
X105780952Y-170866319D01*
X105780952Y-170866319D02*
X105971428Y-170866319D01*
X105971428Y-170866319D02*
X106066666Y-170818700D01*
X106066666Y-170818700D02*
X106114285Y-170771080D01*
X106114285Y-170771080D02*
X106161904Y-170675842D01*
X106161904Y-170675842D02*
X106161904Y-170485366D01*
X106161904Y-170485366D02*
X106114285Y-170390128D01*
X106114285Y-170390128D02*
X106066666Y-170342509D01*
X106066666Y-170342509D02*
X105971428Y-170294890D01*
X100001595Y-183654819D02*
X100001595Y-184464342D01*
X100001595Y-184464342D02*
X100049214Y-184559580D01*
X100049214Y-184559580D02*
X100096833Y-184607200D01*
X100096833Y-184607200D02*
X100192071Y-184654819D01*
X100192071Y-184654819D02*
X100382547Y-184654819D01*
X100382547Y-184654819D02*
X100477785Y-184607200D01*
X100477785Y-184607200D02*
X100525404Y-184559580D01*
X100525404Y-184559580D02*
X100573023Y-184464342D01*
X100573023Y-184464342D02*
X100573023Y-183654819D01*
X101477785Y-183654819D02*
X101287309Y-183654819D01*
X101287309Y-183654819D02*
X101192071Y-183702438D01*
X101192071Y-183702438D02*
X101144452Y-183750057D01*
X101144452Y-183750057D02*
X101049214Y-183892914D01*
X101049214Y-183892914D02*
X101001595Y-184083390D01*
X101001595Y-184083390D02*
X101001595Y-184464342D01*
X101001595Y-184464342D02*
X101049214Y-184559580D01*
X101049214Y-184559580D02*
X101096833Y-184607200D01*
X101096833Y-184607200D02*
X101192071Y-184654819D01*
X101192071Y-184654819D02*
X101382547Y-184654819D01*
X101382547Y-184654819D02*
X101477785Y-184607200D01*
X101477785Y-184607200D02*
X101525404Y-184559580D01*
X101525404Y-184559580D02*
X101573023Y-184464342D01*
X101573023Y-184464342D02*
X101573023Y-184226247D01*
X101573023Y-184226247D02*
X101525404Y-184131009D01*
X101525404Y-184131009D02*
X101477785Y-184083390D01*
X101477785Y-184083390D02*
X101382547Y-184035771D01*
X101382547Y-184035771D02*
X101192071Y-184035771D01*
X101192071Y-184035771D02*
X101096833Y-184083390D01*
X101096833Y-184083390D02*
X101049214Y-184131009D01*
X101049214Y-184131009D02*
X101001595Y-184226247D01*
X98548333Y-191854819D02*
X98215000Y-191378628D01*
X97976905Y-191854819D02*
X97976905Y-190854819D01*
X97976905Y-190854819D02*
X98357857Y-190854819D01*
X98357857Y-190854819D02*
X98453095Y-190902438D01*
X98453095Y-190902438D02*
X98500714Y-190950057D01*
X98500714Y-190950057D02*
X98548333Y-191045295D01*
X98548333Y-191045295D02*
X98548333Y-191188152D01*
X98548333Y-191188152D02*
X98500714Y-191283390D01*
X98500714Y-191283390D02*
X98453095Y-191331009D01*
X98453095Y-191331009D02*
X98357857Y-191378628D01*
X98357857Y-191378628D02*
X97976905Y-191378628D01*
X99024524Y-191854819D02*
X99215000Y-191854819D01*
X99215000Y-191854819D02*
X99310238Y-191807200D01*
X99310238Y-191807200D02*
X99357857Y-191759580D01*
X99357857Y-191759580D02*
X99453095Y-191616723D01*
X99453095Y-191616723D02*
X99500714Y-191426247D01*
X99500714Y-191426247D02*
X99500714Y-191045295D01*
X99500714Y-191045295D02*
X99453095Y-190950057D01*
X99453095Y-190950057D02*
X99405476Y-190902438D01*
X99405476Y-190902438D02*
X99310238Y-190854819D01*
X99310238Y-190854819D02*
X99119762Y-190854819D01*
X99119762Y-190854819D02*
X99024524Y-190902438D01*
X99024524Y-190902438D02*
X98976905Y-190950057D01*
X98976905Y-190950057D02*
X98929286Y-191045295D01*
X98929286Y-191045295D02*
X98929286Y-191283390D01*
X98929286Y-191283390D02*
X98976905Y-191378628D01*
X98976905Y-191378628D02*
X99024524Y-191426247D01*
X99024524Y-191426247D02*
X99119762Y-191473866D01*
X99119762Y-191473866D02*
X99310238Y-191473866D01*
X99310238Y-191473866D02*
X99405476Y-191426247D01*
X99405476Y-191426247D02*
X99453095Y-191378628D01*
X99453095Y-191378628D02*
X99500714Y-191283390D01*
X100300057Y-169295238D02*
X100252438Y-169390476D01*
X100252438Y-169390476D02*
X100157200Y-169485714D01*
X100157200Y-169485714D02*
X100014342Y-169628571D01*
X100014342Y-169628571D02*
X99966723Y-169723809D01*
X99966723Y-169723809D02*
X99966723Y-169819047D01*
X100204819Y-169771428D02*
X100157200Y-169866666D01*
X100157200Y-169866666D02*
X100061961Y-169961904D01*
X100061961Y-169961904D02*
X99871485Y-170009523D01*
X99871485Y-170009523D02*
X99538152Y-170009523D01*
X99538152Y-170009523D02*
X99347676Y-169961904D01*
X99347676Y-169961904D02*
X99252438Y-169866666D01*
X99252438Y-169866666D02*
X99204819Y-169771428D01*
X99204819Y-169771428D02*
X99204819Y-169580952D01*
X99204819Y-169580952D02*
X99252438Y-169485714D01*
X99252438Y-169485714D02*
X99347676Y-169390476D01*
X99347676Y-169390476D02*
X99538152Y-169342857D01*
X99538152Y-169342857D02*
X99871485Y-169342857D01*
X99871485Y-169342857D02*
X100061961Y-169390476D01*
X100061961Y-169390476D02*
X100157200Y-169485714D01*
X100157200Y-169485714D02*
X100204819Y-169580952D01*
X100204819Y-169580952D02*
X100204819Y-169771428D01*
X99300057Y-168961904D02*
X99252438Y-168914285D01*
X99252438Y-168914285D02*
X99204819Y-168819047D01*
X99204819Y-168819047D02*
X99204819Y-168580952D01*
X99204819Y-168580952D02*
X99252438Y-168485714D01*
X99252438Y-168485714D02*
X99300057Y-168438095D01*
X99300057Y-168438095D02*
X99395295Y-168390476D01*
X99395295Y-168390476D02*
X99490533Y-168390476D01*
X99490533Y-168390476D02*
X99633390Y-168438095D01*
X99633390Y-168438095D02*
X100204819Y-169009523D01*
X100204819Y-169009523D02*
X100204819Y-168390476D01*
X95011905Y-165079819D02*
X95011905Y-164079819D01*
X95011905Y-164556009D02*
X95583333Y-164556009D01*
X95583333Y-165079819D02*
X95583333Y-164079819D01*
X96583333Y-165079819D02*
X96011905Y-165079819D01*
X96297619Y-165079819D02*
X96297619Y-164079819D01*
X96297619Y-164079819D02*
X96202381Y-164222676D01*
X96202381Y-164222676D02*
X96107143Y-164317914D01*
X96107143Y-164317914D02*
X96011905Y-164365533D01*
X97535714Y-165079819D02*
X96964286Y-165079819D01*
X97250000Y-165079819D02*
X97250000Y-164079819D01*
X97250000Y-164079819D02*
X97154762Y-164222676D01*
X97154762Y-164222676D02*
X97059524Y-164317914D01*
X97059524Y-164317914D02*
X96964286Y-164365533D01*
X105119642Y-172854819D02*
X104786309Y-172378628D01*
X104548214Y-172854819D02*
X104548214Y-171854819D01*
X104548214Y-171854819D02*
X104929166Y-171854819D01*
X104929166Y-171854819D02*
X105024404Y-171902438D01*
X105024404Y-171902438D02*
X105072023Y-171950057D01*
X105072023Y-171950057D02*
X105119642Y-172045295D01*
X105119642Y-172045295D02*
X105119642Y-172188152D01*
X105119642Y-172188152D02*
X105072023Y-172283390D01*
X105072023Y-172283390D02*
X105024404Y-172331009D01*
X105024404Y-172331009D02*
X104929166Y-172378628D01*
X104929166Y-172378628D02*
X104548214Y-172378628D01*
X106072023Y-172854819D02*
X105500595Y-172854819D01*
X105786309Y-172854819D02*
X105786309Y-171854819D01*
X105786309Y-171854819D02*
X105691071Y-171997676D01*
X105691071Y-171997676D02*
X105595833Y-172092914D01*
X105595833Y-172092914D02*
X105500595Y-172140533D01*
X107024404Y-172854819D02*
X106452976Y-172854819D01*
X106738690Y-172854819D02*
X106738690Y-171854819D01*
X106738690Y-171854819D02*
X106643452Y-171997676D01*
X106643452Y-171997676D02*
X106548214Y-172092914D01*
X106548214Y-172092914D02*
X106452976Y-172140533D01*
X99019819Y-187016666D02*
X98543628Y-187349999D01*
X99019819Y-187588094D02*
X98019819Y-187588094D01*
X98019819Y-187588094D02*
X98019819Y-187207142D01*
X98019819Y-187207142D02*
X98067438Y-187111904D01*
X98067438Y-187111904D02*
X98115057Y-187064285D01*
X98115057Y-187064285D02*
X98210295Y-187016666D01*
X98210295Y-187016666D02*
X98353152Y-187016666D01*
X98353152Y-187016666D02*
X98448390Y-187064285D01*
X98448390Y-187064285D02*
X98496009Y-187111904D01*
X98496009Y-187111904D02*
X98543628Y-187207142D01*
X98543628Y-187207142D02*
X98543628Y-187588094D01*
X98448390Y-186445237D02*
X98400771Y-186540475D01*
X98400771Y-186540475D02*
X98353152Y-186588094D01*
X98353152Y-186588094D02*
X98257914Y-186635713D01*
X98257914Y-186635713D02*
X98210295Y-186635713D01*
X98210295Y-186635713D02*
X98115057Y-186588094D01*
X98115057Y-186588094D02*
X98067438Y-186540475D01*
X98067438Y-186540475D02*
X98019819Y-186445237D01*
X98019819Y-186445237D02*
X98019819Y-186254761D01*
X98019819Y-186254761D02*
X98067438Y-186159523D01*
X98067438Y-186159523D02*
X98115057Y-186111904D01*
X98115057Y-186111904D02*
X98210295Y-186064285D01*
X98210295Y-186064285D02*
X98257914Y-186064285D01*
X98257914Y-186064285D02*
X98353152Y-186111904D01*
X98353152Y-186111904D02*
X98400771Y-186159523D01*
X98400771Y-186159523D02*
X98448390Y-186254761D01*
X98448390Y-186254761D02*
X98448390Y-186445237D01*
X98448390Y-186445237D02*
X98496009Y-186540475D01*
X98496009Y-186540475D02*
X98543628Y-186588094D01*
X98543628Y-186588094D02*
X98638866Y-186635713D01*
X98638866Y-186635713D02*
X98829342Y-186635713D01*
X98829342Y-186635713D02*
X98924580Y-186588094D01*
X98924580Y-186588094D02*
X98972200Y-186540475D01*
X98972200Y-186540475D02*
X99019819Y-186445237D01*
X99019819Y-186445237D02*
X99019819Y-186254761D01*
X99019819Y-186254761D02*
X98972200Y-186159523D01*
X98972200Y-186159523D02*
X98924580Y-186111904D01*
X98924580Y-186111904D02*
X98829342Y-186064285D01*
X98829342Y-186064285D02*
X98638866Y-186064285D01*
X98638866Y-186064285D02*
X98543628Y-186111904D01*
X98543628Y-186111904D02*
X98496009Y-186159523D01*
X98496009Y-186159523D02*
X98448390Y-186254761D01*
D10*
X98117580Y-181833333D02*
X98117580Y-181357143D01*
X98117580Y-181357143D02*
X99117580Y-181357143D01*
X99022342Y-182119048D02*
X99069961Y-182166667D01*
X99069961Y-182166667D02*
X99117580Y-182261905D01*
X99117580Y-182261905D02*
X99117580Y-182500000D01*
X99117580Y-182500000D02*
X99069961Y-182595238D01*
X99069961Y-182595238D02*
X99022342Y-182642857D01*
X99022342Y-182642857D02*
X98927104Y-182690476D01*
X98927104Y-182690476D02*
X98831866Y-182690476D01*
X98831866Y-182690476D02*
X98689009Y-182642857D01*
X98689009Y-182642857D02*
X98117580Y-182071429D01*
X98117580Y-182071429D02*
X98117580Y-182690476D01*
D11*
X93444580Y-187542857D02*
X93492200Y-187590476D01*
X93492200Y-187590476D02*
X93539819Y-187733333D01*
X93539819Y-187733333D02*
X93539819Y-187828571D01*
X93539819Y-187828571D02*
X93492200Y-187971428D01*
X93492200Y-187971428D02*
X93396961Y-188066666D01*
X93396961Y-188066666D02*
X93301723Y-188114285D01*
X93301723Y-188114285D02*
X93111247Y-188161904D01*
X93111247Y-188161904D02*
X92968390Y-188161904D01*
X92968390Y-188161904D02*
X92777914Y-188114285D01*
X92777914Y-188114285D02*
X92682676Y-188066666D01*
X92682676Y-188066666D02*
X92587438Y-187971428D01*
X92587438Y-187971428D02*
X92539819Y-187828571D01*
X92539819Y-187828571D02*
X92539819Y-187733333D01*
X92539819Y-187733333D02*
X92587438Y-187590476D01*
X92587438Y-187590476D02*
X92635057Y-187542857D01*
X92539819Y-187209523D02*
X92539819Y-186542857D01*
X92539819Y-186542857D02*
X93539819Y-186971428D01*
X92539819Y-185685714D02*
X92539819Y-186161904D01*
X92539819Y-186161904D02*
X93016009Y-186209523D01*
X93016009Y-186209523D02*
X92968390Y-186161904D01*
X92968390Y-186161904D02*
X92920771Y-186066666D01*
X92920771Y-186066666D02*
X92920771Y-185828571D01*
X92920771Y-185828571D02*
X92968390Y-185733333D01*
X92968390Y-185733333D02*
X93016009Y-185685714D01*
X93016009Y-185685714D02*
X93111247Y-185638095D01*
X93111247Y-185638095D02*
X93349342Y-185638095D01*
X93349342Y-185638095D02*
X93444580Y-185685714D01*
X93444580Y-185685714D02*
X93492200Y-185733333D01*
X93492200Y-185733333D02*
X93539819Y-185828571D01*
X93539819Y-185828571D02*
X93539819Y-186066666D01*
X93539819Y-186066666D02*
X93492200Y-186161904D01*
X93492200Y-186161904D02*
X93444580Y-186209523D01*
X105119642Y-174854819D02*
X104786309Y-174378628D01*
X104548214Y-174854819D02*
X104548214Y-173854819D01*
X104548214Y-173854819D02*
X104929166Y-173854819D01*
X104929166Y-173854819D02*
X105024404Y-173902438D01*
X105024404Y-173902438D02*
X105072023Y-173950057D01*
X105072023Y-173950057D02*
X105119642Y-174045295D01*
X105119642Y-174045295D02*
X105119642Y-174188152D01*
X105119642Y-174188152D02*
X105072023Y-174283390D01*
X105072023Y-174283390D02*
X105024404Y-174331009D01*
X105024404Y-174331009D02*
X104929166Y-174378628D01*
X104929166Y-174378628D02*
X104548214Y-174378628D01*
X106072023Y-174854819D02*
X105500595Y-174854819D01*
X105786309Y-174854819D02*
X105786309Y-173854819D01*
X105786309Y-173854819D02*
X105691071Y-173997676D01*
X105691071Y-173997676D02*
X105595833Y-174092914D01*
X105595833Y-174092914D02*
X105500595Y-174140533D01*
X106405357Y-173854819D02*
X107024404Y-173854819D01*
X107024404Y-173854819D02*
X106691071Y-174235771D01*
X106691071Y-174235771D02*
X106833928Y-174235771D01*
X106833928Y-174235771D02*
X106929166Y-174283390D01*
X106929166Y-174283390D02*
X106976785Y-174331009D01*
X106976785Y-174331009D02*
X107024404Y-174426247D01*
X107024404Y-174426247D02*
X107024404Y-174664342D01*
X107024404Y-174664342D02*
X106976785Y-174759580D01*
X106976785Y-174759580D02*
X106929166Y-174807200D01*
X106929166Y-174807200D02*
X106833928Y-174854819D01*
X106833928Y-174854819D02*
X106548214Y-174854819D01*
X106548214Y-174854819D02*
X106452976Y-174807200D01*
X106452976Y-174807200D02*
X106405357Y-174759580D01*
X108140476Y-180806819D02*
X108140476Y-181521104D01*
X108140476Y-181521104D02*
X108092857Y-181663961D01*
X108092857Y-181663961D02*
X107997619Y-181759200D01*
X107997619Y-181759200D02*
X107854762Y-181806819D01*
X107854762Y-181806819D02*
X107759524Y-181806819D01*
X109140476Y-181806819D02*
X108569048Y-181806819D01*
X108854762Y-181806819D02*
X108854762Y-180806819D01*
X108854762Y-180806819D02*
X108759524Y-180949676D01*
X108759524Y-180949676D02*
X108664286Y-181044914D01*
X108664286Y-181044914D02*
X108569048Y-181092533D01*
X110092857Y-181806819D02*
X109521429Y-181806819D01*
X109807143Y-181806819D02*
X109807143Y-180806819D01*
X109807143Y-180806819D02*
X109711905Y-180949676D01*
X109711905Y-180949676D02*
X109616667Y-181044914D01*
X109616667Y-181044914D02*
X109521429Y-181092533D01*
X110754819Y-169384357D02*
X110278628Y-169717690D01*
X110754819Y-169955785D02*
X109754819Y-169955785D01*
X109754819Y-169955785D02*
X109754819Y-169574833D01*
X109754819Y-169574833D02*
X109802438Y-169479595D01*
X109802438Y-169479595D02*
X109850057Y-169431976D01*
X109850057Y-169431976D02*
X109945295Y-169384357D01*
X109945295Y-169384357D02*
X110088152Y-169384357D01*
X110088152Y-169384357D02*
X110183390Y-169431976D01*
X110183390Y-169431976D02*
X110231009Y-169479595D01*
X110231009Y-169479595D02*
X110278628Y-169574833D01*
X110278628Y-169574833D02*
X110278628Y-169955785D01*
X110754819Y-168431976D02*
X110754819Y-169003404D01*
X110754819Y-168717690D02*
X109754819Y-168717690D01*
X109754819Y-168717690D02*
X109897676Y-168812928D01*
X109897676Y-168812928D02*
X109992914Y-168908166D01*
X109992914Y-168908166D02*
X110040533Y-169003404D01*
X109850057Y-168051023D02*
X109802438Y-168003404D01*
X109802438Y-168003404D02*
X109754819Y-167908166D01*
X109754819Y-167908166D02*
X109754819Y-167670071D01*
X109754819Y-167670071D02*
X109802438Y-167574833D01*
X109802438Y-167574833D02*
X109850057Y-167527214D01*
X109850057Y-167527214D02*
X109945295Y-167479595D01*
X109945295Y-167479595D02*
X110040533Y-167479595D01*
X110040533Y-167479595D02*
X110183390Y-167527214D01*
X110183390Y-167527214D02*
X110754819Y-168098642D01*
X110754819Y-168098642D02*
X110754819Y-167479595D01*
X93404819Y-175092857D02*
X92928628Y-175426190D01*
X93404819Y-175664285D02*
X92404819Y-175664285D01*
X92404819Y-175664285D02*
X92404819Y-175283333D01*
X92404819Y-175283333D02*
X92452438Y-175188095D01*
X92452438Y-175188095D02*
X92500057Y-175140476D01*
X92500057Y-175140476D02*
X92595295Y-175092857D01*
X92595295Y-175092857D02*
X92738152Y-175092857D01*
X92738152Y-175092857D02*
X92833390Y-175140476D01*
X92833390Y-175140476D02*
X92881009Y-175188095D01*
X92881009Y-175188095D02*
X92928628Y-175283333D01*
X92928628Y-175283333D02*
X92928628Y-175664285D01*
X93404819Y-174140476D02*
X93404819Y-174711904D01*
X93404819Y-174426190D02*
X92404819Y-174426190D01*
X92404819Y-174426190D02*
X92547676Y-174521428D01*
X92547676Y-174521428D02*
X92642914Y-174616666D01*
X92642914Y-174616666D02*
X92690533Y-174711904D01*
X92738152Y-173283333D02*
X93404819Y-173283333D01*
X92357200Y-173521428D02*
X93071485Y-173759523D01*
X93071485Y-173759523D02*
X93071485Y-173140476D01*
X104307142Y-176804819D02*
X103973809Y-176328628D01*
X103735714Y-176804819D02*
X103735714Y-175804819D01*
X103735714Y-175804819D02*
X104116666Y-175804819D01*
X104116666Y-175804819D02*
X104211904Y-175852438D01*
X104211904Y-175852438D02*
X104259523Y-175900057D01*
X104259523Y-175900057D02*
X104307142Y-175995295D01*
X104307142Y-175995295D02*
X104307142Y-176138152D01*
X104307142Y-176138152D02*
X104259523Y-176233390D01*
X104259523Y-176233390D02*
X104211904Y-176281009D01*
X104211904Y-176281009D02*
X104116666Y-176328628D01*
X104116666Y-176328628D02*
X103735714Y-176328628D01*
X105259523Y-176804819D02*
X104688095Y-176804819D01*
X104973809Y-176804819D02*
X104973809Y-175804819D01*
X104973809Y-175804819D02*
X104878571Y-175947676D01*
X104878571Y-175947676D02*
X104783333Y-176042914D01*
X104783333Y-176042914D02*
X104688095Y-176090533D01*
X105878571Y-175804819D02*
X105973809Y-175804819D01*
X105973809Y-175804819D02*
X106069047Y-175852438D01*
X106069047Y-175852438D02*
X106116666Y-175900057D01*
X106116666Y-175900057D02*
X106164285Y-175995295D01*
X106164285Y-175995295D02*
X106211904Y-176185771D01*
X106211904Y-176185771D02*
X106211904Y-176423866D01*
X106211904Y-176423866D02*
X106164285Y-176614342D01*
X106164285Y-176614342D02*
X106116666Y-176709580D01*
X106116666Y-176709580D02*
X106069047Y-176757200D01*
X106069047Y-176757200D02*
X105973809Y-176804819D01*
X105973809Y-176804819D02*
X105878571Y-176804819D01*
X105878571Y-176804819D02*
X105783333Y-176757200D01*
X105783333Y-176757200D02*
X105735714Y-176709580D01*
X105735714Y-176709580D02*
X105688095Y-176614342D01*
X105688095Y-176614342D02*
X105640476Y-176423866D01*
X105640476Y-176423866D02*
X105640476Y-176185771D01*
X105640476Y-176185771D02*
X105688095Y-175995295D01*
X105688095Y-175995295D02*
X105735714Y-175900057D01*
X105735714Y-175900057D02*
X105783333Y-175852438D01*
X105783333Y-175852438D02*
X105878571Y-175804819D01*
X88011905Y-184579819D02*
X88011905Y-183579819D01*
X88011905Y-184056009D02*
X88583333Y-184056009D01*
X88583333Y-184579819D02*
X88583333Y-183579819D01*
X89583333Y-184579819D02*
X89011905Y-184579819D01*
X89297619Y-184579819D02*
X89297619Y-183579819D01*
X89297619Y-183579819D02*
X89202381Y-183722676D01*
X89202381Y-183722676D02*
X89107143Y-183817914D01*
X89107143Y-183817914D02*
X89011905Y-183865533D01*
X89964286Y-183675057D02*
X90011905Y-183627438D01*
X90011905Y-183627438D02*
X90107143Y-183579819D01*
X90107143Y-183579819D02*
X90345238Y-183579819D01*
X90345238Y-183579819D02*
X90440476Y-183627438D01*
X90440476Y-183627438D02*
X90488095Y-183675057D01*
X90488095Y-183675057D02*
X90535714Y-183770295D01*
X90535714Y-183770295D02*
X90535714Y-183865533D01*
X90535714Y-183865533D02*
X90488095Y-184008390D01*
X90488095Y-184008390D02*
X89916667Y-184579819D01*
X89916667Y-184579819D02*
X90535714Y-184579819D01*
X108140476Y-177756819D02*
X108140476Y-178471104D01*
X108140476Y-178471104D02*
X108092857Y-178613961D01*
X108092857Y-178613961D02*
X107997619Y-178709200D01*
X107997619Y-178709200D02*
X107854762Y-178756819D01*
X107854762Y-178756819D02*
X107759524Y-178756819D01*
X109140476Y-178756819D02*
X108569048Y-178756819D01*
X108854762Y-178756819D02*
X108854762Y-177756819D01*
X108854762Y-177756819D02*
X108759524Y-177899676D01*
X108759524Y-177899676D02*
X108664286Y-177994914D01*
X108664286Y-177994914D02*
X108569048Y-178042533D01*
X109759524Y-177756819D02*
X109854762Y-177756819D01*
X109854762Y-177756819D02*
X109950000Y-177804438D01*
X109950000Y-177804438D02*
X109997619Y-177852057D01*
X109997619Y-177852057D02*
X110045238Y-177947295D01*
X110045238Y-177947295D02*
X110092857Y-178137771D01*
X110092857Y-178137771D02*
X110092857Y-178375866D01*
X110092857Y-178375866D02*
X110045238Y-178566342D01*
X110045238Y-178566342D02*
X109997619Y-178661580D01*
X109997619Y-178661580D02*
X109950000Y-178709200D01*
X109950000Y-178709200D02*
X109854762Y-178756819D01*
X109854762Y-178756819D02*
X109759524Y-178756819D01*
X109759524Y-178756819D02*
X109664286Y-178709200D01*
X109664286Y-178709200D02*
X109616667Y-178661580D01*
X109616667Y-178661580D02*
X109569048Y-178566342D01*
X109569048Y-178566342D02*
X109521429Y-178375866D01*
X109521429Y-178375866D02*
X109521429Y-178137771D01*
X109521429Y-178137771D02*
X109569048Y-177947295D01*
X109569048Y-177947295D02*
X109616667Y-177852057D01*
X109616667Y-177852057D02*
X109664286Y-177804438D01*
X109664286Y-177804438D02*
X109759524Y-177756819D01*
X108140476Y-186906819D02*
X108140476Y-187621104D01*
X108140476Y-187621104D02*
X108092857Y-187763961D01*
X108092857Y-187763961D02*
X107997619Y-187859200D01*
X107997619Y-187859200D02*
X107854762Y-187906819D01*
X107854762Y-187906819D02*
X107759524Y-187906819D01*
X109140476Y-187906819D02*
X108569048Y-187906819D01*
X108854762Y-187906819D02*
X108854762Y-186906819D01*
X108854762Y-186906819D02*
X108759524Y-187049676D01*
X108759524Y-187049676D02*
X108664286Y-187144914D01*
X108664286Y-187144914D02*
X108569048Y-187192533D01*
X109521429Y-187002057D02*
X109569048Y-186954438D01*
X109569048Y-186954438D02*
X109664286Y-186906819D01*
X109664286Y-186906819D02*
X109902381Y-186906819D01*
X109902381Y-186906819D02*
X109997619Y-186954438D01*
X109997619Y-186954438D02*
X110045238Y-187002057D01*
X110045238Y-187002057D02*
X110092857Y-187097295D01*
X110092857Y-187097295D02*
X110092857Y-187192533D01*
X110092857Y-187192533D02*
X110045238Y-187335390D01*
X110045238Y-187335390D02*
X109473810Y-187906819D01*
X109473810Y-187906819D02*
X110092857Y-187906819D01*
X108104819Y-169544904D02*
X108914342Y-169544904D01*
X108914342Y-169544904D02*
X109009580Y-169497285D01*
X109009580Y-169497285D02*
X109057200Y-169449666D01*
X109057200Y-169449666D02*
X109104819Y-169354428D01*
X109104819Y-169354428D02*
X109104819Y-169163952D01*
X109104819Y-169163952D02*
X109057200Y-169068714D01*
X109057200Y-169068714D02*
X109009580Y-169021095D01*
X109009580Y-169021095D02*
X108914342Y-168973476D01*
X108914342Y-168973476D02*
X108104819Y-168973476D01*
X108104819Y-168592523D02*
X108104819Y-167925857D01*
X108104819Y-167925857D02*
X109104819Y-168354428D01*
X107897024Y-172774819D02*
X107897024Y-171774819D01*
X107897024Y-171774819D02*
X108135119Y-171774819D01*
X108135119Y-171774819D02*
X108277976Y-171822438D01*
X108277976Y-171822438D02*
X108373214Y-171917676D01*
X108373214Y-171917676D02*
X108420833Y-172012914D01*
X108420833Y-172012914D02*
X108468452Y-172203390D01*
X108468452Y-172203390D02*
X108468452Y-172346247D01*
X108468452Y-172346247D02*
X108420833Y-172536723D01*
X108420833Y-172536723D02*
X108373214Y-172631961D01*
X108373214Y-172631961D02*
X108277976Y-172727200D01*
X108277976Y-172727200D02*
X108135119Y-172774819D01*
X108135119Y-172774819D02*
X107897024Y-172774819D01*
X109420833Y-172774819D02*
X108849405Y-172774819D01*
X109135119Y-172774819D02*
X109135119Y-171774819D01*
X109135119Y-171774819D02*
X109039881Y-171917676D01*
X109039881Y-171917676D02*
X108944643Y-172012914D01*
X108944643Y-172012914D02*
X108849405Y-172060533D01*
X110277976Y-172108152D02*
X110277976Y-172774819D01*
X110039881Y-171727200D02*
X109801786Y-172441485D01*
X109801786Y-172441485D02*
X110420833Y-172441485D01*
X111277976Y-171774819D02*
X110801786Y-171774819D01*
X110801786Y-171774819D02*
X110754167Y-172251009D01*
X110754167Y-172251009D02*
X110801786Y-172203390D01*
X110801786Y-172203390D02*
X110897024Y-172155771D01*
X110897024Y-172155771D02*
X111135119Y-172155771D01*
X111135119Y-172155771D02*
X111230357Y-172203390D01*
X111230357Y-172203390D02*
X111277976Y-172251009D01*
X111277976Y-172251009D02*
X111325595Y-172346247D01*
X111325595Y-172346247D02*
X111325595Y-172584342D01*
X111325595Y-172584342D02*
X111277976Y-172679580D01*
X111277976Y-172679580D02*
X111230357Y-172727200D01*
X111230357Y-172727200D02*
X111135119Y-172774819D01*
X111135119Y-172774819D02*
X110897024Y-172774819D01*
X110897024Y-172774819D02*
X110801786Y-172727200D01*
X110801786Y-172727200D02*
X110754167Y-172679580D01*
X102748095Y-187404819D02*
X103319523Y-187404819D01*
X103033809Y-188404819D02*
X103033809Y-187404819D01*
X103652857Y-188404819D02*
X103652857Y-187404819D01*
X103652857Y-187404819D02*
X104033809Y-187404819D01*
X104033809Y-187404819D02*
X104129047Y-187452438D01*
X104129047Y-187452438D02*
X104176666Y-187500057D01*
X104176666Y-187500057D02*
X104224285Y-187595295D01*
X104224285Y-187595295D02*
X104224285Y-187738152D01*
X104224285Y-187738152D02*
X104176666Y-187833390D01*
X104176666Y-187833390D02*
X104129047Y-187881009D01*
X104129047Y-187881009D02*
X104033809Y-187928628D01*
X104033809Y-187928628D02*
X103652857Y-187928628D01*
X104605238Y-187500057D02*
X104652857Y-187452438D01*
X104652857Y-187452438D02*
X104748095Y-187404819D01*
X104748095Y-187404819D02*
X104986190Y-187404819D01*
X104986190Y-187404819D02*
X105081428Y-187452438D01*
X105081428Y-187452438D02*
X105129047Y-187500057D01*
X105129047Y-187500057D02*
X105176666Y-187595295D01*
X105176666Y-187595295D02*
X105176666Y-187690533D01*
X105176666Y-187690533D02*
X105129047Y-187833390D01*
X105129047Y-187833390D02*
X104557619Y-188404819D01*
X104557619Y-188404819D02*
X105176666Y-188404819D01*
X108140476Y-183856819D02*
X108140476Y-184571104D01*
X108140476Y-184571104D02*
X108092857Y-184713961D01*
X108092857Y-184713961D02*
X107997619Y-184809200D01*
X107997619Y-184809200D02*
X107854762Y-184856819D01*
X107854762Y-184856819D02*
X107759524Y-184856819D01*
X109140476Y-184856819D02*
X108569048Y-184856819D01*
X108854762Y-184856819D02*
X108854762Y-183856819D01*
X108854762Y-183856819D02*
X108759524Y-183999676D01*
X108759524Y-183999676D02*
X108664286Y-184094914D01*
X108664286Y-184094914D02*
X108569048Y-184142533D01*
X109997619Y-184190152D02*
X109997619Y-184856819D01*
X109759524Y-183809200D02*
X109521429Y-184523485D01*
X109521429Y-184523485D02*
X110140476Y-184523485D01*
D12*
%TO.C,U8*%
X97325000Y-173545000D02*
X101325000Y-173545000D01*
X97325000Y-178645000D02*
X101325000Y-178645000D01*
D13*
X94980000Y-173590000D02*
G75*
G02*
X94780000Y-173590000I-100000J0D01*
G01*
X94780000Y-173590000D02*
G75*
G02*
X94980000Y-173590000I100000J0D01*
G01*
%TO.C,D144*%
D10*
X94750000Y-181500000D02*
X98750000Y-181500000D01*
X98750000Y-184500000D01*
X94750000Y-184500000D01*
X94750000Y-181500000D01*
D14*
%TO.C,C77*%
X101061252Y-171515000D02*
X100538748Y-171515000D01*
X101061252Y-172985000D02*
X100538748Y-172985000D01*
%TO.C,C76*%
X103380000Y-186638748D02*
X103380000Y-187161252D01*
X104850000Y-186638748D02*
X104850000Y-187161252D01*
%TO.C,J13*%
X89300000Y-171810000D02*
X91000000Y-171810000D01*
X89300000Y-181150000D02*
X91000000Y-181150000D01*
%TO.C,D146*%
X109326248Y-175365000D02*
X109848752Y-175365000D01*
X109326248Y-176835000D02*
X109848752Y-176835000D01*
%TO.C,C78*%
X104638748Y-171356500D02*
X105161252Y-171356500D01*
X104638748Y-172826500D02*
X105161252Y-172826500D01*
D12*
%TO.C,U6*%
X100168500Y-185300000D02*
X101768500Y-185300000D01*
X100168500Y-188500000D02*
X101768500Y-188500000D01*
D13*
X98640500Y-185955000D02*
G75*
G02*
X98440500Y-185955000I-100000J0D01*
G01*
X98440500Y-185955000D02*
G75*
G02*
X98640500Y-185955000I100000J0D01*
G01*
D14*
%TO.C,R9*%
X98942064Y-189015000D02*
X98487936Y-189015000D01*
X98942064Y-190485000D02*
X98487936Y-190485000D01*
D12*
%TO.C,Q2*%
X100850000Y-169795000D02*
X100850000Y-168195000D01*
X104050000Y-169795000D02*
X104050000Y-168195000D01*
D13*
X101605000Y-171423000D02*
G75*
G02*
X101405000Y-171423000I-100000J0D01*
G01*
X101405000Y-171423000D02*
G75*
G02*
X101605000Y-171423000I100000J0D01*
G01*
D14*
%TO.C,R11*%
X105535436Y-173315000D02*
X105989564Y-173315000D01*
X105535436Y-174785000D02*
X105989564Y-174785000D01*
%TO.C,R8*%
X96180000Y-186622936D02*
X96180000Y-187077064D01*
X97650000Y-186622936D02*
X97650000Y-187077064D01*
%TO.C,L2*%
D10*
X105575000Y-179500000D02*
X100575000Y-179500000D01*
X100575000Y-184450000D01*
X105575000Y-184450000D01*
X105575000Y-179500000D01*
D14*
%TO.C,C75*%
X94030000Y-187161252D02*
X94030000Y-186638748D01*
X95500000Y-187161252D02*
X95500000Y-186638748D01*
%TO.C,R13*%
X105535436Y-175315000D02*
X105989564Y-175315000D01*
X105535436Y-176785000D02*
X105989564Y-176785000D01*
%TO.C,J11*%
X108250000Y-182100000D02*
X109650000Y-182100000D01*
X108250000Y-183500000D02*
X108250000Y-182100000D01*
X109650000Y-182100000D02*
X109650000Y-183500000D01*
X109650000Y-183500000D02*
X108250000Y-183500000D01*
%TO.C,R12*%
X107915000Y-168514436D02*
X107915000Y-168968564D01*
X109385000Y-168514436D02*
X109385000Y-168968564D01*
%TO.C,R14*%
X93865000Y-174677064D02*
X93865000Y-174222936D01*
X95335000Y-174677064D02*
X95335000Y-174222936D01*
%TO.C,R10*%
X104722936Y-177265000D02*
X105177064Y-177265000D01*
X104722936Y-178735000D02*
X105177064Y-178735000D01*
%TO.C,J10*%
X108250000Y-179050000D02*
X109650000Y-179050000D01*
X108250000Y-180450000D02*
X108250000Y-179050000D01*
X109650000Y-179050000D02*
X109650000Y-180450000D01*
X109650000Y-180450000D02*
X108250000Y-180450000D01*
%TO.C,J12*%
X108250000Y-188200000D02*
X109650000Y-188200000D01*
X108250000Y-189600000D02*
X108250000Y-188200000D01*
X109650000Y-188200000D02*
X109650000Y-189600000D01*
X109650000Y-189600000D02*
X108250000Y-189600000D01*
D12*
%TO.C,U7*%
X104350000Y-168188000D02*
X104350000Y-169788000D01*
X107550000Y-168188000D02*
X107550000Y-169788000D01*
D13*
X106995000Y-166560000D02*
G75*
G02*
X106795000Y-166560000I-100000J0D01*
G01*
X106795000Y-166560000D02*
G75*
G02*
X106995000Y-166560000I100000J0D01*
G01*
D14*
%TO.C,D145*%
X109326248Y-173265000D02*
X109848752Y-173265000D01*
X109326248Y-174735000D02*
X109848752Y-174735000D01*
D11*
%TO.C,TP2*%
X106280000Y-190350000D02*
X105780000Y-190850000D01*
X106280000Y-189550000D02*
X106280000Y-190350000D01*
X105780000Y-190850000D02*
X102180000Y-190850000D01*
X105780000Y-189050000D02*
X106280000Y-189550000D01*
X102180000Y-190850000D02*
X101680000Y-190350000D01*
X102180000Y-189050000D02*
X105780000Y-189050000D01*
X101680000Y-190350000D02*
X101680000Y-189550000D01*
X101680000Y-189550000D02*
X102180000Y-189050000D01*
D14*
%TO.C,J14*%
X108250000Y-185150000D02*
X109650000Y-185150000D01*
X108250000Y-186550000D02*
X108250000Y-185150000D01*
X109650000Y-185150000D02*
X109650000Y-186550000D01*
X109650000Y-186550000D02*
X108250000Y-186550000D01*
%TD*%
M02*
