M48
; DRILL file {KiCad 9.0.3} date 2025-11-23T22:32:01-0500
; FORMAT={-:-/ absolute / inch / decimal}
; #@! TF.CreationDate,2025-11-23T22:32:01-05:00
; #@! TF.GenerationSoftware,Kicad,Pcbnew,9.0.3
; #@! TF.FileFunction,Plated,1,4,PTH
FMAT,2
INCH
; #@! TA.AperFunction,Plated,PTH,ViaDrill
T1C0.0118
; #@! TA.AperFunction,Plated,PTH,ComponentDrill
T2C0.0197
; #@! TA.AperFunction,Plated,PTH,ComponentDrill
T3C0.0236
; #@! TA.AperFunction,Plated,PTH,ComponentDrill
T4C0.0500
; #@! TA.AperFunction,Plated,PTH,ComponentDrill
T5C0.0591
; #@! TA.AperFunction,Plated,PTH,ComponentDrill
T6C0.0787
%
G90
G05
T1
X2.9744Y-5.6969
X3.0551Y-5.5925
X3.252Y-5.374
X3.5965Y-5.5374
X5.0013Y-6.3701
X5.0236Y-7.1201
X5.0591Y-6.6201
X5.0846Y-7.3681
X5.18Y-6.5225
X5.23Y-7.2726
X5.2343Y-7.8681
X5.2343Y-8.6201
X5.2953Y-8.1181
X5.2953Y-8.8681
X5.4182Y-8.0225
X5.4291Y-6.2008
X5.4406Y-8.7717
X5.4547Y-6.9449
X5.5354Y-5.6201
X5.5965Y-5.8681
X5.6654Y-7.6969
X5.6654Y-8.4469
X5.7413Y-5.7728
X5.7513Y-6.3701
X5.7736Y-7.1201
X5.8071Y-6.6181
X5.8346Y-7.3681
X5.9524Y-6.5226
X5.98Y-7.2717
X5.9843Y-7.8701
X5.9843Y-8.6201
X6.0453Y-8.1201
X6.0453Y-8.8661
X6.1692Y-8.0215
X6.1906Y-8.7726
X6.2854Y-5.6201
X6.3465Y-5.8701
X6.4914Y-5.7717
X6.4961Y-6.3701
X6.5236Y-7.1201
X6.5591Y-6.6181
X6.5846Y-7.3661
X6.7024Y-6.5226
X6.73Y-7.2717
X6.7343Y-7.8701
X6.7343Y-8.6201
X6.7953Y-8.1161
X6.7953Y-8.8681
X6.9406Y-8.0226
X6.9406Y-8.7717
X7.0354Y-5.561
X7.0965Y-5.811
X7.2192Y-5.7133
X7.2844Y-6.3583
X7.2953Y-7.128
X7.2972Y-6.6142
X7.3248Y-7.3878
X7.4296Y-6.5457
X7.4588Y-7.3191
X7.5059Y-7.939
X7.5354Y-8.2008
X7.6699Y-8.1305
X7.7165Y-8.752
X7.7461Y-9.0098
X7.7913Y-5.7008
X7.8209Y-5.9606
X7.8809Y-8.9419
X7.954Y-5.891
X8.018Y-6.5157
X8.0295Y-7.2854
X8.0315Y-6.7717
X8.0591Y-7.5433
X8.1654Y-6.7028
X8.192Y-7.4755
X8.2402Y-8.0965
X8.2697Y-8.3563
X8.403Y-8.2869
X8.4508Y-8.9075
X8.4803Y-9.1673
X8.5256Y-5.8563
X8.5531Y-6.1161
X8.614Y-9.0983
X8.6881Y-6.0464
X8.7516Y-6.6713
X8.7618Y-7.4409
X8.7638Y-6.9272
X8.7913Y-7.7008
X8.8981Y-6.8588
X8.9261Y-7.6309
X8.9744Y-8.252
X9.0039Y-8.5118
X9.1372Y-8.4423
X9.1831Y-9.063
X9.2126Y-9.3228
X9.2579Y-6.0118
X9.2874Y-6.2717
X9.3482Y-9.2537
X9.4213Y-6.2028
X9.4852Y-6.8268
X9.4961Y-7.5965
X9.498Y-7.0827
X9.5256Y-7.8563
X9.6323Y-7.0142
X9.6593Y-7.7872
X9.7067Y-8.4075
X9.7362Y-8.6673
X9.8703Y-8.5987
X9.9173Y-9.2185
X9.9469Y-9.4783
X9.9921Y-6.1673
X10.0217Y-6.4291
X10.0813Y-9.4101
X10.1554Y-6.3582
X10.9589Y-7.0256
X11.0591Y-7.2559
X11.1654Y-6.2146
X11.1777Y-7.1339
X11.2717Y-6.4449
X11.2933Y-7.7185
X11.3886Y-6.3228
X11.3996Y-7.9508
X11.517Y-7.8287
X11.6063Y-9.187
X11.6319Y-8.4154
X11.689Y-6.8701
X11.7087Y-9.4173
X11.7382Y-8.6457
X11.7953Y-7.0984
X11.8289Y-9.2953
X11.8564Y-8.5236
X11.8996Y-6.0591
X11.9113Y-6.9783
X12.0039Y-6.2894
X12.0276Y-7.563
X12.1222Y-6.1654
X12.1339Y-7.7933
X12.2507Y-7.6732
X12.3406Y-9.0315
X12.3661Y-8.2579
X12.4213Y-6.7146
X12.4429Y-9.2618
X12.4705Y-8.4902
X12.5295Y-6.9429
X12.5625Y-9.1398
X12.59Y-8.3661
X12.6339Y-5.9016
X12.6449Y-6.8209
X12.7382Y-6.1339
X12.7618Y-7.4075
X12.8558Y-6.0098
X12.8642Y-7.6398
X12.9843Y-7.5157
X13.0728Y-8.876
X13.1004Y-8.1024
X13.1555Y-6.5571
X13.1791Y-9.1063
X13.2067Y-8.3327
X13.2618Y-6.7894
X13.2961Y-8.9843
X13.3236Y-8.2106
X13.3661Y-5.7461
X13.3785Y-6.6654
X13.4677Y-5.9705
X13.4941Y-7.252
X13.5894Y-5.8543
X13.5984Y-7.4843
X13.7179Y-7.3602
X13.8071Y-8.7205
X13.8346Y-7.9469
X13.8898Y-6.4016
X13.9173Y-8.9488
X13.9409Y-8.1772
X14.0043Y-6.6296
X14.0234Y-5.6597
X14.0297Y-8.8287
X14.0572Y-8.0551
X14.1122Y-6.5098
X14.1909Y-5.8091
X14.2717Y-7.1201
X14.3325Y-5.7138
X14.3631Y-7.3633
X14.4774Y-7.2729
X14.6457Y-7.8701
X14.6457Y-8.6201
X14.6614Y-6.3701
X14.7106Y-8.1181
X14.7126Y-8.8681
X14.7415Y-6.6168
X14.8524Y-8.0229
X14.8524Y-8.7729
X14.8714Y-6.523
X14.872Y-5.6181
X14.9429Y-5.8681
X15.0177Y-7.1201
X15.0825Y-5.7729
X15.1131Y-7.3633
X15.2274Y-7.2729
X15.3917Y-7.8681
X15.3937Y-8.6201
X15.4114Y-6.3681
X15.4626Y-8.1181
X15.4626Y-8.8681
X15.4925Y-6.6177
X15.602Y-8.0233
X15.602Y-8.7733
X15.6215Y-6.5229
X15.624Y-5.6181
X15.6909Y-5.8681
X15.7657Y-7.1161
X15.8322Y-5.7732
X15.8484Y-6.1969
X15.8631Y-7.3633
X15.9774Y-7.2729
X16.1417Y-7.8681
X16.1437Y-8.6201
X16.2047Y-6.9469
X16.2106Y-8.8681
X16.2126Y-8.1181
X16.352Y-8.0233
X16.3524Y-8.7729
X16.5827Y-7.6969
X16.5827Y-8.4469
X18.1929Y-5.8248
X18.2736Y-5.7205
X18.4705Y-5.502
X18.815Y-5.6654
T2
X3.5315Y-5.622
X3.5315Y-5.7421
X3.5315Y-5.8622
X3.5315Y-5.9823
X18.75Y-5.75
X18.75Y-5.8701
X18.75Y-5.9902
X18.75Y-6.1102
T4
X4.6874Y-5.0992
X4.6874Y-5.1992
X4.6874Y-5.2992
X4.6874Y-5.3992
X4.6874Y-5.4992
X4.6874Y-5.5992
X4.6874Y-5.6992
X4.6874Y-5.7992
X5.2874Y-5.0992
X5.2874Y-5.1992
X5.2874Y-5.2992
X5.2874Y-5.3992
X5.2874Y-5.4992
X5.2874Y-5.5992
X5.2874Y-5.6992
X5.2874Y-5.7992
X16.1961Y-5.122
X16.1961Y-5.222
X16.1961Y-5.322
X16.1961Y-5.422
X16.1961Y-5.522
X16.1961Y-5.622
X16.1961Y-5.722
X16.1961Y-5.822
X16.7961Y-5.122
X16.7961Y-5.222
X16.7961Y-5.322
X16.7961Y-5.422
X16.7961Y-5.522
X16.7961Y-5.622
X16.7961Y-5.722
X16.7961Y-5.822
T5
X4.9501Y-6.1334
X4.9776Y-6.8834
X5.1883Y-7.6334
X5.1883Y-8.3834
X5.2001Y-6.0334
X5.2276Y-6.7834
X5.4383Y-7.5334
X5.4383Y-8.2834
X5.4891Y-5.3834
X5.7001Y-6.1334
X5.7276Y-6.8834
X5.7391Y-5.2834
X5.9383Y-7.6334
X5.9383Y-8.3834
X5.9501Y-6.0334
X5.9776Y-6.7834
X6.1883Y-7.5334
X6.1883Y-8.2834
X6.2391Y-5.3834
X6.4501Y-6.1334
X6.4776Y-6.8834
X6.4891Y-5.2834
X6.6883Y-7.6334
X6.6883Y-8.3834
X6.7001Y-6.0334
X6.7276Y-6.7834
X6.9383Y-7.5334
X6.9383Y-8.2834
X6.9891Y-5.3243
X7.2391Y-5.2243
X7.2813Y-6.1171
X7.3088Y-6.8897
X7.5197Y-7.7013
X7.5467Y-6.0713
X7.5741Y-6.8439
X7.7305Y-8.5129
X7.785Y-7.6555
X7.8041Y-5.4615
X7.9959Y-8.467
X8.0149Y-6.273
X8.0424Y-7.0456
X8.0694Y-5.4156
X8.2533Y-7.8572
X8.2803Y-6.2272
X8.3077Y-6.9998
X8.4641Y-8.6688
X8.5186Y-7.8114
X8.5377Y-5.6174
X8.7295Y-8.623
X8.7485Y-6.429
X8.776Y-7.2016
X8.803Y-5.5716
X8.9869Y-8.0132
X9.0139Y-6.3831
X9.0413Y-7.1557
X9.1978Y-8.8247
X9.2522Y-7.9673
X9.2713Y-5.7733
X9.4631Y-8.7789
X9.4822Y-6.5849
X9.5096Y-7.3575
X9.5366Y-5.7275
X9.7205Y-8.1691
X9.7475Y-6.5391
X9.775Y-7.3117
X9.9314Y-8.9807
X9.9858Y-8.1233
X10.0049Y-5.9293
X10.1967Y-8.9348
X10.2702Y-5.8834
X10.8603Y-6.8035
X11.0712Y-5.9919
X11.0841Y-6.6537
X11.1997Y-7.4981
X11.295Y-5.8421
X11.4234Y-7.3483
X11.5115Y-8.9653
X11.539Y-8.1927
X11.594Y-6.6475
X11.7353Y-8.8155
X11.7628Y-8.0429
X11.8048Y-5.836
X11.8177Y-6.4977
X11.9333Y-7.3422
X12.0286Y-5.6862
X12.157Y-7.1924
X12.2452Y-8.8094
X12.2726Y-8.0368
X12.3276Y-6.4916
X12.4689Y-8.6596
X12.4964Y-7.887
X12.5384Y-5.68
X12.5513Y-6.3418
X12.6669Y-7.1862
X12.7622Y-5.5302
X12.8906Y-7.0364
X12.9788Y-8.6535
X13.0062Y-7.8809
X13.0612Y-6.3357
X13.2025Y-8.5037
X13.23Y-7.7311
X13.2721Y-5.5241
X13.2849Y-6.1859
X13.4005Y-7.0303
X13.4958Y-5.3743
X13.6243Y-6.8805
X13.7124Y-8.4975
X13.7398Y-7.7249
X13.7948Y-6.1797
X13.9361Y-8.3477
X13.9636Y-7.5751
X14.0185Y-6.0299
X14.0801Y-5.3246
X14.225Y-6.8836
X14.3301Y-5.2246
X14.475Y-6.7836
X14.6Y-7.6336
X14.6Y-8.3836
X14.6191Y-6.1336
X14.8301Y-5.3836
X14.85Y-7.5336
X14.85Y-8.2836
X14.8691Y-6.0336
X14.975Y-6.8836
X15.0801Y-5.2836
X15.225Y-6.7836
X15.35Y-7.6336
X15.35Y-8.3836
X15.3691Y-6.1336
X15.5801Y-5.3836
X15.6Y-7.5336
X15.6Y-8.2836
X15.6191Y-6.0336
X15.725Y-6.8836
X15.8301Y-5.2836
X15.975Y-6.7836
X16.1Y-7.6336
X16.1Y-8.3836
X16.35Y-7.5336
X16.35Y-8.2836
T6
X4.9429Y-7.7303
X4.9429Y-7.9528
X16.4272Y-7.0315
X16.4272Y-7.2539
T3
G00X2.7283Y-5.3232
M15
G01X2.7047Y-5.3232
M16
G05
G00X2.7283Y-5.6634
M15
G01X2.7047Y-5.6634
M16
G05
G00X2.878Y-5.3232
M15
G01X2.8543Y-5.3232
M16
G05
G00X2.878Y-5.6634
M15
G01X2.8543Y-5.6634
M16
G05
G00X17.9469Y-5.4512
M15
G01X17.9232Y-5.4512
M16
G05
G00X17.9469Y-5.7913
M15
G01X17.9232Y-5.7913
M16
G05
G00X18.0965Y-5.4512
M15
G01X18.0728Y-5.4512
M16
G05
G00X18.0965Y-5.7913
M15
G01X18.0728Y-5.7913
M16
G05
M30
