M48
; DRILL file {KiCad 9.0.3} date 2025-11-23T22:32:01-0500
; FORMAT={-:-/ absolute / inch / decimal}
; #@! TF.CreationDate,2025-11-23T22:32:01-05:00
; #@! TF.GenerationSoftware,Kicad,Pcbnew,9.0.3
; #@! TF.FileFunction,NonPlated,1,4,NPTH
FMAT,2
INCH
; #@! TA.AperFunction,NonPlated,NPTH,ComponentDrill
T1C0.0689
; #@! TA.AperFunction,NonPlated,NPTH,ComponentDrill
T2C0.1260
; #@! TA.AperFunction,NonPlated,NPTH,ComponentDrill
T3C0.1575
%
G90
G05
T1
X4.9001Y-6.2334
X4.9276Y-6.9834
X5.1383Y-7.7334
X5.1383Y-8.4834
X5.3001Y-6.2334
X5.3276Y-6.9834
X5.4391Y-5.4834
X5.5383Y-7.7334
X5.5383Y-8.4834
X5.6501Y-6.2334
X5.6776Y-6.9834
X5.8391Y-5.4834
X5.8883Y-7.7334
X5.8883Y-8.4834
X6.0501Y-6.2334
X6.0776Y-6.9834
X6.1891Y-5.4834
X6.2883Y-7.7334
X6.2883Y-8.4834
X6.4001Y-6.2334
X6.4276Y-6.9834
X6.5891Y-5.4834
X6.6383Y-7.7334
X6.6383Y-8.4834
X6.8001Y-6.2334
X6.8276Y-6.9834
X6.9391Y-5.4243
X7.0383Y-7.7334
X7.0383Y-8.4834
X7.2116Y-6.2045
X7.2391Y-6.9771
X7.3391Y-5.4243
X7.45Y-7.7887
X7.6029Y-6.2877
X7.6304Y-7.0603
X7.6608Y-8.6003
X7.7344Y-5.5489
X7.8412Y-7.8719
X7.9452Y-6.3605
X7.9727Y-7.1331
X8.0521Y-8.6834
X8.1256Y-5.6321
X8.1836Y-7.9446
X8.3365Y-6.4436
X8.364Y-7.2162
X8.3944Y-8.7562
X8.468Y-5.7048
X8.5748Y-8.0278
X8.6789Y-6.5164
X8.7063Y-7.289
X8.7857Y-8.8394
X8.8592Y-5.788
X8.9172Y-8.1006
X9.0701Y-6.5996
X9.0976Y-7.3722
X9.1281Y-8.9121
X9.2016Y-5.8608
X9.3085Y-8.1837
X9.4125Y-6.6723
X9.4399Y-7.4449
X9.5193Y-8.9953
X9.5929Y-5.9439
X9.6508Y-8.2565
X9.8037Y-6.7555
X9.8312Y-7.5281
X9.8617Y-9.0681
X9.9352Y-6.0167
X10.0421Y-8.3397
X10.2529Y-9.1512
X10.3265Y-6.0999
X10.8322Y-6.9117
X11.0431Y-6.1001
X11.1716Y-7.6063
X11.2235Y-6.8285
X11.4344Y-6.0169
X11.4834Y-9.0735
X11.5109Y-8.3009
X11.5628Y-7.5231
X11.5658Y-6.7558
X11.7767Y-5.9442
X11.8747Y-8.9904
X11.9022Y-8.2178
X11.9052Y-7.4504
X11.9571Y-6.6726
X12.168Y-5.861
X12.217Y-8.9176
X12.2445Y-8.145
X12.2964Y-7.3672
X12.2995Y-6.5998
X12.5103Y-5.7882
X12.6083Y-8.8344
X12.6358Y-8.0618
X12.6388Y-7.2944
X12.6907Y-6.5167
X12.9016Y-5.7051
X12.9507Y-8.7617
X12.9781Y-7.9891
X13.03Y-7.2113
X13.0331Y-6.4439
X13.2439Y-5.6323
X13.3419Y-8.6785
X13.3694Y-7.9059
X13.3724Y-7.1385
X13.4243Y-6.3607
X13.6352Y-5.5491
X13.6843Y-8.6057
X13.7117Y-7.8331
X13.7637Y-7.0553
X13.7667Y-6.2879
X14.0301Y-5.4246
X14.0755Y-8.5226
X14.103Y-7.75
X14.1579Y-6.2048
X14.175Y-6.9836
X14.4301Y-5.4246
X14.55Y-7.7336
X14.55Y-8.4836
X14.5691Y-6.2336
X14.575Y-6.9836
X14.7801Y-5.4836
X14.925Y-6.9836
X14.95Y-7.7336
X14.95Y-8.4836
X14.9691Y-6.2336
X15.1801Y-5.4836
X15.3Y-7.7336
X15.3Y-8.4836
X15.3191Y-6.2336
X15.325Y-6.9836
X15.5301Y-5.4836
X15.675Y-6.9836
X15.7Y-7.7336
X15.7Y-8.4836
X15.7191Y-6.2336
X15.9301Y-5.4836
X16.05Y-7.7336
X16.05Y-8.4836
X16.075Y-6.9836
X16.45Y-7.7336
X16.45Y-8.4836
T2
X2.7559Y-5.9577
X3.0315Y-5.19
X4.8425Y-7.5197
X7.3228Y-8.8583
X7.5984Y-5.0787
X10.1575Y-6.8898
X10.3543Y-8.5827
X10.748Y-6.378
X11.063Y-8.5827
X13.7795Y-5.1181
X14.3307Y-8.937
X16.7323Y-6.7717
X17.9744Y-6.0827
X18.25Y-5.3228
T3
X5.1001Y-6.2334
X5.1276Y-6.9834
X5.3383Y-7.7334
X5.3383Y-8.4834
X5.6391Y-5.4834
X5.8501Y-6.2334
X5.8776Y-6.9834
X6.0883Y-7.7334
X6.0883Y-8.4834
X6.3891Y-5.4834
X6.6001Y-6.2334
X6.6276Y-6.9834
X6.8383Y-7.7334
X6.8383Y-8.4834
X7.1391Y-5.4243
X7.4073Y-6.2461
X7.4347Y-7.0187
X7.6456Y-7.8303
X7.8565Y-8.6419
X7.93Y-5.5905
X8.1409Y-6.402
X8.1683Y-7.1746
X8.3792Y-7.9862
X8.5901Y-8.7978
X8.6636Y-5.7464
X8.8745Y-6.558
X8.9019Y-7.3306
X9.1128Y-8.1422
X9.3237Y-8.9537
X9.3972Y-5.9023
X9.6081Y-6.7139
X9.6356Y-7.4865
X9.8464Y-8.2981
X10.0573Y-9.1097
X10.1308Y-6.0583
X11.0279Y-6.8701
X11.2387Y-6.0585
X11.3672Y-7.5647
X11.6791Y-9.032
X11.7065Y-8.2594
X11.7615Y-6.7142
X11.9723Y-5.9026
X12.1008Y-7.4088
X12.4127Y-8.876
X12.4401Y-8.1034
X12.4951Y-6.5582
X12.706Y-5.7467
X12.8344Y-7.2529
X13.1463Y-8.7201
X13.1738Y-7.9475
X13.2287Y-6.4023
X13.4396Y-5.5907
X13.568Y-7.0969
X13.8799Y-8.5641
X13.9074Y-7.7916
X13.9623Y-6.2464
X14.2301Y-5.4246
X14.375Y-6.9836
X14.75Y-7.7336
X14.75Y-8.4836
X14.7691Y-6.2336
X14.9801Y-5.4836
X15.125Y-6.9836
X15.5Y-7.7336
X15.5Y-8.4836
X15.5191Y-6.2336
X15.7301Y-5.4836
X15.875Y-6.9836
X16.25Y-7.7336
X16.25Y-8.4836
M30
