%TF.GenerationSoftware,KiCad,Pcbnew,9.0.3*%
%TF.CreationDate,2025-11-23T22:31:57-05:00*%
%TF.ProjectId,Wren,5772656e-2e6b-4696-9361-645f70636258,rev?*%
%TF.SameCoordinates,Original*%
%TF.FileFunction,Copper,L1,Top*%
%TF.FilePolarity,Positive*%
%FSLAX46Y46*%
G04 Gerber Fmt 4.6, Leading zero omitted, Abs format (unit mm)*
G04 Created by KiCad (PCBNEW 9.0.3) date 2025-11-23 22:31:57*
%MOMM*%
%LPD*%
G01*
G04 APERTURE LIST*
G04 Aperture macros list*
%AMRoundRect*
0 Rectangle with rounded corners*
0 $1 Rounding radius*
0 $2 $3 $4 $5 $6 $7 $8 $9 X,Y pos of 4 corners*
0 Add a 4 corners polygon primitive as box body*
4,1,4,$2,$3,$4,$5,$6,$7,$8,$9,$2,$3,0*
0 Add four circle primitives for the rounded corners*
1,1,$1+$1,$2,$3*
1,1,$1+$1,$4,$5*
1,1,$1+$1,$6,$7*
1,1,$1+$1,$8,$9*
0 Add four rect primitives between the rounded corners*
20,1,$1+$1,$2,$3,$4,$5,0*
20,1,$1+$1,$4,$5,$6,$7,0*
20,1,$1+$1,$6,$7,$8,$9,0*
20,1,$1+$1,$8,$9,$2,$3,0*%
G04 Aperture macros list end*
%TA.AperFunction,ComponentPad*%
%ADD10C,2.500000*%
%TD*%
%TA.AperFunction,SMDPad,CuDef*%
%ADD11RoundRect,0.250000X-0.475000X0.337500X-0.475000X-0.337500X0.475000X-0.337500X0.475000X0.337500X0*%
%TD*%
%TA.AperFunction,SMDPad,CuDef*%
%ADD12RoundRect,0.147500X-0.457500X-0.147500X0.457500X-0.147500X0.457500X0.147500X-0.457500X0.147500X0*%
%TD*%
%TA.AperFunction,SMDPad,CuDef*%
%ADD13RoundRect,0.250000X-0.337500X-0.475000X0.337500X-0.475000X0.337500X0.475000X-0.337500X0.475000X0*%
%TD*%
%TA.AperFunction,ComponentPad*%
%ADD14R,1.000000X1.000000*%
%TD*%
%TA.AperFunction,SMDPad,CuDef*%
%ADD15RoundRect,0.250000X-0.450000X0.350000X-0.450000X-0.350000X0.450000X-0.350000X0.450000X0.350000X0*%
%TD*%
%TA.AperFunction,SMDPad,CuDef*%
%ADD16RoundRect,0.175000X-0.425000X0.175000X-0.425000X-0.175000X0.425000X-0.175000X0.425000X0.175000X0*%
%TD*%
%TA.AperFunction,SMDPad,CuDef*%
%ADD17RoundRect,0.190000X0.410000X-0.190000X0.410000X0.190000X-0.410000X0.190000X-0.410000X-0.190000X0*%
%TD*%
%TA.AperFunction,SMDPad,CuDef*%
%ADD18RoundRect,0.200000X0.400000X-0.200000X0.400000X0.200000X-0.400000X0.200000X-0.400000X-0.200000X0*%
%TD*%
%TA.AperFunction,SMDPad,CuDef*%
%ADD19RoundRect,0.175000X0.425000X-0.175000X0.425000X0.175000X-0.425000X0.175000X-0.425000X-0.175000X0*%
%TD*%
%TA.AperFunction,SMDPad,CuDef*%
%ADD20RoundRect,0.190000X-0.410000X0.190000X-0.410000X-0.190000X0.410000X-0.190000X0.410000X0.190000X0*%
%TD*%
%TA.AperFunction,SMDPad,CuDef*%
%ADD21RoundRect,0.200000X-0.400000X0.200000X-0.400000X-0.200000X0.400000X-0.200000X0.400000X0.200000X0*%
%TD*%
%TA.AperFunction,HeatsinkPad*%
%ADD22O,1.700000X1.100000*%
%TD*%
%TA.AperFunction,SMDPad,CuDef*%
%ADD23RoundRect,0.147500X0.147500X-0.457500X0.147500X0.457500X-0.147500X0.457500X-0.147500X-0.457500X0*%
%TD*%
%TA.AperFunction,SMDPad,CuDef*%
%ADD24RoundRect,0.250000X0.350000X0.450000X-0.350000X0.450000X-0.350000X-0.450000X0.350000X-0.450000X0*%
%TD*%
%TA.AperFunction,SMDPad,CuDef*%
%ADD25RoundRect,0.250000X-0.350000X-0.450000X0.350000X-0.450000X0.350000X0.450000X-0.350000X0.450000X0*%
%TD*%
%TA.AperFunction,SMDPad,CuDef*%
%ADD26R,1.600000X2.200000*%
%TD*%
%TA.AperFunction,SMDPad,CuDef*%
%ADD27RoundRect,0.147500X-0.147500X0.457500X-0.147500X-0.457500X0.147500X-0.457500X0.147500X0.457500X0*%
%TD*%
%TA.AperFunction,ComponentPad*%
%ADD28C,3.600000*%
%TD*%
%TA.AperFunction,SMDPad,CuDef*%
%ADD29RoundRect,0.250000X0.475000X-0.337500X0.475000X0.337500X-0.475000X0.337500X-0.475000X-0.337500X0*%
%TD*%
%TA.AperFunction,SMDPad,CuDef*%
%ADD30RoundRect,0.075000X-0.910000X-0.225000X0.910000X-0.225000X0.910000X0.225000X-0.910000X0.225000X0*%
%TD*%
%TA.AperFunction,SMDPad,CuDef*%
%ADD31R,2.413000X3.302000*%
%TD*%
%TA.AperFunction,SMDPad,CuDef*%
%ADD32RoundRect,0.250000X0.337500X0.475000X-0.337500X0.475000X-0.337500X-0.475000X0.337500X-0.475000X0*%
%TD*%
%TA.AperFunction,SMDPad,CuDef*%
%ADD33RoundRect,0.143397X-0.616603X-0.696603X0.616603X-0.696603X0.616603X0.696603X-0.616603X0.696603X0*%
%TD*%
%TA.AperFunction,SMDPad,CuDef*%
%ADD34RoundRect,0.250000X0.450000X-0.350000X0.450000X0.350000X-0.450000X0.350000X-0.450000X-0.350000X0*%
%TD*%
%TA.AperFunction,ComponentPad*%
%ADD35C,1.905000*%
%TD*%
%TA.AperFunction,ViaPad*%
%ADD36C,0.600000*%
%TD*%
%TA.AperFunction,Conductor*%
%ADD37C,0.200000*%
%TD*%
G04 APERTURE END LIST*
D10*
%TO.P,SW7,1,1*%
%TO.N,col6*%
X254124486Y-150603529D03*
%TO.P,SW7,2,2*%
%TO.N,Net-(D7-A)*%
X260863819Y-149439274D03*
%TD*%
%TO.P,SW17,1,1*%
%TO.N,col2*%
X164532000Y-174837500D03*
%TO.P,SW17,2,2*%
%TO.N,Net-(D17-A)*%
X170882000Y-172297500D03*
%TD*%
%TO.P,SW54,1,1*%
%TO.N,col4*%
X361314929Y-174844623D03*
%TO.P,SW54,2,2*%
%TO.N,Net-(D89-A)*%
X367664929Y-172304623D03*
%TD*%
D11*
%TO.P,C76,1*%
%TO.N,GND*%
X84865000Y-148912500D03*
%TO.P,C76,2*%
%TO.N,Net-(J12-Pin_1)*%
X84865000Y-150987500D03*
%TD*%
D12*
%TO.P,U3,1,SW*%
%TO.N,Net-(D141-A)*%
X467013500Y-152250000D03*
%TO.P,U3,2,GND*%
%TO.N,GND*%
X467013500Y-153200000D03*
%TO.P,U3,3,FB*%
%TO.N,Net-(U3-FB)*%
X467013500Y-154150000D03*
%TO.P,U3,4,EN*%
%TO.N,Net-(J7-Pin_1)*%
X469523500Y-154150000D03*
%TO.P,U3,5,IN*%
X469523500Y-153200000D03*
%TO.P,U3,6,NC*%
%TO.N,unconnected-(U3-NC-Pad6)*%
X469523500Y-152250000D03*
%TD*%
D10*
%TO.P,SW55,1,1*%
%TO.N,col5*%
X380364929Y-174844623D03*
%TO.P,SW55,2,2*%
%TO.N,Net-(D90-A)*%
X386714929Y-172304623D03*
%TD*%
D13*
%TO.P,D142,1,K*%
%TO.N,Net-(D142-K)*%
X475850000Y-140300000D03*
%TO.P,D142,2,A*%
%TO.N,Net-(D142-A)*%
X477925000Y-140300000D03*
%TD*%
D14*
%TO.P,J5,1,Pin_1*%
%TO.N,Net-(D141-K)*%
X476250000Y-146050000D03*
%TD*%
D10*
%TO.P,SW50,1,1*%
%TO.N,col0*%
X284471913Y-190451770D03*
%TO.P,SW50,2,2*%
%TO.N,Net-(D85-A)*%
X290155054Y-186647036D03*
%TD*%
%TO.P,SW14,1,1*%
%TO.N,col6*%
X240846867Y-167256841D03*
%TO.P,SW14,2,2*%
%TO.N,Net-(D14-A)*%
X247586200Y-166092586D03*
%TD*%
%TO.P,SW12,1,1*%
%TO.N,col4*%
X203579444Y-159335406D03*
%TO.P,SW12,2,2*%
%TO.N,Net-(D12-A)*%
X210318777Y-158171151D03*
%TD*%
%TO.P,SW67,1,1*%
%TO.N,col3*%
X348294485Y-215837041D03*
%TO.P,SW67,2,2*%
%TO.N,Net-(D102-A)*%
X353977626Y-212032307D03*
%TD*%
%TO.P,SW58,1,1*%
%TO.N,col1*%
X311724743Y-204134564D03*
%TO.P,SW58,2,2*%
%TO.N,Net-(D93-A)*%
X317407884Y-200329830D03*
%TD*%
D14*
%TO.P,J6,1,Pin_1*%
%TO.N,GND*%
X476250000Y-149100000D03*
%TD*%
D10*
%TO.P,SW51,1,1*%
%TO.N,col1*%
X303105625Y-186491052D03*
%TO.P,SW51,2,2*%
%TO.N,Net-(D86-A)*%
X308788766Y-182686318D03*
%TD*%
%TO.P,SW16,1,1*%
%TO.N,col1*%
X145482000Y-174837500D03*
%TO.P,SW16,2,2*%
%TO.N,Net-(D16-A)*%
X151832000Y-172297500D03*
%TD*%
%TO.P,SW37,1,1*%
%TO.N,col1*%
X299842789Y-148233429D03*
%TO.P,SW37,2,2*%
%TO.N,Net-(D72-A)*%
X305525930Y-144428695D03*
%TD*%
%TO.P,SW62,1,1*%
%TO.N,col5*%
X389889929Y-193894623D03*
%TO.P,SW62,2,2*%
%TO.N,Net-(D97-A)*%
X396239929Y-191354623D03*
%TD*%
D15*
%TO.P,R1,1*%
%TO.N,Net-(D141-K)*%
X464215000Y-152150000D03*
%TO.P,R1,2*%
%TO.N,Net-(U3-FB)*%
X464215000Y-154150000D03*
%TD*%
D13*
%TO.P,C74,1*%
%TO.N,Net-(J9-Pin_1)*%
X471162500Y-138391500D03*
%TO.P,C74,2*%
%TO.N,Net-(U4-VCC)*%
X473237500Y-138391500D03*
%TD*%
%TO.P,D145,1,K*%
%TO.N,Net-(D145-K)*%
X89300000Y-137050000D03*
%TO.P,D145,2,A*%
%TO.N,Net-(D145-A)*%
X91375000Y-137050000D03*
%TD*%
D10*
%TO.P,SW53,1,1*%
%TO.N,col3*%
X340373049Y-178569617D03*
%TO.P,SW53,2,2*%
%TO.N,Net-(D88-A)*%
X346056190Y-174764883D03*
%TD*%
D16*
%TO.P,J13,A5,CC1*%
%TO.N,unconnected-(J13-CC1-PadA5)*%
X72880000Y-139030000D03*
D17*
%TO.P,J13,A9,VBUS*%
%TO.N,Net-(D145-A)*%
X72880000Y-141050000D03*
D18*
%TO.P,J13,A12,GND*%
%TO.N,GND*%
X72880000Y-142280000D03*
D19*
%TO.P,J13,B5,CC2*%
%TO.N,unconnected-(J13-CC2-PadB5)*%
X72880000Y-140030000D03*
D20*
%TO.P,J13,B9,VBUS*%
%TO.N,Net-(D145-A)*%
X72880000Y-138010000D03*
D21*
%TO.P,J13,B12,GND*%
%TO.N,GND*%
X72880000Y-136780000D03*
D22*
%TO.P,J13,S1,SHIELD*%
X72800000Y-135210000D03*
X69000000Y-135210000D03*
X72800000Y-143850000D03*
X69000000Y-143850000D03*
%TD*%
D10*
%TO.P,SW20,1,1*%
%TO.N,col5*%
X222910838Y-182920035D03*
%TO.P,SW20,2,2*%
%TO.N,Net-(D20-A)*%
X229650171Y-181755780D03*
%TD*%
D12*
%TO.P,U6,1,SW*%
%TO.N,Net-(D144-A)*%
X80463500Y-149000000D03*
%TO.P,U6,2,GND*%
%TO.N,GND*%
X80463500Y-149950000D03*
%TO.P,U6,3,FB*%
%TO.N,Net-(U6-FB)*%
X80463500Y-150900000D03*
%TO.P,U6,4,EN*%
%TO.N,Net-(J12-Pin_1)*%
X82973500Y-150900000D03*
%TO.P,U6,5,IN*%
X82973500Y-149950000D03*
%TO.P,U6,6,NC*%
%TO.N,unconnected-(U6-NC-Pad6)*%
X82973500Y-149000000D03*
%TD*%
D11*
%TO.P,C72,1*%
%TO.N,GND*%
X471415000Y-152162500D03*
%TO.P,C72,2*%
%TO.N,Net-(J7-Pin_1)*%
X471415000Y-154237500D03*
%TD*%
D23*
%TO.P,Q2,1,S1*%
%TO.N,GND*%
X82250000Y-133300000D03*
%TO.P,Q2,2,D12*%
%TO.N,unconnected-(Q2-D12-Pad2)*%
X83200000Y-133300000D03*
%TO.P,Q2,3,S2*%
%TO.N,Net-(J14-Pin_1)*%
X84150000Y-133300000D03*
%TO.P,Q2,4,G2*%
%TO.N,Net-(Q2-G2)*%
X84150000Y-130790000D03*
%TO.P,Q2,5,D12*%
%TO.N,unconnected-(Q2-D12-Pad5)*%
X83200000Y-130790000D03*
%TO.P,Q2,6,G1*%
%TO.N,Net-(Q2-G1)*%
X82250000Y-130790000D03*
%TD*%
D10*
%TO.P,SW70,1,1*%
%TO.N,col6*%
X408939929Y-212944623D03*
%TO.P,SW70,2,2*%
%TO.N,Net-(D105-A)*%
X415289929Y-210404623D03*
%TD*%
%TO.P,SW45,1,1*%
%TO.N,col2*%
X313120219Y-164886823D03*
%TO.P,SW45,2,2*%
%TO.N,Net-(D80-A)*%
X318803360Y-161082089D03*
%TD*%
%TO.P,SW59,1,1*%
%TO.N,col2*%
X330358455Y-200173846D03*
%TO.P,SW59,2,2*%
%TO.N,Net-(D94-A)*%
X336041596Y-196369112D03*
%TD*%
%TO.P,SW64,1,1*%
%TO.N,col0*%
X292393349Y-227719194D03*
%TO.P,SW64,2,2*%
%TO.N,Net-(D99-A)*%
X298076490Y-223914460D03*
%TD*%
%TO.P,SW36,1,1*%
%TO.N,col0*%
X281209077Y-152194146D03*
%TO.P,SW36,2,2*%
%TO.N,Net-(D71-A)*%
X286892218Y-148389412D03*
%TD*%
%TO.P,SW13,1,1*%
%TO.N,col5*%
X222213155Y-163296123D03*
%TO.P,SW13,2,2*%
%TO.N,Net-(D13-A)*%
X228952488Y-162131868D03*
%TD*%
D13*
%TO.P,C78,1*%
%TO.N,Net-(J14-Pin_1)*%
X84612500Y-135141500D03*
%TO.P,C78,2*%
%TO.N,Net-(U7-VCC)*%
X86687500Y-135141500D03*
%TD*%
D10*
%TO.P,SW63,1,1*%
%TO.N,col6*%
X408939929Y-193894623D03*
%TO.P,SW63,2,2*%
%TO.N,Net-(D98-A)*%
X415289929Y-191354623D03*
%TD*%
D24*
%TO.P,R9,1*%
%TO.N,Net-(U6-FB)*%
X80465000Y-152800000D03*
%TO.P,R9,2*%
%TO.N,GND*%
X78465000Y-152800000D03*
%TD*%
D25*
%TO.P,R4,1*%
%TO.N,Net-(U5-CHRG#)*%
X472062500Y-140350000D03*
%TO.P,R4,2*%
%TO.N,Net-(D142-K)*%
X474062500Y-140350000D03*
%TD*%
D10*
%TO.P,SW11,1,1*%
%TO.N,col3*%
X184945732Y-155374688D03*
%TO.P,SW11,2,2*%
%TO.N,Net-(D11-A)*%
X191685065Y-154210433D03*
%TD*%
D25*
%TO.P,R3,1*%
%TO.N,Net-(J7-Pin_1)*%
X471250000Y-144300000D03*
%TO.P,R3,2*%
%TO.N,Net-(U4-VCC)*%
X473250000Y-144300000D03*
%TD*%
D10*
%TO.P,SW19,1,1*%
%TO.N,col4*%
X204277126Y-178959317D03*
%TO.P,SW19,2,2*%
%TO.N,Net-(D19-A)*%
X211016459Y-177795062D03*
%TD*%
%TO.P,SW41,1,1*%
%TO.N,col5*%
X376685048Y-136744629D03*
%TO.P,SW41,2,2*%
%TO.N,Net-(D76-A)*%
X383035048Y-134204629D03*
%TD*%
D14*
%TO.P,J9,1,Pin_1*%
%TO.N,Net-(J9-Pin_1)*%
X476250000Y-152150000D03*
%TD*%
D10*
%TO.P,SW43,1,1*%
%TO.N,col0*%
X275852795Y-172808258D03*
%TO.P,SW43,2,2*%
%TO.N,Net-(D78-A)*%
X281535936Y-169003524D03*
%TD*%
D13*
%TO.P,D146,1,K*%
%TO.N,Net-(D146-K)*%
X89300000Y-139150000D03*
%TO.P,D146,2,A*%
%TO.N,Net-(D145-A)*%
X91375000Y-139150000D03*
%TD*%
D26*
%TO.P,L2,1*%
%TO.N,Net-(J12-Pin_1)*%
X86275000Y-145050000D03*
%TO.P,L2,2*%
%TO.N,Net-(D144-A)*%
X81475000Y-145050000D03*
%TD*%
D10*
%TO.P,SW9,1,1*%
%TO.N,col1*%
X144782000Y-155787500D03*
%TO.P,SW9,2,2*%
%TO.N,Net-(D9-A)*%
X151132000Y-153247500D03*
%TD*%
%TO.P,SW6,1,1*%
%TO.N,col5*%
X235490774Y-146642811D03*
%TO.P,SW6,2,2*%
%TO.N,Net-(D6-A)*%
X242230107Y-145478556D03*
%TD*%
D27*
%TO.P,U4,1,OD*%
%TO.N,Net-(Q1-G2)*%
X474200000Y-134033000D03*
%TO.P,U4,2,CS*%
%TO.N,Net-(U4-CS)*%
X473250000Y-134033000D03*
%TO.P,U4,3,OC*%
%TO.N,Net-(Q1-G1)*%
X472300000Y-134033000D03*
%TO.P,U4,4,TD*%
%TO.N,unconnected-(U4-TD-Pad4)*%
X472300000Y-136543000D03*
%TO.P,U4,5,VCC*%
%TO.N,Net-(U4-VCC)*%
X473250000Y-136543000D03*
%TO.P,U4,6,GND*%
%TO.N,Net-(J9-Pin_1)*%
X474200000Y-136543000D03*
%TD*%
D10*
%TO.P,SW40,1,1*%
%TO.N,col4*%
X357635048Y-135244229D03*
%TO.P,SW40,2,2*%
%TO.N,Net-(D75-A)*%
X363985048Y-132704229D03*
%TD*%
D28*
%TO.P,J1,1,Pin_1*%
%TO.N,+5V*%
X417250000Y-178600000D03*
%TD*%
D10*
%TO.P,SW15,1,1*%
%TO.N,col0*%
X126432000Y-174837500D03*
%TO.P,SW15,2,2*%
%TO.N,Net-(D15-A)*%
X132782000Y-172297500D03*
%TD*%
%TO.P,SW56,1,1*%
%TO.N,col6*%
X399414929Y-174844623D03*
%TO.P,SW56,2,2*%
%TO.N,Net-(D91-A)*%
X405764929Y-172304623D03*
%TD*%
D25*
%TO.P,R11,1*%
%TO.N,Net-(U8-CHRG#)*%
X85512500Y-137100000D03*
%TO.P,R11,2*%
%TO.N,Net-(D145-K)*%
X87512500Y-137100000D03*
%TD*%
D10*
%TO.P,SW52,1,1*%
%TO.N,col2*%
X321739337Y-182530334D03*
%TO.P,SW52,2,2*%
%TO.N,Net-(D87-A)*%
X327422478Y-178725600D03*
%TD*%
D29*
%TO.P,C71,1*%
%TO.N,GND*%
X462065000Y-154237500D03*
%TO.P,C71,2*%
%TO.N,Net-(D141-K)*%
X462065000Y-152162500D03*
%TD*%
D10*
%TO.P,SW26,1,1*%
%TO.N,col4*%
X209633308Y-199573430D03*
%TO.P,SW26,2,2*%
%TO.N,Net-(D26-A)*%
X216372641Y-198409175D03*
%TD*%
%TO.P,SW46,1,1*%
%TO.N,col3*%
X331753931Y-160926105D03*
%TO.P,SW46,2,2*%
%TO.N,Net-(D81-A)*%
X337437072Y-157121371D03*
%TD*%
%TO.P,SW44,1,1*%
%TO.N,col1*%
X294486507Y-168847540D03*
%TO.P,SW44,2,2*%
%TO.N,Net-(D79-A)*%
X300169648Y-165042806D03*
%TD*%
D30*
%TO.P,U8,1,TEMP*%
%TO.N,GND*%
X77600000Y-137240000D03*
%TO.P,U8,2,PROG*%
%TO.N,Net-(U8-PROG)*%
X77600000Y-138510000D03*
%TO.P,U8,3,GND*%
%TO.N,GND*%
X77600000Y-139780000D03*
%TO.P,U8,4,VCC*%
%TO.N,Net-(D145-A)*%
X77600000Y-141050000D03*
%TO.P,U8,5,BAT*%
%TO.N,Net-(J12-Pin_1)*%
X82550000Y-141050000D03*
%TO.P,U8,6,STDBY#*%
%TO.N,Net-(U8-STDBY#)*%
X82550000Y-139780000D03*
%TO.P,U8,7,CHRG#*%
%TO.N,Net-(U8-CHRG#)*%
X82550000Y-138510000D03*
%TO.P,U8,8,CE*%
%TO.N,Net-(D145-A)*%
X82550000Y-137240000D03*
D31*
%TO.P,U8,9,EP*%
%TO.N,unconnected-(U8-EP-Pad9)*%
X80075000Y-139145000D03*
%TD*%
D10*
%TO.P,SW29,1,1*%
%TO.N,col0*%
X131782000Y-212937500D03*
%TO.P,SW29,2,2*%
%TO.N,Net-(D29-A)*%
X138132000Y-210397500D03*
%TD*%
D28*
%TO.P,J4,1,Pin_1*%
%TO.N,GND*%
X125550000Y-202000000D03*
%TD*%
D10*
%TO.P,SW31,1,1*%
%TO.N,col2*%
X169882000Y-212937500D03*
%TO.P,SW31,2,2*%
%TO.N,Net-(D31-A)*%
X176232000Y-210397500D03*
%TD*%
D32*
%TO.P,C73,1*%
%TO.N,Net-(D142-A)*%
X469137500Y-138550000D03*
%TO.P,C73,2*%
%TO.N,GND*%
X467062500Y-138550000D03*
%TD*%
D10*
%TO.P,SW27,1,1*%
%TO.N,col5*%
X228267020Y-203534148D03*
%TO.P,SW27,2,2*%
%TO.N,Net-(D27-A)*%
X235006353Y-202369893D03*
%TD*%
D15*
%TO.P,R5,1*%
%TO.N,Net-(U4-CS)*%
X475950000Y-134041500D03*
%TO.P,R5,2*%
%TO.N,GND*%
X475950000Y-136041500D03*
%TD*%
D29*
%TO.P,C75,1*%
%TO.N,GND*%
X75515000Y-150987500D03*
%TO.P,C75,2*%
%TO.N,Net-(D144-K)*%
X75515000Y-148912500D03*
%TD*%
D10*
%TO.P,SW24,1,1*%
%TO.N,col2*%
X169882000Y-193887500D03*
%TO.P,SW24,2,2*%
%TO.N,Net-(D24-A)*%
X176232000Y-191347500D03*
%TD*%
D27*
%TO.P,U7,1,OD*%
%TO.N,Net-(Q2-G2)*%
X87650000Y-130783000D03*
%TO.P,U7,2,CS*%
%TO.N,Net-(U7-CS)*%
X86700000Y-130783000D03*
%TO.P,U7,3,OC*%
%TO.N,Net-(Q2-G1)*%
X85750000Y-130783000D03*
%TO.P,U7,4,TD*%
%TO.N,unconnected-(U7-TD-Pad4)*%
X85750000Y-133293000D03*
%TO.P,U7,5,VCC*%
%TO.N,Net-(U7-VCC)*%
X86700000Y-133293000D03*
%TO.P,U7,6,GND*%
%TO.N,Net-(J14-Pin_1)*%
X87650000Y-133293000D03*
%TD*%
D10*
%TO.P,SW61,1,1*%
%TO.N,col4*%
X370839929Y-193894623D03*
%TO.P,SW61,2,2*%
%TO.N,Net-(D96-A)*%
X377189929Y-191354623D03*
%TD*%
%TO.P,SW1,1,1*%
%TO.N,col0*%
X139422000Y-136737500D03*
%TO.P,SW1,2,2*%
%TO.N,Net-(D1-A)*%
X145772000Y-134197500D03*
%TD*%
%TO.P,SW38,1,1*%
%TO.N,col2*%
X318476501Y-144272711D03*
%TO.P,SW38,2,2*%
%TO.N,Net-(D73-A)*%
X324159642Y-140467977D03*
%TD*%
%TO.P,SW49,1,1*%
%TO.N,col6*%
X390374929Y-155794623D03*
%TO.P,SW49,2,2*%
%TO.N,Net-(D84-A)*%
X396724929Y-153254623D03*
%TD*%
%TO.P,SW25,1,1*%
%TO.N,col3*%
X190999596Y-195612712D03*
%TO.P,SW25,2,2*%
%TO.N,Net-(D25-A)*%
X197738929Y-194448457D03*
%TD*%
%TO.P,SW10,1,1*%
%TO.N,col2*%
X163832000Y-155787500D03*
%TO.P,SW10,2,2*%
%TO.N,Net-(D10-A)*%
X170182000Y-153247500D03*
%TD*%
D14*
%TO.P,J14,1,Pin_1*%
%TO.N,Net-(J14-Pin_1)*%
X89700000Y-148900000D03*
%TD*%
D10*
%TO.P,SW5,1,1*%
%TO.N,col4*%
X216857062Y-142682093D03*
%TO.P,SW5,2,2*%
%TO.N,Net-(D5-A)*%
X223596395Y-141517838D03*
%TD*%
D33*
%TO.P,D144,1,K*%
%TO.N,Net-(D144-K)*%
X75535000Y-146050000D03*
%TO.P,D144,2,A*%
%TO.N,Net-(D144-A)*%
X79465000Y-146050000D03*
%TD*%
D10*
%TO.P,SW60,1,1*%
%TO.N,col3*%
X348992167Y-196213129D03*
%TO.P,SW60,2,2*%
%TO.N,Net-(D95-A)*%
X354675308Y-192408395D03*
%TD*%
%TO.P,SW68,1,1*%
%TO.N,col4*%
X370839929Y-212944623D03*
%TO.P,SW68,2,2*%
%TO.N,Net-(D103-A)*%
X377189929Y-210404623D03*
%TD*%
D25*
%TO.P,R13,1*%
%TO.N,Net-(U8-STDBY#)*%
X85512500Y-139100000D03*
%TO.P,R13,2*%
%TO.N,Net-(D146-K)*%
X87512500Y-139100000D03*
%TD*%
D14*
%TO.P,J11,1,Pin_1*%
%TO.N,GND*%
X89700000Y-145850000D03*
%TD*%
D10*
%TO.P,SW32,1,1*%
%TO.N,col3*%
X196355578Y-216226724D03*
%TO.P,SW32,2,2*%
%TO.N,Net-(D32-A)*%
X203094911Y-215062469D03*
%TD*%
%TO.P,SW35,1,1*%
%TO.N,col6*%
X252256713Y-228108877D03*
%TO.P,SW35,2,2*%
%TO.N,Net-(D35-A)*%
X258996046Y-226944622D03*
%TD*%
%TO.P,SW65,1,1*%
%TO.N,col1*%
X311027061Y-223758476D03*
%TO.P,SW65,2,2*%
%TO.N,Net-(D100-A)*%
X316710202Y-219953742D03*
%TD*%
%TO.P,SW8,1,1*%
%TO.N,col0*%
X125732000Y-155787500D03*
%TO.P,SW8,2,2*%
%TO.N,Net-(D8-A)*%
X132082000Y-153247500D03*
%TD*%
%TO.P,SW28,1,1*%
%TO.N,col6*%
X246900731Y-207494865D03*
%TO.P,SW28,2,2*%
%TO.N,Net-(D28-A)*%
X253640064Y-206330610D03*
%TD*%
D26*
%TO.P,L1,1*%
%TO.N,Net-(J7-Pin_1)*%
X472825000Y-148300000D03*
%TO.P,L1,2*%
%TO.N,Net-(D141-A)*%
X468025000Y-148300000D03*
%TD*%
D10*
%TO.P,SW39,1,1*%
%TO.N,col3*%
X337110213Y-140311993D03*
%TO.P,SW39,2,2*%
%TO.N,Net-(D74-A)*%
X342793354Y-136507259D03*
%TD*%
%TO.P,SW66,1,1*%
%TO.N,col2*%
X329660773Y-219797759D03*
%TO.P,SW66,2,2*%
%TO.N,Net-(D101-A)*%
X335343914Y-215993025D03*
%TD*%
D14*
%TO.P,J7,1,Pin_1*%
%TO.N,Net-(J7-Pin_1)*%
X476250000Y-155200000D03*
%TD*%
D10*
%TO.P,SW30,1,1*%
%TO.N,col1*%
X150832000Y-212937500D03*
%TO.P,SW30,2,2*%
%TO.N,Net-(D30-A)*%
X157182000Y-210397500D03*
%TD*%
D34*
%TO.P,R7,1*%
%TO.N,Net-(U5-PROG)*%
X461900000Y-141750000D03*
%TO.P,R7,2*%
%TO.N,GND*%
X461900000Y-139750000D03*
%TD*%
D10*
%TO.P,SW2,1,1*%
%TO.N,col1*%
X158472000Y-136737500D03*
%TO.P,SW2,2,2*%
%TO.N,Net-(D2-A)*%
X164822000Y-134197500D03*
%TD*%
%TO.P,SW3,1,1*%
%TO.N,col2*%
X177522000Y-135237100D03*
%TO.P,SW3,2,2*%
%TO.N,Net-(D3-A)*%
X183872000Y-132697100D03*
%TD*%
%TO.P,SW21,1,1*%
%TO.N,col6*%
X241544549Y-186880753D03*
%TO.P,SW21,2,2*%
%TO.N,Net-(D21-A)*%
X248283882Y-185716498D03*
%TD*%
%TO.P,SW34,1,1*%
%TO.N,col5*%
X233623002Y-224148159D03*
%TO.P,SW34,2,2*%
%TO.N,Net-(D34-A)*%
X240362335Y-222983904D03*
%TD*%
D33*
%TO.P,D141,1,K*%
%TO.N,Net-(D141-K)*%
X462085000Y-149300000D03*
%TO.P,D141,2,A*%
%TO.N,Net-(D141-A)*%
X466015000Y-149300000D03*
%TD*%
D10*
%TO.P,SW33,1,1*%
%TO.N,col4*%
X214989290Y-220187442D03*
%TO.P,SW33,2,2*%
%TO.N,Net-(D33-A)*%
X221728623Y-219023187D03*
%TD*%
D25*
%TO.P,R6,1*%
%TO.N,Net-(U5-STDBY#)*%
X472062500Y-142350000D03*
%TO.P,R6,2*%
%TO.N,Net-(D143-K)*%
X474062500Y-142350000D03*
%TD*%
D10*
%TO.P,SW18,1,1*%
%TO.N,col3*%
X185643414Y-174998600D03*
%TO.P,SW18,2,2*%
%TO.N,Net-(D18-A)*%
X192382747Y-173834345D03*
%TD*%
D15*
%TO.P,R12,1*%
%TO.N,Net-(U7-CS)*%
X89400000Y-130791500D03*
%TO.P,R12,2*%
%TO.N,GND*%
X89400000Y-132791500D03*
%TD*%
D10*
%TO.P,SW23,1,1*%
%TO.N,col1*%
X150832000Y-193887500D03*
%TO.P,SW23,2,2*%
%TO.N,Net-(D23-A)*%
X157182000Y-191347500D03*
%TD*%
D23*
%TO.P,Q1,1,S1*%
%TO.N,GND*%
X468800000Y-136550000D03*
%TO.P,Q1,2,D12*%
%TO.N,unconnected-(Q1-D12-Pad2)*%
X469750000Y-136550000D03*
%TO.P,Q1,3,S2*%
%TO.N,Net-(J9-Pin_1)*%
X470700000Y-136550000D03*
%TO.P,Q1,4,G2*%
%TO.N,Net-(Q1-G2)*%
X470700000Y-134040000D03*
%TO.P,Q1,5,D12*%
%TO.N,unconnected-(Q1-D12-Pad5)*%
X469750000Y-134040000D03*
%TO.P,Q1,6,G1*%
%TO.N,Net-(Q1-G1)*%
X468800000Y-134040000D03*
%TD*%
D24*
%TO.P,R2,1*%
%TO.N,Net-(U3-FB)*%
X467015000Y-156050000D03*
%TO.P,R2,2*%
%TO.N,GND*%
X465015000Y-156050000D03*
%TD*%
D34*
%TO.P,R14,1*%
%TO.N,Net-(U8-PROG)*%
X75350000Y-138500000D03*
%TO.P,R14,2*%
%TO.N,GND*%
X75350000Y-136500000D03*
%TD*%
D28*
%TO.P,J2,1,Pin_1*%
%TO.N,GND*%
X417250000Y-184250000D03*
%TD*%
D10*
%TO.P,SW4,1,1*%
%TO.N,col3*%
X198223350Y-138721376D03*
%TO.P,SW4,2,2*%
%TO.N,Net-(D4-A)*%
X204962683Y-137557121D03*
%TD*%
%TO.P,SW69,1,1*%
%TO.N,col5*%
X389889929Y-212944623D03*
%TO.P,SW69,2,2*%
%TO.N,Net-(D104-A)*%
X396239929Y-210404623D03*
%TD*%
D13*
%TO.P,D143,1,K*%
%TO.N,Net-(D143-K)*%
X475850000Y-142400000D03*
%TO.P,D143,2,A*%
%TO.N,Net-(D142-A)*%
X477925000Y-142400000D03*
%TD*%
D25*
%TO.P,R10,1*%
%TO.N,Net-(J12-Pin_1)*%
X84700000Y-141050000D03*
%TO.P,R10,2*%
%TO.N,Net-(U7-VCC)*%
X86700000Y-141050000D03*
%TD*%
D10*
%TO.P,SW22,1,1*%
%TO.N,col0*%
X131782000Y-193887500D03*
%TO.P,SW22,2,2*%
%TO.N,Net-(D22-A)*%
X138132000Y-191347500D03*
%TD*%
D14*
%TO.P,J10,1,Pin_1*%
%TO.N,Net-(D144-K)*%
X89700000Y-142800000D03*
%TD*%
D10*
%TO.P,SW42,1,1*%
%TO.N,col6*%
X395735048Y-136744629D03*
%TO.P,SW42,2,2*%
%TO.N,Net-(D77-A)*%
X402085048Y-134204629D03*
%TD*%
D16*
%TO.P,J8,A5,CC1*%
%TO.N,unconnected-(J8-CC1-PadA5)*%
X459430000Y-142280000D03*
D17*
%TO.P,J8,A9,VBUS*%
%TO.N,Net-(D142-A)*%
X459430000Y-144300000D03*
D18*
%TO.P,J8,A12,GND*%
%TO.N,GND*%
X459430000Y-145530000D03*
D19*
%TO.P,J8,B5,CC2*%
%TO.N,unconnected-(J8-CC2-PadB5)*%
X459430000Y-143280000D03*
D20*
%TO.P,J8,B9,VBUS*%
%TO.N,Net-(D142-A)*%
X459430000Y-141260000D03*
D21*
%TO.P,J8,B12,GND*%
%TO.N,GND*%
X459430000Y-140030000D03*
D22*
%TO.P,J8,S1,SHIELD*%
X459350000Y-138460000D03*
X455550000Y-138460000D03*
X459350000Y-147100000D03*
X455550000Y-147100000D03*
%TD*%
D28*
%TO.P,J3,1,Pin_1*%
%TO.N,+5V*%
X125550000Y-196350000D03*
%TD*%
D15*
%TO.P,R8,1*%
%TO.N,Net-(D144-K)*%
X77665000Y-148900000D03*
%TO.P,R8,2*%
%TO.N,Net-(U6-FB)*%
X77665000Y-150900000D03*
%TD*%
D10*
%TO.P,SW57,1,1*%
%TO.N,col0*%
X293091031Y-208095282D03*
%TO.P,SW57,2,2*%
%TO.N,Net-(D92-A)*%
X298774172Y-204290548D03*
%TD*%
%TO.P,SW47,1,1*%
%TO.N,col4*%
X350387594Y-156965387D03*
%TO.P,SW47,2,2*%
%TO.N,Net-(D82-A)*%
X356070735Y-153160653D03*
%TD*%
%TO.P,SW48,1,1*%
%TO.N,col5*%
X371324929Y-155794623D03*
%TO.P,SW48,2,2*%
%TO.N,Net-(D83-A)*%
X377674929Y-153254623D03*
%TD*%
D30*
%TO.P,U5,1,TEMP*%
%TO.N,GND*%
X464150000Y-140490000D03*
%TO.P,U5,2,PROG*%
%TO.N,Net-(U5-PROG)*%
X464150000Y-141760000D03*
%TO.P,U5,3,GND*%
%TO.N,GND*%
X464150000Y-143030000D03*
%TO.P,U5,4,VCC*%
%TO.N,Net-(D142-A)*%
X464150000Y-144300000D03*
%TO.P,U5,5,BAT*%
%TO.N,Net-(J7-Pin_1)*%
X469100000Y-144300000D03*
%TO.P,U5,6,STDBY#*%
%TO.N,Net-(U5-STDBY#)*%
X469100000Y-143030000D03*
%TO.P,U5,7,CHRG#*%
%TO.N,Net-(U5-CHRG#)*%
X469100000Y-141760000D03*
%TO.P,U5,8,CE*%
%TO.N,Net-(D142-A)*%
X469100000Y-140490000D03*
D31*
%TO.P,U5,9,EP*%
%TO.N,unconnected-(U5-EP-Pad9)*%
X466625000Y-142395000D03*
%TD*%
D32*
%TO.P,C77,1*%
%TO.N,Net-(D145-A)*%
X82587500Y-135300000D03*
%TO.P,C77,2*%
%TO.N,GND*%
X80512500Y-135300000D03*
%TD*%
D14*
%TO.P,J12,1,Pin_1*%
%TO.N,Net-(J12-Pin_1)*%
X89700000Y-151950000D03*
%TD*%
D35*
%TO.P,U1,0,GPIO0*%
%TO.N,col0*%
X119060000Y-147300000D03*
%TO.P,U1,1,GPIO1*%
%TO.N,col1*%
X119060000Y-144760000D03*
%TO.P,U1,2,GPIO2*%
%TO.N,col2*%
X119060000Y-142220000D03*
%TO.P,U1,3,GPIO3*%
%TO.N,col3*%
X119060000Y-139680000D03*
%TO.P,U1,3.3,3V3*%
%TO.N,unconnected-(U1-3V3-Pad3.3)*%
X119060000Y-134600000D03*
%TO.P,U1,4,GPIO4*%
%TO.N,col4*%
X119060000Y-137140000D03*
%TO.P,U1,5,GPIO5*%
%TO.N,row0*%
X134300000Y-129520000D03*
%TO.P,U1,5V,5V*%
%TO.N,+5V*%
X119060000Y-129520000D03*
%TO.P,U1,6,GPIO6*%
%TO.N,led*%
X134300000Y-132060000D03*
%TO.P,U1,7,GPIO7*%
%TO.N,row4*%
X134300000Y-134600000D03*
%TO.P,U1,8,GPIO8*%
%TO.N,row3*%
X134300000Y-137140000D03*
%TO.P,U1,9,GPIO9*%
%TO.N,row2*%
X134300000Y-139680000D03*
%TO.P,U1,10,GPIO10*%
%TO.N,row1*%
X134300000Y-142220000D03*
%TO.P,U1,20,GPIO20*%
%TO.N,col6*%
X134300000Y-144760000D03*
%TO.P,U1,21,GPIO21*%
%TO.N,col5*%
X134300000Y-147300000D03*
%TO.P,U1,G,GND*%
%TO.N,GND*%
X119060000Y-132060000D03*
%TD*%
%TO.P,U2,0,GPIO0*%
%TO.N,col0*%
X411380000Y-147880000D03*
%TO.P,U2,1,GPIO1*%
%TO.N,col1*%
X411380000Y-145340000D03*
%TO.P,U2,2,GPIO2*%
%TO.N,col2*%
X411380000Y-142800000D03*
%TO.P,U2,3,GPIO3*%
%TO.N,col3*%
X411380000Y-140260000D03*
%TO.P,U2,3.3,3V3*%
%TO.N,unconnected-(U2-3V3-Pad3.3)*%
X411380000Y-135180000D03*
%TO.P,U2,4,GPIO4*%
%TO.N,col4*%
X411380000Y-137720000D03*
%TO.P,U2,5,GPIO5*%
%TO.N,row0*%
X426620000Y-130100000D03*
%TO.P,U2,5V,5V*%
%TO.N,+5V*%
X411380000Y-130100000D03*
%TO.P,U2,6,GPIO6*%
%TO.N,led*%
X426620000Y-132640000D03*
%TO.P,U2,7,GPIO7*%
%TO.N,row4*%
X426620000Y-135180000D03*
%TO.P,U2,8,GPIO8*%
%TO.N,row3*%
X426620000Y-137720000D03*
%TO.P,U2,9,GPIO9*%
%TO.N,row2*%
X426620000Y-140260000D03*
%TO.P,U2,10,GPIO10*%
%TO.N,row1*%
X426620000Y-142800000D03*
%TO.P,U2,20,GPIO20*%
%TO.N,col6*%
X426620000Y-145340000D03*
%TO.P,U2,21,GPIO21*%
%TO.N,col5*%
X426620000Y-147880000D03*
%TO.P,U2,G,GND*%
%TO.N,GND*%
X411380000Y-132640000D03*
%TD*%
D36*
%TO.N,GND*%
X326750000Y-194050000D03*
X304900000Y-159750000D03*
X286300000Y-163700000D03*
X286850000Y-196050000D03*
X294800000Y-233350000D03*
X411750000Y-225250000D03*
X402921918Y-187028082D03*
X152000000Y-218950000D03*
X324150000Y-188150000D03*
X316050000Y-235250000D03*
X302250000Y-153900000D03*
X166600000Y-168100000D03*
X235150000Y-152700000D03*
X171050000Y-199900000D03*
X320900000Y-149900000D03*
X410050000Y-218950000D03*
X362500000Y-180850000D03*
X132950000Y-218950000D03*
X297400000Y-239200000D03*
X332050000Y-225450000D03*
X305500000Y-192100000D03*
X165700000Y-180850000D03*
X313450000Y-229400000D03*
X393509418Y-168090582D03*
X171050000Y-218950000D03*
X298150000Y-219600000D03*
X345400000Y-190100000D03*
X210050000Y-212250000D03*
X127032000Y-161800000D03*
X147500000Y-168100000D03*
X398550000Y-149050000D03*
X240924041Y-173400000D03*
X204000000Y-172000000D03*
X356193241Y-143755344D03*
X140600000Y-142750000D03*
X127600000Y-180850000D03*
X323550000Y-155800000D03*
X153550000Y-206250000D03*
X396850000Y-142700000D03*
X172600000Y-206150000D03*
X381449858Y-180850000D03*
X283600000Y-157850000D03*
X342750000Y-184200000D03*
X318250000Y-176350000D03*
X241250000Y-179900000D03*
X280900000Y-184300000D03*
X204700000Y-191600000D03*
X186050000Y-187650000D03*
X332750000Y-205800000D03*
X289550000Y-201950000D03*
X161200000Y-149100000D03*
X379550000Y-149050000D03*
X252650000Y-240750000D03*
X350700000Y-221500000D03*
X372000000Y-199900000D03*
X209300000Y-205650000D03*
X351400000Y-201850000D03*
X247300000Y-220150000D03*
X132950000Y-199850000D03*
X185300000Y-181050000D03*
X197900000Y-144800000D03*
X353500000Y-227300000D03*
X178700000Y-141250000D03*
X372000000Y-218950000D03*
X223300000Y-195600000D03*
X203950000Y-185050000D03*
X372400000Y-161800000D03*
X352800000Y-162600000D03*
X235900000Y-159300000D03*
X134500000Y-225250000D03*
X216550000Y-148750000D03*
X128500000Y-168150000D03*
X198650000Y-151400000D03*
X191400000Y-208300000D03*
X411800000Y-206200000D03*
X146082000Y-161800000D03*
X296900000Y-174500000D03*
X364821918Y-187028082D03*
X354100000Y-207700000D03*
X185350000Y-168000000D03*
X391450000Y-161750000D03*
X185022906Y-161500000D03*
X222550000Y-189000000D03*
X314100000Y-209750000D03*
X373700000Y-225250000D03*
X410000000Y-199850000D03*
X190650000Y-201650000D03*
X383871918Y-187028082D03*
X148200000Y-187150000D03*
X241200000Y-192950000D03*
X316750000Y-215650000D03*
X377750000Y-142700000D03*
X315500000Y-170550000D03*
X152000000Y-199900000D03*
X228700000Y-216200000D03*
X215400000Y-232850000D03*
X391000000Y-218950000D03*
X129150000Y-187150000D03*
X253800000Y-156650000D03*
X355709418Y-168390582D03*
X134500000Y-206200000D03*
X360450000Y-147550000D03*
X217250000Y-155350000D03*
X203656618Y-165500000D03*
X172600000Y-225250000D03*
X334150000Y-166550000D03*
X167250000Y-187100000D03*
X159650000Y-142750000D03*
X334750000Y-231300000D03*
X335450000Y-211650000D03*
X196750000Y-228850000D03*
X374434418Y-168065582D03*
X180250000Y-147600000D03*
X339500000Y-145950000D03*
X308200000Y-197950000D03*
X214650000Y-226250000D03*
X392750000Y-225250000D03*
X222600000Y-175950000D03*
X246550000Y-213550000D03*
X234000000Y-236800000D03*
X142150000Y-149050000D03*
X254550000Y-163300000D03*
X392750000Y-206200000D03*
X146650000Y-180850000D03*
X251900000Y-234150000D03*
X196000000Y-222300000D03*
X233250000Y-230200000D03*
X165000000Y-161800000D03*
X222290330Y-169450000D03*
X227950000Y-209600000D03*
X400450000Y-180750000D03*
X295450000Y-213750000D03*
X390950000Y-199850000D03*
X336850000Y-172450000D03*
X278356633Y-178450000D03*
X373650000Y-206200000D03*
X299600000Y-180300000D03*
X241950000Y-199550000D03*
X153550000Y-225200000D03*
X342080567Y-151650000D03*
%TO.N,+5V*%
X307903875Y-156600000D03*
X396291026Y-203791026D03*
X415349929Y-222832123D03*
X338419540Y-208550000D03*
X145828500Y-146628500D03*
X402138588Y-146638588D03*
X357053252Y-204600000D03*
X156697221Y-203747221D03*
X218796733Y-231096733D03*
X405824929Y-184732123D03*
X188711716Y-166261716D03*
X283913881Y-181200000D03*
X232083952Y-214433952D03*
X200174518Y-227124518D03*
X245346018Y-197796018D03*
X319785828Y-212500000D03*
X302547592Y-177250000D03*
X157242000Y-222825000D03*
X377249929Y-203782123D03*
X137622221Y-203772221D03*
X367724929Y-184732123D03*
X396784929Y-165682123D03*
X207400000Y-170250000D03*
X386774929Y-184732123D03*
X364045048Y-145131729D03*
X170242000Y-165675000D03*
X348434134Y-186950000D03*
X220677945Y-153577945D03*
X257947375Y-161497375D03*
X164882000Y-146600000D03*
X356355570Y-224250000D03*
X289270163Y-160600000D03*
X151892000Y-184700000D03*
X176292000Y-203775000D03*
X319088147Y-232150000D03*
X213436736Y-210486736D03*
X194814522Y-206514522D03*
X176292000Y-222800000D03*
X132842000Y-184725000D03*
X237443948Y-235043948D03*
X377249929Y-222832123D03*
X189454374Y-185904374D03*
X415341026Y-203791026D03*
X151192000Y-165675000D03*
X329800422Y-190900000D03*
X339815016Y-169300000D03*
X256066163Y-239016163D03*
X377733526Y-165683526D03*
X226013006Y-174213006D03*
X311166710Y-194900000D03*
X244660221Y-178160221D03*
X239300160Y-157550160D03*
X358448680Y-165350000D03*
X208076589Y-189876589D03*
X292532999Y-198850000D03*
X345171298Y-148700000D03*
X138192000Y-222800000D03*
X383095048Y-146632129D03*
X250706166Y-218406166D03*
X301152117Y-216500000D03*
X226723804Y-193823804D03*
X396291026Y-222841026D03*
X337721858Y-228200000D03*
X183367021Y-145117021D03*
X202030730Y-149630730D03*
X131572221Y-165672221D03*
X300454435Y-236100000D03*
X170942000Y-184700000D03*
X321181304Y-173250000D03*
X326537586Y-152650000D03*
%TO.N,Net-(D141-K)*%
X462100000Y-147950000D03*
%TO.N,Net-(D142-A)*%
X469150000Y-139750000D03*
X477900000Y-143900000D03*
X464150000Y-145300000D03*
%TO.N,row1*%
X402550000Y-157400000D03*
X137900000Y-157500000D03*
%TO.N,row2*%
X138550000Y-176400000D03*
X411600000Y-176450000D03*
%TO.N,row3*%
X143900000Y-195500000D03*
X421200000Y-195500000D03*
%TO.N,row4*%
X421200000Y-214550000D03*
X143900000Y-214550000D03*
%TO.N,Net-(D144-K)*%
X75550000Y-144700000D03*
%TO.N,Net-(D145-A)*%
X91350000Y-140650000D03*
X82600000Y-136500000D03*
X77600000Y-142050000D03*
%TD*%
D37*
%TO.N,GND*%
X464150000Y-143030000D02*
X461593840Y-143030000D01*
X81369500Y-150562638D02*
X81369500Y-153481660D01*
X74349000Y-139085160D02*
X74349000Y-137914840D01*
X75023840Y-137240000D02*
X77600000Y-137240000D01*
X80463500Y-149950000D02*
X80170138Y-149950000D01*
X462701000Y-147601000D02*
X462200000Y-147100000D01*
X467013500Y-153200000D02*
X466720138Y-153200000D01*
X80463500Y-149950000D02*
X80756862Y-149950000D01*
X77600000Y-139780000D02*
X75043840Y-139780000D01*
X465210348Y-150441000D02*
X462701000Y-147931652D01*
X461573840Y-140490000D02*
X464150000Y-140490000D01*
X461620000Y-140030000D02*
X461900000Y-139750000D01*
X76151000Y-144351000D02*
X75650000Y-143850000D01*
X466090000Y-138550000D02*
X467062500Y-138550000D01*
X75650000Y-143850000D02*
X72800000Y-143850000D01*
X459430000Y-140030000D02*
X461620000Y-140030000D01*
X81050160Y-153801000D02*
X79466000Y-153801000D01*
X465210348Y-151690210D02*
X465210348Y-150441000D01*
X467600160Y-157051000D02*
X466016000Y-157051000D01*
X80463500Y-149950000D02*
X76552500Y-149950000D01*
X467013500Y-153200000D02*
X463102500Y-153200000D01*
X72880000Y-136780000D02*
X75070000Y-136780000D01*
X464150000Y-140490000D02*
X466090000Y-138550000D01*
X466720138Y-153200000D02*
X465210348Y-151690210D01*
X463102500Y-153200000D02*
X462065000Y-154237500D01*
X79466000Y-153801000D02*
X78465000Y-152800000D01*
X460899000Y-142335160D02*
X460899000Y-141164840D01*
X462701000Y-147931652D02*
X462701000Y-147601000D01*
X74349000Y-137914840D02*
X75023840Y-137240000D01*
X75070000Y-136780000D02*
X75350000Y-136500000D01*
X81369500Y-153481660D02*
X81050160Y-153801000D01*
X460899000Y-141164840D02*
X461573840Y-140490000D01*
X79540000Y-135300000D02*
X80512500Y-135300000D01*
X467013500Y-153200000D02*
X467306862Y-153200000D01*
X76552500Y-149950000D02*
X75515000Y-150987500D01*
X467919500Y-156731660D02*
X467600160Y-157051000D01*
X77600000Y-137240000D02*
X79540000Y-135300000D01*
X467306862Y-153200000D02*
X467919500Y-153812638D01*
X461593840Y-143030000D02*
X460899000Y-142335160D01*
X80756862Y-149950000D02*
X81369500Y-150562638D01*
X466016000Y-157051000D02*
X465015000Y-156050000D01*
X76151000Y-144681652D02*
X76151000Y-144351000D01*
X80170138Y-149950000D02*
X78660348Y-148440210D01*
X462200000Y-147100000D02*
X459350000Y-147100000D01*
X75043840Y-139780000D02*
X74349000Y-139085160D01*
X78660348Y-147191000D02*
X76151000Y-144681652D01*
X78660348Y-148440210D02*
X78660348Y-147191000D01*
X467919500Y-153812638D02*
X467919500Y-156731660D01*
%TO.N,Net-(U4-VCC)*%
X473250000Y-138379000D02*
X473237500Y-138391500D01*
X473161500Y-144211500D02*
X473250000Y-144300000D01*
X473161500Y-138467500D02*
X473161500Y-144211500D01*
X473237500Y-138391500D02*
X473161500Y-138467500D01*
X473250000Y-136543000D02*
X473250000Y-138379000D01*
%TO.N,Net-(U3-FB)*%
X467013500Y-156048500D02*
X467015000Y-156050000D01*
X464215000Y-154150000D02*
X467013500Y-154150000D01*
X467013500Y-154150000D02*
X467013500Y-156048500D01*
%TO.N,Net-(U5-CHRG#)*%
X472062500Y-140350000D02*
X470652500Y-141760000D01*
X470652500Y-141760000D02*
X469100000Y-141760000D01*
%TO.N,Net-(U4-CS)*%
X475035500Y-133127000D02*
X475950000Y-134041500D01*
X473250000Y-133428001D02*
X473551001Y-133127000D01*
X473551001Y-133127000D02*
X475035500Y-133127000D01*
X473250000Y-134033000D02*
X473250000Y-133428001D01*
%TO.N,Net-(U5-STDBY#)*%
X471382500Y-143030000D02*
X469100000Y-143030000D01*
X472062500Y-142350000D02*
X471382500Y-143030000D01*
%TO.N,Net-(U5-PROG)*%
X461900000Y-141750000D02*
X464140000Y-141750000D01*
X464140000Y-141750000D02*
X464150000Y-141760000D01*
%TO.N,Net-(Q1-G2)*%
X471599000Y-134939000D02*
X470700000Y-134040000D01*
X474200000Y-134033000D02*
X474200000Y-134637999D01*
X474200000Y-134637999D02*
X473898999Y-134939000D01*
X473898999Y-134939000D02*
X471599000Y-134939000D01*
%TO.N,Net-(Q1-G1)*%
X469101001Y-133134000D02*
X471401000Y-133134000D01*
X468800000Y-134040000D02*
X468800000Y-133435001D01*
X471401000Y-133134000D02*
X472300000Y-134033000D01*
X468800000Y-133435001D02*
X469101001Y-133134000D01*
%TO.N,col0*%
X285721912Y-191701769D02*
X285721912Y-200726163D01*
X293091031Y-208095282D02*
X294341030Y-209345281D01*
X139422000Y-136737500D02*
X139422000Y-146778000D01*
X277756633Y-174712096D02*
X275852795Y-172808258D01*
X277756633Y-183736490D02*
X277756633Y-174712096D01*
X136500000Y-149700000D02*
X131819500Y-149700000D01*
X126432000Y-156487500D02*
X125732000Y-155787500D01*
X284471913Y-190451770D02*
X285721912Y-191701769D01*
X126432000Y-188537500D02*
X126432000Y-174837500D01*
X285721912Y-200726163D02*
X293091031Y-208095282D01*
X284471913Y-190451770D02*
X277756633Y-183736490D01*
X294341030Y-209345281D02*
X294341030Y-225771513D01*
X281209077Y-152194146D02*
X275852795Y-157550428D01*
X294341030Y-225771513D02*
X292393349Y-227719194D01*
X131782000Y-193887500D02*
X126432000Y-188537500D01*
X131782000Y-193887500D02*
X131782000Y-212937500D01*
X275852795Y-157550428D02*
X275852795Y-172808258D01*
X126432000Y-174837500D02*
X126432000Y-156487500D01*
X139422000Y-146778000D02*
X136500000Y-149700000D01*
X131819500Y-149700000D02*
X125732000Y-155787500D01*
%TO.N,Net-(D141-K)*%
X464202500Y-152162500D02*
X464215000Y-152150000D01*
X462085000Y-152142500D02*
X462065000Y-152162500D01*
X462065000Y-152162500D02*
X464202500Y-152162500D01*
X462100000Y-149285000D02*
X462085000Y-149300000D01*
X462100000Y-147950000D02*
X462100000Y-149285000D01*
X462085000Y-149300000D02*
X462085000Y-152142500D01*
%TO.N,Net-(D142-A)*%
X477925000Y-140300000D02*
X477925000Y-142400000D01*
X459430000Y-141260000D02*
X459171986Y-141260000D01*
X477925000Y-143875000D02*
X477900000Y-143900000D01*
X477925000Y-142400000D02*
X477925000Y-143875000D01*
X469137500Y-138550000D02*
X469137500Y-139737500D01*
X459171986Y-144300000D02*
X459430000Y-144300000D01*
X459171986Y-141260000D02*
X458529000Y-141902986D01*
X458529000Y-143657014D02*
X459171986Y-144300000D01*
X469150000Y-140440000D02*
X469100000Y-140490000D01*
X458529000Y-141902986D02*
X458529000Y-143657014D01*
X469150000Y-139750000D02*
X469150000Y-140440000D01*
X469137500Y-139737500D02*
X469150000Y-139750000D01*
X459430000Y-144300000D02*
X464150000Y-144300000D01*
X464150000Y-144300000D02*
X464150000Y-145300000D01*
%TO.N,Net-(D141-A)*%
X466015000Y-149300000D02*
X466015000Y-151251500D01*
X466015000Y-151251500D02*
X467013500Y-152250000D01*
X467015000Y-148300000D02*
X466015000Y-149300000D01*
X468025000Y-148300000D02*
X467015000Y-148300000D01*
%TO.N,Net-(D142-K)*%
X474062500Y-140350000D02*
X475800000Y-140350000D01*
X475800000Y-140350000D02*
X475850000Y-140300000D01*
%TO.N,Net-(D143-K)*%
X474062500Y-142350000D02*
X475800000Y-142350000D01*
X475800000Y-142350000D02*
X475850000Y-142400000D01*
%TO.N,col1*%
X158472000Y-142097500D02*
X158472000Y-136737500D01*
X299842789Y-148233429D02*
X294486507Y-153589711D01*
X312974742Y-205384563D02*
X312974742Y-221810795D01*
X145482000Y-188537500D02*
X145482000Y-174837500D01*
X144782000Y-155787500D02*
X158472000Y-142097500D01*
X304355624Y-196765445D02*
X311724743Y-204134564D01*
X145482000Y-156487500D02*
X144782000Y-155787500D01*
X311724743Y-204134564D02*
X312974742Y-205384563D01*
X294486507Y-168847540D02*
X295736506Y-170097539D01*
X295736506Y-170097539D02*
X295736506Y-179121933D01*
X145482000Y-174837500D02*
X145482000Y-156487500D01*
X295736506Y-179121933D02*
X303105625Y-186491052D01*
X294486507Y-153589711D02*
X294486507Y-168847540D01*
X304355624Y-187741051D02*
X304355624Y-196765445D01*
X150832000Y-193887500D02*
X145482000Y-188537500D01*
X312974742Y-221810795D02*
X311027061Y-223758476D01*
X303105625Y-186491052D02*
X304355624Y-187741051D01*
X150832000Y-212937500D02*
X150832000Y-193887500D01*
%TO.N,col2*%
X314370218Y-175161215D02*
X321739337Y-182530334D01*
X314370218Y-166136822D02*
X314370218Y-175161215D01*
X164532000Y-188537500D02*
X164532000Y-174837500D01*
X322989336Y-192804727D02*
X330358455Y-200173846D01*
X313120219Y-149628993D02*
X313120219Y-164886823D01*
X313120219Y-164886823D02*
X314370218Y-166136822D01*
X330358455Y-200173846D02*
X331608454Y-201423845D01*
X169882000Y-193887500D02*
X169882000Y-212937500D01*
X163832000Y-155787500D02*
X163832000Y-174137500D01*
X321739337Y-182530334D02*
X322989336Y-183780333D01*
X169882000Y-193887500D02*
X164532000Y-188537500D01*
X322989336Y-183780333D02*
X322989336Y-192804727D01*
X177522000Y-142097500D02*
X163832000Y-155787500D01*
X318476501Y-144272711D02*
X313120219Y-149628993D01*
X177522000Y-135237100D02*
X177522000Y-142097500D01*
X163832000Y-174137500D02*
X164532000Y-174837500D01*
X331608454Y-201423845D02*
X331608454Y-217850078D01*
X331608454Y-217850078D02*
X329660773Y-219797759D01*
%TO.N,col3*%
X348992167Y-196213129D02*
X350242166Y-197463128D01*
X333003930Y-162176104D02*
X333003930Y-171200498D01*
X196355578Y-216226724D02*
X196355578Y-202423870D01*
X198223350Y-142097070D02*
X198223350Y-138721376D01*
X190999596Y-181809958D02*
X189815877Y-180626239D01*
X189815877Y-180626239D02*
X187868245Y-180626239D01*
X190999596Y-199015520D02*
X190999596Y-195612712D01*
X184422906Y-173778092D02*
X184422906Y-155897514D01*
X184422906Y-155897514D02*
X184945732Y-155374688D01*
X331753931Y-160926105D02*
X333003930Y-162176104D01*
X185643414Y-178401408D02*
X185643414Y-174998600D01*
X331753931Y-145668275D02*
X331753931Y-160926105D01*
X341623048Y-188844010D02*
X348992167Y-196213129D01*
X196355578Y-202423870D02*
X195172059Y-201240351D01*
X187868245Y-180626239D02*
X185643414Y-178401408D01*
X184945732Y-155374688D02*
X198223350Y-142097070D01*
X350242166Y-213889360D02*
X348294485Y-215837041D01*
X193224427Y-201240351D02*
X190999596Y-199015520D01*
X190999596Y-195612712D02*
X190999596Y-181809958D01*
X185643414Y-174998600D02*
X184422906Y-173778092D01*
X340373049Y-178569617D02*
X341623048Y-179819616D01*
X341623048Y-179819616D02*
X341623048Y-188844010D01*
X333003930Y-171200498D02*
X340373049Y-178569617D01*
X337110213Y-140311993D02*
X331753931Y-145668275D01*
X195172059Y-201240351D02*
X193224427Y-201240351D01*
X350242166Y-197463128D02*
X350242166Y-213889360D01*
%TO.N,col4*%
X361314929Y-174844623D02*
X361314929Y-184369623D01*
X361314929Y-184369623D02*
X370839929Y-193894623D01*
X350387594Y-156650348D02*
X350387594Y-156965387D01*
X370839929Y-193894623D02*
X370839929Y-212944623D01*
X216857062Y-146057788D02*
X216857062Y-142682093D01*
X203056618Y-159858232D02*
X203579444Y-159335406D01*
X350387594Y-156965387D02*
X351637593Y-158215386D01*
X203056618Y-177738809D02*
X203056618Y-159858232D01*
X208449589Y-184586956D02*
X206501957Y-184586956D01*
X203579444Y-159335406D02*
X216857062Y-146057788D01*
X209633308Y-185770675D02*
X208449589Y-184586956D01*
X214989290Y-220187442D02*
X214989290Y-206384588D01*
X204277126Y-178959317D02*
X203056618Y-177738809D01*
X209633308Y-199573430D02*
X209633308Y-185770675D01*
X357635048Y-149402894D02*
X350387594Y-156650348D01*
X206501957Y-184586956D02*
X204277126Y-182362125D01*
X214989290Y-206384588D02*
X213805771Y-205201069D01*
X357635048Y-135244229D02*
X357635048Y-149402894D01*
X213805771Y-205201069D02*
X211858139Y-205201069D01*
X211858139Y-205201069D02*
X209633308Y-202976238D01*
X351637593Y-165167287D02*
X361314929Y-174844623D01*
X204277126Y-182362125D02*
X204277126Y-178959317D01*
X351637593Y-158215386D02*
X351637593Y-165167287D01*
X209633308Y-202976238D02*
X209633308Y-199573430D01*
%TO.N,col5*%
X376685048Y-150434504D02*
X371324929Y-155794623D01*
X222910838Y-187789219D02*
X221949000Y-188751057D01*
X235490774Y-146642811D02*
X235490774Y-150018504D01*
X228267020Y-203534148D02*
X228267020Y-208433037D01*
X221689330Y-163819948D02*
X221689330Y-181698527D01*
X221689330Y-181698527D02*
X222910838Y-182920035D01*
X227349000Y-209351057D02*
X227349000Y-217874157D01*
X227349000Y-217874157D02*
X233623002Y-224148159D01*
X235490774Y-150018504D02*
X222213155Y-163296123D01*
X371324929Y-155794623D02*
X371324929Y-165804623D01*
X228267020Y-208433037D02*
X227349000Y-209351057D01*
X222213155Y-163296123D02*
X221689330Y-163819948D01*
X221949000Y-188751057D02*
X221949000Y-197216128D01*
X380364929Y-184369623D02*
X389889929Y-193894623D01*
X389889929Y-193894623D02*
X389889929Y-212944623D01*
X222910838Y-182920035D02*
X222910838Y-187789219D01*
X380364929Y-174844623D02*
X380364929Y-184369623D01*
X221949000Y-197216128D02*
X228267020Y-203534148D01*
X371324929Y-165804623D02*
X380364929Y-174844623D01*
X376685048Y-136744629D02*
X376685048Y-150434504D01*
%TO.N,col6*%
X246900731Y-210897673D02*
X246900731Y-207494865D01*
X390374929Y-165804623D02*
X399414929Y-174844623D01*
X254124486Y-153979222D02*
X254124486Y-150603529D01*
X245717012Y-192508392D02*
X243769380Y-192508392D01*
X241544549Y-186880753D02*
X240324041Y-185660245D01*
X399414929Y-184369623D02*
X408939929Y-193894623D01*
X390374929Y-155794623D02*
X390374929Y-165804623D01*
X243769380Y-192508392D02*
X241544549Y-190283561D01*
X252256713Y-214306023D02*
X251073194Y-213122504D01*
X240324041Y-167779667D02*
X240846867Y-167256841D01*
X241544549Y-190283561D02*
X241544549Y-186880753D01*
X249125562Y-213122504D02*
X246900731Y-210897673D01*
X252256713Y-228108877D02*
X252256713Y-214306023D01*
X399414929Y-174844623D02*
X399414929Y-184369623D01*
X395735048Y-150434504D02*
X395735048Y-136744629D01*
X246900731Y-193692111D02*
X245717012Y-192508392D01*
X390374929Y-155794623D02*
X395735048Y-150434504D01*
X251073194Y-213122504D02*
X249125562Y-213122504D01*
X408939929Y-193894623D02*
X408939929Y-212944623D01*
X246900731Y-207494865D02*
X246900731Y-193692111D01*
X240846867Y-167256841D02*
X254124486Y-153979222D01*
X240324041Y-185660245D02*
X240324041Y-167779667D01*
%TO.N,Net-(J7-Pin_1)*%
X469523500Y-154150000D02*
X471327500Y-154150000D01*
X468617500Y-151507500D02*
X468617500Y-152898999D01*
X471250000Y-144300000D02*
X471250000Y-146725000D01*
X475287500Y-154237500D02*
X476250000Y-155200000D01*
X471250000Y-146725000D02*
X472825000Y-148300000D01*
X468617500Y-152898999D02*
X468918501Y-153200000D01*
X469523500Y-153200000D02*
X469523500Y-154150000D01*
X472825000Y-148300000D02*
X471825000Y-148300000D01*
X471327500Y-154150000D02*
X471415000Y-154237500D01*
X471825000Y-148300000D02*
X468617500Y-151507500D01*
X471415000Y-154237500D02*
X475287500Y-154237500D01*
X468918501Y-153200000D02*
X469523500Y-153200000D01*
X469100000Y-144300000D02*
X471250000Y-144300000D01*
%TO.N,Net-(J9-Pin_1)*%
X473898999Y-135637000D02*
X471613000Y-135637000D01*
X474200000Y-135938001D02*
X473898999Y-135637000D01*
X474200000Y-136543000D02*
X476738500Y-139081500D01*
X476738500Y-139081500D02*
X476738500Y-143110160D01*
X470700000Y-137929000D02*
X471162500Y-138391500D01*
X474200000Y-136543000D02*
X474200000Y-135938001D01*
X474200000Y-150100000D02*
X476250000Y-152150000D01*
X474200000Y-145648660D02*
X474200000Y-150100000D01*
X471613000Y-135637000D02*
X470700000Y-136550000D01*
X470700000Y-136550000D02*
X470700000Y-137929000D01*
X476738500Y-143110160D02*
X474200000Y-145648660D01*
%TO.N,Net-(D144-K)*%
X75550000Y-144700000D02*
X75550000Y-146035000D01*
X75550000Y-146035000D02*
X75535000Y-146050000D01*
X77652500Y-148912500D02*
X77665000Y-148900000D01*
X75515000Y-148912500D02*
X77652500Y-148912500D01*
X75535000Y-148892500D02*
X75515000Y-148912500D01*
X75535000Y-146050000D02*
X75535000Y-148892500D01*
%TO.N,Net-(J12-Pin_1)*%
X84700000Y-141050000D02*
X84700000Y-143475000D01*
X82067500Y-148257500D02*
X82067500Y-149648999D01*
X84777500Y-150900000D02*
X84865000Y-150987500D01*
X84865000Y-150987500D02*
X88737500Y-150987500D01*
X85275000Y-145050000D02*
X82067500Y-148257500D01*
X82973500Y-149950000D02*
X82973500Y-150900000D01*
X82067500Y-149648999D02*
X82368501Y-149950000D01*
X82550000Y-141050000D02*
X84700000Y-141050000D01*
X88737500Y-150987500D02*
X89700000Y-151950000D01*
X82973500Y-150900000D02*
X84777500Y-150900000D01*
X86275000Y-145050000D02*
X85275000Y-145050000D01*
X82368501Y-149950000D02*
X82973500Y-149950000D01*
X84700000Y-143475000D02*
X86275000Y-145050000D01*
%TO.N,Net-(D145-A)*%
X91375000Y-139150000D02*
X91375000Y-140625000D01*
X82600000Y-136500000D02*
X82600000Y-137190000D01*
X72621986Y-138010000D02*
X71979000Y-138652986D01*
X72880000Y-138010000D02*
X72621986Y-138010000D01*
X91375000Y-140625000D02*
X91350000Y-140650000D01*
X77600000Y-141050000D02*
X77600000Y-142050000D01*
X72621986Y-141050000D02*
X72880000Y-141050000D01*
X91375000Y-137050000D02*
X91375000Y-139150000D01*
X82587500Y-136487500D02*
X82600000Y-136500000D01*
X71979000Y-138652986D02*
X71979000Y-140407014D01*
X72880000Y-141050000D02*
X77600000Y-141050000D01*
X71979000Y-140407014D02*
X72621986Y-141050000D01*
X82587500Y-135300000D02*
X82587500Y-136487500D01*
X82600000Y-137190000D02*
X82550000Y-137240000D01*
%TO.N,Net-(J14-Pin_1)*%
X87348999Y-132387000D02*
X85063000Y-132387000D01*
X87650000Y-142398660D02*
X87650000Y-146850000D01*
X85063000Y-132387000D02*
X84150000Y-133300000D01*
X90188500Y-139860160D02*
X87650000Y-142398660D01*
X84150000Y-134679000D02*
X84612500Y-135141500D01*
X84150000Y-133300000D02*
X84150000Y-134679000D01*
X90188500Y-135831500D02*
X90188500Y-139860160D01*
X87650000Y-133293000D02*
X87650000Y-132688001D01*
X87650000Y-132688001D02*
X87348999Y-132387000D01*
X87650000Y-133293000D02*
X90188500Y-135831500D01*
X87650000Y-146850000D02*
X89700000Y-148900000D01*
%TO.N,Net-(U7-VCC)*%
X86700000Y-135129000D02*
X86687500Y-135141500D01*
X86611500Y-135217500D02*
X86611500Y-140961500D01*
X86687500Y-135141500D02*
X86611500Y-135217500D01*
X86700000Y-133293000D02*
X86700000Y-135129000D01*
X86611500Y-140961500D02*
X86700000Y-141050000D01*
%TO.N,Net-(D144-A)*%
X81475000Y-145050000D02*
X80465000Y-145050000D01*
X79465000Y-148001500D02*
X80463500Y-149000000D01*
X79465000Y-146050000D02*
X79465000Y-148001500D01*
X80465000Y-145050000D02*
X79465000Y-146050000D01*
%TO.N,Net-(D145-K)*%
X87512500Y-137100000D02*
X89250000Y-137100000D01*
X89250000Y-137100000D02*
X89300000Y-137050000D01*
%TO.N,Net-(D146-K)*%
X87512500Y-139100000D02*
X89250000Y-139100000D01*
X89250000Y-139100000D02*
X89300000Y-139150000D01*
%TO.N,Net-(Q2-G2)*%
X85049000Y-131689000D02*
X84150000Y-130790000D01*
X87650000Y-131387999D02*
X87348999Y-131689000D01*
X87650000Y-130783000D02*
X87650000Y-131387999D01*
X87348999Y-131689000D02*
X85049000Y-131689000D01*
%TO.N,Net-(Q2-G1)*%
X82250000Y-130185001D02*
X82551001Y-129884000D01*
X82250000Y-130790000D02*
X82250000Y-130185001D01*
X84851000Y-129884000D02*
X85750000Y-130783000D01*
X82551001Y-129884000D02*
X84851000Y-129884000D01*
%TO.N,Net-(U6-FB)*%
X77665000Y-150900000D02*
X80463500Y-150900000D01*
X80463500Y-152798500D02*
X80465000Y-152800000D01*
X80463500Y-150900000D02*
X80463500Y-152798500D01*
%TO.N,Net-(U8-CHRG#)*%
X84102500Y-138510000D02*
X82550000Y-138510000D01*
X85512500Y-137100000D02*
X84102500Y-138510000D01*
%TO.N,Net-(U7-CS)*%
X86700000Y-130178001D02*
X87001001Y-129877000D01*
X86700000Y-130783000D02*
X86700000Y-130178001D01*
X87001001Y-129877000D02*
X88485500Y-129877000D01*
X88485500Y-129877000D02*
X89400000Y-130791500D01*
%TO.N,Net-(U8-STDBY#)*%
X85512500Y-139100000D02*
X84832500Y-139780000D01*
X84832500Y-139780000D02*
X82550000Y-139780000D01*
%TO.N,Net-(U8-PROG)*%
X75350000Y-138500000D02*
X77590000Y-138500000D01*
X77590000Y-138500000D02*
X77600000Y-138510000D01*
%TD*%
%TA.AperFunction,Conductor*%
%TO.N,GND*%
G36*
X78993813Y-148429776D02*
G01*
X79007146Y-148427859D01*
X79027288Y-148437057D01*
X79048924Y-148441764D01*
X79066653Y-148455034D01*
X79070702Y-148456884D01*
X79077173Y-148462909D01*
X79096284Y-148482020D01*
X79096286Y-148482021D01*
X79103355Y-148489090D01*
X79321681Y-148707416D01*
X79355166Y-148768739D01*
X79358000Y-148795097D01*
X79358000Y-149212947D01*
X79360890Y-149249673D01*
X79360891Y-149249679D01*
X79406567Y-149406892D01*
X79406570Y-149406901D01*
X79409808Y-149412376D01*
X79426986Y-149480101D01*
X79409808Y-149538605D01*
X79407034Y-149543294D01*
X79407029Y-149543308D01*
X79361505Y-149699998D01*
X79361507Y-149700000D01*
X79633324Y-149700000D01*
X79696443Y-149717266D01*
X79746603Y-149746931D01*
X79746605Y-149746931D01*
X79746606Y-149746932D01*
X79746607Y-149746933D01*
X79903820Y-149792608D01*
X79903823Y-149792608D01*
X79903825Y-149792609D01*
X79940560Y-149795500D01*
X79940568Y-149795500D01*
X80339500Y-149795500D01*
X80348185Y-149798050D01*
X80357147Y-149796762D01*
X80381187Y-149807740D01*
X80406539Y-149815185D01*
X80412466Y-149822025D01*
X80420703Y-149825787D01*
X80434992Y-149848021D01*
X80452294Y-149867989D01*
X80454581Y-149878503D01*
X80458477Y-149884565D01*
X80463500Y-149919500D01*
X80463500Y-149980500D01*
X80443815Y-150047539D01*
X80391011Y-150093294D01*
X80339500Y-150104500D01*
X79940552Y-150104500D01*
X79903826Y-150107390D01*
X79903820Y-150107391D01*
X79746607Y-150153066D01*
X79746606Y-150153067D01*
X79746603Y-150153069D01*
X79698793Y-150181344D01*
X79696444Y-150182733D01*
X79633324Y-150200000D01*
X79361507Y-150200000D01*
X79324304Y-150249549D01*
X79320769Y-150246895D01*
X79306115Y-150269513D01*
X79242452Y-150298302D01*
X79225260Y-150299500D01*
X78910908Y-150299500D01*
X78843869Y-150279815D01*
X78805363Y-150235728D01*
X78803605Y-150236813D01*
X78799814Y-150230666D01*
X78707712Y-150081344D01*
X78614049Y-149987681D01*
X78580564Y-149926358D01*
X78585548Y-149856666D01*
X78614049Y-149812319D01*
X78643304Y-149783064D01*
X78707712Y-149718656D01*
X78799814Y-149569334D01*
X78854999Y-149402797D01*
X78865500Y-149300009D01*
X78865499Y-148550596D01*
X78871736Y-148529352D01*
X78873316Y-148507266D01*
X78881388Y-148496482D01*
X78885183Y-148483558D01*
X78901917Y-148469057D01*
X78915187Y-148451331D01*
X78927807Y-148446623D01*
X78937987Y-148437803D01*
X78959903Y-148434651D01*
X78980651Y-148426913D01*
X78993813Y-148429776D01*
G37*
%TD.AperFunction*%
%TA.AperFunction,Conductor*%
G36*
X74185703Y-139131662D02*
G01*
X74210097Y-139163987D01*
X74211395Y-139163187D01*
X74215185Y-139169332D01*
X74215186Y-139169334D01*
X74307288Y-139318656D01*
X74431344Y-139442712D01*
X74580666Y-139534814D01*
X74747203Y-139589999D01*
X74849991Y-139600500D01*
X75850008Y-139600499D01*
X75850016Y-139600498D01*
X75850019Y-139600498D01*
X75906302Y-139594748D01*
X75952797Y-139589999D01*
X76114869Y-139536293D01*
X76153870Y-139530000D01*
X77476000Y-139530000D01*
X77543039Y-139549685D01*
X77588794Y-139602489D01*
X77600000Y-139654000D01*
X77600000Y-139906000D01*
X77580315Y-139973039D01*
X77527511Y-140018794D01*
X77476000Y-140030000D01*
X76115000Y-140030000D01*
X76115000Y-140042697D01*
X76129800Y-140155104D01*
X76129801Y-140155108D01*
X76180724Y-140278048D01*
X76188193Y-140347517D01*
X76156918Y-140409996D01*
X76096829Y-140445648D01*
X76066163Y-140449500D01*
X74099022Y-140449500D01*
X74031983Y-140429815D01*
X73986228Y-140377011D01*
X73975531Y-140314279D01*
X73980500Y-140259592D01*
X73980500Y-139800408D01*
X73978445Y-139777795D01*
X73974315Y-139732343D01*
X73933231Y-139600500D01*
X73923281Y-139568568D01*
X73926021Y-139567713D01*
X73918264Y-139511727D01*
X73924143Y-139491700D01*
X73923281Y-139491432D01*
X73948316Y-139411088D01*
X73974315Y-139327657D01*
X73980500Y-139259594D01*
X73980500Y-139225375D01*
X74000185Y-139158336D01*
X74052989Y-139112581D01*
X74122147Y-139102637D01*
X74185703Y-139131662D01*
G37*
%TD.AperFunction*%
%TA.AperFunction,Conductor*%
G36*
X92992539Y-128970185D02*
G01*
X93038294Y-129022989D01*
X93049500Y-129074500D01*
X93049500Y-154275500D01*
X93029815Y-154342539D01*
X92977011Y-154388294D01*
X92925500Y-154399500D01*
X67074500Y-154399500D01*
X67007461Y-154379815D01*
X66961706Y-154327011D01*
X66950500Y-154275500D01*
X66950500Y-153299986D01*
X77365001Y-153299986D01*
X77375494Y-153402697D01*
X77430641Y-153569119D01*
X77430643Y-153569124D01*
X77522684Y-153718345D01*
X77646654Y-153842315D01*
X77795875Y-153934356D01*
X77795880Y-153934358D01*
X77962302Y-153989505D01*
X77962309Y-153989506D01*
X78065019Y-153999999D01*
X78214999Y-153999999D01*
X78215000Y-153999998D01*
X78215000Y-153050000D01*
X77365001Y-153050000D01*
X77365001Y-153299986D01*
X66950500Y-153299986D01*
X66950500Y-151203711D01*
X68149500Y-151203711D01*
X68149500Y-151446288D01*
X68175914Y-151646931D01*
X68181162Y-151686789D01*
X68183496Y-151695499D01*
X68243947Y-151921104D01*
X68307900Y-152075499D01*
X68336776Y-152145212D01*
X68458064Y-152355289D01*
X68458066Y-152355292D01*
X68458067Y-152355293D01*
X68605733Y-152547736D01*
X68605739Y-152547743D01*
X68777256Y-152719260D01*
X68777262Y-152719265D01*
X68969711Y-152866936D01*
X69179788Y-152988224D01*
X69403900Y-153081054D01*
X69638211Y-153143838D01*
X69818586Y-153167584D01*
X69878711Y-153175500D01*
X69878712Y-153175500D01*
X70121289Y-153175500D01*
X70169388Y-153169167D01*
X70361789Y-153143838D01*
X70596100Y-153081054D01*
X70820212Y-152988224D01*
X71030289Y-152866936D01*
X71222738Y-152719265D01*
X71394265Y-152547738D01*
X71541936Y-152355289D01*
X71663224Y-152145212D01*
X71756054Y-151921100D01*
X71818838Y-151686789D01*
X71850500Y-151446288D01*
X71850500Y-151374986D01*
X74290001Y-151374986D01*
X74300494Y-151477697D01*
X74355641Y-151644119D01*
X74355643Y-151644124D01*
X74447684Y-151793345D01*
X74571654Y-151917315D01*
X74720875Y-152009356D01*
X74720880Y-152009358D01*
X74887302Y-152064505D01*
X74887309Y-152064506D01*
X74990019Y-152074999D01*
X75264999Y-152074999D01*
X75265000Y-152074998D01*
X75265000Y-151237500D01*
X74290001Y-151237500D01*
X74290001Y-151374986D01*
X71850500Y-151374986D01*
X71850500Y-151203712D01*
X71818838Y-150963211D01*
X71756054Y-150728900D01*
X71663224Y-150504788D01*
X71541936Y-150294711D01*
X71456714Y-150183647D01*
X71394266Y-150102263D01*
X71394260Y-150102256D01*
X71222743Y-149930739D01*
X71222736Y-149930733D01*
X71030293Y-149783067D01*
X71030292Y-149783066D01*
X71030289Y-149783064D01*
X70820212Y-149661776D01*
X70820205Y-149661773D01*
X70596104Y-149568947D01*
X70361785Y-149506161D01*
X70121289Y-149474500D01*
X70121288Y-149474500D01*
X69878712Y-149474500D01*
X69878711Y-149474500D01*
X69638214Y-149506161D01*
X69403895Y-149568947D01*
X69179794Y-149661773D01*
X69179785Y-149661777D01*
X68969706Y-149783067D01*
X68777263Y-149930733D01*
X68777256Y-149930739D01*
X68605739Y-150102256D01*
X68605733Y-150102263D01*
X68458067Y-150294706D01*
X68336777Y-150504785D01*
X68336773Y-150504794D01*
X68243947Y-150728895D01*
X68181161Y-150963214D01*
X68149500Y-151203711D01*
X66950500Y-151203711D01*
X66950500Y-143600000D01*
X67679157Y-143600000D01*
X68533012Y-143600000D01*
X68515795Y-143609940D01*
X68459940Y-143665795D01*
X68420444Y-143734204D01*
X68400000Y-143810504D01*
X68400000Y-143889496D01*
X68420444Y-143965796D01*
X68459940Y-144034205D01*
X68515795Y-144090060D01*
X68533012Y-144100000D01*
X67679157Y-144100000D01*
X67690350Y-144156274D01*
X67690351Y-144156276D01*
X67769500Y-144347358D01*
X67769505Y-144347368D01*
X67884410Y-144519335D01*
X67884413Y-144519339D01*
X68030660Y-144665586D01*
X68030664Y-144665589D01*
X68202631Y-144780494D01*
X68202641Y-144780499D01*
X68393725Y-144859649D01*
X68393733Y-144859651D01*
X68596579Y-144899999D01*
X68596583Y-144900000D01*
X68750000Y-144900000D01*
X68750000Y-144150000D01*
X69250000Y-144150000D01*
X69250000Y-144900000D01*
X69403417Y-144900000D01*
X69403420Y-144899999D01*
X69606266Y-144859651D01*
X69606274Y-144859649D01*
X69797358Y-144780499D01*
X69797368Y-144780494D01*
X69969335Y-144665589D01*
X69969339Y-144665586D01*
X70115586Y-144519339D01*
X70115589Y-144519335D01*
X70230494Y-144347368D01*
X70230499Y-144347358D01*
X70309648Y-144156276D01*
X70309649Y-144156274D01*
X70320843Y-144100000D01*
X69466988Y-144100000D01*
X69484205Y-144090060D01*
X69540060Y-144034205D01*
X69579556Y-143965796D01*
X69600000Y-143889496D01*
X69600000Y-143810504D01*
X69579556Y-143734204D01*
X69540060Y-143665795D01*
X69484205Y-143609940D01*
X69466988Y-143600000D01*
X70320843Y-143600000D01*
X71479157Y-143600000D01*
X72333012Y-143600000D01*
X72315795Y-143609940D01*
X72259940Y-143665795D01*
X72220444Y-143734204D01*
X72200000Y-143810504D01*
X72200000Y-143889496D01*
X72220444Y-143965796D01*
X72259940Y-144034205D01*
X72315795Y-144090060D01*
X72333012Y-144100000D01*
X71479157Y-144100000D01*
X71490350Y-144156274D01*
X71490351Y-144156276D01*
X71569500Y-144347358D01*
X71569505Y-144347368D01*
X71684410Y-144519335D01*
X71684413Y-144519339D01*
X71830660Y-144665586D01*
X71830664Y-144665589D01*
X72002631Y-144780494D01*
X72002641Y-144780499D01*
X72193725Y-144859649D01*
X72193733Y-144859651D01*
X72396579Y-144899999D01*
X72396583Y-144900000D01*
X72550000Y-144900000D01*
X72550000Y-144150000D01*
X73050000Y-144150000D01*
X73050000Y-144900000D01*
X73203417Y-144900000D01*
X73203420Y-144899999D01*
X73406266Y-144859651D01*
X73406274Y-144859649D01*
X73597358Y-144780499D01*
X73597368Y-144780494D01*
X73769335Y-144665589D01*
X73769339Y-144665586D01*
X73915586Y-144519339D01*
X73915589Y-144519335D01*
X74030494Y-144347368D01*
X74030499Y-144347358D01*
X74109648Y-144156276D01*
X74109649Y-144156274D01*
X74120843Y-144100000D01*
X73266988Y-144100000D01*
X73284205Y-144090060D01*
X73340060Y-144034205D01*
X73379556Y-143965796D01*
X73400000Y-143889496D01*
X73400000Y-143810504D01*
X73379556Y-143734204D01*
X73340060Y-143665795D01*
X73284205Y-143609940D01*
X73266988Y-143600000D01*
X74120843Y-143600000D01*
X74109649Y-143543725D01*
X74109648Y-143543723D01*
X74030499Y-143352641D01*
X74030494Y-143352631D01*
X73915589Y-143180664D01*
X73915586Y-143180660D01*
X73830118Y-143095192D01*
X73796633Y-143033869D01*
X73801617Y-142964177D01*
X73830126Y-142919821D01*
X73835075Y-142914872D01*
X73923019Y-142769395D01*
X73973590Y-142607106D01*
X73980000Y-142536572D01*
X73980000Y-142530000D01*
X73130000Y-142530000D01*
X73130000Y-143186000D01*
X73120552Y-143218173D01*
X73111843Y-143250601D01*
X73110583Y-143252124D01*
X73110315Y-143253039D01*
X73108596Y-143254527D01*
X73089355Y-143277804D01*
X73050000Y-143313537D01*
X73050000Y-143550000D01*
X72550000Y-143550000D01*
X72550000Y-142794000D01*
X72569685Y-142726961D01*
X72594809Y-142705190D01*
X72630000Y-142670000D01*
X72630000Y-142530000D01*
X71780001Y-142530000D01*
X71780001Y-142536582D01*
X71786408Y-142607102D01*
X71786409Y-142607107D01*
X71836981Y-142769396D01*
X71887969Y-142853741D01*
X71905805Y-142921296D01*
X71884287Y-142987769D01*
X71850746Y-143020991D01*
X71830665Y-143034409D01*
X71830660Y-143034413D01*
X71684413Y-143180660D01*
X71684410Y-143180664D01*
X71569505Y-143352631D01*
X71569500Y-143352641D01*
X71490351Y-143543723D01*
X71490350Y-143543725D01*
X71479157Y-143600000D01*
X70320843Y-143600000D01*
X70309649Y-143543725D01*
X70309648Y-143543723D01*
X70230499Y-143352641D01*
X70230494Y-143352631D01*
X70115589Y-143180664D01*
X70115586Y-143180660D01*
X69969339Y-143034413D01*
X69969335Y-143034410D01*
X69797368Y-142919505D01*
X69797358Y-142919500D01*
X69606274Y-142840350D01*
X69606266Y-142840348D01*
X69403420Y-142800000D01*
X69250000Y-142800000D01*
X69250000Y-143550000D01*
X68750000Y-143550000D01*
X68750000Y-142800000D01*
X68596579Y-142800000D01*
X68393733Y-142840348D01*
X68393725Y-142840350D01*
X68202641Y-142919500D01*
X68202631Y-142919505D01*
X68030664Y-143034410D01*
X68030660Y-143034413D01*
X67884413Y-143180660D01*
X67884410Y-143180664D01*
X67769505Y-143352631D01*
X67769500Y-143352641D01*
X67690351Y-143543723D01*
X67690350Y-143543725D01*
X67679157Y-143600000D01*
X66950500Y-143600000D01*
X66950500Y-140486068D01*
X71378498Y-140486068D01*
X71401298Y-140571158D01*
X71419423Y-140638799D01*
X71440188Y-140674764D01*
X71471410Y-140728842D01*
X71498479Y-140775729D01*
X71617349Y-140894599D01*
X71617355Y-140894604D01*
X71743181Y-141020430D01*
X71776666Y-141081753D01*
X71779500Y-141108110D01*
X71779500Y-141295808D01*
X71785821Y-141365376D01*
X71785823Y-141365383D01*
X71835708Y-141525470D01*
X71835709Y-141525472D01*
X71877703Y-141594939D01*
X71895539Y-141662494D01*
X71877704Y-141723236D01*
X71836981Y-141790601D01*
X71836980Y-141790603D01*
X71786409Y-141952893D01*
X71780000Y-142023427D01*
X71780000Y-142030000D01*
X73979999Y-142030000D01*
X73979999Y-142023417D01*
X73973591Y-141952897D01*
X73973590Y-141952892D01*
X73929497Y-141811391D01*
X73928345Y-141741530D01*
X73965146Y-141682138D01*
X74028215Y-141652070D01*
X74047882Y-141650500D01*
X76193236Y-141650500D01*
X76260275Y-141670185D01*
X76273093Y-141680514D01*
X76273102Y-141680503D01*
X76279547Y-141685448D01*
X76279549Y-141685451D01*
X76399767Y-141777698D01*
X76539764Y-141835687D01*
X76652280Y-141850500D01*
X76675500Y-141850500D01*
X76742539Y-141870185D01*
X76788294Y-141922989D01*
X76799500Y-141974500D01*
X76799500Y-142128846D01*
X76830261Y-142283489D01*
X76830264Y-142283501D01*
X76890602Y-142429172D01*
X76890609Y-142429185D01*
X76978210Y-142560288D01*
X76978213Y-142560292D01*
X77089707Y-142671786D01*
X77089711Y-142671789D01*
X77220814Y-142759390D01*
X77220827Y-142759397D01*
X77318853Y-142800000D01*
X77366503Y-142819737D01*
X77521153Y-142850499D01*
X77521156Y-142850500D01*
X77521158Y-142850500D01*
X77678844Y-142850500D01*
X77678845Y-142850499D01*
X77833497Y-142819737D01*
X77979179Y-142759394D01*
X78110289Y-142671789D01*
X78221789Y-142560289D01*
X78309394Y-142429179D01*
X78369737Y-142283497D01*
X78400500Y-142128842D01*
X78400500Y-141974500D01*
X78420185Y-141907461D01*
X78472989Y-141861706D01*
X78524500Y-141850500D01*
X78547713Y-141850500D01*
X78547720Y-141850500D01*
X78660236Y-141835687D01*
X78800233Y-141777698D01*
X78920451Y-141685451D01*
X79012698Y-141565233D01*
X79070687Y-141425236D01*
X79073441Y-141404314D01*
X79101707Y-141340418D01*
X79160031Y-141301946D01*
X79196380Y-141296499D01*
X80953620Y-141296499D01*
X81020659Y-141316184D01*
X81066414Y-141368988D01*
X81076559Y-141404315D01*
X81079312Y-141425233D01*
X81079313Y-141425236D01*
X81120831Y-141525470D01*
X81137302Y-141565233D01*
X81229549Y-141685451D01*
X81349767Y-141777698D01*
X81489764Y-141835687D01*
X81602280Y-141850500D01*
X81602287Y-141850500D01*
X83497713Y-141850500D01*
X83497720Y-141850500D01*
X83590804Y-141838245D01*
X83659838Y-141849010D01*
X83712094Y-141895390D01*
X83712528Y-141896088D01*
X83755778Y-141966209D01*
X83757288Y-141968656D01*
X83881344Y-142092712D01*
X84030666Y-142184814D01*
X84030667Y-142184814D01*
X84036813Y-142188605D01*
X84035706Y-142190399D01*
X84080337Y-142229687D01*
X84099500Y-142295908D01*
X84099500Y-143388330D01*
X84099499Y-143388348D01*
X84099499Y-143554054D01*
X84099498Y-143554054D01*
X84140423Y-143706785D01*
X84161790Y-143743792D01*
X84161791Y-143743796D01*
X84161792Y-143743796D01*
X84194528Y-143800498D01*
X84219479Y-143843714D01*
X84219481Y-143843717D01*
X84338349Y-143962585D01*
X84338355Y-143962590D01*
X84838083Y-144462318D01*
X84842420Y-144470262D01*
X84849668Y-144475687D01*
X84858903Y-144500448D01*
X84871568Y-144523641D01*
X84870922Y-144532670D01*
X84874086Y-144541152D01*
X84868469Y-144566974D01*
X84866584Y-144593333D01*
X84860766Y-144602385D01*
X84859235Y-144609425D01*
X84838084Y-144637679D01*
X84794481Y-144681283D01*
X84794478Y-144681286D01*
X82859000Y-146616763D01*
X82797677Y-146650248D01*
X82776365Y-146648723D01*
X82777766Y-146655163D01*
X82753350Y-146720628D01*
X82741763Y-146734000D01*
X81698786Y-147776978D01*
X81586981Y-147888782D01*
X81586979Y-147888785D01*
X81547431Y-147957286D01*
X81547430Y-147957288D01*
X81507923Y-148025714D01*
X81506110Y-148032482D01*
X81466999Y-148178443D01*
X81466999Y-148178445D01*
X81466999Y-148205169D01*
X81447314Y-148272208D01*
X81394510Y-148317963D01*
X81325352Y-148327907D01*
X81279879Y-148311902D01*
X81247099Y-148292516D01*
X81180397Y-148253069D01*
X81180395Y-148253068D01*
X81180393Y-148253067D01*
X81180392Y-148253066D01*
X81023179Y-148207391D01*
X81023173Y-148207390D01*
X80986447Y-148204500D01*
X80986440Y-148204500D01*
X80568597Y-148204500D01*
X80501558Y-148184815D01*
X80480916Y-148168181D01*
X80101819Y-147789084D01*
X80087115Y-147762156D01*
X80070523Y-147736338D01*
X80069631Y-147730137D01*
X80068334Y-147727761D01*
X80065500Y-147701403D01*
X80065500Y-147511509D01*
X80085185Y-147444470D01*
X80137989Y-147398715D01*
X80179781Y-147387891D01*
X80183131Y-147387628D01*
X80339358Y-147342240D01*
X80479389Y-147259425D01*
X80594425Y-147144389D01*
X80677240Y-147004358D01*
X80722628Y-146848131D01*
X80725500Y-146811637D01*
X80725500Y-146774499D01*
X80745185Y-146707460D01*
X80797989Y-146661705D01*
X80849500Y-146650499D01*
X82322871Y-146650499D01*
X82322872Y-146650499D01*
X82382483Y-146644091D01*
X82517331Y-146593796D01*
X82579773Y-146547051D01*
X82645234Y-146522635D01*
X82650703Y-146523824D01*
X82662487Y-146469655D01*
X82672046Y-146454780D01*
X82718796Y-146392331D01*
X82769091Y-146257483D01*
X82775500Y-146197873D01*
X82775499Y-143902128D01*
X82769091Y-143842517D01*
X82753419Y-143800499D01*
X82718797Y-143707671D01*
X82718793Y-143707664D01*
X82632547Y-143592455D01*
X82632544Y-143592452D01*
X82517335Y-143506206D01*
X82517328Y-143506202D01*
X82382482Y-143455908D01*
X82382483Y-143455908D01*
X82322883Y-143449501D01*
X82322881Y-143449500D01*
X82322873Y-143449500D01*
X82322864Y-143449500D01*
X80627129Y-143449500D01*
X80627123Y-143449501D01*
X80567516Y-143455908D01*
X80432671Y-143506202D01*
X80432664Y-143506206D01*
X80317455Y-143592452D01*
X80317452Y-143592455D01*
X80231206Y-143707664D01*
X80231202Y-143707671D01*
X80180908Y-143842517D01*
X80175858Y-143889496D01*
X80174501Y-143902123D01*
X80174500Y-143902135D01*
X80174500Y-144452730D01*
X80154815Y-144519769D01*
X80134051Y-144544355D01*
X80124126Y-144553405D01*
X80096284Y-144569480D01*
X79990575Y-144675187D01*
X79988451Y-144677125D01*
X79959511Y-144691238D01*
X79931257Y-144706666D01*
X79926920Y-144707132D01*
X79925652Y-144707751D01*
X79923513Y-144707498D01*
X79904900Y-144709500D01*
X78783375Y-144709500D01*
X78783350Y-144709501D01*
X78746871Y-144712371D01*
X78590640Y-144757760D01*
X78450615Y-144840571D01*
X78450606Y-144840578D01*
X78335578Y-144955606D01*
X78335571Y-144955615D01*
X78252760Y-145095640D01*
X78207372Y-145251869D01*
X78207371Y-145251874D01*
X78204500Y-145288355D01*
X78204500Y-146811624D01*
X78204501Y-146811649D01*
X78207371Y-146848128D01*
X78252760Y-147004359D01*
X78335571Y-147144384D01*
X78335578Y-147144393D01*
X78450606Y-147259421D01*
X78450615Y-147259428D01*
X78570826Y-147330521D01*
X78590642Y-147342240D01*
X78746869Y-147387628D01*
X78749598Y-147387842D01*
X78750222Y-147387892D01*
X78751976Y-147388560D01*
X78753107Y-147388767D01*
X78753068Y-147388976D01*
X78815512Y-147412772D01*
X78856986Y-147469001D01*
X78864500Y-147511509D01*
X78864500Y-147922439D01*
X78864499Y-147922443D01*
X78864499Y-147938774D01*
X78853220Y-147977181D01*
X78844814Y-148005808D01*
X78844813Y-148005808D01*
X78844812Y-148005813D01*
X78798598Y-148045854D01*
X78792010Y-148051563D01*
X78792009Y-148051563D01*
X78792006Y-148051566D01*
X78751535Y-148057382D01*
X78722852Y-148061507D01*
X78722849Y-148061505D01*
X78722847Y-148061506D01*
X78689644Y-148046341D01*
X78659296Y-148032482D01*
X78659293Y-148032479D01*
X78659292Y-148032479D01*
X78659290Y-148032477D01*
X78652818Y-148026450D01*
X78583657Y-147957289D01*
X78583656Y-147957288D01*
X78472593Y-147888784D01*
X78434336Y-147865187D01*
X78434331Y-147865185D01*
X78379081Y-147846877D01*
X78267797Y-147810001D01*
X78267795Y-147810000D01*
X78165010Y-147799500D01*
X77164998Y-147799500D01*
X77164980Y-147799501D01*
X77062203Y-147810000D01*
X77062200Y-147810001D01*
X76895668Y-147865185D01*
X76895663Y-147865187D01*
X76746342Y-147957289D01*
X76677679Y-148025951D01*
X76616355Y-148059436D01*
X76546664Y-148054450D01*
X76502318Y-148025950D01*
X76458657Y-147982289D01*
X76458656Y-147982288D01*
X76324436Y-147899501D01*
X76309336Y-147890187D01*
X76309331Y-147890185D01*
X76220496Y-147860748D01*
X76200463Y-147846877D01*
X76178297Y-147836755D01*
X76172248Y-147827342D01*
X76163051Y-147820975D01*
X76153697Y-147798476D01*
X76140523Y-147777977D01*
X76138064Y-147760875D01*
X76136228Y-147756459D01*
X76135500Y-147743042D01*
X76135500Y-147511509D01*
X76155185Y-147444470D01*
X76207989Y-147398715D01*
X76249781Y-147387891D01*
X76253131Y-147387628D01*
X76409358Y-147342240D01*
X76549389Y-147259425D01*
X76664425Y-147144389D01*
X76747240Y-147004358D01*
X76792628Y-146848131D01*
X76795500Y-146811637D01*
X76795499Y-145288364D01*
X76792628Y-145251869D01*
X76747240Y-145095642D01*
X76686426Y-144992812D01*
X76664428Y-144955615D01*
X76664421Y-144955606D01*
X76549393Y-144840578D01*
X76549387Y-144840573D01*
X76411378Y-144758954D01*
X76363695Y-144707884D01*
X76350500Y-144652222D01*
X76350500Y-144621155D01*
X76350499Y-144621153D01*
X76344965Y-144593333D01*
X76319737Y-144466503D01*
X76270386Y-144347358D01*
X76259397Y-144320827D01*
X76259390Y-144320814D01*
X76171789Y-144189711D01*
X76171786Y-144189707D01*
X76060292Y-144078213D01*
X76060288Y-144078210D01*
X75929185Y-143990609D01*
X75929172Y-143990602D01*
X75783501Y-143930264D01*
X75783489Y-143930261D01*
X75628845Y-143899500D01*
X75628842Y-143899500D01*
X75471158Y-143899500D01*
X75471155Y-143899500D01*
X75316510Y-143930261D01*
X75316498Y-143930264D01*
X75170827Y-143990602D01*
X75170814Y-143990609D01*
X75039711Y-144078210D01*
X75039707Y-144078213D01*
X74928213Y-144189707D01*
X74928210Y-144189711D01*
X74840609Y-144320814D01*
X74840602Y-144320827D01*
X74780264Y-144466498D01*
X74780261Y-144466510D01*
X74749500Y-144621153D01*
X74749500Y-144638842D01*
X74729815Y-144705881D01*
X74677011Y-144751636D01*
X74661368Y-144757445D01*
X74660640Y-144757760D01*
X74520615Y-144840571D01*
X74520606Y-144840578D01*
X74405578Y-144955606D01*
X74405571Y-144955615D01*
X74322760Y-145095640D01*
X74277372Y-145251869D01*
X74277371Y-145251874D01*
X74274500Y-145288355D01*
X74274500Y-146811624D01*
X74274501Y-146811649D01*
X74277371Y-146848128D01*
X74322760Y-147004359D01*
X74405571Y-147144384D01*
X74405578Y-147144393D01*
X74520606Y-147259421D01*
X74520615Y-147259428D01*
X74640826Y-147330521D01*
X74660642Y-147342240D01*
X74816869Y-147387628D01*
X74819598Y-147387842D01*
X74820222Y-147387892D01*
X74821976Y-147388560D01*
X74823107Y-147388767D01*
X74823068Y-147388976D01*
X74824069Y-147389358D01*
X74828147Y-147388772D01*
X74856447Y-147401696D01*
X74885512Y-147412772D01*
X74887956Y-147416085D01*
X74891703Y-147417797D01*
X74908522Y-147443968D01*
X74926986Y-147469001D01*
X74927887Y-147474101D01*
X74929477Y-147476575D01*
X74934500Y-147511510D01*
X74934500Y-147729787D01*
X74914815Y-147796826D01*
X74862011Y-147842581D01*
X74849505Y-147847493D01*
X74720666Y-147890186D01*
X74720663Y-147890187D01*
X74571342Y-147982289D01*
X74447289Y-148106342D01*
X74355187Y-148255663D01*
X74355185Y-148255668D01*
X74342975Y-148292516D01*
X74300001Y-148422203D01*
X74300001Y-148422204D01*
X74300000Y-148422204D01*
X74289500Y-148524983D01*
X74289500Y-149300001D01*
X74289501Y-149300019D01*
X74300000Y-149402796D01*
X74300001Y-149402799D01*
X74355185Y-149569331D01*
X74355187Y-149569336D01*
X74355561Y-149569942D01*
X74447288Y-149718656D01*
X74571344Y-149842712D01*
X74573700Y-149844165D01*
X74574653Y-149844753D01*
X74576445Y-149846746D01*
X74577011Y-149847193D01*
X74576934Y-149847289D01*
X74621379Y-149896699D01*
X74632603Y-149965661D01*
X74604761Y-150029744D01*
X74574665Y-150055826D01*
X74571660Y-150057679D01*
X74571655Y-150057683D01*
X74447684Y-150181654D01*
X74355643Y-150330875D01*
X74355641Y-150330880D01*
X74300494Y-150497302D01*
X74300493Y-150497309D01*
X74290000Y-150600013D01*
X74290000Y-150737500D01*
X75391000Y-150737500D01*
X75458039Y-150757185D01*
X75503794Y-150809989D01*
X75515000Y-150861500D01*
X75515000Y-150987500D01*
X75641000Y-150987500D01*
X75708039Y-151007185D01*
X75753794Y-151059989D01*
X75765000Y-151111500D01*
X75765000Y-152074999D01*
X76039972Y-152074999D01*
X76039986Y-152074998D01*
X76142697Y-152064505D01*
X76309119Y-152009358D01*
X76309124Y-152009356D01*
X76458342Y-151917317D01*
X76551964Y-151823695D01*
X76613287Y-151790210D01*
X76682979Y-151795194D01*
X76727327Y-151823695D01*
X76746344Y-151842712D01*
X76895666Y-151934814D01*
X77062203Y-151989999D01*
X77164991Y-152000500D01*
X77268990Y-152000499D01*
X77336026Y-152020183D01*
X77381782Y-152072986D01*
X77391726Y-152142145D01*
X77386695Y-152163501D01*
X77375494Y-152197303D01*
X77375493Y-152197309D01*
X77365000Y-152300013D01*
X77365000Y-152550000D01*
X78341000Y-152550000D01*
X78408039Y-152569685D01*
X78453794Y-152622489D01*
X78465000Y-152674000D01*
X78465000Y-152800000D01*
X78591000Y-152800000D01*
X78658039Y-152819685D01*
X78703794Y-152872489D01*
X78715000Y-152924000D01*
X78715000Y-153999999D01*
X78864972Y-153999999D01*
X78864986Y-153999998D01*
X78967697Y-153989505D01*
X79134119Y-153934358D01*
X79134124Y-153934356D01*
X79283342Y-153842317D01*
X79376964Y-153748695D01*
X79438287Y-153715210D01*
X79507979Y-153720194D01*
X79552327Y-153748695D01*
X79646344Y-153842712D01*
X79795666Y-153934814D01*
X79962203Y-153989999D01*
X80064991Y-154000500D01*
X80865008Y-154000499D01*
X80865016Y-154000498D01*
X80865019Y-154000498D01*
X80921302Y-153994748D01*
X80967797Y-153989999D01*
X81134334Y-153934814D01*
X81283656Y-153842712D01*
X81407712Y-153718656D01*
X81499814Y-153569334D01*
X81554999Y-153402797D01*
X81565500Y-153300009D01*
X81565499Y-152299992D01*
X81554999Y-152197203D01*
X81499814Y-152030666D01*
X81407712Y-151881344D01*
X81288975Y-151762607D01*
X81255490Y-151701284D01*
X81260474Y-151631592D01*
X81302346Y-151575659D01*
X81313530Y-151568196D01*
X81321320Y-151563590D01*
X81437090Y-151447820D01*
X81520431Y-151306897D01*
X81520432Y-151306893D01*
X81520433Y-151306892D01*
X81566108Y-151149679D01*
X81566109Y-151149673D01*
X81568999Y-151112947D01*
X81569000Y-151112940D01*
X81569000Y-150687060D01*
X81566109Y-150650325D01*
X81556946Y-150618786D01*
X81520433Y-150493107D01*
X81520431Y-150493104D01*
X81520431Y-150493103D01*
X81517193Y-150487629D01*
X81500011Y-150419906D01*
X81506097Y-150385877D01*
X81554118Y-150239411D01*
X81572772Y-150212285D01*
X81590477Y-150184563D01*
X81592466Y-150183647D01*
X81593709Y-150181841D01*
X81624059Y-150169109D01*
X81653949Y-150155356D01*
X81656119Y-150155661D01*
X81658140Y-150154814D01*
X81690546Y-150160511D01*
X81723136Y-150165102D01*
X81725341Y-150166628D01*
X81726954Y-150166912D01*
X81730566Y-150170245D01*
X81759624Y-150190359D01*
X81892526Y-150323261D01*
X81911333Y-150350930D01*
X81912598Y-150350182D01*
X81919515Y-150361878D01*
X81936698Y-150429602D01*
X81919518Y-150488115D01*
X81916568Y-150493103D01*
X81870891Y-150650320D01*
X81870890Y-150650326D01*
X81868000Y-150687052D01*
X81868000Y-151112947D01*
X81870890Y-151149673D01*
X81870891Y-151149679D01*
X81916566Y-151306892D01*
X81916568Y-151306895D01*
X81916569Y-151306897D01*
X81953849Y-151369935D01*
X81999908Y-151447817D01*
X81999914Y-151447825D01*
X82115674Y-151563585D01*
X82115678Y-151563588D01*
X82115680Y-151563590D01*
X82256603Y-151646931D01*
X82256604Y-151646931D01*
X82256607Y-151646933D01*
X82413820Y-151692608D01*
X82413823Y-151692608D01*
X82413825Y-151692609D01*
X82450560Y-151695500D01*
X82450568Y-151695500D01*
X83496432Y-151695500D01*
X83496440Y-151695500D01*
X83533175Y-151692609D01*
X83613696Y-151669215D01*
X83683560Y-151669413D01*
X83742231Y-151707354D01*
X83753826Y-151723193D01*
X83797288Y-151793656D01*
X83921344Y-151917712D01*
X84070666Y-152009814D01*
X84237203Y-152064999D01*
X84339991Y-152075500D01*
X85390008Y-152075499D01*
X85390016Y-152075498D01*
X85390019Y-152075498D01*
X85446302Y-152069748D01*
X85492797Y-152064999D01*
X85659334Y-152009814D01*
X85808656Y-151917712D01*
X85932712Y-151793656D01*
X86023229Y-151646902D01*
X86075177Y-151600179D01*
X86128768Y-151588000D01*
X88437403Y-151588000D01*
X88466843Y-151596644D01*
X88496830Y-151603168D01*
X88501845Y-151606922D01*
X88504442Y-151607685D01*
X88525084Y-151624319D01*
X88663181Y-151762416D01*
X88696666Y-151823739D01*
X88699500Y-151850097D01*
X88699500Y-152497870D01*
X88699501Y-152497876D01*
X88705908Y-152557483D01*
X88756202Y-152692328D01*
X88756206Y-152692335D01*
X88842452Y-152807544D01*
X88842455Y-152807547D01*
X88957664Y-152893793D01*
X88957671Y-152893797D01*
X89092517Y-152944091D01*
X89092516Y-152944091D01*
X89099444Y-152944835D01*
X89152127Y-152950500D01*
X90247872Y-152950499D01*
X90307483Y-152944091D01*
X90442331Y-152893796D01*
X90557546Y-152807546D01*
X90643796Y-152692331D01*
X90694091Y-152557483D01*
X90700500Y-152497873D01*
X90700499Y-151402128D01*
X90694091Y-151342517D01*
X90678236Y-151300008D01*
X90643797Y-151207671D01*
X90643793Y-151207664D01*
X90557547Y-151092455D01*
X90557544Y-151092452D01*
X90442335Y-151006206D01*
X90442328Y-151006202D01*
X90307482Y-150955908D01*
X90307483Y-150955908D01*
X90247883Y-150949501D01*
X90247881Y-150949500D01*
X90247873Y-150949500D01*
X90247865Y-150949500D01*
X89600098Y-150949500D01*
X89533059Y-150929815D01*
X89512417Y-150913181D01*
X89225090Y-150625855D01*
X89225088Y-150625852D01*
X89106217Y-150506981D01*
X89106216Y-150506980D01*
X89019404Y-150456860D01*
X89019404Y-150456859D01*
X89019400Y-150456858D01*
X88969285Y-150427923D01*
X88816557Y-150386999D01*
X88658443Y-150386999D01*
X88650847Y-150386999D01*
X88650831Y-150387000D01*
X86128768Y-150387000D01*
X86061729Y-150367315D01*
X86023229Y-150328097D01*
X86020245Y-150323259D01*
X85932712Y-150181344D01*
X85808656Y-150057288D01*
X85805342Y-150055243D01*
X85803546Y-150053248D01*
X85802989Y-150052807D01*
X85803064Y-150052711D01*
X85758618Y-150003297D01*
X85747397Y-149934334D01*
X85775240Y-149870252D01*
X85805348Y-149844165D01*
X85808342Y-149842318D01*
X85932315Y-149718345D01*
X86024356Y-149569124D01*
X86024358Y-149569119D01*
X86079505Y-149402697D01*
X86079506Y-149402690D01*
X86089999Y-149299986D01*
X86090000Y-149299973D01*
X86090000Y-149162500D01*
X84989000Y-149162500D01*
X84921961Y-149142815D01*
X84876206Y-149090011D01*
X84865000Y-149038500D01*
X84865000Y-148912500D01*
X84739000Y-148912500D01*
X84671961Y-148892815D01*
X84626206Y-148840011D01*
X84615000Y-148788500D01*
X84615000Y-148662500D01*
X85115000Y-148662500D01*
X86089999Y-148662500D01*
X86089999Y-148525028D01*
X86089998Y-148525013D01*
X86079505Y-148422302D01*
X86024358Y-148255880D01*
X86024356Y-148255875D01*
X85932315Y-148106654D01*
X85808345Y-147982684D01*
X85659124Y-147890643D01*
X85659119Y-147890641D01*
X85492697Y-147835494D01*
X85492690Y-147835493D01*
X85389986Y-147825000D01*
X85115000Y-147825000D01*
X85115000Y-148662500D01*
X84615000Y-148662500D01*
X84615000Y-147825000D01*
X84340029Y-147825000D01*
X84340012Y-147825001D01*
X84237302Y-147835494D01*
X84070880Y-147890641D01*
X84070875Y-147890643D01*
X83921654Y-147982684D01*
X83797683Y-148106655D01*
X83797680Y-148106659D01*
X83754325Y-148176949D01*
X83702377Y-148223674D01*
X83633415Y-148234895D01*
X83614192Y-148230928D01*
X83533179Y-148207391D01*
X83533173Y-148207390D01*
X83496447Y-148204500D01*
X83496440Y-148204500D01*
X83269097Y-148204500D01*
X83202058Y-148184815D01*
X83156303Y-148132011D01*
X83146359Y-148062853D01*
X83175384Y-147999297D01*
X83181416Y-147992819D01*
X83472832Y-147701403D01*
X84827046Y-146347187D01*
X84888367Y-146313704D01*
X84958058Y-146318688D01*
X85013992Y-146360560D01*
X85030905Y-146391532D01*
X85031200Y-146392325D01*
X85031206Y-146392335D01*
X85117452Y-146507544D01*
X85117455Y-146507547D01*
X85232664Y-146593793D01*
X85232671Y-146593797D01*
X85367517Y-146644091D01*
X85367516Y-146644091D01*
X85374444Y-146644835D01*
X85427127Y-146650500D01*
X86925499Y-146650499D01*
X86992538Y-146670184D01*
X87038293Y-146722987D01*
X87049499Y-146774499D01*
X87049499Y-146929054D01*
X87049498Y-146929054D01*
X87090423Y-147081785D01*
X87119358Y-147131900D01*
X87119359Y-147131904D01*
X87119360Y-147131904D01*
X87169479Y-147218714D01*
X87169481Y-147218717D01*
X87288349Y-147337585D01*
X87288355Y-147337590D01*
X88663181Y-148712417D01*
X88696666Y-148773740D01*
X88699500Y-148800098D01*
X88699500Y-149447870D01*
X88699501Y-149447876D01*
X88705908Y-149507483D01*
X88756202Y-149642328D01*
X88756206Y-149642335D01*
X88842452Y-149757544D01*
X88842455Y-149757547D01*
X88957664Y-149843793D01*
X88957671Y-149843797D01*
X89092517Y-149894091D01*
X89092516Y-149894091D01*
X89099444Y-149894835D01*
X89152127Y-149900500D01*
X90247872Y-149900499D01*
X90307483Y-149894091D01*
X90442331Y-149843796D01*
X90557546Y-149757546D01*
X90643796Y-149642331D01*
X90694091Y-149507483D01*
X90700500Y-149447873D01*
X90700499Y-148352128D01*
X90694091Y-148292517D01*
X90686516Y-148272208D01*
X90643797Y-148157671D01*
X90643793Y-148157664D01*
X90557547Y-148042455D01*
X90557544Y-148042452D01*
X90442335Y-147956206D01*
X90442328Y-147956202D01*
X90307482Y-147905908D01*
X90307483Y-147905908D01*
X90247883Y-147899501D01*
X90247881Y-147899500D01*
X90247873Y-147899500D01*
X90247865Y-147899500D01*
X89600098Y-147899500D01*
X89533059Y-147879815D01*
X89512417Y-147863181D01*
X88286819Y-146637583D01*
X88253334Y-146576260D01*
X88250500Y-146549902D01*
X88250500Y-146397844D01*
X88700000Y-146397844D01*
X88706401Y-146457372D01*
X88706403Y-146457379D01*
X88756645Y-146592086D01*
X88756649Y-146592093D01*
X88842809Y-146707187D01*
X88842812Y-146707190D01*
X88957906Y-146793350D01*
X88957913Y-146793354D01*
X89092620Y-146843596D01*
X89092627Y-146843598D01*
X89152155Y-146849999D01*
X89152172Y-146850000D01*
X89450000Y-146850000D01*
X89950000Y-146850000D01*
X90247828Y-146850000D01*
X90247844Y-146849999D01*
X90307372Y-146843598D01*
X90307379Y-146843596D01*
X90442086Y-146793354D01*
X90442093Y-146793350D01*
X90557187Y-146707190D01*
X90557190Y-146707187D01*
X90643350Y-146592093D01*
X90643354Y-146592086D01*
X90693596Y-146457379D01*
X90693598Y-146457372D01*
X90699999Y-146397844D01*
X90700000Y-146397827D01*
X90700000Y-146100000D01*
X89950000Y-146100000D01*
X89950000Y-146850000D01*
X89450000Y-146850000D01*
X89450000Y-146100000D01*
X88700000Y-146100000D01*
X88700000Y-146397844D01*
X88250500Y-146397844D01*
X88250500Y-145800272D01*
X89450000Y-145800272D01*
X89450000Y-145899728D01*
X89488060Y-145991614D01*
X89558386Y-146061940D01*
X89650272Y-146100000D01*
X89749728Y-146100000D01*
X89841614Y-146061940D01*
X89911940Y-145991614D01*
X89950000Y-145899728D01*
X89950000Y-145800272D01*
X89911940Y-145708386D01*
X89841614Y-145638060D01*
X89749728Y-145600000D01*
X89950000Y-145600000D01*
X90700000Y-145600000D01*
X90700000Y-145302172D01*
X90699999Y-145302155D01*
X90693598Y-145242627D01*
X90693596Y-145242620D01*
X90643354Y-145107913D01*
X90643350Y-145107906D01*
X90557190Y-144992812D01*
X90557187Y-144992809D01*
X90442093Y-144906649D01*
X90442086Y-144906645D01*
X90307379Y-144856403D01*
X90307372Y-144856401D01*
X90247844Y-144850000D01*
X89950000Y-144850000D01*
X89950000Y-145600000D01*
X89749728Y-145600000D01*
X89650272Y-145600000D01*
X89558386Y-145638060D01*
X89488060Y-145708386D01*
X89450000Y-145800272D01*
X88250500Y-145800272D01*
X88250500Y-145302155D01*
X88700000Y-145302155D01*
X88700000Y-145600000D01*
X89450000Y-145600000D01*
X89450000Y-144850000D01*
X89152155Y-144850000D01*
X89092627Y-144856401D01*
X89092620Y-144856403D01*
X88957913Y-144906645D01*
X88957906Y-144906649D01*
X88842812Y-144992809D01*
X88842809Y-144992812D01*
X88756649Y-145107906D01*
X88756645Y-145107913D01*
X88706403Y-145242620D01*
X88706401Y-145242627D01*
X88700000Y-145302155D01*
X88250500Y-145302155D01*
X88250500Y-142698756D01*
X88270185Y-142631717D01*
X88286815Y-142611079D01*
X88487820Y-142410074D01*
X88549142Y-142376590D01*
X88618834Y-142381574D01*
X88674767Y-142423446D01*
X88699184Y-142488910D01*
X88699500Y-142497756D01*
X88699500Y-143347870D01*
X88699501Y-143347876D01*
X88705908Y-143407483D01*
X88756202Y-143542328D01*
X88756206Y-143542335D01*
X88842452Y-143657544D01*
X88842455Y-143657547D01*
X88957662Y-143743792D01*
X88957671Y-143743797D01*
X89092517Y-143794091D01*
X89092516Y-143794091D01*
X89099444Y-143794835D01*
X89152127Y-143800500D01*
X90247872Y-143800499D01*
X90307483Y-143794091D01*
X90442331Y-143743796D01*
X90442333Y-143743794D01*
X90442338Y-143743792D01*
X90524574Y-143682228D01*
X90557546Y-143657546D01*
X90643796Y-143542331D01*
X90694091Y-143407483D01*
X90700500Y-143347873D01*
X90700499Y-142252128D01*
X90694091Y-142192517D01*
X90691217Y-142184812D01*
X90643797Y-142057671D01*
X90643793Y-142057664D01*
X90557547Y-141942455D01*
X90557544Y-141942452D01*
X90442335Y-141856206D01*
X90442328Y-141856202D01*
X90307482Y-141805908D01*
X90307483Y-141805908D01*
X90247883Y-141799501D01*
X90247881Y-141799500D01*
X90247873Y-141799500D01*
X90247865Y-141799500D01*
X89397755Y-141799500D01*
X89330716Y-141779815D01*
X89284961Y-141727011D01*
X89275017Y-141657853D01*
X89304042Y-141594297D01*
X89310060Y-141587833D01*
X90337819Y-140560075D01*
X90399142Y-140526590D01*
X90468834Y-140531574D01*
X90524767Y-140573446D01*
X90549184Y-140638910D01*
X90549500Y-140647756D01*
X90549500Y-140728846D01*
X90580261Y-140883489D01*
X90580264Y-140883501D01*
X90640602Y-141029172D01*
X90640609Y-141029185D01*
X90728210Y-141160288D01*
X90728213Y-141160292D01*
X90839707Y-141271786D01*
X90839711Y-141271789D01*
X90970814Y-141359390D01*
X90970827Y-141359397D01*
X91116498Y-141419735D01*
X91116503Y-141419737D01*
X91271153Y-141450499D01*
X91271156Y-141450500D01*
X91271158Y-141450500D01*
X91428844Y-141450500D01*
X91428845Y-141450499D01*
X91583497Y-141419737D01*
X91714720Y-141365383D01*
X91729172Y-141359397D01*
X91729172Y-141359396D01*
X91729179Y-141359394D01*
X91860289Y-141271789D01*
X91971789Y-141160289D01*
X92059394Y-141029179D01*
X92119737Y-140883497D01*
X92150500Y-140728842D01*
X92150500Y-140571158D01*
X92150500Y-140571155D01*
X92150499Y-140571153D01*
X92133574Y-140486068D01*
X92119737Y-140416503D01*
X92107058Y-140385895D01*
X92099590Y-140316426D01*
X92130865Y-140253947D01*
X92156518Y-140232908D01*
X92181156Y-140217712D01*
X92305212Y-140093656D01*
X92397314Y-139944334D01*
X92452499Y-139777797D01*
X92463000Y-139675009D01*
X92462999Y-138624992D01*
X92452499Y-138522203D01*
X92397314Y-138355666D01*
X92305212Y-138206344D01*
X92286549Y-138187681D01*
X92253064Y-138126358D01*
X92258048Y-138056666D01*
X92286549Y-138012319D01*
X92295618Y-138003250D01*
X92305212Y-137993656D01*
X92397314Y-137844334D01*
X92452499Y-137677797D01*
X92463000Y-137575009D01*
X92462999Y-136524992D01*
X92461702Y-136512300D01*
X92452499Y-136422203D01*
X92452498Y-136422200D01*
X92435305Y-136370315D01*
X92397314Y-136255666D01*
X92305212Y-136106344D01*
X92181156Y-135982288D01*
X92088388Y-135925069D01*
X92031836Y-135890187D01*
X92031831Y-135890185D01*
X91999088Y-135879335D01*
X91865297Y-135835001D01*
X91865295Y-135835000D01*
X91762510Y-135824500D01*
X90987498Y-135824500D01*
X90987478Y-135824502D01*
X90918126Y-135831586D01*
X90889588Y-135826280D01*
X90860667Y-135823829D01*
X90855653Y-135819972D01*
X90849434Y-135818816D01*
X90828293Y-135798923D01*
X90805290Y-135781226D01*
X90801863Y-135774053D01*
X90798550Y-135770935D01*
X90788784Y-135750029D01*
X90787072Y-135745248D01*
X90765974Y-135666508D01*
X90748077Y-135599715D01*
X90719139Y-135549595D01*
X90669020Y-135462784D01*
X90557216Y-135350980D01*
X90557215Y-135350979D01*
X90552885Y-135346649D01*
X90552874Y-135346639D01*
X89186319Y-133980084D01*
X89152834Y-133918761D01*
X89150000Y-133892403D01*
X89150000Y-133891499D01*
X89650000Y-133891499D01*
X89899972Y-133891499D01*
X89899986Y-133891498D01*
X90002697Y-133881005D01*
X90169119Y-133825858D01*
X90169124Y-133825856D01*
X90318345Y-133733815D01*
X90442315Y-133609845D01*
X90534356Y-133460624D01*
X90534358Y-133460619D01*
X90589505Y-133294197D01*
X90589506Y-133294190D01*
X90599999Y-133191486D01*
X90600000Y-133191473D01*
X90600000Y-133041500D01*
X89650000Y-133041500D01*
X89650000Y-133891499D01*
X89150000Y-133891499D01*
X89150000Y-132915500D01*
X89169685Y-132848461D01*
X89222489Y-132802706D01*
X89274000Y-132791500D01*
X89400000Y-132791500D01*
X89400000Y-132665500D01*
X89419685Y-132598461D01*
X89472489Y-132552706D01*
X89524000Y-132541500D01*
X90599999Y-132541500D01*
X90599999Y-132391528D01*
X90599998Y-132391513D01*
X90589505Y-132288802D01*
X90534358Y-132122380D01*
X90534356Y-132122375D01*
X90442315Y-131973154D01*
X90348695Y-131879534D01*
X90315210Y-131818211D01*
X90320194Y-131748519D01*
X90348691Y-131704176D01*
X90442712Y-131610156D01*
X90534814Y-131460834D01*
X90589999Y-131294297D01*
X90600500Y-131191509D01*
X90600499Y-130391492D01*
X90589999Y-130288703D01*
X90534814Y-130122166D01*
X90442712Y-129972844D01*
X90318656Y-129848788D01*
X90169334Y-129756686D01*
X90002797Y-129701501D01*
X90002795Y-129701500D01*
X89900016Y-129691000D01*
X89900009Y-129691000D01*
X89200097Y-129691000D01*
X89170656Y-129682355D01*
X89140670Y-129675832D01*
X89135654Y-129672077D01*
X89133058Y-129671315D01*
X89112416Y-129654681D01*
X88973090Y-129515355D01*
X88973088Y-129515352D01*
X88854217Y-129396481D01*
X88854216Y-129396480D01*
X88767404Y-129346360D01*
X88767404Y-129346359D01*
X88767400Y-129346358D01*
X88717285Y-129317423D01*
X88564557Y-129276499D01*
X88406443Y-129276499D01*
X88398847Y-129276499D01*
X88398831Y-129276500D01*
X87087671Y-129276500D01*
X87087655Y-129276499D01*
X87080059Y-129276499D01*
X86921944Y-129276499D01*
X86845580Y-129296961D01*
X86769215Y-129317423D01*
X86769210Y-129317426D01*
X86632291Y-129396475D01*
X86632283Y-129396481D01*
X86387584Y-129641181D01*
X86331285Y-129697480D01*
X86331284Y-129697481D01*
X86327265Y-129701500D01*
X86326731Y-129702034D01*
X86299058Y-129720840D01*
X86299806Y-129722104D01*
X86288109Y-129729020D01*
X86267914Y-129734141D01*
X86265404Y-129735512D01*
X86263148Y-129735350D01*
X86220384Y-129746196D01*
X86161882Y-129729016D01*
X86156898Y-129726069D01*
X86156896Y-129726068D01*
X85999679Y-129680391D01*
X85999673Y-129680390D01*
X85962947Y-129677500D01*
X85962940Y-129677500D01*
X85545097Y-129677500D01*
X85515656Y-129668855D01*
X85485670Y-129662332D01*
X85480654Y-129658577D01*
X85478058Y-129657815D01*
X85457416Y-129641181D01*
X85338590Y-129522355D01*
X85338588Y-129522352D01*
X85219717Y-129403481D01*
X85219716Y-129403480D01*
X85132904Y-129353360D01*
X85132904Y-129353359D01*
X85132900Y-129353358D01*
X85082785Y-129324423D01*
X84930057Y-129283499D01*
X84771943Y-129283499D01*
X84764347Y-129283499D01*
X84764331Y-129283500D01*
X82637671Y-129283500D01*
X82637655Y-129283499D01*
X82630059Y-129283499D01*
X82471944Y-129283499D01*
X82395580Y-129303961D01*
X82319215Y-129324423D01*
X82319210Y-129324426D01*
X82182291Y-129403475D01*
X82182283Y-129403481D01*
X81944584Y-129641181D01*
X81881285Y-129704480D01*
X81881284Y-129704481D01*
X81876731Y-129709034D01*
X81849069Y-129727833D01*
X81849817Y-129729098D01*
X81702183Y-129816408D01*
X81702174Y-129816414D01*
X81586414Y-129932174D01*
X81586408Y-129932182D01*
X81503068Y-130073104D01*
X81503066Y-130073107D01*
X81457391Y-130230320D01*
X81457390Y-130230326D01*
X81454500Y-130267052D01*
X81454500Y-131312947D01*
X81457390Y-131349673D01*
X81457391Y-131349679D01*
X81503066Y-131506892D01*
X81503068Y-131506895D01*
X81586408Y-131647817D01*
X81586414Y-131647825D01*
X81702174Y-131763585D01*
X81702178Y-131763588D01*
X81702180Y-131763590D01*
X81843103Y-131846931D01*
X81843104Y-131846931D01*
X81843107Y-131846933D01*
X82000320Y-131892608D01*
X82000323Y-131892608D01*
X82000325Y-131892609D01*
X82037060Y-131895500D01*
X82037068Y-131895500D01*
X82462932Y-131895500D01*
X82462940Y-131895500D01*
X82499675Y-131892609D01*
X82499677Y-131892608D01*
X82499679Y-131892608D01*
X82656892Y-131846933D01*
X82656893Y-131846932D01*
X82656897Y-131846931D01*
X82661877Y-131843985D01*
X82668558Y-131842290D01*
X82673782Y-131837788D01*
X82701990Y-131833806D01*
X82729600Y-131826801D01*
X82736138Y-131828987D01*
X82742966Y-131828024D01*
X82788122Y-131843985D01*
X82793103Y-131846931D01*
X82793104Y-131846931D01*
X82793107Y-131846933D01*
X82950320Y-131892608D01*
X82950323Y-131892608D01*
X82950325Y-131892609D01*
X82987060Y-131895500D01*
X82987068Y-131895500D01*
X83412932Y-131895500D01*
X83412940Y-131895500D01*
X83449675Y-131892609D01*
X83449677Y-131892608D01*
X83449679Y-131892608D01*
X83606892Y-131846933D01*
X83606893Y-131846932D01*
X83606897Y-131846931D01*
X83611877Y-131843985D01*
X83618401Y-131842330D01*
X83623489Y-131837922D01*
X83651836Y-131833846D01*
X83679600Y-131826801D01*
X83685984Y-131828935D01*
X83692647Y-131827978D01*
X83738122Y-131843985D01*
X83743103Y-131846931D01*
X83743104Y-131846931D01*
X83743107Y-131846933D01*
X83900320Y-131892608D01*
X83900323Y-131892608D01*
X83900325Y-131892609D01*
X83937060Y-131895500D01*
X83937068Y-131895500D01*
X84354903Y-131895500D01*
X84384343Y-131904144D01*
X84414330Y-131910668D01*
X84419345Y-131914422D01*
X84421942Y-131915185D01*
X84442584Y-131931819D01*
X84468083Y-131957318D01*
X84501568Y-132018641D01*
X84496584Y-132088333D01*
X84468083Y-132132680D01*
X84442582Y-132158181D01*
X84381259Y-132191666D01*
X84354901Y-132194500D01*
X83937052Y-132194500D01*
X83900326Y-132197390D01*
X83900320Y-132197391D01*
X83743103Y-132243068D01*
X83743102Y-132243068D01*
X83738113Y-132246019D01*
X83731592Y-132247672D01*
X83726511Y-132252076D01*
X83698157Y-132256152D01*
X83670388Y-132263196D01*
X83663414Y-132261148D01*
X83657353Y-132262020D01*
X83641093Y-132254594D01*
X83611887Y-132246019D01*
X83606896Y-132243068D01*
X83449679Y-132197391D01*
X83449673Y-132197390D01*
X83412947Y-132194500D01*
X83412940Y-132194500D01*
X82987060Y-132194500D01*
X82987052Y-132194500D01*
X82950326Y-132197390D01*
X82950320Y-132197391D01*
X82793104Y-132243067D01*
X82787627Y-132246307D01*
X82780946Y-132248001D01*
X82775727Y-132252501D01*
X82747512Y-132256482D01*
X82719902Y-132263487D01*
X82712754Y-132261388D01*
X82706543Y-132262265D01*
X82690292Y-132254792D01*
X82661388Y-132246305D01*
X82656700Y-132243532D01*
X82656691Y-132243529D01*
X82500001Y-132198005D01*
X82500000Y-132198006D01*
X82500000Y-132469824D01*
X82482733Y-132532944D01*
X82453067Y-132583106D01*
X82453066Y-132583107D01*
X82407391Y-132740320D01*
X82407390Y-132740326D01*
X82404500Y-132777052D01*
X82404500Y-133176000D01*
X82384815Y-133243039D01*
X82332011Y-133288794D01*
X82280500Y-133300000D01*
X82250000Y-133300000D01*
X82250000Y-133426000D01*
X82230315Y-133493039D01*
X82177511Y-133538794D01*
X82126000Y-133550000D01*
X81455001Y-133550000D01*
X81455001Y-133822897D01*
X81457889Y-133859597D01*
X81503529Y-134016692D01*
X81503531Y-134016697D01*
X81584522Y-134153646D01*
X81601705Y-134221370D01*
X81579545Y-134287633D01*
X81525079Y-134331396D01*
X81455599Y-134338765D01*
X81393164Y-134307401D01*
X81390109Y-134304448D01*
X81318345Y-134232684D01*
X81169124Y-134140643D01*
X81169119Y-134140641D01*
X81002697Y-134085494D01*
X81002690Y-134085493D01*
X80899986Y-134075000D01*
X80762500Y-134075000D01*
X80762500Y-136524999D01*
X80899972Y-136524999D01*
X80899986Y-136524998D01*
X81002695Y-136514506D01*
X81016533Y-136509920D01*
X81086361Y-136507515D01*
X81146405Y-136543243D01*
X81177601Y-136605762D01*
X81170044Y-136675222D01*
X81153920Y-136703108D01*
X81137304Y-136724762D01*
X81137300Y-136724769D01*
X81079313Y-136864763D01*
X81079313Y-136864765D01*
X81076559Y-136885685D01*
X81048293Y-136949581D01*
X80989969Y-136988053D01*
X80953620Y-136993500D01*
X79195876Y-136993500D01*
X79128837Y-136973815D01*
X79083082Y-136921011D01*
X79072937Y-136885686D01*
X79070199Y-136864895D01*
X79070198Y-136864891D01*
X79012263Y-136725021D01*
X78920094Y-136604905D01*
X78799978Y-136512736D01*
X78660108Y-136454801D01*
X78660104Y-136454800D01*
X78547697Y-136440000D01*
X77850000Y-136440000D01*
X77850000Y-137116000D01*
X77830315Y-137183039D01*
X77777511Y-137228794D01*
X77726000Y-137240000D01*
X77474000Y-137240000D01*
X77406961Y-137220315D01*
X77361206Y-137167511D01*
X77350000Y-137116000D01*
X77350000Y-136440000D01*
X76673999Y-136440000D01*
X76606960Y-136420315D01*
X76561205Y-136367511D01*
X76549999Y-136316000D01*
X76549999Y-136100028D01*
X76549998Y-136100013D01*
X76539505Y-135997302D01*
X76484358Y-135830880D01*
X76484356Y-135830875D01*
X76480724Y-135824986D01*
X79425001Y-135824986D01*
X79435494Y-135927697D01*
X79490641Y-136094119D01*
X79490643Y-136094124D01*
X79582684Y-136243345D01*
X79706654Y-136367315D01*
X79855875Y-136459356D01*
X79855880Y-136459358D01*
X80022302Y-136514505D01*
X80022309Y-136514506D01*
X80125019Y-136524999D01*
X80262499Y-136524999D01*
X80262500Y-136524998D01*
X80262500Y-135550000D01*
X79425001Y-135550000D01*
X79425001Y-135824986D01*
X76480724Y-135824986D01*
X76392315Y-135681654D01*
X76268345Y-135557684D01*
X76119124Y-135465643D01*
X76119119Y-135465641D01*
X75952697Y-135410494D01*
X75952690Y-135410493D01*
X75849986Y-135400000D01*
X75600000Y-135400000D01*
X75600000Y-136376000D01*
X75580315Y-136443039D01*
X75527511Y-136488794D01*
X75476000Y-136500000D01*
X75224000Y-136500000D01*
X75156961Y-136480315D01*
X75111206Y-136427511D01*
X75100000Y-136376000D01*
X75100000Y-135400000D01*
X74850029Y-135400000D01*
X74850012Y-135400001D01*
X74747302Y-135410494D01*
X74580880Y-135465641D01*
X74580875Y-135465643D01*
X74431654Y-135557684D01*
X74307683Y-135681655D01*
X74303202Y-135687323D01*
X74301996Y-135686369D01*
X74256287Y-135727481D01*
X74187324Y-135738701D01*
X74123243Y-135710856D01*
X74084389Y-135652786D01*
X74083098Y-135582928D01*
X74088139Y-135568205D01*
X74109648Y-135516276D01*
X74109649Y-135516274D01*
X74120843Y-135460000D01*
X73266988Y-135460000D01*
X73284205Y-135450060D01*
X73340060Y-135394205D01*
X73379556Y-135325796D01*
X73400000Y-135249496D01*
X73400000Y-135170504D01*
X73379556Y-135094204D01*
X73340060Y-135025795D01*
X73284205Y-134969940D01*
X73266988Y-134960000D01*
X74120843Y-134960000D01*
X74109649Y-134903725D01*
X74109648Y-134903723D01*
X74074686Y-134819317D01*
X74056335Y-134775013D01*
X79425000Y-134775013D01*
X79425000Y-135050000D01*
X80262500Y-135050000D01*
X80262500Y-134075000D01*
X80125027Y-134075000D01*
X80125012Y-134075001D01*
X80022302Y-134085494D01*
X79855880Y-134140641D01*
X79855875Y-134140643D01*
X79706654Y-134232684D01*
X79582684Y-134356654D01*
X79490643Y-134505875D01*
X79490641Y-134505880D01*
X79435494Y-134672302D01*
X79435493Y-134672309D01*
X79425000Y-134775013D01*
X74056335Y-134775013D01*
X74030499Y-134712640D01*
X74030494Y-134712631D01*
X73915589Y-134540664D01*
X73915586Y-134540660D01*
X73769339Y-134394413D01*
X73769335Y-134394410D01*
X73597368Y-134279505D01*
X73597358Y-134279500D01*
X73406274Y-134200350D01*
X73406266Y-134200348D01*
X73203420Y-134160000D01*
X73050000Y-134160000D01*
X73050000Y-134910000D01*
X72550000Y-134910000D01*
X72550000Y-134160000D01*
X72396579Y-134160000D01*
X72193733Y-134200348D01*
X72193725Y-134200350D01*
X72002641Y-134279500D01*
X72002631Y-134279505D01*
X71830664Y-134394410D01*
X71830660Y-134394413D01*
X71684413Y-134540660D01*
X71684410Y-134540664D01*
X71569505Y-134712631D01*
X71569500Y-134712641D01*
X71490351Y-134903723D01*
X71490350Y-134903725D01*
X71479157Y-134960000D01*
X72333012Y-134960000D01*
X72315795Y-134969940D01*
X72259940Y-135025795D01*
X72220444Y-135094204D01*
X72200000Y-135170504D01*
X72200000Y-135249496D01*
X72220444Y-135325796D01*
X72259940Y-135394205D01*
X72315795Y-135450060D01*
X72333012Y-135460000D01*
X71479157Y-135460000D01*
X71490350Y-135516274D01*
X71490351Y-135516276D01*
X71569500Y-135707358D01*
X71569505Y-135707368D01*
X71684410Y-135879335D01*
X71684413Y-135879339D01*
X71830659Y-136025585D01*
X71850741Y-136039003D01*
X71895547Y-136092615D01*
X71904256Y-136161940D01*
X71887969Y-136206256D01*
X71836982Y-136290599D01*
X71836980Y-136290603D01*
X71786409Y-136452893D01*
X71780000Y-136523427D01*
X71780000Y-136530000D01*
X72630000Y-136530000D01*
X72630000Y-136390000D01*
X72611709Y-136371709D01*
X72606961Y-136370315D01*
X72561206Y-136317511D01*
X72550000Y-136266000D01*
X72550000Y-135510000D01*
X73050000Y-135510000D01*
X73050000Y-135750000D01*
X73068290Y-135768290D01*
X73073039Y-135769685D01*
X73118794Y-135822489D01*
X73130000Y-135874000D01*
X73130000Y-136656000D01*
X73110315Y-136723039D01*
X73057511Y-136768794D01*
X73006000Y-136780000D01*
X72880000Y-136780000D01*
X72880000Y-136906000D01*
X72860315Y-136973039D01*
X72807511Y-137018794D01*
X72756000Y-137030000D01*
X71780001Y-137030000D01*
X71780001Y-137036582D01*
X71786408Y-137107102D01*
X71786409Y-137107107D01*
X71836981Y-137269398D01*
X71836982Y-137269400D01*
X71877703Y-137336761D01*
X71895539Y-137404315D01*
X71877704Y-137465058D01*
X71835710Y-137534525D01*
X71785822Y-137694623D01*
X71780763Y-137750291D01*
X71779511Y-137764084D01*
X71779500Y-137764201D01*
X71779500Y-137951888D01*
X71759815Y-138018927D01*
X71743181Y-138039569D01*
X71498481Y-138284268D01*
X71498479Y-138284271D01*
X71471695Y-138330664D01*
X71471694Y-138330666D01*
X71419423Y-138421200D01*
X71419423Y-138421201D01*
X71378499Y-138573929D01*
X71378499Y-138732043D01*
X71378499Y-138732045D01*
X71378500Y-138742039D01*
X71378500Y-140320344D01*
X71378499Y-140320362D01*
X71378499Y-140486068D01*
X71378498Y-140486068D01*
X66950500Y-140486068D01*
X66950500Y-134960000D01*
X67679157Y-134960000D01*
X68533012Y-134960000D01*
X68515795Y-134969940D01*
X68459940Y-135025795D01*
X68420444Y-135094204D01*
X68400000Y-135170504D01*
X68400000Y-135249496D01*
X68420444Y-135325796D01*
X68459940Y-135394205D01*
X68515795Y-135450060D01*
X68533012Y-135460000D01*
X67679157Y-135460000D01*
X67690350Y-135516274D01*
X67690351Y-135516276D01*
X67769500Y-135707358D01*
X67769505Y-135707368D01*
X67884410Y-135879335D01*
X67884413Y-135879339D01*
X68030660Y-136025586D01*
X68030664Y-136025589D01*
X68202631Y-136140494D01*
X68202641Y-136140499D01*
X68393725Y-136219649D01*
X68393733Y-136219651D01*
X68596579Y-136259999D01*
X68596583Y-136260000D01*
X68750000Y-136260000D01*
X68750000Y-135510000D01*
X69250000Y-135510000D01*
X69250000Y-136260000D01*
X69403417Y-136260000D01*
X69403420Y-136259999D01*
X69606266Y-136219651D01*
X69606274Y-136219649D01*
X69797358Y-136140499D01*
X69797368Y-136140494D01*
X69969335Y-136025589D01*
X69969339Y-136025586D01*
X70115586Y-135879339D01*
X70115589Y-135879335D01*
X70230494Y-135707368D01*
X70230499Y-135707358D01*
X70309648Y-135516276D01*
X70309649Y-135516274D01*
X70320843Y-135460000D01*
X69466988Y-135460000D01*
X69484205Y-135450060D01*
X69540060Y-135394205D01*
X69579556Y-135325796D01*
X69600000Y-135249496D01*
X69600000Y-135170504D01*
X69579556Y-135094204D01*
X69540060Y-135025795D01*
X69484205Y-134969940D01*
X69466988Y-134960000D01*
X70320843Y-134960000D01*
X70309649Y-134903725D01*
X70309648Y-134903723D01*
X70230499Y-134712641D01*
X70230494Y-134712631D01*
X70115589Y-134540664D01*
X70115586Y-134540660D01*
X69969339Y-134394413D01*
X69969335Y-134394410D01*
X69797368Y-134279505D01*
X69797358Y-134279500D01*
X69606274Y-134200350D01*
X69606266Y-134200348D01*
X69403420Y-134160000D01*
X69250000Y-134160000D01*
X69250000Y-134910000D01*
X68750000Y-134910000D01*
X68750000Y-134160000D01*
X68596579Y-134160000D01*
X68393733Y-134200348D01*
X68393725Y-134200350D01*
X68202641Y-134279500D01*
X68202631Y-134279505D01*
X68030664Y-134394410D01*
X68030660Y-134394413D01*
X67884413Y-134540660D01*
X67884410Y-134540664D01*
X67769505Y-134712631D01*
X67769500Y-134712641D01*
X67690351Y-134903723D01*
X67690350Y-134903725D01*
X67679157Y-134960000D01*
X66950500Y-134960000D01*
X66950500Y-131703711D01*
X75149500Y-131703711D01*
X75149500Y-131946288D01*
X75177395Y-132158181D01*
X75181162Y-132186789D01*
X75193266Y-132231961D01*
X75243947Y-132421104D01*
X75311051Y-132583106D01*
X75336776Y-132645212D01*
X75458064Y-132855289D01*
X75458066Y-132855292D01*
X75458067Y-132855293D01*
X75605733Y-133047736D01*
X75605739Y-133047743D01*
X75777256Y-133219260D01*
X75777263Y-133219266D01*
X75808245Y-133243039D01*
X75969711Y-133366936D01*
X76179788Y-133488224D01*
X76403900Y-133581054D01*
X76638211Y-133643838D01*
X76818586Y-133667584D01*
X76878711Y-133675500D01*
X76878712Y-133675500D01*
X77121289Y-133675500D01*
X77169388Y-133669167D01*
X77361789Y-133643838D01*
X77596100Y-133581054D01*
X77820212Y-133488224D01*
X78030289Y-133366936D01*
X78222738Y-133219265D01*
X78394265Y-133047738D01*
X78541936Y-132855289D01*
X78587076Y-132777105D01*
X81455000Y-132777105D01*
X81455000Y-133050000D01*
X82000000Y-133050000D01*
X82000000Y-132198006D01*
X81999998Y-132198005D01*
X81843307Y-132243528D01*
X81843304Y-132243530D01*
X81702491Y-132326806D01*
X81702483Y-132326812D01*
X81586812Y-132442483D01*
X81586806Y-132442491D01*
X81503531Y-132583302D01*
X81503529Y-132583307D01*
X81457889Y-132740399D01*
X81457888Y-132740405D01*
X81455000Y-132777105D01*
X78587076Y-132777105D01*
X78663224Y-132645212D01*
X78756054Y-132421100D01*
X78818838Y-132186789D01*
X78850500Y-131946288D01*
X78850500Y-131703712D01*
X78818838Y-131463211D01*
X78756054Y-131228900D01*
X78663224Y-131004788D01*
X78541936Y-130794711D01*
X78394265Y-130602262D01*
X78394260Y-130602256D01*
X78222743Y-130430739D01*
X78222736Y-130430733D01*
X78030293Y-130283067D01*
X78030292Y-130283066D01*
X78030289Y-130283064D01*
X77820212Y-130161776D01*
X77724590Y-130122168D01*
X77596104Y-130068947D01*
X77361785Y-130006161D01*
X77121289Y-129974500D01*
X77121288Y-129974500D01*
X76878712Y-129974500D01*
X76878711Y-129974500D01*
X76638214Y-130006161D01*
X76403895Y-130068947D01*
X76179794Y-130161773D01*
X76179785Y-130161777D01*
X75969706Y-130283067D01*
X75777263Y-130430733D01*
X75777256Y-130430739D01*
X75605739Y-130602256D01*
X75605733Y-130602263D01*
X75458067Y-130794706D01*
X75336777Y-131004785D01*
X75336773Y-131004794D01*
X75243947Y-131228895D01*
X75181161Y-131463214D01*
X75149500Y-131703711D01*
X66950500Y-131703711D01*
X66950500Y-129074500D01*
X66970185Y-129007461D01*
X67022989Y-128961706D01*
X67074500Y-128950500D01*
X92925500Y-128950500D01*
X92992539Y-128970185D01*
G37*
%TD.AperFunction*%
%TD*%
%TA.AperFunction,Conductor*%
%TO.N,GND*%
G36*
X465543813Y-151679776D02*
G01*
X465557146Y-151677859D01*
X465577288Y-151687057D01*
X465598924Y-151691764D01*
X465616653Y-151705034D01*
X465620702Y-151706884D01*
X465627173Y-151712909D01*
X465646284Y-151732020D01*
X465646286Y-151732021D01*
X465653355Y-151739090D01*
X465871681Y-151957416D01*
X465905166Y-152018739D01*
X465908000Y-152045097D01*
X465908000Y-152462947D01*
X465910890Y-152499673D01*
X465910891Y-152499679D01*
X465956567Y-152656892D01*
X465956570Y-152656901D01*
X465959808Y-152662376D01*
X465976986Y-152730101D01*
X465959808Y-152788605D01*
X465957034Y-152793294D01*
X465957029Y-152793308D01*
X465911505Y-152949998D01*
X465911507Y-152950000D01*
X466183324Y-152950000D01*
X466246443Y-152967266D01*
X466296603Y-152996931D01*
X466296605Y-152996931D01*
X466296606Y-152996932D01*
X466296607Y-152996933D01*
X466453820Y-153042608D01*
X466453823Y-153042608D01*
X466453825Y-153042609D01*
X466490560Y-153045500D01*
X466490568Y-153045500D01*
X466889500Y-153045500D01*
X466898185Y-153048050D01*
X466907147Y-153046762D01*
X466931187Y-153057740D01*
X466956539Y-153065185D01*
X466962466Y-153072025D01*
X466970703Y-153075787D01*
X466984992Y-153098021D01*
X467002294Y-153117989D01*
X467004581Y-153128503D01*
X467008477Y-153134565D01*
X467013500Y-153169500D01*
X467013500Y-153230500D01*
X466993815Y-153297539D01*
X466941011Y-153343294D01*
X466889500Y-153354500D01*
X466490552Y-153354500D01*
X466453826Y-153357390D01*
X466453820Y-153357391D01*
X466296607Y-153403066D01*
X466296606Y-153403067D01*
X466296603Y-153403069D01*
X466248793Y-153431344D01*
X466246444Y-153432733D01*
X466183324Y-153450000D01*
X465911507Y-153450000D01*
X465874304Y-153499549D01*
X465870769Y-153496895D01*
X465856115Y-153519513D01*
X465792452Y-153548302D01*
X465775260Y-153549500D01*
X465460908Y-153549500D01*
X465393869Y-153529815D01*
X465355363Y-153485728D01*
X465353605Y-153486813D01*
X465349814Y-153480666D01*
X465257712Y-153331344D01*
X465164049Y-153237681D01*
X465130564Y-153176358D01*
X465135548Y-153106666D01*
X465164049Y-153062319D01*
X465183760Y-153042608D01*
X465257712Y-152968656D01*
X465349814Y-152819334D01*
X465404999Y-152652797D01*
X465415500Y-152550009D01*
X465415499Y-151800596D01*
X465421736Y-151779352D01*
X465423316Y-151757266D01*
X465431388Y-151746482D01*
X465435183Y-151733558D01*
X465451917Y-151719057D01*
X465465187Y-151701331D01*
X465477807Y-151696623D01*
X465487987Y-151687803D01*
X465509903Y-151684651D01*
X465530651Y-151676913D01*
X465543813Y-151679776D01*
G37*
%TD.AperFunction*%
%TA.AperFunction,Conductor*%
G36*
X460735703Y-142381662D02*
G01*
X460760097Y-142413987D01*
X460761395Y-142413187D01*
X460765185Y-142419332D01*
X460765186Y-142419334D01*
X460857288Y-142568656D01*
X460981344Y-142692712D01*
X461130666Y-142784814D01*
X461297203Y-142839999D01*
X461399991Y-142850500D01*
X462400008Y-142850499D01*
X462400016Y-142850498D01*
X462400019Y-142850498D01*
X462456302Y-142844748D01*
X462502797Y-142839999D01*
X462664869Y-142786293D01*
X462703870Y-142780000D01*
X464026000Y-142780000D01*
X464093039Y-142799685D01*
X464138794Y-142852489D01*
X464150000Y-142904000D01*
X464150000Y-143156000D01*
X464130315Y-143223039D01*
X464077511Y-143268794D01*
X464026000Y-143280000D01*
X462665000Y-143280000D01*
X462665000Y-143292697D01*
X462679800Y-143405104D01*
X462679801Y-143405108D01*
X462730724Y-143528048D01*
X462738193Y-143597517D01*
X462706918Y-143659996D01*
X462646829Y-143695648D01*
X462616163Y-143699500D01*
X460649022Y-143699500D01*
X460581983Y-143679815D01*
X460536228Y-143627011D01*
X460525531Y-143564279D01*
X460530500Y-143509592D01*
X460530500Y-143050408D01*
X460528445Y-143027795D01*
X460524315Y-142982343D01*
X460483231Y-142850500D01*
X460473281Y-142818568D01*
X460476021Y-142817713D01*
X460468264Y-142761727D01*
X460474143Y-142741700D01*
X460473281Y-142741432D01*
X460498316Y-142661088D01*
X460524315Y-142577657D01*
X460530500Y-142509594D01*
X460530500Y-142475375D01*
X460550185Y-142408336D01*
X460602989Y-142362581D01*
X460672147Y-142352637D01*
X460735703Y-142381662D01*
G37*
%TD.AperFunction*%
%TA.AperFunction,Conductor*%
G36*
X479542539Y-132220185D02*
G01*
X479588294Y-132272989D01*
X479599500Y-132324500D01*
X479599500Y-157525500D01*
X479579815Y-157592539D01*
X479527011Y-157638294D01*
X479475500Y-157649500D01*
X453624500Y-157649500D01*
X453557461Y-157629815D01*
X453511706Y-157577011D01*
X453500500Y-157525500D01*
X453500500Y-156549986D01*
X463915001Y-156549986D01*
X463925494Y-156652697D01*
X463980641Y-156819119D01*
X463980643Y-156819124D01*
X464072684Y-156968345D01*
X464196654Y-157092315D01*
X464345875Y-157184356D01*
X464345880Y-157184358D01*
X464512302Y-157239505D01*
X464512309Y-157239506D01*
X464615019Y-157249999D01*
X464764999Y-157249999D01*
X464765000Y-157249998D01*
X464765000Y-156300000D01*
X463915001Y-156300000D01*
X463915001Y-156549986D01*
X453500500Y-156549986D01*
X453500500Y-154378711D01*
X454699500Y-154378711D01*
X454699500Y-154621288D01*
X454730621Y-154857685D01*
X454731162Y-154861789D01*
X454755142Y-154951284D01*
X454793947Y-155096104D01*
X454886773Y-155320205D01*
X454886777Y-155320214D01*
X454889539Y-155324998D01*
X455008064Y-155530289D01*
X455008066Y-155530292D01*
X455008067Y-155530293D01*
X455155733Y-155722736D01*
X455155739Y-155722743D01*
X455327256Y-155894260D01*
X455327262Y-155894265D01*
X455519711Y-156041936D01*
X455729788Y-156163224D01*
X455953900Y-156256054D01*
X456188211Y-156318838D01*
X456368586Y-156342584D01*
X456428711Y-156350500D01*
X456428712Y-156350500D01*
X456671289Y-156350500D01*
X456719388Y-156344167D01*
X456911789Y-156318838D01*
X457146100Y-156256054D01*
X457370212Y-156163224D01*
X457580289Y-156041936D01*
X457772738Y-155894265D01*
X457944265Y-155722738D01*
X458091936Y-155530289D01*
X458213224Y-155320212D01*
X458306054Y-155096100D01*
X458368838Y-154861789D01*
X458400013Y-154624986D01*
X460840001Y-154624986D01*
X460850494Y-154727697D01*
X460905641Y-154894119D01*
X460905643Y-154894124D01*
X460997684Y-155043345D01*
X461121654Y-155167315D01*
X461270875Y-155259356D01*
X461270880Y-155259358D01*
X461437302Y-155314505D01*
X461437309Y-155314506D01*
X461540019Y-155324999D01*
X461814999Y-155324999D01*
X461815000Y-155324998D01*
X461815000Y-154487500D01*
X460840001Y-154487500D01*
X460840001Y-154624986D01*
X458400013Y-154624986D01*
X458400500Y-154621288D01*
X458400500Y-154378712D01*
X458368838Y-154138211D01*
X458306054Y-153903900D01*
X458213224Y-153679788D01*
X458091936Y-153469711D01*
X457994933Y-153343294D01*
X457944266Y-153277263D01*
X457944260Y-153277256D01*
X457772743Y-153105739D01*
X457772736Y-153105733D01*
X457580293Y-152958067D01*
X457580292Y-152958066D01*
X457580289Y-152958064D01*
X457370212Y-152836776D01*
X457370205Y-152836773D01*
X457146104Y-152743947D01*
X456974151Y-152697872D01*
X456911789Y-152681162D01*
X456911788Y-152681161D01*
X456911785Y-152681161D01*
X456671289Y-152649500D01*
X456671288Y-152649500D01*
X456428712Y-152649500D01*
X456428711Y-152649500D01*
X456188214Y-152681161D01*
X455953895Y-152743947D01*
X455729794Y-152836773D01*
X455729785Y-152836777D01*
X455519706Y-152958067D01*
X455327263Y-153105733D01*
X455327256Y-153105739D01*
X455155739Y-153277256D01*
X455155733Y-153277263D01*
X455008067Y-153469706D01*
X454886777Y-153679785D01*
X454886773Y-153679794D01*
X454793947Y-153903895D01*
X454731161Y-154138214D01*
X454699500Y-154378711D01*
X453500500Y-154378711D01*
X453500500Y-146850000D01*
X454229157Y-146850000D01*
X455083012Y-146850000D01*
X455065795Y-146859940D01*
X455009940Y-146915795D01*
X454970444Y-146984204D01*
X454950000Y-147060504D01*
X454950000Y-147139496D01*
X454970444Y-147215796D01*
X455009940Y-147284205D01*
X455065795Y-147340060D01*
X455083012Y-147350000D01*
X454229157Y-147350000D01*
X454240350Y-147406274D01*
X454240351Y-147406276D01*
X454319500Y-147597358D01*
X454319505Y-147597368D01*
X454434410Y-147769335D01*
X454434413Y-147769339D01*
X454580660Y-147915586D01*
X454580664Y-147915589D01*
X454752631Y-148030494D01*
X454752641Y-148030499D01*
X454943725Y-148109649D01*
X454943733Y-148109651D01*
X455146579Y-148149999D01*
X455146583Y-148150000D01*
X455300000Y-148150000D01*
X455300000Y-147400000D01*
X455800000Y-147400000D01*
X455800000Y-148150000D01*
X455953417Y-148150000D01*
X455953420Y-148149999D01*
X456156266Y-148109651D01*
X456156274Y-148109649D01*
X456347358Y-148030499D01*
X456347368Y-148030494D01*
X456519335Y-147915589D01*
X456519339Y-147915586D01*
X456665586Y-147769339D01*
X456665589Y-147769335D01*
X456780494Y-147597368D01*
X456780499Y-147597358D01*
X456859648Y-147406276D01*
X456859649Y-147406274D01*
X456870843Y-147350000D01*
X456016988Y-147350000D01*
X456034205Y-147340060D01*
X456090060Y-147284205D01*
X456129556Y-147215796D01*
X456150000Y-147139496D01*
X456150000Y-147060504D01*
X456129556Y-146984204D01*
X456090060Y-146915795D01*
X456034205Y-146859940D01*
X456016988Y-146850000D01*
X456870843Y-146850000D01*
X458029157Y-146850000D01*
X458883012Y-146850000D01*
X458865795Y-146859940D01*
X458809940Y-146915795D01*
X458770444Y-146984204D01*
X458750000Y-147060504D01*
X458750000Y-147139496D01*
X458770444Y-147215796D01*
X458809940Y-147284205D01*
X458865795Y-147340060D01*
X458883012Y-147350000D01*
X458029157Y-147350000D01*
X458040350Y-147406274D01*
X458040351Y-147406276D01*
X458119500Y-147597358D01*
X458119505Y-147597368D01*
X458234410Y-147769335D01*
X458234413Y-147769339D01*
X458380660Y-147915586D01*
X458380664Y-147915589D01*
X458552631Y-148030494D01*
X458552641Y-148030499D01*
X458743725Y-148109649D01*
X458743733Y-148109651D01*
X458946579Y-148149999D01*
X458946583Y-148150000D01*
X459100000Y-148150000D01*
X459100000Y-147400000D01*
X459600000Y-147400000D01*
X459600000Y-148150000D01*
X459753417Y-148150000D01*
X459753420Y-148149999D01*
X459956266Y-148109651D01*
X459956274Y-148109649D01*
X460147358Y-148030499D01*
X460147368Y-148030494D01*
X460319335Y-147915589D01*
X460319339Y-147915586D01*
X460465586Y-147769339D01*
X460465589Y-147769335D01*
X460580494Y-147597368D01*
X460580499Y-147597358D01*
X460659648Y-147406276D01*
X460659649Y-147406274D01*
X460670843Y-147350000D01*
X459816988Y-147350000D01*
X459834205Y-147340060D01*
X459890060Y-147284205D01*
X459929556Y-147215796D01*
X459950000Y-147139496D01*
X459950000Y-147060504D01*
X459929556Y-146984204D01*
X459890060Y-146915795D01*
X459834205Y-146859940D01*
X459816988Y-146850000D01*
X460670843Y-146850000D01*
X460659649Y-146793725D01*
X460659648Y-146793723D01*
X460580499Y-146602641D01*
X460580494Y-146602631D01*
X460465589Y-146430664D01*
X460465586Y-146430660D01*
X460380118Y-146345192D01*
X460346633Y-146283869D01*
X460351617Y-146214177D01*
X460380126Y-146169821D01*
X460385075Y-146164872D01*
X460473019Y-146019395D01*
X460523590Y-145857106D01*
X460530000Y-145786572D01*
X460530000Y-145780000D01*
X459680000Y-145780000D01*
X459680000Y-146436000D01*
X459670552Y-146468173D01*
X459661843Y-146500601D01*
X459660583Y-146502124D01*
X459660315Y-146503039D01*
X459658596Y-146504527D01*
X459639355Y-146527804D01*
X459600000Y-146563537D01*
X459600000Y-146800000D01*
X459100000Y-146800000D01*
X459100000Y-146044000D01*
X459119685Y-145976961D01*
X459144809Y-145955190D01*
X459180000Y-145920000D01*
X459180000Y-145780000D01*
X458330001Y-145780000D01*
X458330001Y-145786582D01*
X458336408Y-145857102D01*
X458336409Y-145857107D01*
X458386981Y-146019396D01*
X458437969Y-146103741D01*
X458455805Y-146171296D01*
X458434287Y-146237769D01*
X458400746Y-146270991D01*
X458380665Y-146284409D01*
X458380660Y-146284413D01*
X458234413Y-146430660D01*
X458234410Y-146430664D01*
X458119505Y-146602631D01*
X458119500Y-146602641D01*
X458040351Y-146793723D01*
X458040350Y-146793725D01*
X458029157Y-146850000D01*
X456870843Y-146850000D01*
X456859649Y-146793725D01*
X456859648Y-146793723D01*
X456780499Y-146602641D01*
X456780494Y-146602631D01*
X456665589Y-146430664D01*
X456665586Y-146430660D01*
X456519339Y-146284413D01*
X456519335Y-146284410D01*
X456347368Y-146169505D01*
X456347358Y-146169500D01*
X456156274Y-146090350D01*
X456156266Y-146090348D01*
X455953420Y-146050000D01*
X455800000Y-146050000D01*
X455800000Y-146800000D01*
X455300000Y-146800000D01*
X455300000Y-146050000D01*
X455146579Y-146050000D01*
X454943733Y-146090348D01*
X454943725Y-146090350D01*
X454752641Y-146169500D01*
X454752631Y-146169505D01*
X454580664Y-146284410D01*
X454580660Y-146284413D01*
X454434413Y-146430660D01*
X454434410Y-146430664D01*
X454319505Y-146602631D01*
X454319500Y-146602641D01*
X454240351Y-146793723D01*
X454240350Y-146793725D01*
X454229157Y-146850000D01*
X453500500Y-146850000D01*
X453500500Y-143736068D01*
X457928498Y-143736068D01*
X457951298Y-143821158D01*
X457969423Y-143888799D01*
X457990188Y-143924764D01*
X458021410Y-143978842D01*
X458048479Y-144025729D01*
X458167349Y-144144599D01*
X458167355Y-144144604D01*
X458293181Y-144270430D01*
X458326666Y-144331753D01*
X458329500Y-144358110D01*
X458329500Y-144545808D01*
X458335821Y-144615376D01*
X458335823Y-144615383D01*
X458385708Y-144775470D01*
X458385709Y-144775472D01*
X458427703Y-144844939D01*
X458445539Y-144912494D01*
X458427704Y-144973236D01*
X458386981Y-145040601D01*
X458386980Y-145040603D01*
X458336409Y-145202893D01*
X458330000Y-145273427D01*
X458330000Y-145280000D01*
X460529999Y-145280000D01*
X460529999Y-145273417D01*
X460523591Y-145202897D01*
X460523590Y-145202892D01*
X460479497Y-145061391D01*
X460478345Y-144991530D01*
X460515146Y-144932138D01*
X460578215Y-144902070D01*
X460597882Y-144900500D01*
X462743236Y-144900500D01*
X462810275Y-144920185D01*
X462823093Y-144930514D01*
X462823102Y-144930503D01*
X462829547Y-144935448D01*
X462829549Y-144935451D01*
X462949767Y-145027698D01*
X463089764Y-145085687D01*
X463202280Y-145100500D01*
X463225500Y-145100500D01*
X463292539Y-145120185D01*
X463338294Y-145172989D01*
X463349500Y-145224500D01*
X463349500Y-145378846D01*
X463380261Y-145533489D01*
X463380264Y-145533501D01*
X463440602Y-145679172D01*
X463440609Y-145679185D01*
X463528210Y-145810288D01*
X463528213Y-145810292D01*
X463639707Y-145921786D01*
X463639711Y-145921789D01*
X463770814Y-146009390D01*
X463770827Y-146009397D01*
X463868853Y-146050000D01*
X463916503Y-146069737D01*
X464071153Y-146100499D01*
X464071156Y-146100500D01*
X464071158Y-146100500D01*
X464228844Y-146100500D01*
X464228845Y-146100499D01*
X464383497Y-146069737D01*
X464529179Y-146009394D01*
X464660289Y-145921789D01*
X464771789Y-145810289D01*
X464859394Y-145679179D01*
X464919737Y-145533497D01*
X464950500Y-145378842D01*
X464950500Y-145224500D01*
X464970185Y-145157461D01*
X465022989Y-145111706D01*
X465074500Y-145100500D01*
X465097713Y-145100500D01*
X465097720Y-145100500D01*
X465210236Y-145085687D01*
X465350233Y-145027698D01*
X465470451Y-144935451D01*
X465562698Y-144815233D01*
X465620687Y-144675236D01*
X465623441Y-144654314D01*
X465651707Y-144590418D01*
X465710031Y-144551946D01*
X465746380Y-144546499D01*
X467503620Y-144546499D01*
X467570659Y-144566184D01*
X467616414Y-144618988D01*
X467626559Y-144654315D01*
X467629312Y-144675233D01*
X467629313Y-144675236D01*
X467670831Y-144775470D01*
X467687302Y-144815233D01*
X467779549Y-144935451D01*
X467899767Y-145027698D01*
X468039764Y-145085687D01*
X468152280Y-145100500D01*
X468152287Y-145100500D01*
X470047713Y-145100500D01*
X470047720Y-145100500D01*
X470140804Y-145088245D01*
X470209838Y-145099010D01*
X470262094Y-145145390D01*
X470262528Y-145146088D01*
X470305778Y-145216209D01*
X470307288Y-145218656D01*
X470431344Y-145342712D01*
X470580666Y-145434814D01*
X470580667Y-145434814D01*
X470586813Y-145438605D01*
X470585706Y-145440399D01*
X470630337Y-145479687D01*
X470649500Y-145545908D01*
X470649500Y-146638330D01*
X470649499Y-146638348D01*
X470649499Y-146804054D01*
X470649498Y-146804054D01*
X470690423Y-146956785D01*
X470711790Y-146993792D01*
X470711791Y-146993796D01*
X470711792Y-146993796D01*
X470744528Y-147050498D01*
X470769479Y-147093714D01*
X470769481Y-147093717D01*
X470888349Y-147212585D01*
X470888355Y-147212590D01*
X471388083Y-147712318D01*
X471392420Y-147720262D01*
X471399668Y-147725687D01*
X471408903Y-147750448D01*
X471421568Y-147773641D01*
X471420922Y-147782670D01*
X471424086Y-147791152D01*
X471418469Y-147816974D01*
X471416584Y-147843333D01*
X471410766Y-147852385D01*
X471409235Y-147859425D01*
X471388084Y-147887679D01*
X471344481Y-147931283D01*
X471344478Y-147931286D01*
X469409000Y-149866763D01*
X469347677Y-149900248D01*
X469326365Y-149898723D01*
X469327766Y-149905163D01*
X469303350Y-149970628D01*
X469291763Y-149984000D01*
X468248786Y-151026978D01*
X468136981Y-151138782D01*
X468136979Y-151138785D01*
X468097431Y-151207286D01*
X468097430Y-151207288D01*
X468057923Y-151275714D01*
X468056110Y-151282482D01*
X468016999Y-151428443D01*
X468016999Y-151428445D01*
X468016999Y-151455169D01*
X467997314Y-151522208D01*
X467944510Y-151567963D01*
X467875352Y-151577907D01*
X467829879Y-151561902D01*
X467797099Y-151542516D01*
X467730397Y-151503069D01*
X467730395Y-151503068D01*
X467730393Y-151503067D01*
X467730392Y-151503066D01*
X467573179Y-151457391D01*
X467573173Y-151457390D01*
X467536447Y-151454500D01*
X467536440Y-151454500D01*
X467118597Y-151454500D01*
X467051558Y-151434815D01*
X467030916Y-151418181D01*
X466651819Y-151039084D01*
X466637115Y-151012156D01*
X466620523Y-150986338D01*
X466619631Y-150980137D01*
X466618334Y-150977761D01*
X466615500Y-150951403D01*
X466615500Y-150761509D01*
X466635185Y-150694470D01*
X466687989Y-150648715D01*
X466729781Y-150637891D01*
X466733131Y-150637628D01*
X466889358Y-150592240D01*
X467029389Y-150509425D01*
X467144425Y-150394389D01*
X467227240Y-150254358D01*
X467272628Y-150098131D01*
X467275500Y-150061637D01*
X467275500Y-150024499D01*
X467295185Y-149957460D01*
X467347989Y-149911705D01*
X467399500Y-149900499D01*
X468872871Y-149900499D01*
X468872872Y-149900499D01*
X468932483Y-149894091D01*
X469067331Y-149843796D01*
X469129773Y-149797051D01*
X469195234Y-149772635D01*
X469200703Y-149773824D01*
X469212487Y-149719655D01*
X469222046Y-149704780D01*
X469268796Y-149642331D01*
X469319091Y-149507483D01*
X469325500Y-149447873D01*
X469325499Y-147152128D01*
X469319091Y-147092517D01*
X469303419Y-147050499D01*
X469268797Y-146957671D01*
X469268793Y-146957664D01*
X469182547Y-146842455D01*
X469182544Y-146842452D01*
X469067335Y-146756206D01*
X469067328Y-146756202D01*
X468932482Y-146705908D01*
X468932483Y-146705908D01*
X468872883Y-146699501D01*
X468872881Y-146699500D01*
X468872873Y-146699500D01*
X468872864Y-146699500D01*
X467177129Y-146699500D01*
X467177123Y-146699501D01*
X467117516Y-146705908D01*
X466982671Y-146756202D01*
X466982664Y-146756206D01*
X466867455Y-146842452D01*
X466867452Y-146842455D01*
X466781206Y-146957664D01*
X466781202Y-146957671D01*
X466730908Y-147092517D01*
X466725858Y-147139496D01*
X466724501Y-147152123D01*
X466724500Y-147152135D01*
X466724500Y-147702730D01*
X466704815Y-147769769D01*
X466684051Y-147794355D01*
X466674126Y-147803405D01*
X466646284Y-147819480D01*
X466540575Y-147925187D01*
X466538451Y-147927125D01*
X466509511Y-147941238D01*
X466481257Y-147956666D01*
X466476920Y-147957132D01*
X466475652Y-147957751D01*
X466473513Y-147957498D01*
X466454900Y-147959500D01*
X465333375Y-147959500D01*
X465333350Y-147959501D01*
X465296871Y-147962371D01*
X465140640Y-148007760D01*
X465000615Y-148090571D01*
X465000606Y-148090578D01*
X464885578Y-148205606D01*
X464885571Y-148205615D01*
X464802760Y-148345640D01*
X464757372Y-148501869D01*
X464757371Y-148501874D01*
X464754500Y-148538355D01*
X464754500Y-150061624D01*
X464754501Y-150061649D01*
X464757371Y-150098128D01*
X464802760Y-150254359D01*
X464885571Y-150394384D01*
X464885578Y-150394393D01*
X465000606Y-150509421D01*
X465000615Y-150509428D01*
X465120826Y-150580521D01*
X465140642Y-150592240D01*
X465296869Y-150637628D01*
X465299598Y-150637842D01*
X465300222Y-150637892D01*
X465301976Y-150638560D01*
X465303107Y-150638767D01*
X465303068Y-150638976D01*
X465365512Y-150662772D01*
X465406986Y-150719001D01*
X465414500Y-150761509D01*
X465414500Y-151172439D01*
X465414499Y-151172443D01*
X465414499Y-151188774D01*
X465403220Y-151227181D01*
X465394814Y-151255808D01*
X465394813Y-151255808D01*
X465394812Y-151255813D01*
X465348598Y-151295854D01*
X465342010Y-151301563D01*
X465342009Y-151301563D01*
X465342006Y-151301566D01*
X465301535Y-151307382D01*
X465272852Y-151311507D01*
X465272849Y-151311505D01*
X465272847Y-151311506D01*
X465239644Y-151296341D01*
X465209296Y-151282482D01*
X465209293Y-151282479D01*
X465209292Y-151282479D01*
X465209290Y-151282477D01*
X465202818Y-151276450D01*
X465133657Y-151207289D01*
X465133656Y-151207288D01*
X465022593Y-151138784D01*
X464984336Y-151115187D01*
X464984331Y-151115185D01*
X464929081Y-151096877D01*
X464817797Y-151060001D01*
X464817795Y-151060000D01*
X464715010Y-151049500D01*
X463714998Y-151049500D01*
X463714980Y-151049501D01*
X463612203Y-151060000D01*
X463612200Y-151060001D01*
X463445668Y-151115185D01*
X463445663Y-151115187D01*
X463296342Y-151207289D01*
X463227679Y-151275951D01*
X463166355Y-151309436D01*
X463096664Y-151304450D01*
X463052318Y-151275950D01*
X463008657Y-151232289D01*
X463008656Y-151232288D01*
X462874436Y-151149501D01*
X462859336Y-151140187D01*
X462859331Y-151140185D01*
X462770496Y-151110748D01*
X462750463Y-151096877D01*
X462728297Y-151086755D01*
X462722248Y-151077342D01*
X462713051Y-151070975D01*
X462703697Y-151048476D01*
X462690523Y-151027977D01*
X462688064Y-151010875D01*
X462686228Y-151006459D01*
X462685500Y-150993042D01*
X462685500Y-150761509D01*
X462705185Y-150694470D01*
X462757989Y-150648715D01*
X462799781Y-150637891D01*
X462803131Y-150637628D01*
X462959358Y-150592240D01*
X463099389Y-150509425D01*
X463214425Y-150394389D01*
X463297240Y-150254358D01*
X463342628Y-150098131D01*
X463345500Y-150061637D01*
X463345499Y-148538364D01*
X463342628Y-148501869D01*
X463297240Y-148345642D01*
X463236426Y-148242812D01*
X463214428Y-148205615D01*
X463214421Y-148205606D01*
X463099393Y-148090578D01*
X463099387Y-148090573D01*
X462961378Y-148008954D01*
X462913695Y-147957884D01*
X462900500Y-147902222D01*
X462900500Y-147871155D01*
X462900499Y-147871153D01*
X462894965Y-147843333D01*
X462869737Y-147716503D01*
X462820386Y-147597358D01*
X462809397Y-147570827D01*
X462809390Y-147570814D01*
X462721789Y-147439711D01*
X462721786Y-147439707D01*
X462610292Y-147328213D01*
X462610288Y-147328210D01*
X462479185Y-147240609D01*
X462479172Y-147240602D01*
X462333501Y-147180264D01*
X462333489Y-147180261D01*
X462178845Y-147149500D01*
X462178842Y-147149500D01*
X462021158Y-147149500D01*
X462021155Y-147149500D01*
X461866510Y-147180261D01*
X461866498Y-147180264D01*
X461720827Y-147240602D01*
X461720814Y-147240609D01*
X461589711Y-147328210D01*
X461589707Y-147328213D01*
X461478213Y-147439707D01*
X461478210Y-147439711D01*
X461390609Y-147570814D01*
X461390602Y-147570827D01*
X461330264Y-147716498D01*
X461330261Y-147716510D01*
X461299500Y-147871153D01*
X461299500Y-147888842D01*
X461279815Y-147955881D01*
X461227011Y-148001636D01*
X461211368Y-148007445D01*
X461210640Y-148007760D01*
X461070615Y-148090571D01*
X461070606Y-148090578D01*
X460955578Y-148205606D01*
X460955571Y-148205615D01*
X460872760Y-148345640D01*
X460827372Y-148501869D01*
X460827371Y-148501874D01*
X460824500Y-148538355D01*
X460824500Y-150061624D01*
X460824501Y-150061649D01*
X460827371Y-150098128D01*
X460872760Y-150254359D01*
X460955571Y-150394384D01*
X460955578Y-150394393D01*
X461070606Y-150509421D01*
X461070615Y-150509428D01*
X461190826Y-150580521D01*
X461210642Y-150592240D01*
X461366869Y-150637628D01*
X461369598Y-150637842D01*
X461370222Y-150637892D01*
X461371976Y-150638560D01*
X461373107Y-150638767D01*
X461373068Y-150638976D01*
X461374069Y-150639358D01*
X461378147Y-150638772D01*
X461406447Y-150651696D01*
X461435512Y-150662772D01*
X461437956Y-150666085D01*
X461441703Y-150667797D01*
X461458522Y-150693968D01*
X461476986Y-150719001D01*
X461477887Y-150724101D01*
X461479477Y-150726575D01*
X461484500Y-150761510D01*
X461484500Y-150979787D01*
X461464815Y-151046826D01*
X461412011Y-151092581D01*
X461399505Y-151097493D01*
X461270666Y-151140186D01*
X461270663Y-151140187D01*
X461121342Y-151232289D01*
X460997289Y-151356342D01*
X460905187Y-151505663D01*
X460905185Y-151505668D01*
X460892975Y-151542516D01*
X460850001Y-151672203D01*
X460850001Y-151672204D01*
X460850000Y-151672204D01*
X460839500Y-151774983D01*
X460839500Y-152550001D01*
X460839501Y-152550019D01*
X460850000Y-152652796D01*
X460850001Y-152652799D01*
X460905185Y-152819331D01*
X460905187Y-152819336D01*
X460905561Y-152819942D01*
X460997288Y-152968656D01*
X461121344Y-153092712D01*
X461123700Y-153094165D01*
X461124653Y-153094753D01*
X461126445Y-153096746D01*
X461127011Y-153097193D01*
X461126934Y-153097289D01*
X461171379Y-153146699D01*
X461182603Y-153215661D01*
X461154761Y-153279744D01*
X461124665Y-153305826D01*
X461121660Y-153307679D01*
X461121655Y-153307683D01*
X460997684Y-153431654D01*
X460905643Y-153580875D01*
X460905641Y-153580880D01*
X460850494Y-153747302D01*
X460850493Y-153747309D01*
X460840000Y-153850013D01*
X460840000Y-153987500D01*
X461941000Y-153987500D01*
X462008039Y-154007185D01*
X462053794Y-154059989D01*
X462065000Y-154111500D01*
X462065000Y-154237500D01*
X462191000Y-154237500D01*
X462258039Y-154257185D01*
X462303794Y-154309989D01*
X462315000Y-154361500D01*
X462315000Y-155324999D01*
X462589972Y-155324999D01*
X462589986Y-155324998D01*
X462692697Y-155314505D01*
X462859119Y-155259358D01*
X462859124Y-155259356D01*
X463008342Y-155167317D01*
X463101964Y-155073695D01*
X463163287Y-155040210D01*
X463232979Y-155045194D01*
X463277327Y-155073695D01*
X463296344Y-155092712D01*
X463445666Y-155184814D01*
X463612203Y-155239999D01*
X463714991Y-155250500D01*
X463818990Y-155250499D01*
X463886026Y-155270183D01*
X463931782Y-155322986D01*
X463941726Y-155392145D01*
X463936695Y-155413501D01*
X463925494Y-155447303D01*
X463925493Y-155447309D01*
X463915000Y-155550013D01*
X463915000Y-155800000D01*
X464891000Y-155800000D01*
X464958039Y-155819685D01*
X465003794Y-155872489D01*
X465015000Y-155924000D01*
X465015000Y-156050000D01*
X465141000Y-156050000D01*
X465208039Y-156069685D01*
X465253794Y-156122489D01*
X465265000Y-156174000D01*
X465265000Y-157249999D01*
X465414972Y-157249999D01*
X465414986Y-157249998D01*
X465517697Y-157239505D01*
X465684119Y-157184358D01*
X465684124Y-157184356D01*
X465833342Y-157092317D01*
X465926964Y-156998695D01*
X465988287Y-156965210D01*
X466057979Y-156970194D01*
X466102327Y-156998695D01*
X466196344Y-157092712D01*
X466345666Y-157184814D01*
X466512203Y-157239999D01*
X466614991Y-157250500D01*
X467415008Y-157250499D01*
X467415016Y-157250498D01*
X467415019Y-157250498D01*
X467471302Y-157244748D01*
X467517797Y-157239999D01*
X467684334Y-157184814D01*
X467833656Y-157092712D01*
X467957712Y-156968656D01*
X468049814Y-156819334D01*
X468104999Y-156652797D01*
X468115500Y-156550009D01*
X468115499Y-155549992D01*
X468113486Y-155530289D01*
X468104999Y-155447203D01*
X468104998Y-155447200D01*
X468093831Y-155413501D01*
X468049814Y-155280666D01*
X467957712Y-155131344D01*
X467838975Y-155012607D01*
X467805490Y-154951284D01*
X467810474Y-154881592D01*
X467852346Y-154825659D01*
X467863530Y-154818196D01*
X467871320Y-154813590D01*
X467987090Y-154697820D01*
X468070431Y-154556897D01*
X468070432Y-154556893D01*
X468070433Y-154556892D01*
X468116108Y-154399679D01*
X468116109Y-154399673D01*
X468119000Y-154362940D01*
X468119000Y-153937060D01*
X468116109Y-153900325D01*
X468106946Y-153868786D01*
X468070433Y-153743107D01*
X468070431Y-153743104D01*
X468070431Y-153743103D01*
X468067193Y-153737629D01*
X468050011Y-153669906D01*
X468056097Y-153635877D01*
X468104118Y-153489411D01*
X468122772Y-153462285D01*
X468140477Y-153434563D01*
X468142466Y-153433647D01*
X468143709Y-153431841D01*
X468174059Y-153419109D01*
X468203949Y-153405356D01*
X468206119Y-153405661D01*
X468208140Y-153404814D01*
X468240546Y-153410511D01*
X468273136Y-153415102D01*
X468275341Y-153416628D01*
X468276954Y-153416912D01*
X468280566Y-153420245D01*
X468309624Y-153440359D01*
X468442526Y-153573261D01*
X468461333Y-153600930D01*
X468462598Y-153600182D01*
X468469515Y-153611878D01*
X468486698Y-153679602D01*
X468469518Y-153738115D01*
X468466568Y-153743103D01*
X468420891Y-153900320D01*
X468420890Y-153900326D01*
X468418000Y-153937052D01*
X468418000Y-154362947D01*
X468420890Y-154399673D01*
X468420891Y-154399679D01*
X468466566Y-154556892D01*
X468466568Y-154556895D01*
X468466569Y-154556897D01*
X468503849Y-154619935D01*
X468549908Y-154697817D01*
X468549914Y-154697825D01*
X468665674Y-154813585D01*
X468665678Y-154813588D01*
X468665680Y-154813590D01*
X468806603Y-154896931D01*
X468806604Y-154896931D01*
X468806607Y-154896933D01*
X468963820Y-154942608D01*
X468963823Y-154942608D01*
X468963825Y-154942609D01*
X469000560Y-154945500D01*
X469000568Y-154945500D01*
X470046432Y-154945500D01*
X470046440Y-154945500D01*
X470083175Y-154942609D01*
X470163696Y-154919215D01*
X470233560Y-154919413D01*
X470292231Y-154957354D01*
X470303826Y-154973193D01*
X470347288Y-155043656D01*
X470471344Y-155167712D01*
X470620666Y-155259814D01*
X470787203Y-155314999D01*
X470889991Y-155325500D01*
X471940008Y-155325499D01*
X471940016Y-155325498D01*
X471940019Y-155325498D01*
X471996302Y-155319748D01*
X472042797Y-155314999D01*
X472209334Y-155259814D01*
X472358656Y-155167712D01*
X472482712Y-155043656D01*
X472573229Y-154896902D01*
X472625177Y-154850179D01*
X472678768Y-154838000D01*
X474987403Y-154838000D01*
X475016843Y-154846644D01*
X475046830Y-154853168D01*
X475051845Y-154856922D01*
X475054442Y-154857685D01*
X475075084Y-154874319D01*
X475213181Y-155012416D01*
X475246666Y-155073739D01*
X475249500Y-155100097D01*
X475249500Y-155747870D01*
X475249501Y-155747876D01*
X475255908Y-155807483D01*
X475306202Y-155942328D01*
X475306206Y-155942335D01*
X475392452Y-156057544D01*
X475392455Y-156057547D01*
X475507664Y-156143793D01*
X475507671Y-156143797D01*
X475642517Y-156194091D01*
X475642516Y-156194091D01*
X475649444Y-156194835D01*
X475702127Y-156200500D01*
X476797872Y-156200499D01*
X476857483Y-156194091D01*
X476992331Y-156143796D01*
X477107546Y-156057546D01*
X477193796Y-155942331D01*
X477244091Y-155807483D01*
X477250500Y-155747873D01*
X477250499Y-154652128D01*
X477244091Y-154592517D01*
X477228236Y-154550008D01*
X477193797Y-154457671D01*
X477193793Y-154457664D01*
X477107547Y-154342455D01*
X477107544Y-154342452D01*
X476992335Y-154256206D01*
X476992328Y-154256202D01*
X476857482Y-154205908D01*
X476857483Y-154205908D01*
X476797883Y-154199501D01*
X476797881Y-154199500D01*
X476797873Y-154199500D01*
X476797865Y-154199500D01*
X476150098Y-154199500D01*
X476083059Y-154179815D01*
X476062417Y-154163181D01*
X475775090Y-153875855D01*
X475775088Y-153875852D01*
X475656217Y-153756981D01*
X475656216Y-153756980D01*
X475569404Y-153706860D01*
X475569404Y-153706859D01*
X475569400Y-153706858D01*
X475519285Y-153677923D01*
X475366557Y-153636999D01*
X475208443Y-153636999D01*
X475200847Y-153636999D01*
X475200831Y-153637000D01*
X472678768Y-153637000D01*
X472611729Y-153617315D01*
X472573229Y-153578097D01*
X472570245Y-153573259D01*
X472482712Y-153431344D01*
X472358656Y-153307288D01*
X472355342Y-153305243D01*
X472353546Y-153303248D01*
X472352989Y-153302807D01*
X472353064Y-153302711D01*
X472308618Y-153253297D01*
X472297397Y-153184334D01*
X472325240Y-153120252D01*
X472355348Y-153094165D01*
X472358342Y-153092318D01*
X472482315Y-152968345D01*
X472574356Y-152819124D01*
X472574358Y-152819119D01*
X472629505Y-152652697D01*
X472629506Y-152652690D01*
X472639999Y-152549986D01*
X472640000Y-152549973D01*
X472640000Y-152412500D01*
X471539000Y-152412500D01*
X471471961Y-152392815D01*
X471426206Y-152340011D01*
X471415000Y-152288500D01*
X471415000Y-152162500D01*
X471289000Y-152162500D01*
X471221961Y-152142815D01*
X471176206Y-152090011D01*
X471165000Y-152038500D01*
X471165000Y-151912500D01*
X471665000Y-151912500D01*
X472639999Y-151912500D01*
X472639999Y-151775028D01*
X472639998Y-151775013D01*
X472629505Y-151672302D01*
X472574358Y-151505880D01*
X472574356Y-151505875D01*
X472482315Y-151356654D01*
X472358345Y-151232684D01*
X472209124Y-151140643D01*
X472209119Y-151140641D01*
X472042697Y-151085494D01*
X472042690Y-151085493D01*
X471939986Y-151075000D01*
X471665000Y-151075000D01*
X471665000Y-151912500D01*
X471165000Y-151912500D01*
X471165000Y-151075000D01*
X470890029Y-151075000D01*
X470890012Y-151075001D01*
X470787302Y-151085494D01*
X470620880Y-151140641D01*
X470620875Y-151140643D01*
X470471654Y-151232684D01*
X470347683Y-151356655D01*
X470347680Y-151356659D01*
X470304325Y-151426949D01*
X470252377Y-151473674D01*
X470183415Y-151484895D01*
X470164192Y-151480928D01*
X470083179Y-151457391D01*
X470083173Y-151457390D01*
X470046447Y-151454500D01*
X470046440Y-151454500D01*
X469819097Y-151454500D01*
X469752058Y-151434815D01*
X469706303Y-151382011D01*
X469696359Y-151312853D01*
X469725384Y-151249297D01*
X469731416Y-151242819D01*
X470022832Y-150951403D01*
X471377046Y-149597187D01*
X471438367Y-149563704D01*
X471508058Y-149568688D01*
X471563992Y-149610560D01*
X471580905Y-149641532D01*
X471581200Y-149642325D01*
X471581206Y-149642335D01*
X471667452Y-149757544D01*
X471667455Y-149757547D01*
X471782664Y-149843793D01*
X471782671Y-149843797D01*
X471917517Y-149894091D01*
X471917516Y-149894091D01*
X471924444Y-149894835D01*
X471977127Y-149900500D01*
X473475499Y-149900499D01*
X473542538Y-149920184D01*
X473588293Y-149972987D01*
X473599499Y-150024499D01*
X473599499Y-150179054D01*
X473599498Y-150179054D01*
X473640423Y-150331785D01*
X473669358Y-150381900D01*
X473669359Y-150381904D01*
X473669360Y-150381904D01*
X473719479Y-150468714D01*
X473719481Y-150468717D01*
X473838349Y-150587585D01*
X473838355Y-150587590D01*
X475213181Y-151962417D01*
X475246666Y-152023740D01*
X475249500Y-152050098D01*
X475249500Y-152697870D01*
X475249501Y-152697876D01*
X475255908Y-152757483D01*
X475306202Y-152892328D01*
X475306206Y-152892335D01*
X475392452Y-153007544D01*
X475392455Y-153007547D01*
X475507664Y-153093793D01*
X475507671Y-153093797D01*
X475642517Y-153144091D01*
X475642516Y-153144091D01*
X475649444Y-153144835D01*
X475702127Y-153150500D01*
X476797872Y-153150499D01*
X476857483Y-153144091D01*
X476992331Y-153093796D01*
X477107546Y-153007546D01*
X477193796Y-152892331D01*
X477244091Y-152757483D01*
X477250500Y-152697873D01*
X477250499Y-151602128D01*
X477244091Y-151542517D01*
X477236516Y-151522208D01*
X477193797Y-151407671D01*
X477193793Y-151407664D01*
X477107547Y-151292455D01*
X477107544Y-151292452D01*
X476992335Y-151206206D01*
X476992328Y-151206202D01*
X476857482Y-151155908D01*
X476857483Y-151155908D01*
X476797883Y-151149501D01*
X476797881Y-151149500D01*
X476797873Y-151149500D01*
X476797865Y-151149500D01*
X476150098Y-151149500D01*
X476083059Y-151129815D01*
X476062417Y-151113181D01*
X474836819Y-149887583D01*
X474803334Y-149826260D01*
X474800500Y-149799902D01*
X474800500Y-149647844D01*
X475250000Y-149647844D01*
X475256401Y-149707372D01*
X475256403Y-149707379D01*
X475306645Y-149842086D01*
X475306649Y-149842093D01*
X475392809Y-149957187D01*
X475392812Y-149957190D01*
X475507906Y-150043350D01*
X475507913Y-150043354D01*
X475642620Y-150093596D01*
X475642627Y-150093598D01*
X475702155Y-150099999D01*
X475702172Y-150100000D01*
X476000000Y-150100000D01*
X476500000Y-150100000D01*
X476797828Y-150100000D01*
X476797844Y-150099999D01*
X476857372Y-150093598D01*
X476857379Y-150093596D01*
X476992086Y-150043354D01*
X476992093Y-150043350D01*
X477107187Y-149957190D01*
X477107190Y-149957187D01*
X477193350Y-149842093D01*
X477193354Y-149842086D01*
X477243596Y-149707379D01*
X477243598Y-149707372D01*
X477249999Y-149647844D01*
X477250000Y-149647827D01*
X477250000Y-149350000D01*
X476500000Y-149350000D01*
X476500000Y-150100000D01*
X476000000Y-150100000D01*
X476000000Y-149350000D01*
X475250000Y-149350000D01*
X475250000Y-149647844D01*
X474800500Y-149647844D01*
X474800500Y-149050272D01*
X476000000Y-149050272D01*
X476000000Y-149149728D01*
X476038060Y-149241614D01*
X476108386Y-149311940D01*
X476200272Y-149350000D01*
X476299728Y-149350000D01*
X476391614Y-149311940D01*
X476461940Y-149241614D01*
X476500000Y-149149728D01*
X476500000Y-149050272D01*
X476461940Y-148958386D01*
X476391614Y-148888060D01*
X476299728Y-148850000D01*
X476500000Y-148850000D01*
X477250000Y-148850000D01*
X477250000Y-148552172D01*
X477249999Y-148552155D01*
X477243598Y-148492627D01*
X477243596Y-148492620D01*
X477193354Y-148357913D01*
X477193350Y-148357906D01*
X477107190Y-148242812D01*
X477107187Y-148242809D01*
X476992093Y-148156649D01*
X476992086Y-148156645D01*
X476857379Y-148106403D01*
X476857372Y-148106401D01*
X476797844Y-148100000D01*
X476500000Y-148100000D01*
X476500000Y-148850000D01*
X476299728Y-148850000D01*
X476200272Y-148850000D01*
X476108386Y-148888060D01*
X476038060Y-148958386D01*
X476000000Y-149050272D01*
X474800500Y-149050272D01*
X474800500Y-148552155D01*
X475250000Y-148552155D01*
X475250000Y-148850000D01*
X476000000Y-148850000D01*
X476000000Y-148100000D01*
X475702155Y-148100000D01*
X475642627Y-148106401D01*
X475642620Y-148106403D01*
X475507913Y-148156645D01*
X475507906Y-148156649D01*
X475392812Y-148242809D01*
X475392809Y-148242812D01*
X475306649Y-148357906D01*
X475306645Y-148357913D01*
X475256403Y-148492620D01*
X475256401Y-148492627D01*
X475250000Y-148552155D01*
X474800500Y-148552155D01*
X474800500Y-145948756D01*
X474820185Y-145881717D01*
X474836815Y-145861079D01*
X475037820Y-145660074D01*
X475099142Y-145626590D01*
X475168834Y-145631574D01*
X475224767Y-145673446D01*
X475249184Y-145738910D01*
X475249500Y-145747756D01*
X475249500Y-146597870D01*
X475249501Y-146597876D01*
X475255908Y-146657483D01*
X475306202Y-146792328D01*
X475306206Y-146792335D01*
X475392452Y-146907544D01*
X475392455Y-146907547D01*
X475507662Y-146993792D01*
X475507671Y-146993797D01*
X475642517Y-147044091D01*
X475642516Y-147044091D01*
X475649444Y-147044835D01*
X475702127Y-147050500D01*
X476797872Y-147050499D01*
X476857483Y-147044091D01*
X476992331Y-146993796D01*
X476992333Y-146993794D01*
X476992338Y-146993792D01*
X477074574Y-146932228D01*
X477107546Y-146907546D01*
X477193796Y-146792331D01*
X477244091Y-146657483D01*
X477250500Y-146597873D01*
X477250499Y-145502128D01*
X477244091Y-145442517D01*
X477241217Y-145434812D01*
X477193797Y-145307671D01*
X477193793Y-145307664D01*
X477107547Y-145192455D01*
X477107544Y-145192452D01*
X476992335Y-145106206D01*
X476992328Y-145106202D01*
X476857482Y-145055908D01*
X476857483Y-145055908D01*
X476797883Y-145049501D01*
X476797881Y-145049500D01*
X476797873Y-145049500D01*
X476797865Y-145049500D01*
X475947755Y-145049500D01*
X475880716Y-145029815D01*
X475834961Y-144977011D01*
X475825017Y-144907853D01*
X475854042Y-144844297D01*
X475860060Y-144837833D01*
X476887819Y-143810075D01*
X476949142Y-143776590D01*
X477018834Y-143781574D01*
X477074767Y-143823446D01*
X477099184Y-143888910D01*
X477099500Y-143897756D01*
X477099500Y-143978846D01*
X477130261Y-144133489D01*
X477130264Y-144133501D01*
X477190602Y-144279172D01*
X477190609Y-144279185D01*
X477278210Y-144410288D01*
X477278213Y-144410292D01*
X477389707Y-144521786D01*
X477389711Y-144521789D01*
X477520814Y-144609390D01*
X477520827Y-144609397D01*
X477666498Y-144669735D01*
X477666503Y-144669737D01*
X477821153Y-144700499D01*
X477821156Y-144700500D01*
X477821158Y-144700500D01*
X477978844Y-144700500D01*
X477978845Y-144700499D01*
X478133497Y-144669737D01*
X478264720Y-144615383D01*
X478279172Y-144609397D01*
X478279172Y-144609396D01*
X478279179Y-144609394D01*
X478410289Y-144521789D01*
X478521789Y-144410289D01*
X478609394Y-144279179D01*
X478669737Y-144133497D01*
X478700500Y-143978842D01*
X478700500Y-143821158D01*
X478700500Y-143821155D01*
X478700499Y-143821153D01*
X478683574Y-143736068D01*
X478669737Y-143666503D01*
X478657058Y-143635895D01*
X478649590Y-143566426D01*
X478680865Y-143503947D01*
X478706518Y-143482908D01*
X478731156Y-143467712D01*
X478855212Y-143343656D01*
X478947314Y-143194334D01*
X479002499Y-143027797D01*
X479013000Y-142925009D01*
X479012999Y-141874992D01*
X479002499Y-141772203D01*
X478947314Y-141605666D01*
X478855212Y-141456344D01*
X478836549Y-141437681D01*
X478803064Y-141376358D01*
X478808048Y-141306666D01*
X478836549Y-141262319D01*
X478845618Y-141253250D01*
X478855212Y-141243656D01*
X478947314Y-141094334D01*
X479002499Y-140927797D01*
X479013000Y-140825009D01*
X479012999Y-139774992D01*
X479011702Y-139762300D01*
X479002499Y-139672203D01*
X479002498Y-139672200D01*
X478985305Y-139620315D01*
X478947314Y-139505666D01*
X478855212Y-139356344D01*
X478731156Y-139232288D01*
X478638388Y-139175069D01*
X478581836Y-139140187D01*
X478581831Y-139140185D01*
X478549088Y-139129335D01*
X478415297Y-139085001D01*
X478415295Y-139085000D01*
X478312510Y-139074500D01*
X477537498Y-139074500D01*
X477537478Y-139074502D01*
X477468126Y-139081586D01*
X477439588Y-139076280D01*
X477410667Y-139073829D01*
X477405653Y-139069972D01*
X477399434Y-139068816D01*
X477378293Y-139048923D01*
X477355290Y-139031226D01*
X477351863Y-139024053D01*
X477348550Y-139020935D01*
X477338784Y-139000029D01*
X477337072Y-138995248D01*
X477315974Y-138916508D01*
X477298077Y-138849715D01*
X477269139Y-138799595D01*
X477219020Y-138712784D01*
X477107216Y-138600980D01*
X477107215Y-138600979D01*
X477102885Y-138596649D01*
X477102874Y-138596639D01*
X475736319Y-137230084D01*
X475702834Y-137168761D01*
X475700000Y-137142403D01*
X475700000Y-137141499D01*
X476200000Y-137141499D01*
X476449972Y-137141499D01*
X476449986Y-137141498D01*
X476552697Y-137131005D01*
X476719119Y-137075858D01*
X476719124Y-137075856D01*
X476868345Y-136983815D01*
X476992315Y-136859845D01*
X477084356Y-136710624D01*
X477084358Y-136710619D01*
X477139505Y-136544197D01*
X477139506Y-136544190D01*
X477149999Y-136441486D01*
X477150000Y-136441473D01*
X477150000Y-136291500D01*
X476200000Y-136291500D01*
X476200000Y-137141499D01*
X475700000Y-137141499D01*
X475700000Y-136165500D01*
X475719685Y-136098461D01*
X475772489Y-136052706D01*
X475824000Y-136041500D01*
X475950000Y-136041500D01*
X475950000Y-135915500D01*
X475969685Y-135848461D01*
X476022489Y-135802706D01*
X476074000Y-135791500D01*
X477149999Y-135791500D01*
X477149999Y-135641528D01*
X477149998Y-135641513D01*
X477139505Y-135538802D01*
X477084358Y-135372380D01*
X477084356Y-135372375D01*
X476992315Y-135223154D01*
X476898695Y-135129534D01*
X476865210Y-135068211D01*
X476870194Y-134998519D01*
X476898691Y-134954176D01*
X476992712Y-134860156D01*
X477084814Y-134710834D01*
X477139999Y-134544297D01*
X477150500Y-134441509D01*
X477150499Y-133641492D01*
X477139999Y-133538703D01*
X477084814Y-133372166D01*
X476992712Y-133222844D01*
X476868656Y-133098788D01*
X476719334Y-133006686D01*
X476552797Y-132951501D01*
X476552795Y-132951500D01*
X476450016Y-132941000D01*
X476450009Y-132941000D01*
X475750097Y-132941000D01*
X475720656Y-132932355D01*
X475690670Y-132925832D01*
X475685654Y-132922077D01*
X475683058Y-132921315D01*
X475662416Y-132904681D01*
X475523090Y-132765355D01*
X475523088Y-132765352D01*
X475404217Y-132646481D01*
X475404216Y-132646480D01*
X475317404Y-132596360D01*
X475317404Y-132596359D01*
X475317400Y-132596358D01*
X475267285Y-132567423D01*
X475114557Y-132526499D01*
X474956443Y-132526499D01*
X474948847Y-132526499D01*
X474948831Y-132526500D01*
X473637671Y-132526500D01*
X473637655Y-132526499D01*
X473630059Y-132526499D01*
X473471944Y-132526499D01*
X473395580Y-132546961D01*
X473319215Y-132567423D01*
X473319210Y-132567426D01*
X473182291Y-132646475D01*
X473182283Y-132646481D01*
X472937584Y-132891181D01*
X472881285Y-132947480D01*
X472881284Y-132947481D01*
X472877265Y-132951500D01*
X472876731Y-132952034D01*
X472849058Y-132970840D01*
X472849806Y-132972104D01*
X472838109Y-132979020D01*
X472817914Y-132984141D01*
X472815404Y-132985512D01*
X472813148Y-132985350D01*
X472770384Y-132996196D01*
X472711882Y-132979016D01*
X472706898Y-132976069D01*
X472706896Y-132976068D01*
X472549679Y-132930391D01*
X472549673Y-132930390D01*
X472512947Y-132927500D01*
X472512940Y-132927500D01*
X472095097Y-132927500D01*
X472065656Y-132918855D01*
X472035670Y-132912332D01*
X472030654Y-132908577D01*
X472028058Y-132907815D01*
X472007416Y-132891181D01*
X471888590Y-132772355D01*
X471888588Y-132772352D01*
X471769717Y-132653481D01*
X471769716Y-132653480D01*
X471682904Y-132603360D01*
X471682904Y-132603359D01*
X471682900Y-132603358D01*
X471632785Y-132574423D01*
X471480057Y-132533499D01*
X471321943Y-132533499D01*
X471314347Y-132533499D01*
X471314331Y-132533500D01*
X469187671Y-132533500D01*
X469187655Y-132533499D01*
X469180059Y-132533499D01*
X469021944Y-132533499D01*
X468945580Y-132553961D01*
X468869215Y-132574423D01*
X468869210Y-132574426D01*
X468732291Y-132653475D01*
X468732283Y-132653481D01*
X468494584Y-132891181D01*
X468431285Y-132954480D01*
X468431284Y-132954481D01*
X468426731Y-132959034D01*
X468399069Y-132977833D01*
X468399817Y-132979098D01*
X468252183Y-133066408D01*
X468252174Y-133066414D01*
X468136414Y-133182174D01*
X468136408Y-133182182D01*
X468053068Y-133323104D01*
X468053066Y-133323107D01*
X468007391Y-133480320D01*
X468007390Y-133480326D01*
X468004500Y-133517052D01*
X468004500Y-134562947D01*
X468007390Y-134599673D01*
X468007391Y-134599679D01*
X468053066Y-134756892D01*
X468053068Y-134756895D01*
X468136408Y-134897817D01*
X468136414Y-134897825D01*
X468252174Y-135013585D01*
X468252178Y-135013588D01*
X468252180Y-135013590D01*
X468393103Y-135096931D01*
X468393104Y-135096931D01*
X468393107Y-135096933D01*
X468550320Y-135142608D01*
X468550323Y-135142608D01*
X468550325Y-135142609D01*
X468587060Y-135145500D01*
X468587068Y-135145500D01*
X469012932Y-135145500D01*
X469012940Y-135145500D01*
X469049675Y-135142609D01*
X469049677Y-135142608D01*
X469049679Y-135142608D01*
X469206892Y-135096933D01*
X469206893Y-135096932D01*
X469206897Y-135096931D01*
X469211877Y-135093985D01*
X469218558Y-135092290D01*
X469223782Y-135087788D01*
X469251990Y-135083806D01*
X469279600Y-135076801D01*
X469286138Y-135078987D01*
X469292966Y-135078024D01*
X469338122Y-135093985D01*
X469343103Y-135096931D01*
X469343104Y-135096931D01*
X469343107Y-135096933D01*
X469500320Y-135142608D01*
X469500323Y-135142608D01*
X469500325Y-135142609D01*
X469537060Y-135145500D01*
X469537068Y-135145500D01*
X469962932Y-135145500D01*
X469962940Y-135145500D01*
X469999675Y-135142609D01*
X469999677Y-135142608D01*
X469999679Y-135142608D01*
X470156892Y-135096933D01*
X470156893Y-135096932D01*
X470156897Y-135096931D01*
X470161877Y-135093985D01*
X470168401Y-135092330D01*
X470173489Y-135087922D01*
X470201836Y-135083846D01*
X470229600Y-135076801D01*
X470235984Y-135078935D01*
X470242647Y-135077978D01*
X470288122Y-135093985D01*
X470293103Y-135096931D01*
X470293104Y-135096931D01*
X470293107Y-135096933D01*
X470450320Y-135142608D01*
X470450323Y-135142608D01*
X470450325Y-135142609D01*
X470487060Y-135145500D01*
X470487068Y-135145500D01*
X470904903Y-135145500D01*
X470934343Y-135154144D01*
X470964330Y-135160668D01*
X470969345Y-135164422D01*
X470971942Y-135165185D01*
X470992584Y-135181819D01*
X471018083Y-135207318D01*
X471051568Y-135268641D01*
X471046584Y-135338333D01*
X471018083Y-135382680D01*
X470992582Y-135408181D01*
X470931259Y-135441666D01*
X470904901Y-135444500D01*
X470487052Y-135444500D01*
X470450326Y-135447390D01*
X470450320Y-135447391D01*
X470293103Y-135493068D01*
X470293102Y-135493068D01*
X470288113Y-135496019D01*
X470281592Y-135497672D01*
X470276511Y-135502076D01*
X470248157Y-135506152D01*
X470220388Y-135513196D01*
X470213414Y-135511148D01*
X470207353Y-135512020D01*
X470191093Y-135504594D01*
X470161887Y-135496019D01*
X470156896Y-135493068D01*
X469999679Y-135447391D01*
X469999673Y-135447390D01*
X469962947Y-135444500D01*
X469962940Y-135444500D01*
X469537060Y-135444500D01*
X469537052Y-135444500D01*
X469500326Y-135447390D01*
X469500320Y-135447391D01*
X469343104Y-135493067D01*
X469337627Y-135496307D01*
X469330946Y-135498001D01*
X469325727Y-135502501D01*
X469297512Y-135506482D01*
X469269902Y-135513487D01*
X469262754Y-135511388D01*
X469256543Y-135512265D01*
X469240292Y-135504792D01*
X469211388Y-135496305D01*
X469206700Y-135493532D01*
X469206691Y-135493529D01*
X469050001Y-135448005D01*
X469050000Y-135448006D01*
X469050000Y-135719824D01*
X469032733Y-135782944D01*
X469003067Y-135833106D01*
X469003066Y-135833107D01*
X468957391Y-135990320D01*
X468957390Y-135990326D01*
X468954500Y-136027052D01*
X468954500Y-136426000D01*
X468934815Y-136493039D01*
X468882011Y-136538794D01*
X468830500Y-136550000D01*
X468800000Y-136550000D01*
X468800000Y-136676000D01*
X468780315Y-136743039D01*
X468727511Y-136788794D01*
X468676000Y-136800000D01*
X468005001Y-136800000D01*
X468005001Y-137072897D01*
X468007889Y-137109597D01*
X468053529Y-137266692D01*
X468053531Y-137266697D01*
X468134522Y-137403646D01*
X468151705Y-137471370D01*
X468129545Y-137537633D01*
X468075079Y-137581396D01*
X468005599Y-137588765D01*
X467943164Y-137557401D01*
X467940109Y-137554448D01*
X467868345Y-137482684D01*
X467719124Y-137390643D01*
X467719119Y-137390641D01*
X467552697Y-137335494D01*
X467552690Y-137335493D01*
X467449986Y-137325000D01*
X467312500Y-137325000D01*
X467312500Y-139774999D01*
X467449972Y-139774999D01*
X467449986Y-139774998D01*
X467552695Y-139764506D01*
X467566533Y-139759920D01*
X467636361Y-139757515D01*
X467696405Y-139793243D01*
X467727601Y-139855762D01*
X467720044Y-139925222D01*
X467703920Y-139953108D01*
X467687304Y-139974762D01*
X467687300Y-139974769D01*
X467629313Y-140114763D01*
X467629313Y-140114765D01*
X467626559Y-140135685D01*
X467598293Y-140199581D01*
X467539969Y-140238053D01*
X467503620Y-140243500D01*
X465745876Y-140243500D01*
X465678837Y-140223815D01*
X465633082Y-140171011D01*
X465622937Y-140135686D01*
X465620199Y-140114895D01*
X465620198Y-140114891D01*
X465562263Y-139975021D01*
X465470094Y-139854905D01*
X465349978Y-139762736D01*
X465210108Y-139704801D01*
X465210104Y-139704800D01*
X465097697Y-139690000D01*
X464400000Y-139690000D01*
X464400000Y-140366000D01*
X464380315Y-140433039D01*
X464327511Y-140478794D01*
X464276000Y-140490000D01*
X464024000Y-140490000D01*
X463956961Y-140470315D01*
X463911206Y-140417511D01*
X463900000Y-140366000D01*
X463900000Y-139690000D01*
X463223999Y-139690000D01*
X463156960Y-139670315D01*
X463111205Y-139617511D01*
X463099999Y-139566000D01*
X463099999Y-139350028D01*
X463099998Y-139350013D01*
X463089505Y-139247302D01*
X463034358Y-139080880D01*
X463034356Y-139080875D01*
X463030724Y-139074986D01*
X465975001Y-139074986D01*
X465985494Y-139177697D01*
X466040641Y-139344119D01*
X466040643Y-139344124D01*
X466132684Y-139493345D01*
X466256654Y-139617315D01*
X466405875Y-139709356D01*
X466405880Y-139709358D01*
X466572302Y-139764505D01*
X466572309Y-139764506D01*
X466675019Y-139774999D01*
X466812499Y-139774999D01*
X466812500Y-139774998D01*
X466812500Y-138800000D01*
X465975001Y-138800000D01*
X465975001Y-139074986D01*
X463030724Y-139074986D01*
X462942315Y-138931654D01*
X462818345Y-138807684D01*
X462669124Y-138715643D01*
X462669119Y-138715641D01*
X462502697Y-138660494D01*
X462502690Y-138660493D01*
X462399986Y-138650000D01*
X462150000Y-138650000D01*
X462150000Y-139626000D01*
X462130315Y-139693039D01*
X462077511Y-139738794D01*
X462026000Y-139750000D01*
X461774000Y-139750000D01*
X461706961Y-139730315D01*
X461661206Y-139677511D01*
X461650000Y-139626000D01*
X461650000Y-138650000D01*
X461400029Y-138650000D01*
X461400012Y-138650001D01*
X461297302Y-138660494D01*
X461130880Y-138715641D01*
X461130875Y-138715643D01*
X460981654Y-138807684D01*
X460857683Y-138931655D01*
X460853202Y-138937323D01*
X460851996Y-138936369D01*
X460806287Y-138977481D01*
X460737324Y-138988701D01*
X460673243Y-138960856D01*
X460634389Y-138902786D01*
X460633098Y-138832928D01*
X460638139Y-138818205D01*
X460659648Y-138766276D01*
X460659649Y-138766274D01*
X460670843Y-138710000D01*
X459816988Y-138710000D01*
X459834205Y-138700060D01*
X459890060Y-138644205D01*
X459929556Y-138575796D01*
X459950000Y-138499496D01*
X459950000Y-138420504D01*
X459929556Y-138344204D01*
X459890060Y-138275795D01*
X459834205Y-138219940D01*
X459816988Y-138210000D01*
X460670843Y-138210000D01*
X460659649Y-138153725D01*
X460659648Y-138153723D01*
X460624686Y-138069317D01*
X460606335Y-138025013D01*
X465975000Y-138025013D01*
X465975000Y-138300000D01*
X466812500Y-138300000D01*
X466812500Y-137325000D01*
X466675027Y-137325000D01*
X466675012Y-137325001D01*
X466572302Y-137335494D01*
X466405880Y-137390641D01*
X466405875Y-137390643D01*
X466256654Y-137482684D01*
X466132684Y-137606654D01*
X466040643Y-137755875D01*
X466040641Y-137755880D01*
X465985494Y-137922302D01*
X465985493Y-137922309D01*
X465975000Y-138025013D01*
X460606335Y-138025013D01*
X460580499Y-137962640D01*
X460580494Y-137962631D01*
X460465589Y-137790664D01*
X460465586Y-137790660D01*
X460319339Y-137644413D01*
X460319335Y-137644410D01*
X460147368Y-137529505D01*
X460147358Y-137529500D01*
X459956274Y-137450350D01*
X459956266Y-137450348D01*
X459753420Y-137410000D01*
X459600000Y-137410000D01*
X459600000Y-138160000D01*
X459100000Y-138160000D01*
X459100000Y-137410000D01*
X458946579Y-137410000D01*
X458743733Y-137450348D01*
X458743725Y-137450350D01*
X458552641Y-137529500D01*
X458552631Y-137529505D01*
X458380664Y-137644410D01*
X458380660Y-137644413D01*
X458234413Y-137790660D01*
X458234410Y-137790664D01*
X458119505Y-137962631D01*
X458119500Y-137962641D01*
X458040351Y-138153723D01*
X458040350Y-138153725D01*
X458029157Y-138210000D01*
X458883012Y-138210000D01*
X458865795Y-138219940D01*
X458809940Y-138275795D01*
X458770444Y-138344204D01*
X458750000Y-138420504D01*
X458750000Y-138499496D01*
X458770444Y-138575796D01*
X458809940Y-138644205D01*
X458865795Y-138700060D01*
X458883012Y-138710000D01*
X458029157Y-138710000D01*
X458040350Y-138766274D01*
X458040351Y-138766276D01*
X458119500Y-138957358D01*
X458119505Y-138957368D01*
X458234410Y-139129335D01*
X458234413Y-139129339D01*
X458380659Y-139275585D01*
X458400741Y-139289003D01*
X458445547Y-139342615D01*
X458454256Y-139411940D01*
X458437969Y-139456256D01*
X458386982Y-139540599D01*
X458386980Y-139540603D01*
X458336409Y-139702893D01*
X458330000Y-139773427D01*
X458330000Y-139780000D01*
X459180000Y-139780000D01*
X459180000Y-139640000D01*
X459161709Y-139621709D01*
X459156961Y-139620315D01*
X459111206Y-139567511D01*
X459100000Y-139516000D01*
X459100000Y-138760000D01*
X459600000Y-138760000D01*
X459600000Y-139000000D01*
X459618290Y-139018290D01*
X459623039Y-139019685D01*
X459668794Y-139072489D01*
X459680000Y-139124000D01*
X459680000Y-139906000D01*
X459660315Y-139973039D01*
X459607511Y-140018794D01*
X459556000Y-140030000D01*
X459430000Y-140030000D01*
X459430000Y-140156000D01*
X459410315Y-140223039D01*
X459357511Y-140268794D01*
X459306000Y-140280000D01*
X458330001Y-140280000D01*
X458330001Y-140286582D01*
X458336408Y-140357102D01*
X458336409Y-140357107D01*
X458386981Y-140519398D01*
X458386982Y-140519400D01*
X458427703Y-140586761D01*
X458445539Y-140654315D01*
X458427704Y-140715058D01*
X458385710Y-140784525D01*
X458335822Y-140944623D01*
X458330763Y-141000291D01*
X458329511Y-141014084D01*
X458329500Y-141014201D01*
X458329500Y-141201888D01*
X458309815Y-141268927D01*
X458293181Y-141289569D01*
X458048481Y-141534268D01*
X458048479Y-141534271D01*
X458021695Y-141580664D01*
X458021694Y-141580666D01*
X457969423Y-141671200D01*
X457969423Y-141671201D01*
X457928499Y-141823929D01*
X457928499Y-141982043D01*
X457928499Y-141982045D01*
X457928500Y-141992039D01*
X457928500Y-143570344D01*
X457928499Y-143570362D01*
X457928499Y-143736068D01*
X457928498Y-143736068D01*
X453500500Y-143736068D01*
X453500500Y-138210000D01*
X454229157Y-138210000D01*
X455083012Y-138210000D01*
X455065795Y-138219940D01*
X455009940Y-138275795D01*
X454970444Y-138344204D01*
X454950000Y-138420504D01*
X454950000Y-138499496D01*
X454970444Y-138575796D01*
X455009940Y-138644205D01*
X455065795Y-138700060D01*
X455083012Y-138710000D01*
X454229157Y-138710000D01*
X454240350Y-138766274D01*
X454240351Y-138766276D01*
X454319500Y-138957358D01*
X454319505Y-138957368D01*
X454434410Y-139129335D01*
X454434413Y-139129339D01*
X454580660Y-139275586D01*
X454580664Y-139275589D01*
X454752631Y-139390494D01*
X454752641Y-139390499D01*
X454943725Y-139469649D01*
X454943733Y-139469651D01*
X455146579Y-139509999D01*
X455146583Y-139510000D01*
X455300000Y-139510000D01*
X455300000Y-138760000D01*
X455800000Y-138760000D01*
X455800000Y-139510000D01*
X455953417Y-139510000D01*
X455953420Y-139509999D01*
X456156266Y-139469651D01*
X456156274Y-139469649D01*
X456347358Y-139390499D01*
X456347368Y-139390494D01*
X456519335Y-139275589D01*
X456519339Y-139275586D01*
X456665586Y-139129339D01*
X456665589Y-139129335D01*
X456780494Y-138957368D01*
X456780499Y-138957358D01*
X456859648Y-138766276D01*
X456859649Y-138766274D01*
X456870843Y-138710000D01*
X456016988Y-138710000D01*
X456034205Y-138700060D01*
X456090060Y-138644205D01*
X456129556Y-138575796D01*
X456150000Y-138499496D01*
X456150000Y-138420504D01*
X456129556Y-138344204D01*
X456090060Y-138275795D01*
X456034205Y-138219940D01*
X456016988Y-138210000D01*
X456870843Y-138210000D01*
X456859649Y-138153725D01*
X456859648Y-138153723D01*
X456780499Y-137962641D01*
X456780494Y-137962631D01*
X456665589Y-137790664D01*
X456665586Y-137790660D01*
X456519339Y-137644413D01*
X456519335Y-137644410D01*
X456347368Y-137529505D01*
X456347358Y-137529500D01*
X456156274Y-137450350D01*
X456156266Y-137450348D01*
X455953420Y-137410000D01*
X455800000Y-137410000D01*
X455800000Y-138160000D01*
X455300000Y-138160000D01*
X455300000Y-137410000D01*
X455146579Y-137410000D01*
X454943733Y-137450348D01*
X454943725Y-137450350D01*
X454752641Y-137529500D01*
X454752631Y-137529505D01*
X454580664Y-137644410D01*
X454580660Y-137644413D01*
X454434413Y-137790660D01*
X454434410Y-137790664D01*
X454319505Y-137962631D01*
X454319500Y-137962641D01*
X454240351Y-138153723D01*
X454240350Y-138153725D01*
X454229157Y-138210000D01*
X453500500Y-138210000D01*
X453500500Y-135078711D01*
X461699500Y-135078711D01*
X461699500Y-135321288D01*
X461731161Y-135561785D01*
X461793947Y-135796104D01*
X461886713Y-136020060D01*
X461886776Y-136020212D01*
X462008064Y-136230289D01*
X462008066Y-136230292D01*
X462008067Y-136230293D01*
X462155733Y-136422736D01*
X462155739Y-136422743D01*
X462327256Y-136594260D01*
X462327263Y-136594266D01*
X462433781Y-136676000D01*
X462519711Y-136741936D01*
X462729788Y-136863224D01*
X462953900Y-136956054D01*
X463188211Y-137018838D01*
X463368586Y-137042584D01*
X463428711Y-137050500D01*
X463428712Y-137050500D01*
X463671289Y-137050500D01*
X463719388Y-137044167D01*
X463911789Y-137018838D01*
X464146100Y-136956054D01*
X464370212Y-136863224D01*
X464580289Y-136741936D01*
X464772738Y-136594265D01*
X464944265Y-136422738D01*
X465091936Y-136230289D01*
X465209244Y-136027105D01*
X468005000Y-136027105D01*
X468005000Y-136300000D01*
X468550000Y-136300000D01*
X468550000Y-135448006D01*
X468549998Y-135448005D01*
X468393307Y-135493528D01*
X468393304Y-135493530D01*
X468252491Y-135576806D01*
X468252483Y-135576812D01*
X468136812Y-135692483D01*
X468136806Y-135692491D01*
X468053531Y-135833302D01*
X468053529Y-135833307D01*
X468007889Y-135990399D01*
X468007888Y-135990405D01*
X468005000Y-136027105D01*
X465209244Y-136027105D01*
X465213224Y-136020212D01*
X465306054Y-135796100D01*
X465368838Y-135561789D01*
X465400500Y-135321288D01*
X465400500Y-135078712D01*
X465400409Y-135078024D01*
X465376686Y-134897825D01*
X465368838Y-134838211D01*
X465306054Y-134603900D01*
X465213224Y-134379788D01*
X465091936Y-134169711D01*
X464944265Y-133977262D01*
X464944260Y-133977256D01*
X464772743Y-133805739D01*
X464772736Y-133805733D01*
X464580293Y-133658067D01*
X464580292Y-133658066D01*
X464580289Y-133658064D01*
X464373550Y-133538703D01*
X464370214Y-133536777D01*
X464370205Y-133536773D01*
X464146104Y-133443947D01*
X463911785Y-133381161D01*
X463671289Y-133349500D01*
X463671288Y-133349500D01*
X463428712Y-133349500D01*
X463428711Y-133349500D01*
X463188214Y-133381161D01*
X462953895Y-133443947D01*
X462729794Y-133536773D01*
X462729785Y-133536777D01*
X462519706Y-133658067D01*
X462327263Y-133805733D01*
X462327256Y-133805739D01*
X462155739Y-133977256D01*
X462155733Y-133977263D01*
X462008067Y-134169706D01*
X461886777Y-134379785D01*
X461886773Y-134379794D01*
X461793947Y-134603895D01*
X461731161Y-134838214D01*
X461699500Y-135078711D01*
X453500500Y-135078711D01*
X453500500Y-132324500D01*
X453520185Y-132257461D01*
X453572989Y-132211706D01*
X453624500Y-132200500D01*
X479475500Y-132200500D01*
X479542539Y-132220185D01*
G37*
%TD.AperFunction*%
%TD*%
M02*
