%TF.GenerationSoftware,KiCad,Pcbnew,9.0.3*%
%TF.CreationDate,2025-11-23T22:31:57-05:00*%
%TF.ProjectId,Wren,5772656e-2e6b-4696-9361-645f70636258,rev?*%
%TF.SameCoordinates,Original*%
%TF.FileFunction,Soldermask,Top*%
%TF.FilePolarity,Negative*%
%FSLAX46Y46*%
G04 Gerber Fmt 4.6, Leading zero omitted, Abs format (unit mm)*
G04 Created by KiCad (PCBNEW 9.0.3) date 2025-11-23 22:31:57*
%MOMM*%
%LPD*%
G01*
G04 APERTURE LIST*
G04 Aperture macros list*
%AMRoundRect*
0 Rectangle with rounded corners*
0 $1 Rounding radius*
0 $2 $3 $4 $5 $6 $7 $8 $9 X,Y pos of 4 corners*
0 Add a 4 corners polygon primitive as box body*
4,1,4,$2,$3,$4,$5,$6,$7,$8,$9,$2,$3,0*
0 Add four circle primitives for the rounded corners*
1,1,$1+$1,$2,$3*
1,1,$1+$1,$4,$5*
1,1,$1+$1,$6,$7*
1,1,$1+$1,$8,$9*
0 Add four rect primitives between the rounded corners*
20,1,$1+$1,$2,$3,$4,$5,0*
20,1,$1+$1,$4,$5,$6,$7,0*
20,1,$1+$1,$6,$7,$8,$9,0*
20,1,$1+$1,$8,$9,$2,$3,0*%
G04 Aperture macros list end*
%ADD10C,1.750000*%
%ADD11C,4.000000*%
%ADD12C,2.500000*%
%ADD13RoundRect,0.250000X-0.475000X0.337500X-0.475000X-0.337500X0.475000X-0.337500X0.475000X0.337500X0*%
%ADD14RoundRect,0.198500X-0.508500X-0.198500X0.508500X-0.198500X0.508500X0.198500X-0.508500X0.198500X0*%
%ADD15RoundRect,0.250000X-0.337500X-0.475000X0.337500X-0.475000X0.337500X0.475000X-0.337500X0.475000X0*%
%ADD16R,1.000000X1.000000*%
%ADD17C,3.200000*%
%ADD18RoundRect,0.250000X-0.450000X0.350000X-0.450000X-0.350000X0.450000X-0.350000X0.450000X0.350000X0*%
%ADD19RoundRect,0.175000X-0.425000X0.175000X-0.425000X-0.175000X0.425000X-0.175000X0.425000X0.175000X0*%
%ADD20RoundRect,0.190000X0.410000X-0.190000X0.410000X0.190000X-0.410000X0.190000X-0.410000X-0.190000X0*%
%ADD21RoundRect,0.200000X0.400000X-0.200000X0.400000X0.200000X-0.400000X0.200000X-0.400000X-0.200000X0*%
%ADD22RoundRect,0.175000X0.425000X-0.175000X0.425000X0.175000X-0.425000X0.175000X-0.425000X-0.175000X0*%
%ADD23RoundRect,0.190000X-0.410000X0.190000X-0.410000X-0.190000X0.410000X-0.190000X0.410000X0.190000X0*%
%ADD24RoundRect,0.200000X-0.400000X0.200000X-0.400000X-0.200000X0.400000X-0.200000X0.400000X0.200000X0*%
%ADD25O,1.700000X1.100000*%
%ADD26RoundRect,0.198500X0.198500X-0.508500X0.198500X0.508500X-0.198500X0.508500X-0.198500X-0.508500X0*%
%ADD27RoundRect,0.250000X0.350000X0.450000X-0.350000X0.450000X-0.350000X-0.450000X0.350000X-0.450000X0*%
%ADD28RoundRect,0.250000X-0.350000X-0.450000X0.350000X-0.450000X0.350000X0.450000X-0.350000X0.450000X0*%
%ADD29R,1.600000X2.200000*%
%ADD30RoundRect,0.198500X-0.198500X0.508500X-0.198500X-0.508500X0.198500X-0.508500X0.198500X0.508500X0*%
%ADD31C,3.600000*%
%ADD32RoundRect,0.250000X0.475000X-0.337500X0.475000X0.337500X-0.475000X0.337500X-0.475000X-0.337500X0*%
%ADD33RoundRect,0.100500X-0.986500X-0.301500X0.986500X-0.301500X0.986500X0.301500X-0.986500X0.301500X0*%
%ADD34RoundRect,0.102000X-1.206500X-1.651000X1.206500X-1.651000X1.206500X1.651000X-1.206500X1.651000X0*%
%ADD35RoundRect,0.250000X0.337500X0.475000X-0.337500X0.475000X-0.337500X-0.475000X0.337500X-0.475000X0*%
%ADD36RoundRect,0.143397X-0.616603X-0.696603X0.616603X-0.696603X0.616603X0.696603X-0.616603X0.696603X0*%
%ADD37RoundRect,0.250000X0.450000X-0.350000X0.450000X0.350000X-0.450000X0.350000X-0.450000X-0.350000X0*%
%ADD38C,2.109000*%
G04 APERTURE END LIST*
D10*
%TO.C,SW7*%
X252354143Y-152823976D03*
D11*
X257323133Y-153880168D03*
D10*
X262292123Y-154936359D03*
D12*
X254124486Y-150603529D03*
X260863819Y-149439274D03*
%TD*%
D10*
%TO.C,SW17*%
X163262000Y-177377500D03*
D11*
X168342000Y-177377500D03*
D10*
X173422000Y-177377500D03*
D12*
X164532000Y-174837500D03*
X170882000Y-172297500D03*
%TD*%
D10*
%TO.C,SW54*%
X360044929Y-177384623D03*
D11*
X365124929Y-177384623D03*
D10*
X370204929Y-177384623D03*
D12*
X361314929Y-174844623D03*
X367664929Y-172304623D03*
%TD*%
D13*
%TO.C,C76*%
X84865000Y-148912500D03*
X84865000Y-150987500D03*
%TD*%
D14*
%TO.C,U3*%
X467013500Y-152250000D03*
X467013500Y-153200000D03*
X467013500Y-154150000D03*
X469523500Y-154150000D03*
X469523500Y-153200000D03*
X469523500Y-152250000D03*
%TD*%
D10*
%TO.C,SW55*%
X379094929Y-177384623D03*
D11*
X384174929Y-177384623D03*
D10*
X389254929Y-177384623D03*
D12*
X380364929Y-174844623D03*
X386714929Y-172304623D03*
%TD*%
D15*
%TO.C,D142*%
X475850000Y-140300000D03*
X477925000Y-140300000D03*
%TD*%
D16*
%TO.C,J5*%
X476250000Y-146050000D03*
%TD*%
D17*
%TO.C,H1*%
X258000000Y-175000000D03*
%TD*%
D10*
%TO.C,SW50*%
X283757761Y-193200312D03*
D11*
X288726751Y-192144121D03*
D10*
X293695741Y-191087930D03*
D12*
X284471913Y-190451770D03*
X290155054Y-186647036D03*
%TD*%
D10*
%TO.C,SW14*%
X239076524Y-169477288D03*
D11*
X244045514Y-170533480D03*
D10*
X249014504Y-171589671D03*
D12*
X240846867Y-167256841D03*
X247586200Y-166092586D03*
%TD*%
D10*
%TO.C,SW12*%
X201809101Y-161555853D03*
D11*
X206778091Y-162612045D03*
D10*
X211747081Y-163668236D03*
D12*
X203579444Y-159335406D03*
X210318777Y-158171151D03*
%TD*%
D10*
%TO.C,SW67*%
X347580333Y-218585583D03*
D11*
X352549323Y-217529392D03*
D10*
X357518313Y-216473201D03*
D12*
X348294485Y-215837041D03*
X353977626Y-212032307D03*
%TD*%
D10*
%TO.C,SW58*%
X311010591Y-206883106D03*
D11*
X315979581Y-205826915D03*
D10*
X320948571Y-204770724D03*
D12*
X311724743Y-204134564D03*
X317407884Y-200329830D03*
%TD*%
D16*
%TO.C,J6*%
X476250000Y-149100000D03*
%TD*%
D17*
%TO.C,H12*%
X70000000Y-151325000D03*
%TD*%
D10*
%TO.C,SW51*%
X302391473Y-189239594D03*
D11*
X307360463Y-188183403D03*
D10*
X312329453Y-187127212D03*
D12*
X303105625Y-186491052D03*
X308788766Y-182686318D03*
%TD*%
D10*
%TO.C,SW16*%
X144212000Y-177377500D03*
D11*
X149292000Y-177377500D03*
D10*
X154372000Y-177377500D03*
D12*
X145482000Y-174837500D03*
X151832000Y-172297500D03*
%TD*%
D10*
%TO.C,SW37*%
X299128637Y-150981971D03*
D11*
X304097627Y-149925780D03*
D10*
X309066617Y-148869589D03*
D12*
X299842789Y-148233429D03*
X305525930Y-144428695D03*
%TD*%
D17*
%TO.C,H10*%
X425000000Y-172000000D03*
%TD*%
%TO.C,H9*%
X350000000Y-130000000D03*
%TD*%
D10*
%TO.C,SW62*%
X388619929Y-196434623D03*
D11*
X393699929Y-196434623D03*
D10*
X398779929Y-196434623D03*
D12*
X389889929Y-193894623D03*
X396239929Y-191354623D03*
%TD*%
D18*
%TO.C,R1*%
X464215000Y-152150000D03*
X464215000Y-154150000D03*
%TD*%
D15*
%TO.C,C74*%
X471162500Y-138391500D03*
X473237500Y-138391500D03*
%TD*%
%TO.C,D145*%
X89300000Y-137050000D03*
X91375000Y-137050000D03*
%TD*%
D10*
%TO.C,SW53*%
X339658897Y-181318159D03*
D11*
X344627887Y-180261968D03*
D10*
X349596877Y-179205777D03*
D12*
X340373049Y-178569617D03*
X346056190Y-174764883D03*
%TD*%
D19*
%TO.C,J13*%
X72880000Y-139030000D03*
D20*
X72880000Y-141050000D03*
D21*
X72880000Y-142280000D03*
D22*
X72880000Y-140030000D03*
D23*
X72880000Y-138010000D03*
D24*
X72880000Y-136780000D03*
D25*
X72800000Y-135210000D03*
X69000000Y-135210000D03*
X72800000Y-143850000D03*
X69000000Y-143850000D03*
%TD*%
D10*
%TO.C,SW20*%
X221140495Y-185140482D03*
D11*
X226109485Y-186196674D03*
D10*
X231078475Y-187252865D03*
D12*
X222910838Y-182920035D03*
X229650171Y-181755780D03*
%TD*%
D14*
%TO.C,U6*%
X80463500Y-149000000D03*
X80463500Y-149950000D03*
X80463500Y-150900000D03*
X82973500Y-150900000D03*
X82973500Y-149950000D03*
X82973500Y-149000000D03*
%TD*%
D13*
%TO.C,C72*%
X471415000Y-152162500D03*
X471415000Y-154237500D03*
%TD*%
D26*
%TO.C,Q2*%
X82250000Y-133300000D03*
X83200000Y-133300000D03*
X84150000Y-133300000D03*
X84150000Y-130790000D03*
X83200000Y-130790000D03*
X82250000Y-130790000D03*
%TD*%
D10*
%TO.C,SW70*%
X407669929Y-215484623D03*
D11*
X412749929Y-215484623D03*
D10*
X417829929Y-215484623D03*
D12*
X408939929Y-212944623D03*
X415289929Y-210404623D03*
%TD*%
D17*
%TO.C,H8*%
X364000000Y-227000000D03*
%TD*%
%TO.C,H11*%
X77000000Y-131825000D03*
%TD*%
D10*
%TO.C,SW45*%
X312406067Y-167635365D03*
D11*
X317375057Y-166579174D03*
D10*
X322344047Y-165522983D03*
D12*
X313120219Y-164886823D03*
X318803360Y-161082089D03*
%TD*%
D10*
%TO.C,SW59*%
X329644303Y-202922388D03*
D11*
X334613293Y-201866197D03*
D10*
X339582283Y-200810006D03*
D12*
X330358455Y-200173846D03*
X336041596Y-196369112D03*
%TD*%
D17*
%TO.C,H6*%
X273000000Y-162000000D03*
%TD*%
D10*
%TO.C,SW64*%
X291679197Y-230467736D03*
D11*
X296648187Y-229411545D03*
D10*
X301617177Y-228355354D03*
D12*
X292393349Y-227719194D03*
X298076490Y-223914460D03*
%TD*%
D10*
%TO.C,SW36*%
X280494925Y-154942688D03*
D11*
X285463915Y-153886497D03*
D10*
X290432905Y-152830306D03*
D12*
X281209077Y-152194146D03*
X286892218Y-148389412D03*
%TD*%
D10*
%TO.C,SW13*%
X220442812Y-165516570D03*
D11*
X225411802Y-166572762D03*
D10*
X230380792Y-167628953D03*
D12*
X222213155Y-163296123D03*
X228952488Y-162131868D03*
%TD*%
D15*
%TO.C,C78*%
X84612500Y-135141500D03*
X86687500Y-135141500D03*
%TD*%
D17*
%TO.C,H5*%
X193000000Y-129000000D03*
%TD*%
D10*
%TO.C,SW63*%
X407669929Y-196434623D03*
D11*
X412749929Y-196434623D03*
D10*
X417829929Y-196434623D03*
D12*
X408939929Y-193894623D03*
X415289929Y-191354623D03*
%TD*%
D27*
%TO.C,R9*%
X80465000Y-152800000D03*
X78465000Y-152800000D03*
%TD*%
D28*
%TO.C,R4*%
X472062500Y-140350000D03*
X474062500Y-140350000D03*
%TD*%
D10*
%TO.C,SW11*%
X183175389Y-157595135D03*
D11*
X188144379Y-158651327D03*
D10*
X193113369Y-159707518D03*
D12*
X184945732Y-155374688D03*
X191685065Y-154210433D03*
%TD*%
D28*
%TO.C,R3*%
X471250000Y-144300000D03*
X473250000Y-144300000D03*
%TD*%
D10*
%TO.C,SW19*%
X202506783Y-181179764D03*
D11*
X207475773Y-182235956D03*
D10*
X212444763Y-183292147D03*
D12*
X204277126Y-178959317D03*
X211016459Y-177795062D03*
%TD*%
D10*
%TO.C,SW41*%
X375415048Y-139284629D03*
D11*
X380495048Y-139284629D03*
D10*
X385575048Y-139284629D03*
D12*
X376685048Y-136744629D03*
X383035048Y-134204629D03*
%TD*%
D16*
%TO.C,J9*%
X476250000Y-152150000D03*
%TD*%
D10*
%TO.C,SW43*%
X275138643Y-175556800D03*
D11*
X280107633Y-174500609D03*
D10*
X285076623Y-173444418D03*
D12*
X275852795Y-172808258D03*
X281535936Y-169003524D03*
%TD*%
D15*
%TO.C,D146*%
X89300000Y-139150000D03*
X91375000Y-139150000D03*
%TD*%
D29*
%TO.C,L2*%
X86275000Y-145050000D03*
X81475000Y-145050000D03*
%TD*%
D10*
%TO.C,SW9*%
X143512000Y-158327500D03*
D11*
X148592000Y-158327500D03*
D10*
X153672000Y-158327500D03*
D12*
X144782000Y-155787500D03*
X151132000Y-153247500D03*
%TD*%
D10*
%TO.C,SW6*%
X233720431Y-148863258D03*
D11*
X238689421Y-149919450D03*
D10*
X243658411Y-150975641D03*
D12*
X235490774Y-146642811D03*
X242230107Y-145478556D03*
%TD*%
D30*
%TO.C,U4*%
X474200000Y-134033000D03*
X473250000Y-134033000D03*
X472300000Y-134033000D03*
X472300000Y-136543000D03*
X473250000Y-136543000D03*
X474200000Y-136543000D03*
%TD*%
D10*
%TO.C,SW40*%
X356365048Y-137784229D03*
D11*
X361445048Y-137784229D03*
D10*
X366525048Y-137784229D03*
D12*
X357635048Y-135244229D03*
X363985048Y-132704229D03*
%TD*%
D31*
%TO.C,J1*%
X417250000Y-178600000D03*
%TD*%
D10*
%TO.C,SW15*%
X125162000Y-177377500D03*
D11*
X130242000Y-177377500D03*
D10*
X135322000Y-177377500D03*
D12*
X126432000Y-174837500D03*
X132782000Y-172297500D03*
%TD*%
D10*
%TO.C,SW56*%
X398144929Y-177384623D03*
D11*
X403224929Y-177384623D03*
D10*
X408304929Y-177384623D03*
D12*
X399414929Y-174844623D03*
X405764929Y-172304623D03*
%TD*%
D28*
%TO.C,R11*%
X85512500Y-137100000D03*
X87512500Y-137100000D03*
%TD*%
D10*
%TO.C,SW52*%
X321025185Y-185278876D03*
D11*
X325994175Y-184222685D03*
D10*
X330963165Y-183166494D03*
D12*
X321739337Y-182530334D03*
X327422478Y-178725600D03*
%TD*%
D17*
%TO.C,H14*%
X456550000Y-154500000D03*
%TD*%
D32*
%TO.C,C71*%
X462065000Y-154237500D03*
X462065000Y-152162500D03*
%TD*%
D10*
%TO.C,SW26*%
X207862965Y-201793877D03*
D11*
X212831955Y-202850069D03*
D10*
X217800945Y-203906260D03*
D12*
X209633308Y-199573430D03*
X216372641Y-198409175D03*
%TD*%
D10*
%TO.C,SW46*%
X331039779Y-163674647D03*
D11*
X336008769Y-162618456D03*
D10*
X340977759Y-161562265D03*
D12*
X331753931Y-160926105D03*
X337437072Y-157121371D03*
%TD*%
D10*
%TO.C,SW44*%
X293772355Y-171596082D03*
D11*
X298741345Y-170539891D03*
D10*
X303710335Y-169483700D03*
D12*
X294486507Y-168847540D03*
X300169648Y-165042806D03*
%TD*%
D33*
%TO.C,U8*%
X77600000Y-137240000D03*
X77600000Y-138510000D03*
X77600000Y-139780000D03*
X77600000Y-141050000D03*
X82550000Y-141050000D03*
X82550000Y-139780000D03*
X82550000Y-138510000D03*
X82550000Y-137240000D03*
D34*
X80075000Y-139145000D03*
%TD*%
D10*
%TO.C,SW29*%
X130512000Y-215477500D03*
D11*
X135592000Y-215477500D03*
D10*
X140672000Y-215477500D03*
D12*
X131782000Y-212937500D03*
X138132000Y-210397500D03*
%TD*%
D31*
%TO.C,J4*%
X125550000Y-202000000D03*
%TD*%
D10*
%TO.C,SW31*%
X168612000Y-215477500D03*
D11*
X173692000Y-215477500D03*
D10*
X178772000Y-215477500D03*
D12*
X169882000Y-212937500D03*
X176232000Y-210397500D03*
%TD*%
D35*
%TO.C,C73*%
X469137500Y-138550000D03*
X467062500Y-138550000D03*
%TD*%
D17*
%TO.C,H3*%
X186000000Y-225000000D03*
%TD*%
%TO.C,H7*%
X281000000Y-218000000D03*
%TD*%
D10*
%TO.C,SW27*%
X226496677Y-205754595D03*
D11*
X231465667Y-206810787D03*
D10*
X236434657Y-207866978D03*
D12*
X228267020Y-203534148D03*
X235006353Y-202369893D03*
%TD*%
D18*
%TO.C,R5*%
X475950000Y-134041500D03*
X475950000Y-136041500D03*
%TD*%
D32*
%TO.C,C75*%
X75515000Y-150987500D03*
X75515000Y-148912500D03*
%TD*%
D10*
%TO.C,SW24*%
X168612000Y-196427500D03*
D11*
X173692000Y-196427500D03*
D10*
X178772000Y-196427500D03*
D12*
X169882000Y-193887500D03*
X176232000Y-191347500D03*
%TD*%
D30*
%TO.C,U7*%
X87650000Y-130783000D03*
X86700000Y-130783000D03*
X85750000Y-130783000D03*
X85750000Y-133293000D03*
X86700000Y-133293000D03*
X87650000Y-133293000D03*
%TD*%
D10*
%TO.C,SW61*%
X369569929Y-196434623D03*
D11*
X374649929Y-196434623D03*
D10*
X379729929Y-196434623D03*
D12*
X370839929Y-193894623D03*
X377189929Y-191354623D03*
%TD*%
D10*
%TO.C,SW1*%
X138152000Y-139277500D03*
D11*
X143232000Y-139277500D03*
D10*
X148312000Y-139277500D03*
D12*
X139422000Y-136737500D03*
X145772000Y-134197500D03*
%TD*%
D10*
%TO.C,SW38*%
X317762349Y-147021253D03*
D11*
X322731339Y-145965062D03*
D10*
X327700329Y-144908871D03*
D12*
X318476501Y-144272711D03*
X324159642Y-140467977D03*
%TD*%
D10*
%TO.C,SW49*%
X389104929Y-158334623D03*
D11*
X394184929Y-158334623D03*
D10*
X399264929Y-158334623D03*
D12*
X390374929Y-155794623D03*
X396724929Y-153254623D03*
%TD*%
D10*
%TO.C,SW25*%
X189229253Y-197833159D03*
D11*
X194198243Y-198889351D03*
D10*
X199167233Y-199945542D03*
D12*
X190999596Y-195612712D03*
X197738929Y-194448457D03*
%TD*%
D10*
%TO.C,SW10*%
X162562000Y-158327500D03*
D11*
X167642000Y-158327500D03*
D10*
X172722000Y-158327500D03*
D12*
X163832000Y-155787500D03*
X170182000Y-153247500D03*
%TD*%
D16*
%TO.C,J14*%
X89700000Y-148900000D03*
%TD*%
D10*
%TO.C,SW5*%
X215086719Y-144902540D03*
D11*
X220055709Y-145958732D03*
D10*
X225024699Y-147014923D03*
D12*
X216857062Y-142682093D03*
X223596395Y-141517838D03*
%TD*%
D36*
%TO.C,D144*%
X75535000Y-146050000D03*
X79465000Y-146050000D03*
%TD*%
D10*
%TO.C,SW60*%
X348278015Y-198961671D03*
D11*
X353247005Y-197905480D03*
D10*
X358215995Y-196849289D03*
D12*
X348992167Y-196213129D03*
X354675308Y-192408395D03*
%TD*%
D10*
%TO.C,SW68*%
X369569929Y-215484623D03*
D11*
X374649929Y-215484623D03*
D10*
X379729929Y-215484623D03*
D12*
X370839929Y-212944623D03*
X377189929Y-210404623D03*
%TD*%
D28*
%TO.C,R13*%
X85512500Y-139100000D03*
X87512500Y-139100000D03*
%TD*%
D16*
%TO.C,J11*%
X89700000Y-145850000D03*
%TD*%
D10*
%TO.C,SW32*%
X194585235Y-218447171D03*
D11*
X199554225Y-219503363D03*
D10*
X204523215Y-220559554D03*
D12*
X196355578Y-216226724D03*
X203094911Y-215062469D03*
%TD*%
D10*
%TO.C,SW35*%
X250486370Y-230329324D03*
D11*
X255455360Y-231385516D03*
D10*
X260424350Y-232441707D03*
D12*
X252256713Y-228108877D03*
X258996046Y-226944622D03*
%TD*%
D10*
%TO.C,SW65*%
X310312909Y-226507018D03*
D11*
X315281899Y-225450827D03*
D10*
X320250889Y-224394636D03*
D12*
X311027061Y-223758476D03*
X316710202Y-219953742D03*
%TD*%
D17*
%TO.C,H2*%
X263000000Y-218000000D03*
%TD*%
D10*
%TO.C,SW8*%
X124462000Y-158327500D03*
D11*
X129542000Y-158327500D03*
D10*
X134622000Y-158327500D03*
D12*
X125732000Y-155787500D03*
X132082000Y-153247500D03*
%TD*%
D17*
%TO.C,H4*%
X123000000Y-191000000D03*
%TD*%
D10*
%TO.C,SW28*%
X245130388Y-209715312D03*
D11*
X250099378Y-210771504D03*
D10*
X255068368Y-211827695D03*
D12*
X246900731Y-207494865D03*
X253640064Y-206330610D03*
%TD*%
D29*
%TO.C,L1*%
X472825000Y-148300000D03*
X468025000Y-148300000D03*
%TD*%
D10*
%TO.C,SW39*%
X336396061Y-143060535D03*
D11*
X341365051Y-142004344D03*
D10*
X346334041Y-140948153D03*
D12*
X337110213Y-140311993D03*
X342793354Y-136507259D03*
%TD*%
D10*
%TO.C,SW66*%
X328946621Y-222546301D03*
D11*
X333915611Y-221490110D03*
D10*
X338884601Y-220433919D03*
D12*
X329660773Y-219797759D03*
X335343914Y-215993025D03*
%TD*%
D16*
%TO.C,J7*%
X476250000Y-155200000D03*
%TD*%
D10*
%TO.C,SW30*%
X149562000Y-215477500D03*
D11*
X154642000Y-215477500D03*
D10*
X159722000Y-215477500D03*
D12*
X150832000Y-212937500D03*
X157182000Y-210397500D03*
%TD*%
D37*
%TO.C,R7*%
X461900000Y-141750000D03*
X461900000Y-139750000D03*
%TD*%
D10*
%TO.C,SW2*%
X157202000Y-139277500D03*
D11*
X162282000Y-139277500D03*
D10*
X167362000Y-139277500D03*
D12*
X158472000Y-136737500D03*
X164822000Y-134197500D03*
%TD*%
D10*
%TO.C,SW3*%
X176252000Y-137777100D03*
D11*
X181332000Y-137777100D03*
D10*
X186412000Y-137777100D03*
D12*
X177522000Y-135237100D03*
X183872000Y-132697100D03*
%TD*%
D10*
%TO.C,SW21*%
X239774206Y-189101200D03*
D11*
X244743196Y-190157392D03*
D10*
X249712186Y-191213583D03*
D12*
X241544549Y-186880753D03*
X248283882Y-185716498D03*
%TD*%
D10*
%TO.C,SW34*%
X231852659Y-226368606D03*
D11*
X236821649Y-227424798D03*
D10*
X241790639Y-228480989D03*
D12*
X233623002Y-224148159D03*
X240362335Y-222983904D03*
%TD*%
D36*
%TO.C,D141*%
X462085000Y-149300000D03*
X466015000Y-149300000D03*
%TD*%
D10*
%TO.C,SW33*%
X213218947Y-222407889D03*
D11*
X218187937Y-223464081D03*
D10*
X223156927Y-224520272D03*
D12*
X214989290Y-220187442D03*
X221728623Y-219023187D03*
%TD*%
D28*
%TO.C,R6*%
X472062500Y-142350000D03*
X474062500Y-142350000D03*
%TD*%
D10*
%TO.C,SW18*%
X183873071Y-177219047D03*
D11*
X188842061Y-178275239D03*
D10*
X193811051Y-179331430D03*
D12*
X185643414Y-174998600D03*
X192382747Y-173834345D03*
%TD*%
D18*
%TO.C,R12*%
X89400000Y-130791500D03*
X89400000Y-132791500D03*
%TD*%
D10*
%TO.C,SW23*%
X149562000Y-196427500D03*
D11*
X154642000Y-196427500D03*
D10*
X159722000Y-196427500D03*
D12*
X150832000Y-193887500D03*
X157182000Y-191347500D03*
%TD*%
D26*
%TO.C,Q1*%
X468800000Y-136550000D03*
X469750000Y-136550000D03*
X470700000Y-136550000D03*
X470700000Y-134040000D03*
X469750000Y-134040000D03*
X468800000Y-134040000D03*
%TD*%
D27*
%TO.C,R2*%
X467015000Y-156050000D03*
X465015000Y-156050000D03*
%TD*%
D37*
%TO.C,R14*%
X75350000Y-138500000D03*
X75350000Y-136500000D03*
%TD*%
D31*
%TO.C,J2*%
X417250000Y-184250000D03*
%TD*%
D10*
%TO.C,SW4*%
X196453007Y-140941823D03*
D11*
X201421997Y-141998015D03*
D10*
X206390987Y-143054206D03*
D12*
X198223350Y-138721376D03*
X204962683Y-137557121D03*
%TD*%
D10*
%TO.C,SW69*%
X388619929Y-215484623D03*
D11*
X393699929Y-215484623D03*
D10*
X398779929Y-215484623D03*
D12*
X389889929Y-212944623D03*
X396239929Y-210404623D03*
%TD*%
D15*
%TO.C,D143*%
X475850000Y-142400000D03*
X477925000Y-142400000D03*
%TD*%
D28*
%TO.C,R10*%
X84700000Y-141050000D03*
X86700000Y-141050000D03*
%TD*%
D10*
%TO.C,SW22*%
X130512000Y-196427500D03*
D11*
X135592000Y-196427500D03*
D10*
X140672000Y-196427500D03*
D12*
X131782000Y-193887500D03*
X138132000Y-191347500D03*
%TD*%
D16*
%TO.C,J10*%
X89700000Y-142800000D03*
%TD*%
D10*
%TO.C,SW42*%
X394465048Y-139284629D03*
D11*
X399545048Y-139284629D03*
D10*
X404625048Y-139284629D03*
D12*
X395735048Y-136744629D03*
X402085048Y-134204629D03*
%TD*%
D19*
%TO.C,J8*%
X459430000Y-142280000D03*
D20*
X459430000Y-144300000D03*
D21*
X459430000Y-145530000D03*
D22*
X459430000Y-143280000D03*
D23*
X459430000Y-141260000D03*
D24*
X459430000Y-140030000D03*
D25*
X459350000Y-138460000D03*
X455550000Y-138460000D03*
X459350000Y-147100000D03*
X455550000Y-147100000D03*
%TD*%
D31*
%TO.C,J3*%
X125550000Y-196350000D03*
%TD*%
D18*
%TO.C,R8*%
X77665000Y-148900000D03*
X77665000Y-150900000D03*
%TD*%
D10*
%TO.C,SW57*%
X292376879Y-210843824D03*
D11*
X297345869Y-209787633D03*
D10*
X302314859Y-208731442D03*
D12*
X293091031Y-208095282D03*
X298774172Y-204290548D03*
%TD*%
D10*
%TO.C,SW47*%
X349673442Y-159713929D03*
D11*
X354642432Y-158657738D03*
D10*
X359611422Y-157601547D03*
D12*
X350387594Y-156965387D03*
X356070735Y-153160653D03*
%TD*%
D10*
%TO.C,SW48*%
X370054929Y-158334623D03*
D11*
X375134929Y-158334623D03*
D10*
X380214929Y-158334623D03*
D12*
X371324929Y-155794623D03*
X377674929Y-153254623D03*
%TD*%
D33*
%TO.C,U5*%
X464150000Y-140490000D03*
X464150000Y-141760000D03*
X464150000Y-143030000D03*
X464150000Y-144300000D03*
X469100000Y-144300000D03*
X469100000Y-143030000D03*
X469100000Y-141760000D03*
X469100000Y-140490000D03*
D34*
X466625000Y-142395000D03*
%TD*%
D35*
%TO.C,C77*%
X82587500Y-135300000D03*
X80512500Y-135300000D03*
%TD*%
D17*
%TO.C,H13*%
X463550000Y-135200000D03*
%TD*%
D16*
%TO.C,J12*%
X89700000Y-151950000D03*
%TD*%
D38*
%TO.C,U1*%
X119060000Y-147300000D03*
X119060000Y-144760000D03*
X119060000Y-142220000D03*
X119060000Y-139680000D03*
X119060000Y-134600000D03*
X119060000Y-137140000D03*
X134300000Y-129520000D03*
X119060000Y-129520000D03*
X134300000Y-132060000D03*
X134300000Y-134600000D03*
X134300000Y-137140000D03*
X134300000Y-139680000D03*
X134300000Y-142220000D03*
X134300000Y-144760000D03*
X134300000Y-147300000D03*
X119060000Y-132060000D03*
%TD*%
%TO.C,U2*%
X411380000Y-147880000D03*
X411380000Y-145340000D03*
X411380000Y-142800000D03*
X411380000Y-140260000D03*
X411380000Y-135180000D03*
X411380000Y-137720000D03*
X426620000Y-130100000D03*
X411380000Y-130100000D03*
X426620000Y-132640000D03*
X426620000Y-135180000D03*
X426620000Y-137720000D03*
X426620000Y-140260000D03*
X426620000Y-142800000D03*
X426620000Y-145340000D03*
X426620000Y-147880000D03*
X411380000Y-132640000D03*
%TD*%
M02*
