%TF.GenerationSoftware,KiCad,Pcbnew,9.0.3*%
%TF.CreationDate,2025-11-23T22:31:57-05:00*%
%TF.ProjectId,Wren,5772656e-2e6b-4696-9361-645f70636258,rev?*%
%TF.SameCoordinates,Original*%
%TF.FileFunction,Paste,Top*%
%TF.FilePolarity,Positive*%
%FSLAX46Y46*%
G04 Gerber Fmt 4.6, Leading zero omitted, Abs format (unit mm)*
G04 Created by KiCad (PCBNEW 9.0.3) date 2025-11-23 22:31:57*
%MOMM*%
%LPD*%
G01*
G04 APERTURE LIST*
G04 Aperture macros list*
%AMRoundRect*
0 Rectangle with rounded corners*
0 $1 Rounding radius*
0 $2 $3 $4 $5 $6 $7 $8 $9 X,Y pos of 4 corners*
0 Add a 4 corners polygon primitive as box body*
4,1,4,$2,$3,$4,$5,$6,$7,$8,$9,$2,$3,0*
0 Add four circle primitives for the rounded corners*
1,1,$1+$1,$2,$3*
1,1,$1+$1,$4,$5*
1,1,$1+$1,$6,$7*
1,1,$1+$1,$8,$9*
0 Add four rect primitives between the rounded corners*
20,1,$1+$1,$2,$3,$4,$5,0*
20,1,$1+$1,$4,$5,$6,$7,0*
20,1,$1+$1,$6,$7,$8,$9,0*
20,1,$1+$1,$8,$9,$2,$3,0*%
G04 Aperture macros list end*
%ADD10C,0.010000*%
%ADD11RoundRect,0.250000X-0.475000X0.337500X-0.475000X-0.337500X0.475000X-0.337500X0.475000X0.337500X0*%
%ADD12RoundRect,0.147500X-0.457500X-0.147500X0.457500X-0.147500X0.457500X0.147500X-0.457500X0.147500X0*%
%ADD13RoundRect,0.250000X-0.337500X-0.475000X0.337500X-0.475000X0.337500X0.475000X-0.337500X0.475000X0*%
%ADD14RoundRect,0.250000X-0.450000X0.350000X-0.450000X-0.350000X0.450000X-0.350000X0.450000X0.350000X0*%
%ADD15RoundRect,0.175000X-0.425000X0.175000X-0.425000X-0.175000X0.425000X-0.175000X0.425000X0.175000X0*%
%ADD16RoundRect,0.190000X0.410000X-0.190000X0.410000X0.190000X-0.410000X0.190000X-0.410000X-0.190000X0*%
%ADD17RoundRect,0.200000X0.400000X-0.200000X0.400000X0.200000X-0.400000X0.200000X-0.400000X-0.200000X0*%
%ADD18RoundRect,0.175000X0.425000X-0.175000X0.425000X0.175000X-0.425000X0.175000X-0.425000X-0.175000X0*%
%ADD19RoundRect,0.190000X-0.410000X0.190000X-0.410000X-0.190000X0.410000X-0.190000X0.410000X0.190000X0*%
%ADD20RoundRect,0.200000X-0.400000X0.200000X-0.400000X-0.200000X0.400000X-0.200000X0.400000X0.200000X0*%
%ADD21O,1.700000X1.100000*%
%ADD22RoundRect,0.147500X0.147500X-0.457500X0.147500X0.457500X-0.147500X0.457500X-0.147500X-0.457500X0*%
%ADD23RoundRect,0.250000X0.350000X0.450000X-0.350000X0.450000X-0.350000X-0.450000X0.350000X-0.450000X0*%
%ADD24RoundRect,0.250000X-0.350000X-0.450000X0.350000X-0.450000X0.350000X0.450000X-0.350000X0.450000X0*%
%ADD25R,1.600000X2.200000*%
%ADD26RoundRect,0.147500X-0.147500X0.457500X-0.147500X-0.457500X0.147500X-0.457500X0.147500X0.457500X0*%
%ADD27RoundRect,0.250000X0.475000X-0.337500X0.475000X0.337500X-0.475000X0.337500X-0.475000X-0.337500X0*%
%ADD28RoundRect,0.075000X-0.910000X-0.225000X0.910000X-0.225000X0.910000X0.225000X-0.910000X0.225000X0*%
%ADD29RoundRect,0.250000X0.337500X0.475000X-0.337500X0.475000X-0.337500X-0.475000X0.337500X-0.475000X0*%
%ADD30RoundRect,0.143397X-0.616603X-0.696603X0.616603X-0.696603X0.616603X0.696603X-0.616603X0.696603X0*%
%ADD31RoundRect,0.250000X0.450000X-0.350000X0.450000X0.350000X-0.450000X0.350000X-0.450000X-0.350000X0*%
G04 APERTURE END LIST*
D10*
%TO.C,U8*%
X80720000Y-139965000D02*
X79430000Y-139965000D01*
X79430000Y-138325000D01*
X80720000Y-138325000D01*
X80720000Y-139965000D01*
G36*
X80720000Y-139965000D02*
G01*
X79430000Y-139965000D01*
X79430000Y-138325000D01*
X80720000Y-138325000D01*
X80720000Y-139965000D01*
G37*
%TO.C,U5*%
X467270000Y-143215000D02*
X465980000Y-143215000D01*
X465980000Y-141575000D01*
X467270000Y-141575000D01*
X467270000Y-143215000D01*
G36*
X467270000Y-143215000D02*
G01*
X465980000Y-143215000D01*
X465980000Y-141575000D01*
X467270000Y-141575000D01*
X467270000Y-143215000D01*
G37*
%TD*%
D11*
%TO.C,C76*%
X84865000Y-148912500D03*
X84865000Y-150987500D03*
%TD*%
D12*
%TO.C,U3*%
X467013500Y-152250000D03*
X467013500Y-153200000D03*
X467013500Y-154150000D03*
X469523500Y-154150000D03*
X469523500Y-153200000D03*
X469523500Y-152250000D03*
%TD*%
D13*
%TO.C,D142*%
X475850000Y-140300000D03*
X477925000Y-140300000D03*
%TD*%
D14*
%TO.C,R1*%
X464215000Y-152150000D03*
X464215000Y-154150000D03*
%TD*%
D13*
%TO.C,C74*%
X471162500Y-138391500D03*
X473237500Y-138391500D03*
%TD*%
%TO.C,D145*%
X89300000Y-137050000D03*
X91375000Y-137050000D03*
%TD*%
D15*
%TO.C,J13*%
X72880000Y-139030000D03*
D16*
X72880000Y-141050000D03*
D17*
X72880000Y-142280000D03*
D18*
X72880000Y-140030000D03*
D19*
X72880000Y-138010000D03*
D20*
X72880000Y-136780000D03*
D21*
X72800000Y-135210000D03*
X69000000Y-135210000D03*
X72800000Y-143850000D03*
X69000000Y-143850000D03*
%TD*%
D12*
%TO.C,U6*%
X80463500Y-149000000D03*
X80463500Y-149950000D03*
X80463500Y-150900000D03*
X82973500Y-150900000D03*
X82973500Y-149950000D03*
X82973500Y-149000000D03*
%TD*%
D11*
%TO.C,C72*%
X471415000Y-152162500D03*
X471415000Y-154237500D03*
%TD*%
D22*
%TO.C,Q2*%
X82250000Y-133300000D03*
X83200000Y-133300000D03*
X84150000Y-133300000D03*
X84150000Y-130790000D03*
X83200000Y-130790000D03*
X82250000Y-130790000D03*
%TD*%
D13*
%TO.C,C78*%
X84612500Y-135141500D03*
X86687500Y-135141500D03*
%TD*%
D23*
%TO.C,R9*%
X80465000Y-152800000D03*
X78465000Y-152800000D03*
%TD*%
D24*
%TO.C,R4*%
X472062500Y-140350000D03*
X474062500Y-140350000D03*
%TD*%
%TO.C,R3*%
X471250000Y-144300000D03*
X473250000Y-144300000D03*
%TD*%
D13*
%TO.C,D146*%
X89300000Y-139150000D03*
X91375000Y-139150000D03*
%TD*%
D25*
%TO.C,L2*%
X86275000Y-145050000D03*
X81475000Y-145050000D03*
%TD*%
D26*
%TO.C,U4*%
X474200000Y-134033000D03*
X473250000Y-134033000D03*
X472300000Y-134033000D03*
X472300000Y-136543000D03*
X473250000Y-136543000D03*
X474200000Y-136543000D03*
%TD*%
D24*
%TO.C,R11*%
X85512500Y-137100000D03*
X87512500Y-137100000D03*
%TD*%
D27*
%TO.C,C71*%
X462065000Y-154237500D03*
X462065000Y-152162500D03*
%TD*%
D28*
%TO.C,U8*%
X77600000Y-137240000D03*
X77600000Y-138510000D03*
X77600000Y-139780000D03*
X77600000Y-141050000D03*
X82550000Y-141050000D03*
X82550000Y-139780000D03*
X82550000Y-138510000D03*
X82550000Y-137240000D03*
%TD*%
D29*
%TO.C,C73*%
X469137500Y-138550000D03*
X467062500Y-138550000D03*
%TD*%
D14*
%TO.C,R5*%
X475950000Y-134041500D03*
X475950000Y-136041500D03*
%TD*%
D27*
%TO.C,C75*%
X75515000Y-150987500D03*
X75515000Y-148912500D03*
%TD*%
D26*
%TO.C,U7*%
X87650000Y-130783000D03*
X86700000Y-130783000D03*
X85750000Y-130783000D03*
X85750000Y-133293000D03*
X86700000Y-133293000D03*
X87650000Y-133293000D03*
%TD*%
D30*
%TO.C,D144*%
X75535000Y-146050000D03*
X79465000Y-146050000D03*
%TD*%
D24*
%TO.C,R13*%
X85512500Y-139100000D03*
X87512500Y-139100000D03*
%TD*%
D25*
%TO.C,L1*%
X472825000Y-148300000D03*
X468025000Y-148300000D03*
%TD*%
D31*
%TO.C,R7*%
X461900000Y-141750000D03*
X461900000Y-139750000D03*
%TD*%
D30*
%TO.C,D141*%
X462085000Y-149300000D03*
X466015000Y-149300000D03*
%TD*%
D24*
%TO.C,R6*%
X472062500Y-142350000D03*
X474062500Y-142350000D03*
%TD*%
D14*
%TO.C,R12*%
X89400000Y-130791500D03*
X89400000Y-132791500D03*
%TD*%
D22*
%TO.C,Q1*%
X468800000Y-136550000D03*
X469750000Y-136550000D03*
X470700000Y-136550000D03*
X470700000Y-134040000D03*
X469750000Y-134040000D03*
X468800000Y-134040000D03*
%TD*%
D23*
%TO.C,R2*%
X467015000Y-156050000D03*
X465015000Y-156050000D03*
%TD*%
D31*
%TO.C,R14*%
X75350000Y-138500000D03*
X75350000Y-136500000D03*
%TD*%
D13*
%TO.C,D143*%
X475850000Y-142400000D03*
X477925000Y-142400000D03*
%TD*%
D24*
%TO.C,R10*%
X84700000Y-141050000D03*
X86700000Y-141050000D03*
%TD*%
D15*
%TO.C,J8*%
X459430000Y-142280000D03*
D16*
X459430000Y-144300000D03*
D17*
X459430000Y-145530000D03*
D18*
X459430000Y-143280000D03*
D19*
X459430000Y-141260000D03*
D20*
X459430000Y-140030000D03*
D21*
X459350000Y-138460000D03*
X455550000Y-138460000D03*
X459350000Y-147100000D03*
X455550000Y-147100000D03*
%TD*%
D14*
%TO.C,R8*%
X77665000Y-148900000D03*
X77665000Y-150900000D03*
%TD*%
D28*
%TO.C,U5*%
X464150000Y-140490000D03*
X464150000Y-141760000D03*
X464150000Y-143030000D03*
X464150000Y-144300000D03*
X469100000Y-144300000D03*
X469100000Y-143030000D03*
X469100000Y-141760000D03*
X469100000Y-140490000D03*
%TD*%
D29*
%TO.C,C77*%
X82587500Y-135300000D03*
X80512500Y-135300000D03*
%TD*%
M02*
