%TF.GenerationSoftware,KiCad,Pcbnew,9.0.3*%
%TF.CreationDate,2025-11-23T22:31:57-05:00*%
%TF.ProjectId,Wren,5772656e-2e6b-4696-9361-645f70636258,rev?*%
%TF.SameCoordinates,Original*%
%TF.FileFunction,Profile,NP*%
%FSLAX46Y46*%
G04 Gerber Fmt 4.6, Leading zero omitted, Abs format (unit mm)*
G04 Created by KiCad (PCBNEW 9.0.3) date 2025-11-23 22:31:57*
%MOMM*%
%LPD*%
G01*
G04 APERTURE LIST*
%TA.AperFunction,Profile*%
%ADD10C,0.050000*%
%TD*%
%TA.AperFunction,Profile*%
%ADD11C,0.120000*%
%TD*%
G04 APERTURE END LIST*
D10*
X116000000Y-125000000D02*
X116000000Y-153000000D01*
X180000000Y-228000000D02*
X265000000Y-246000000D01*
X425000000Y-232000000D02*
X430000000Y-151000000D01*
X267000000Y-170000000D02*
X277000000Y-222000000D01*
X123000000Y-228000000D02*
X180000000Y-228000000D01*
X270000000Y-142000000D02*
X191000000Y-125000000D01*
X116000000Y-125000000D02*
X137000000Y-125000000D01*
X270000000Y-142000000D02*
X259000000Y-194000000D01*
X116000000Y-153000000D02*
X123000000Y-228000000D01*
X66450000Y-128450000D02*
X93550000Y-128450000D01*
X93550000Y-154900000D01*
X66450000Y-154900000D01*
X66450000Y-128450000D01*
X430000000Y-151000000D02*
X430000000Y-125000000D01*
X137000000Y-125000000D02*
X191000000Y-125000000D01*
X290000000Y-246000000D02*
X366000000Y-231000000D01*
X453000000Y-131700000D02*
X480100000Y-131700000D01*
X480100000Y-158150000D01*
X453000000Y-158150000D01*
X453000000Y-131700000D01*
X273000000Y-142000000D02*
X267000000Y-170000000D01*
X430000000Y-125000000D02*
X357000000Y-125000000D01*
X270000000Y-223000000D02*
X259000000Y-194000000D01*
X366000000Y-231000000D02*
X425000000Y-232000000D01*
X277000000Y-222000000D02*
X290000000Y-246000000D01*
X270000000Y-223000000D02*
X265000000Y-246000000D01*
X273000000Y-142000000D02*
X357000000Y-125000000D01*
D11*
%TO.C,D112*%
X397845048Y-143109629D02*
X397845048Y-146109629D01*
X397845048Y-146109629D02*
X401245048Y-146109629D01*
X401245048Y-143109629D02*
X397845048Y-143109629D01*
X401245048Y-146109629D02*
X401245048Y-143109629D01*
%TO.C,D47*%
X203696244Y-168934452D02*
X207021944Y-169641351D01*
X204319978Y-166000009D02*
X203696244Y-168934452D01*
X207021944Y-169641351D02*
X207645678Y-166706908D01*
X207645678Y-166706908D02*
X204319978Y-166000009D01*
%TO.C,D139*%
X391999929Y-219309623D02*
X391999929Y-222309623D01*
X391999929Y-222309623D02*
X395399929Y-222309623D01*
X395399929Y-219309623D02*
X391999929Y-219309623D01*
X395399929Y-222309623D02*
X395399929Y-219309623D01*
%TO.C,D60*%
X191116396Y-205211759D02*
X194442096Y-205918658D01*
X191740130Y-202277316D02*
X191116396Y-205211759D01*
X194442096Y-205918658D02*
X195065830Y-202984215D01*
X195065830Y-202984215D02*
X191740130Y-202277316D01*
%TO.C,D127*%
X296478282Y-213882497D02*
X297102016Y-216816940D01*
X297102016Y-216816940D02*
X300427716Y-216110041D01*
X299803982Y-213175598D02*
X296478282Y-213882497D01*
X300427716Y-216110041D02*
X299803982Y-213175598D01*
%TO.C,D140*%
X411049929Y-219309623D02*
X411049929Y-222309623D01*
X411049929Y-222309623D02*
X414449929Y-222309623D01*
X414449929Y-219309623D02*
X411049929Y-219309623D01*
X414449929Y-222309623D02*
X414449929Y-219309623D01*
%TO.C,D55*%
X223027638Y-192519082D02*
X226353338Y-193225981D01*
X223651372Y-189584639D02*
X223027638Y-192519082D01*
X226353338Y-193225981D02*
X226977072Y-190291538D01*
X226977072Y-190291538D02*
X223651372Y-189584639D01*
%TO.C,D109*%
X340497463Y-146099208D02*
X341121197Y-149033651D01*
X341121197Y-149033651D02*
X344446897Y-148326752D01*
X343823163Y-145392309D02*
X340497463Y-146099208D01*
X344446897Y-148326752D02*
X343823163Y-145392309D01*
%TO.C,D67*%
X196472378Y-225825771D02*
X199798078Y-226532670D01*
X197096112Y-222891328D02*
X196472378Y-225825771D01*
X199798078Y-226532670D02*
X200421812Y-223598227D01*
X200421812Y-223598227D02*
X197096112Y-222891328D01*
%TO.C,D124*%
X363424929Y-181209623D02*
X363424929Y-184209623D01*
X363424929Y-184209623D02*
X366824929Y-184209623D01*
X366824929Y-181209623D02*
X363424929Y-181209623D01*
X366824929Y-184209623D02*
X366824929Y-181209623D01*
%TO.C,D59*%
X171992000Y-200252500D02*
X171992000Y-203252500D01*
X171992000Y-203252500D02*
X175392000Y-203252500D01*
X175392000Y-200252500D02*
X171992000Y-200252500D01*
X175392000Y-203252500D02*
X175392000Y-200252500D01*
%TO.C,D133*%
X411049929Y-200259623D02*
X411049929Y-203259623D01*
X411049929Y-203259623D02*
X414449929Y-203259623D01*
X414449929Y-200259623D02*
X411049929Y-200259623D01*
X414449929Y-203259623D02*
X414449929Y-200259623D01*
%TO.C,D36*%
X141532000Y-143102500D02*
X141532000Y-146102500D01*
X141532000Y-146102500D02*
X144932000Y-146102500D01*
X144932000Y-143102500D02*
X141532000Y-143102500D01*
X144932000Y-146102500D02*
X144932000Y-143102500D01*
%TO.C,D69*%
X233739802Y-233747206D02*
X237065502Y-234454105D01*
X234363536Y-230812763D02*
X233739802Y-233747206D01*
X237065502Y-234454105D02*
X237689236Y-231519662D01*
X237689236Y-231519662D02*
X234363536Y-230812763D01*
%TO.C,D46*%
X185062532Y-164973735D02*
X188388232Y-165680634D01*
X185686266Y-162039292D02*
X185062532Y-164973735D01*
X188388232Y-165680634D02*
X189011966Y-162746191D01*
X189011966Y-162746191D02*
X185686266Y-162039292D01*
%TO.C,D68*%
X215106090Y-229786488D02*
X218431790Y-230493387D01*
X215729824Y-226852045D02*
X215106090Y-229786488D01*
X218431790Y-230493387D02*
X219055524Y-227558944D01*
X219055524Y-227558944D02*
X215729824Y-226852045D01*
%TO.C,D116*%
X335141181Y-166713320D02*
X335764915Y-169647763D01*
X335764915Y-169647763D02*
X339090615Y-168940864D01*
X338466881Y-166006421D02*
X335141181Y-166713320D01*
X339090615Y-168940864D02*
X338466881Y-166006421D01*
%TO.C,D48*%
X222329956Y-172895170D02*
X225655656Y-173602069D01*
X222953690Y-169960727D02*
X222329956Y-172895170D01*
X225655656Y-173602069D02*
X226279390Y-170667626D01*
X226279390Y-170667626D02*
X222953690Y-169960727D01*
%TO.C,D131*%
X372949929Y-200259623D02*
X372949929Y-203259623D01*
X372949929Y-203259623D02*
X376349929Y-203259623D01*
X376349929Y-200259623D02*
X372949929Y-200259623D01*
X376349929Y-203259623D02*
X376349929Y-200259623D01*
%TO.C,D49*%
X240963667Y-176855888D02*
X244289367Y-177562787D01*
X241587401Y-173921445D02*
X240963667Y-176855888D01*
X244289367Y-177562787D02*
X244913101Y-174628344D01*
X244913101Y-174628344D02*
X241587401Y-173921445D01*
%TO.C,D138*%
X372949929Y-219309623D02*
X372949929Y-222309623D01*
X372949929Y-222309623D02*
X376349929Y-222309623D01*
X376349929Y-219309623D02*
X372949929Y-219309623D01*
X376349929Y-222309623D02*
X376349929Y-219309623D01*
%TO.C,D118*%
X373434929Y-162159623D02*
X373434929Y-165159623D01*
X373434929Y-165159623D02*
X376834929Y-165159623D01*
X376834929Y-162159623D02*
X373434929Y-162159623D01*
X376834929Y-165159623D02*
X376834929Y-162159623D01*
%TO.C,D66*%
X171992000Y-219302500D02*
X171992000Y-222302500D01*
X171992000Y-222302500D02*
X175392000Y-222302500D01*
X175392000Y-219302500D02*
X171992000Y-219302500D01*
X175392000Y-222302500D02*
X175392000Y-219302500D01*
%TO.C,D114*%
X297873757Y-174634755D02*
X298497491Y-177569198D01*
X298497491Y-177569198D02*
X301823191Y-176862299D01*
X301199457Y-173927856D02*
X297873757Y-174634755D01*
X301823191Y-176862299D02*
X301199457Y-173927856D01*
%TO.C,D62*%
X228383820Y-213133194D02*
X231709520Y-213840093D01*
X229007554Y-210198751D02*
X228383820Y-213133194D01*
X231709520Y-213840093D02*
X232333254Y-210905650D01*
X232333254Y-210905650D02*
X229007554Y-210198751D01*
%TO.C,D137*%
X351681735Y-221624256D02*
X352305469Y-224558699D01*
X352305469Y-224558699D02*
X355631169Y-223851800D01*
X355007435Y-220917357D02*
X351681735Y-221624256D01*
X355631169Y-223851800D02*
X355007435Y-220917357D01*
%TO.C,D120*%
X287859164Y-196238985D02*
X288482898Y-199173428D01*
X288482898Y-199173428D02*
X291808598Y-198466529D01*
X291184864Y-195532086D02*
X287859164Y-196238985D01*
X291808598Y-198466529D02*
X291184864Y-195532086D01*
%TO.C,D130*%
X352379417Y-202000344D02*
X353003151Y-204934787D01*
X353003151Y-204934787D02*
X356328851Y-204227888D01*
X355705117Y-201293445D02*
X352379417Y-202000344D01*
X356328851Y-204227888D02*
X355705117Y-201293445D01*
%TO.C,D42*%
X254241286Y-160202576D02*
X257566986Y-160909475D01*
X254865020Y-157268133D02*
X254241286Y-160202576D01*
X257566986Y-160909475D02*
X258190720Y-157975032D01*
X258190720Y-157975032D02*
X254865020Y-157268133D01*
%TO.C,D107*%
X303230040Y-154020644D02*
X303853774Y-156955087D01*
X303853774Y-156955087D02*
X307179474Y-156248188D01*
X306555740Y-153313745D02*
X303230040Y-154020644D01*
X307179474Y-156248188D02*
X306555740Y-153313745D01*
%TO.C,D123*%
X343760299Y-184356832D02*
X344384033Y-187291275D01*
X344384033Y-187291275D02*
X347709733Y-186584376D01*
X347085999Y-183649933D02*
X343760299Y-184356832D01*
X347709733Y-186584376D02*
X347085999Y-183649933D01*
%TO.C,D128*%
X315111993Y-209921779D02*
X315735727Y-212856222D01*
X315735727Y-212856222D02*
X319061427Y-212149323D01*
X318437693Y-209214880D02*
X315111993Y-209921779D01*
X319061427Y-212149323D02*
X318437693Y-209214880D01*
%TO.C,D113*%
X279240046Y-178595473D02*
X279863780Y-181529916D01*
X279863780Y-181529916D02*
X283189480Y-180823017D01*
X282565746Y-177888574D02*
X279240046Y-178595473D01*
X283189480Y-180823017D02*
X282565746Y-177888574D01*
%TO.C,D108*%
X321863751Y-150059926D02*
X322487485Y-152994369D01*
X322487485Y-152994369D02*
X325813185Y-152287470D01*
X325189451Y-149353027D02*
X321863751Y-150059926D01*
X325813185Y-152287470D02*
X325189451Y-149353027D01*
%TO.C,D41*%
X235607574Y-156241858D02*
X238933274Y-156948757D01*
X236231308Y-153307415D02*
X235607574Y-156241858D01*
X238933274Y-156948757D02*
X239557008Y-154014314D01*
X239557008Y-154014314D02*
X236231308Y-153307415D01*
%TO.C,D40*%
X216973862Y-152281140D02*
X220299562Y-152988039D01*
X217597596Y-149346697D02*
X216973862Y-152281140D01*
X220299562Y-152988039D02*
X220923296Y-150053596D01*
X220923296Y-150053596D02*
X217597596Y-149346697D01*
%TO.C,D45*%
X165942000Y-162152500D02*
X165942000Y-165152500D01*
X165942000Y-165152500D02*
X169342000Y-165152500D01*
X169342000Y-162152500D02*
X165942000Y-162152500D01*
X169342000Y-165152500D02*
X169342000Y-162152500D01*
%TO.C,D39*%
X198340151Y-148320422D02*
X201665851Y-149027321D01*
X198963885Y-145385979D02*
X198340151Y-148320422D01*
X201665851Y-149027321D02*
X202289585Y-146092878D01*
X202289585Y-146092878D02*
X198963885Y-145385979D01*
%TO.C,D117*%
X353774845Y-162752602D02*
X354398579Y-165687045D01*
X354398579Y-165687045D02*
X357724279Y-164980146D01*
X357100545Y-162045703D02*
X353774845Y-162752602D01*
X357724279Y-164980146D02*
X357100545Y-162045703D01*
%TO.C,D132*%
X391999929Y-200259623D02*
X391999929Y-203259623D01*
X391999929Y-203259623D02*
X395399929Y-203259623D01*
X395399929Y-200259623D02*
X391999929Y-200259623D01*
X395399929Y-203259623D02*
X395399929Y-200259623D01*
%TO.C,D61*%
X209750108Y-209172477D02*
X213075808Y-209879376D01*
X210373842Y-206238034D02*
X209750108Y-209172477D01*
X213075808Y-209879376D02*
X213699542Y-206944933D01*
X213699542Y-206944933D02*
X210373842Y-206238034D01*
%TO.C,D56*%
X241661350Y-196479800D02*
X244987050Y-197186699D01*
X242285084Y-193545357D02*
X241661350Y-196479800D01*
X244987050Y-197186699D02*
X245610784Y-194252256D01*
X245610784Y-194252256D02*
X242285084Y-193545357D01*
%TO.C,D122*%
X325126587Y-188317549D02*
X325750321Y-191251992D01*
X325750321Y-191251992D02*
X329076021Y-190545093D01*
X328452287Y-187610650D02*
X325126587Y-188317549D01*
X329076021Y-190545093D02*
X328452287Y-187610650D01*
%TO.C,D136*%
X333048023Y-225584974D02*
X333671757Y-228519417D01*
X333671757Y-228519417D02*
X336997457Y-227812518D01*
X336373723Y-224878075D02*
X333048023Y-225584974D01*
X336997457Y-227812518D02*
X336373723Y-224878075D01*
%TO.C,D129*%
X333745705Y-205961061D02*
X334369439Y-208895504D01*
X334369439Y-208895504D02*
X337695139Y-208188605D01*
X337071405Y-205254162D02*
X333745705Y-205961061D01*
X337695139Y-208188605D02*
X337071405Y-205254162D01*
%TO.C,D38*%
X179632000Y-141602100D02*
X179632000Y-144602100D01*
X179632000Y-144602100D02*
X183032000Y-144602100D01*
X183032000Y-141602100D02*
X179632000Y-141602100D01*
X183032000Y-144602100D02*
X183032000Y-141602100D01*
%TO.C,D121*%
X306492875Y-192278267D02*
X307116609Y-195212710D01*
X307116609Y-195212710D02*
X310442309Y-194505811D01*
X309818575Y-191571368D02*
X306492875Y-192278267D01*
X310442309Y-194505811D02*
X309818575Y-191571368D01*
%TO.C,D58*%
X152942000Y-200252500D02*
X152942000Y-203252500D01*
X152942000Y-203252500D02*
X156342000Y-203252500D01*
X156342000Y-200252500D02*
X152942000Y-200252500D01*
X156342000Y-203252500D02*
X156342000Y-200252500D01*
%TO.C,D135*%
X314414312Y-229545691D02*
X315038046Y-232480134D01*
X315038046Y-232480134D02*
X318363746Y-231773235D01*
X317740012Y-228838792D02*
X314414312Y-229545691D01*
X318363746Y-231773235D02*
X317740012Y-228838792D01*
%TO.C,D106*%
X284596328Y-157981361D02*
X285220062Y-160915804D01*
X285220062Y-160915804D02*
X288545762Y-160208905D01*
X287922028Y-157274462D02*
X284596328Y-157981361D01*
X288545762Y-160208905D02*
X287922028Y-157274462D01*
%TO.C,D63*%
X247017532Y-217093912D02*
X250343232Y-217800811D01*
X247641266Y-214159469D02*
X247017532Y-217093912D01*
X250343232Y-217800811D02*
X250966966Y-214866368D01*
X250966966Y-214866368D02*
X247641266Y-214159469D01*
%TO.C,D115*%
X316507469Y-170674038D02*
X317131203Y-173608481D01*
X317131203Y-173608481D02*
X320456903Y-172901582D01*
X319833169Y-169967139D02*
X316507469Y-170674038D01*
X320456903Y-172901582D02*
X319833169Y-169967139D01*
%TO.C,D37*%
X160582000Y-143102500D02*
X160582000Y-146102500D01*
X160582000Y-146102500D02*
X163982000Y-146102500D01*
X163982000Y-143102500D02*
X160582000Y-143102500D01*
X163982000Y-146102500D02*
X163982000Y-143102500D01*
%TO.C,D50*%
X128542000Y-181202500D02*
X128542000Y-184202500D01*
X128542000Y-184202500D02*
X131942000Y-184202500D01*
X131942000Y-181202500D02*
X128542000Y-181202500D01*
X131942000Y-184202500D02*
X131942000Y-181202500D01*
%TO.C,D65*%
X152942000Y-219302500D02*
X152942000Y-222302500D01*
X152942000Y-222302500D02*
X156342000Y-222302500D01*
X156342000Y-219302500D02*
X152942000Y-219302500D01*
X156342000Y-222302500D02*
X156342000Y-219302500D01*
%TO.C,D52*%
X166642000Y-181202500D02*
X166642000Y-184202500D01*
X166642000Y-184202500D02*
X170042000Y-184202500D01*
X170042000Y-181202500D02*
X166642000Y-181202500D01*
X170042000Y-184202500D02*
X170042000Y-181202500D01*
%TO.C,D53*%
X185760214Y-184597647D02*
X189085914Y-185304546D01*
X186383948Y-181663204D02*
X185760214Y-184597647D01*
X189085914Y-185304546D02*
X189709648Y-182370103D01*
X189709648Y-182370103D02*
X186383948Y-181663204D01*
%TO.C,D125*%
X382474929Y-181209623D02*
X382474929Y-184209623D01*
X382474929Y-184209623D02*
X385874929Y-184209623D01*
X385874929Y-181209623D02*
X382474929Y-181209623D01*
X385874929Y-184209623D02*
X385874929Y-181209623D01*
%TO.C,D134*%
X295780600Y-233506409D02*
X296404334Y-236440852D01*
X296404334Y-236440852D02*
X299730034Y-235733953D01*
X299106300Y-232799510D02*
X295780600Y-233506409D01*
X299730034Y-235733953D02*
X299106300Y-232799510D01*
%TO.C,D119*%
X392484929Y-162159623D02*
X392484929Y-165159623D01*
X392484929Y-165159623D02*
X395884929Y-165159623D01*
X395884929Y-162159623D02*
X392484929Y-162159623D01*
X395884929Y-165159623D02*
X395884929Y-162159623D01*
%TO.C,D126*%
X401524929Y-181209623D02*
X401524929Y-184209623D01*
X401524929Y-184209623D02*
X404924929Y-184209623D01*
X404924929Y-181209623D02*
X401524929Y-181209623D01*
X404924929Y-184209623D02*
X404924929Y-181209623D01*
%TO.C,D64*%
X133892000Y-219302500D02*
X133892000Y-222302500D01*
X133892000Y-222302500D02*
X137292000Y-222302500D01*
X137292000Y-219302500D02*
X133892000Y-219302500D01*
X137292000Y-222302500D02*
X137292000Y-219302500D01*
%TO.C,D111*%
X378795048Y-143109629D02*
X378795048Y-146109629D01*
X378795048Y-146109629D02*
X382195048Y-146109629D01*
X382195048Y-143109629D02*
X378795048Y-143109629D01*
X382195048Y-146109629D02*
X382195048Y-143109629D01*
%TO.C,D44*%
X146892000Y-162152500D02*
X146892000Y-165152500D01*
X146892000Y-165152500D02*
X150292000Y-165152500D01*
X150292000Y-162152500D02*
X146892000Y-162152500D01*
X150292000Y-165152500D02*
X150292000Y-162152500D01*
%TO.C,D57*%
X133892000Y-200252500D02*
X133892000Y-203252500D01*
X133892000Y-203252500D02*
X137292000Y-203252500D01*
X137292000Y-200252500D02*
X133892000Y-200252500D01*
X137292000Y-203252500D02*
X137292000Y-200252500D01*
%TO.C,D54*%
X204393926Y-188558364D02*
X207719626Y-189265263D01*
X205017660Y-185623921D02*
X204393926Y-188558364D01*
X207719626Y-189265263D02*
X208343360Y-186330820D01*
X208343360Y-186330820D02*
X205017660Y-185623921D01*
%TO.C,D51*%
X147592000Y-181202500D02*
X147592000Y-184202500D01*
X147592000Y-184202500D02*
X150992000Y-184202500D01*
X150992000Y-181202500D02*
X147592000Y-181202500D01*
X150992000Y-184202500D02*
X150992000Y-181202500D01*
%TO.C,D110*%
X359745048Y-141609229D02*
X359745048Y-144609229D01*
X359745048Y-144609229D02*
X363145048Y-144609229D01*
X363145048Y-141609229D02*
X359745048Y-141609229D01*
X363145048Y-144609229D02*
X363145048Y-141609229D01*
%TO.C,D70*%
X252373514Y-237707924D02*
X255699214Y-238414823D01*
X252997248Y-234773481D02*
X252373514Y-237707924D01*
X255699214Y-238414823D02*
X256322948Y-235480380D01*
X256322948Y-235480380D02*
X252997248Y-234773481D01*
%TO.C,D43*%
X127842000Y-162152500D02*
X127842000Y-165152500D01*
X127842000Y-165152500D02*
X131242000Y-165152500D01*
X131242000Y-162152500D02*
X127842000Y-162152500D01*
X131242000Y-165152500D02*
X131242000Y-162152500D01*
%TD*%
M02*
