%TF.GenerationSoftware,KiCad,Pcbnew,9.0.3*%
%TF.CreationDate,2025-11-23T22:31:57-05:00*%
%TF.ProjectId,Wren,5772656e-2e6b-4696-9361-645f70636258,rev?*%
%TF.SameCoordinates,Original*%
%TF.FileFunction,Paste,Bot*%
%TF.FilePolarity,Positive*%
%FSLAX46Y46*%
G04 Gerber Fmt 4.6, Leading zero omitted, Abs format (unit mm)*
G04 Created by KiCad (PCBNEW 9.0.3) date 2025-11-23 22:31:57*
%MOMM*%
%LPD*%
G01*
G04 APERTURE LIST*
G04 Aperture macros list*
%AMRoundRect*
0 Rectangle with rounded corners*
0 $1 Rounding radius*
0 $2 $3 $4 $5 $6 $7 $8 $9 X,Y pos of 4 corners*
0 Add a 4 corners polygon primitive as box body*
4,1,4,$2,$3,$4,$5,$6,$7,$8,$9,$2,$3,0*
0 Add four circle primitives for the rounded corners*
1,1,$1+$1,$2,$3*
1,1,$1+$1,$4,$5*
1,1,$1+$1,$6,$7*
1,1,$1+$1,$8,$9*
0 Add four rect primitives between the rounded corners*
20,1,$1+$1,$2,$3,$4,$5,0*
20,1,$1+$1,$4,$5,$6,$7,0*
20,1,$1+$1,$6,$7,$8,$9,0*
20,1,$1+$1,$8,$9,$2,$3,0*%
%AMRotRect*
0 Rectangle, with rotation*
0 The origin of the aperture is its center*
0 $1 length*
0 $2 width*
0 $3 Rotation angle, in degrees counterclockwise*
0 Add horizontal line*
21,1,$1,$2,0,0,$3*%
%AMOutline5P*
0 Free polygon, 5 corners , with rotation*
0 The origin of the aperture is its center*
0 number of corners: always 5*
0 $1 to $10 corner X, Y*
0 $11 Rotation angle, in degrees counterclockwise*
0 create outline with 5 corners*
4,1,5,$1,$2,$3,$4,$5,$6,$7,$8,$9,$10,$1,$2,$11*%
%AMOutline6P*
0 Free polygon, 6 corners , with rotation*
0 The origin of the aperture is its center*
0 number of corners: always 6*
0 $1 to $12 corner X, Y*
0 $13 Rotation angle, in degrees counterclockwise*
0 create outline with 6 corners*
4,1,6,$1,$2,$3,$4,$5,$6,$7,$8,$9,$10,$11,$12,$1,$2,$13*%
%AMOutline7P*
0 Free polygon, 7 corners , with rotation*
0 The origin of the aperture is its center*
0 number of corners: always 7*
0 $1 to $14 corner X, Y*
0 $15 Rotation angle, in degrees counterclockwise*
0 create outline with 7 corners*
4,1,7,$1,$2,$3,$4,$5,$6,$7,$8,$9,$10,$11,$12,$13,$14,$1,$2,$15*%
%AMOutline8P*
0 Free polygon, 8 corners , with rotation*
0 The origin of the aperture is its center*
0 number of corners: always 8*
0 $1 to $16 corner X, Y*
0 $17 Rotation angle, in degrees counterclockwise*
0 create outline with 8 corners*
4,1,8,$1,$2,$3,$4,$5,$6,$7,$8,$9,$10,$11,$12,$13,$14,$15,$16,$1,$2,$17*%
G04 Aperture macros list end*
%ADD10RoundRect,0.250000X0.231367X0.534790X-0.428883X0.394450X-0.231367X-0.534790X0.428883X-0.394450X0*%
%ADD11RoundRect,0.250000X0.428883X0.394450X-0.231367X0.534790X-0.428883X-0.394450X0.231367X-0.534790X0*%
%ADD12RoundRect,0.250000X0.625000X-0.375000X0.625000X0.375000X-0.625000X0.375000X-0.625000X-0.375000X0*%
%ADD13RoundRect,0.250000X0.533375X-0.496750X0.689309X0.236861X-0.533375X0.496750X-0.689309X-0.236861X0*%
%ADD14R,1.800000X0.820000*%
%ADD15Outline5P,-0.900000X0.410000X0.900000X0.410000X0.900000X-0.246000X0.736000X-0.410000X-0.900000X-0.410000X0.000000*%
%ADD16RoundRect,0.250000X0.337500X0.475000X-0.337500X0.475000X-0.337500X-0.475000X0.337500X-0.475000X0*%
%ADD17RotRect,1.800000X0.820000X348.000000*%
%ADD18Outline5P,-0.900000X0.410000X0.900000X0.410000X0.900000X-0.246000X0.736000X-0.410000X-0.900000X-0.410000X348.000000*%
%ADD19RotRect,1.800000X0.820000X12.000000*%
%ADD20Outline5P,-0.900000X0.410000X0.900000X0.410000X0.900000X-0.246000X0.736000X-0.410000X-0.900000X-0.410000X12.000000*%
%ADD21RoundRect,0.250000X0.689309X-0.236861X0.533375X0.496750X-0.689309X0.236861X-0.533375X-0.496750X0*%
G04 APERTURE END LIST*
D10*
%TO.C,C60*%
X355992177Y-205830405D03*
X353962521Y-206261821D03*
%TD*%
D11*
%TO.C,C19*%
X206760256Y-190592298D03*
X204730600Y-190160882D03*
%TD*%
D12*
%TO.C,D90*%
X392542929Y-175107123D03*
X392542929Y-172307123D03*
%TD*%
D13*
%TO.C,D11*%
X196803037Y-158163401D03*
X197385189Y-155424587D03*
%TD*%
D14*
%TO.C,D112*%
X396945048Y-145359629D03*
D15*
X402145048Y-145359629D03*
D14*
X402145048Y-143859629D03*
X396945048Y-143859629D03*
%TD*%
D16*
%TO.C,C24*%
X174729500Y-204750000D03*
X172654500Y-204750000D03*
%TD*%
%TO.C,C41*%
X381532548Y-147607129D03*
X379457548Y-147607129D03*
%TD*%
D12*
%TO.C,D97*%
X402067929Y-194157123D03*
X402067929Y-191357123D03*
%TD*%
D17*
%TO.C,D47*%
X202971842Y-168013720D03*
D18*
X208058211Y-169094861D03*
D17*
X208370080Y-167627640D03*
X203283711Y-166546499D03*
%TD*%
D16*
%TO.C,C22*%
X136629500Y-204750000D03*
X134554500Y-204750000D03*
%TD*%
D14*
%TO.C,D139*%
X391099929Y-221559623D03*
D15*
X396299929Y-221559623D03*
D14*
X396299929Y-220059623D03*
X391099929Y-220059623D03*
%TD*%
D12*
%TO.C,D98*%
X421117929Y-194157123D03*
X421117929Y-191357123D03*
%TD*%
D17*
%TO.C,D60*%
X190391994Y-204291027D03*
D18*
X195478363Y-205372168D03*
D17*
X195790232Y-203904947D03*
X190703863Y-202823806D03*
%TD*%
D10*
%TO.C,C65*%
X318027072Y-233375753D03*
X315997416Y-233807169D03*
%TD*%
D19*
%TO.C,D127*%
X296065749Y-216270450D03*
D20*
X301152118Y-215189309D03*
D19*
X300840249Y-213722088D03*
X295753880Y-214803229D03*
%TD*%
D12*
%TO.C,D17*%
X176710000Y-175100000D03*
X176710000Y-172300000D03*
%TD*%
D11*
%TO.C,C13*%
X224696285Y-174929103D03*
X222666629Y-174497687D03*
%TD*%
D12*
%TO.C,D77*%
X407913048Y-137007129D03*
X407913048Y-134207129D03*
%TD*%
D10*
%TO.C,C66*%
X336660784Y-229415035D03*
X334631128Y-229846451D03*
%TD*%
D16*
%TO.C,C30*%
X155679500Y-223800000D03*
X153604500Y-223800000D03*
%TD*%
D14*
%TO.C,D140*%
X410149929Y-221559623D03*
D15*
X415349929Y-221559623D03*
D14*
X415349929Y-220059623D03*
X410149929Y-220059623D03*
%TD*%
D17*
%TO.C,D55*%
X222303236Y-191598350D03*
D18*
X227389605Y-192679491D03*
D17*
X227701474Y-191212270D03*
X222615105Y-190131129D03*
%TD*%
D11*
%TO.C,C35*%
X254739843Y-239741857D03*
X252710187Y-239310441D03*
%TD*%
D19*
%TO.C,D109*%
X340084930Y-148487161D03*
D20*
X345171299Y-147406020D03*
D19*
X344859430Y-145938799D03*
X339773061Y-147019940D03*
%TD*%
D17*
%TO.C,D67*%
X195747976Y-224905039D03*
D18*
X200834345Y-225986180D03*
D17*
X201146214Y-224518959D03*
X196059845Y-223437818D03*
%TD*%
D21*
%TO.C,D82*%
X362354052Y-154690202D03*
X361771900Y-151951388D03*
%TD*%
D11*
%TO.C,C34*%
X236106132Y-235781139D03*
X234076476Y-235349723D03*
%TD*%
D16*
%TO.C,C55*%
X385212429Y-185707123D03*
X383137429Y-185707123D03*
%TD*%
D13*
%TO.C,D21*%
X253401855Y-189669466D03*
X253984007Y-186930652D03*
%TD*%
D16*
%TO.C,C48*%
X376172429Y-166657123D03*
X374097429Y-166657123D03*
%TD*%
D14*
%TO.C,D124*%
X362524929Y-183459623D03*
D15*
X367724929Y-183459623D03*
D14*
X367724929Y-181959623D03*
X362524929Y-181959623D03*
%TD*%
D13*
%TO.C,D27*%
X240124325Y-206322861D03*
X240706477Y-203584047D03*
%TD*%
D14*
%TO.C,D59*%
X171092000Y-202502500D03*
D15*
X176292000Y-202502500D03*
D14*
X176292000Y-201002500D03*
X171092000Y-201002500D03*
%TD*%
D12*
%TO.C,D22*%
X143960000Y-194150000D03*
X143960000Y-191350000D03*
%TD*%
D16*
%TO.C,C40*%
X362482548Y-146106729D03*
X360407548Y-146106729D03*
%TD*%
D11*
%TO.C,C26*%
X212116438Y-211206410D03*
X210086782Y-210774994D03*
%TD*%
D10*
%TO.C,C52*%
X328739348Y-192147611D03*
X326709692Y-192579027D03*
%TD*%
%TO.C,C37*%
X306842800Y-157850705D03*
X304813144Y-158282121D03*
%TD*%
D13*
%TO.C,D19*%
X216134431Y-181748030D03*
X216716583Y-179009216D03*
%TD*%
D21*
%TO.C,D87*%
X333705794Y-180255149D03*
X333123642Y-177516335D03*
%TD*%
D14*
%TO.C,D133*%
X410149929Y-202509623D03*
D15*
X415349929Y-202509623D03*
D14*
X415349929Y-201009623D03*
X410149929Y-201009623D03*
%TD*%
D13*
%TO.C,D12*%
X215436749Y-162124119D03*
X216018901Y-159385305D03*
%TD*%
%TO.C,D35*%
X264114019Y-230897590D03*
X264696171Y-228158776D03*
%TD*%
D10*
%TO.C,C44*%
X301486518Y-178464817D03*
X299456862Y-178896233D03*
%TD*%
D21*
%TO.C,D95*%
X360958624Y-193937944D03*
X360376472Y-191199130D03*
%TD*%
%TO.C,D101*%
X341627231Y-217522574D03*
X341045079Y-214783760D03*
%TD*%
D12*
%TO.C,D30*%
X163010000Y-213200000D03*
X163010000Y-210400000D03*
%TD*%
D11*
%TO.C,C28*%
X249383861Y-219127846D03*
X247354205Y-218696430D03*
%TD*%
D14*
%TO.C,D36*%
X140632000Y-145352500D03*
D15*
X145832000Y-145352500D03*
D14*
X145832000Y-143852500D03*
X140632000Y-143852500D03*
%TD*%
D16*
%TO.C,C16*%
X150329500Y-185700000D03*
X148254500Y-185700000D03*
%TD*%
%TO.C,C61*%
X375687429Y-204757123D03*
X373612429Y-204757123D03*
%TD*%
D17*
%TO.C,D69*%
X233015400Y-232826474D03*
D18*
X238101769Y-233907615D03*
D17*
X238413638Y-232440394D03*
X233327269Y-231359253D03*
%TD*%
D16*
%TO.C,C8*%
X130579500Y-166650000D03*
X128504500Y-166650000D03*
%TD*%
D17*
%TO.C,D46*%
X184338130Y-164053003D03*
D18*
X189424499Y-165134144D03*
D17*
X189736368Y-163666923D03*
X184649999Y-162585782D03*
%TD*%
D16*
%TO.C,C1*%
X144269500Y-147600000D03*
X142194500Y-147600000D03*
%TD*%
D17*
%TO.C,D68*%
X214381688Y-228865756D03*
D18*
X219468057Y-229946897D03*
D17*
X219779926Y-228479676D03*
X214693557Y-227398535D03*
%TD*%
D11*
%TO.C,C25*%
X193482726Y-207245692D03*
X191453070Y-206814276D03*
%TD*%
D13*
%TO.C,D5*%
X228714368Y-145470806D03*
X229296520Y-142731992D03*
%TD*%
D11*
%TO.C,C5*%
X219340192Y-154315074D03*
X217310536Y-153883658D03*
%TD*%
D13*
%TO.C,D13*%
X234070461Y-166084836D03*
X234652613Y-163346022D03*
%TD*%
D16*
%TO.C,C68*%
X375687429Y-223807123D03*
X373612429Y-223807123D03*
%TD*%
%TO.C,C31*%
X174729500Y-223800000D03*
X172654500Y-223800000D03*
%TD*%
D19*
%TO.C,D116*%
X334728648Y-169101273D03*
D20*
X339815017Y-168020132D03*
D19*
X339503148Y-166552911D03*
X334416779Y-167634052D03*
%TD*%
D11*
%TO.C,C12*%
X206062574Y-170968386D03*
X204032918Y-170536970D03*
%TD*%
D17*
%TO.C,D48*%
X221605554Y-171974438D03*
D18*
X226691923Y-173055579D03*
D17*
X227003792Y-171588358D03*
X221917423Y-170507217D03*
%TD*%
D21*
%TO.C,D93*%
X323691201Y-201859379D03*
X323109049Y-199120565D03*
%TD*%
D16*
%TO.C,C49*%
X395222429Y-166657123D03*
X393147429Y-166657123D03*
%TD*%
D14*
%TO.C,D131*%
X372049929Y-202509623D03*
D15*
X377249929Y-202509623D03*
D14*
X377249929Y-201009623D03*
X372049929Y-201009623D03*
%TD*%
D10*
%TO.C,C50*%
X291471924Y-200069046D03*
X289442268Y-200500462D03*
%TD*%
D17*
%TO.C,D49*%
X240239265Y-175935156D03*
D18*
X245325634Y-177016297D03*
D17*
X245637503Y-175549076D03*
X240551134Y-174467935D03*
%TD*%
D16*
%TO.C,C62*%
X394737429Y-204757123D03*
X392662429Y-204757123D03*
%TD*%
D21*
%TO.C,D71*%
X293175535Y-149918962D03*
X292593383Y-147180148D03*
%TD*%
%TO.C,D81*%
X343720388Y-158650920D03*
X343138236Y-155912106D03*
%TD*%
D14*
%TO.C,D138*%
X372049929Y-221559623D03*
D15*
X377249929Y-221559623D03*
D14*
X377249929Y-220059623D03*
X372049929Y-220059623D03*
%TD*%
D21*
%TO.C,D80*%
X325086676Y-162611638D03*
X324504524Y-159872824D03*
%TD*%
%TO.C,D72*%
X311809247Y-145958244D03*
X311227095Y-143219430D03*
%TD*%
D14*
%TO.C,D118*%
X372534929Y-164409623D03*
D15*
X377734929Y-164409623D03*
D14*
X377734929Y-162909623D03*
X372534929Y-162909623D03*
%TD*%
%TO.C,D66*%
X171092000Y-221552500D03*
D15*
X176292000Y-221552500D03*
D14*
X176292000Y-220052500D03*
X171092000Y-220052500D03*
%TD*%
D10*
%TO.C,C58*%
X318724754Y-213751840D03*
X316695098Y-214183256D03*
%TD*%
D21*
%TO.C,D94*%
X342324912Y-197898662D03*
X341742760Y-195159848D03*
%TD*%
D12*
%TO.C,D76*%
X388863048Y-137007129D03*
X388863048Y-134207129D03*
%TD*%
D21*
%TO.C,D92*%
X305057489Y-205820097D03*
X304475337Y-203081283D03*
%TD*%
D19*
%TO.C,D114*%
X297461224Y-177022708D03*
D20*
X302547593Y-175941567D03*
D19*
X302235724Y-174474346D03*
X297149355Y-175555487D03*
%TD*%
D17*
%TO.C,D62*%
X227659418Y-212212462D03*
D18*
X232745787Y-213293603D03*
D17*
X233057656Y-211826382D03*
X227971287Y-210745241D03*
%TD*%
D13*
%TO.C,D7*%
X265981791Y-153392242D03*
X266563943Y-150653428D03*
%TD*%
%TO.C,D20*%
X234768143Y-185708748D03*
X235350295Y-182969934D03*
%TD*%
D12*
%TO.C,D89*%
X373492929Y-175107123D03*
X373492929Y-172307123D03*
%TD*%
D19*
%TO.C,D137*%
X351269202Y-224012209D03*
D20*
X356355571Y-222931068D03*
D19*
X356043702Y-221463847D03*
X350957333Y-222544988D03*
%TD*%
%TO.C,D120*%
X287446631Y-198626938D03*
D20*
X292533000Y-197545797D03*
D19*
X292221131Y-196078576D03*
X287134762Y-197159717D03*
%TD*%
D10*
%TO.C,C67*%
X355294495Y-225454317D03*
X353264839Y-225885733D03*
%TD*%
D12*
%TO.C,D31*%
X182060000Y-213200000D03*
X182060000Y-210400000D03*
%TD*%
D16*
%TO.C,C63*%
X413787429Y-204757123D03*
X411712429Y-204757123D03*
%TD*%
D12*
%TO.C,D105*%
X421117929Y-213207123D03*
X421117929Y-210407123D03*
%TD*%
%TO.C,D10*%
X176010000Y-156050000D03*
X176010000Y-153250000D03*
%TD*%
D19*
%TO.C,D130*%
X351966884Y-204388297D03*
D20*
X357053253Y-203307156D03*
D19*
X356741384Y-201839935D03*
X351655015Y-202921076D03*
%TD*%
D17*
%TO.C,D42*%
X253516884Y-159281844D03*
D18*
X258603253Y-160362985D03*
D17*
X258915122Y-158895764D03*
X253828753Y-157814623D03*
%TD*%
D19*
%TO.C,D107*%
X302817507Y-156408597D03*
D20*
X307903876Y-155327456D03*
D19*
X307592007Y-153860235D03*
X302505638Y-154941376D03*
%TD*%
%TO.C,D123*%
X343347766Y-186744785D03*
D20*
X348434135Y-185663644D03*
D19*
X348122266Y-184196423D03*
X343035897Y-185277564D03*
%TD*%
D12*
%TO.C,D1*%
X151600000Y-137000000D03*
X151600000Y-134200000D03*
%TD*%
D19*
%TO.C,D128*%
X314699460Y-212309732D03*
D20*
X319785829Y-211228591D03*
D19*
X319473960Y-209761370D03*
X314387591Y-210842511D03*
%TD*%
D12*
%TO.C,D75*%
X369813048Y-135506729D03*
X369813048Y-132706729D03*
%TD*%
D19*
%TO.C,D113*%
X278827513Y-180983426D03*
D20*
X283913882Y-179902285D03*
D19*
X283602013Y-178435064D03*
X278515644Y-179516205D03*
%TD*%
D13*
%TO.C,D33*%
X226846595Y-222976154D03*
X227428747Y-220237340D03*
%TD*%
%TO.C,D6*%
X247348079Y-149431524D03*
X247930231Y-146692710D03*
%TD*%
D19*
%TO.C,D108*%
X321451218Y-152447879D03*
D20*
X326537587Y-151366738D03*
D19*
X326225718Y-149899517D03*
X321139349Y-150980658D03*
%TD*%
D17*
%TO.C,D41*%
X234883172Y-155321126D03*
D18*
X239969541Y-156402267D03*
D17*
X240281410Y-154935046D03*
X235195041Y-153853905D03*
%TD*%
D12*
%TO.C,D103*%
X383017929Y-213207123D03*
X383017929Y-210407123D03*
%TD*%
%TO.C,D91*%
X411592929Y-175107123D03*
X411592929Y-172307123D03*
%TD*%
D10*
%TO.C,C46*%
X338753941Y-170543381D03*
X336724285Y-170974797D03*
%TD*%
D17*
%TO.C,D40*%
X216249460Y-151360408D03*
D18*
X221335829Y-152441549D03*
D17*
X221647698Y-150974328D03*
X216561329Y-149893187D03*
%TD*%
D14*
%TO.C,D45*%
X165042000Y-164402500D03*
D15*
X170242000Y-164402500D03*
D14*
X170242000Y-162902500D03*
X165042000Y-162902500D03*
%TD*%
D17*
%TO.C,D39*%
X197615749Y-147399690D03*
D18*
X202702118Y-148480831D03*
D17*
X203013987Y-147013610D03*
X197927618Y-145932469D03*
%TD*%
D13*
%TO.C,D25*%
X202856901Y-198401425D03*
X203439053Y-195662611D03*
%TD*%
D16*
%TO.C,C2*%
X163319500Y-147600000D03*
X161244500Y-147600000D03*
%TD*%
D19*
%TO.C,D117*%
X353362312Y-165140555D03*
D20*
X358448681Y-164059414D03*
D19*
X358136812Y-162592193D03*
X353050443Y-163673334D03*
%TD*%
D16*
%TO.C,C17*%
X169379500Y-185700000D03*
X167304500Y-185700000D03*
%TD*%
D14*
%TO.C,D132*%
X391099929Y-202509623D03*
D15*
X396299929Y-202509623D03*
D14*
X396299929Y-201009623D03*
X391099929Y-201009623D03*
%TD*%
D17*
%TO.C,D61*%
X209025706Y-208251745D03*
D18*
X214112075Y-209332886D03*
D17*
X214423944Y-207865665D03*
X209337575Y-206784524D03*
%TD*%
D16*
%TO.C,C9*%
X149629500Y-166650000D03*
X147554500Y-166650000D03*
%TD*%
D11*
%TO.C,C14*%
X243329997Y-178889821D03*
X241300341Y-178458405D03*
%TD*%
D17*
%TO.C,D56*%
X240936948Y-195559068D03*
D18*
X246023317Y-196640209D03*
D17*
X246335186Y-195172988D03*
X241248817Y-194091847D03*
%TD*%
D11*
%TO.C,C32*%
X198838708Y-227859704D03*
X196809052Y-227428288D03*
%TD*%
D12*
%TO.C,D23*%
X163010000Y-194150000D03*
X163010000Y-191350000D03*
%TD*%
D11*
%TO.C,C21*%
X244027679Y-198513733D03*
X241998023Y-198082317D03*
%TD*%
D21*
%TO.C,D102*%
X360260942Y-213561856D03*
X359678790Y-210823042D03*
%TD*%
D16*
%TO.C,C69*%
X394737429Y-223807123D03*
X392662429Y-223807123D03*
%TD*%
D19*
%TO.C,D122*%
X324714054Y-190705502D03*
D20*
X329800423Y-189624361D03*
D19*
X329488554Y-188157140D03*
X324402185Y-189238281D03*
%TD*%
D13*
%TO.C,D28*%
X258758037Y-210283578D03*
X259340189Y-207544764D03*
%TD*%
D21*
%TO.C,D99*%
X304359807Y-225444009D03*
X303777655Y-222705195D03*
%TD*%
D19*
%TO.C,D136*%
X332635490Y-227972927D03*
D20*
X337721859Y-226891786D03*
D19*
X337409990Y-225424565D03*
X332323621Y-226505706D03*
%TD*%
D16*
%TO.C,C56*%
X404262429Y-185707123D03*
X402187429Y-185707123D03*
%TD*%
D10*
%TO.C,C39*%
X344110223Y-149929270D03*
X342080567Y-150360686D03*
%TD*%
D19*
%TO.C,D129*%
X333333172Y-208349014D03*
D20*
X338419541Y-207267873D03*
D19*
X338107672Y-205800652D03*
X333021303Y-206881793D03*
%TD*%
D16*
%TO.C,C29*%
X136629500Y-223800000D03*
X134554500Y-223800000D03*
%TD*%
%TO.C,C23*%
X155679500Y-204750000D03*
X153604500Y-204750000D03*
%TD*%
D14*
%TO.C,D38*%
X178732000Y-143852100D03*
D15*
X183932000Y-143852100D03*
D14*
X183932000Y-142352100D03*
X178732000Y-142352100D03*
%TD*%
D11*
%TO.C,C33*%
X217472420Y-231820422D03*
X215442764Y-231389006D03*
%TD*%
%TO.C,C20*%
X225393968Y-194553015D03*
X223364312Y-194121599D03*
%TD*%
D12*
%TO.C,D2*%
X170650000Y-137000000D03*
X170650000Y-134200000D03*
%TD*%
D16*
%TO.C,C3*%
X182369500Y-146099600D03*
X180294500Y-146099600D03*
%TD*%
%TO.C,C54*%
X366162429Y-185707123D03*
X364087429Y-185707123D03*
%TD*%
D21*
%TO.C,D88*%
X352339506Y-176294432D03*
X351757354Y-173555618D03*
%TD*%
D10*
%TO.C,C64*%
X299393360Y-237336470D03*
X297363704Y-237767886D03*
%TD*%
%TO.C,C43*%
X282852806Y-182425535D03*
X280823150Y-182856951D03*
%TD*%
%TO.C,C47*%
X357387605Y-166582663D03*
X355357949Y-167014079D03*
%TD*%
D19*
%TO.C,D121*%
X306080342Y-194666220D03*
D20*
X311166711Y-193585079D03*
D19*
X310854842Y-192117858D03*
X305768473Y-193198999D03*
%TD*%
D10*
%TO.C,C38*%
X325476512Y-153889987D03*
X323446856Y-154321403D03*
%TD*%
D14*
%TO.C,D58*%
X152042000Y-202502500D03*
D15*
X157242000Y-202502500D03*
D14*
X157242000Y-201002500D03*
X152042000Y-201002500D03*
%TD*%
D19*
%TO.C,D135*%
X314001779Y-231933644D03*
D20*
X319088148Y-230852503D03*
D19*
X318776279Y-229385282D03*
X313689910Y-230466423D03*
%TD*%
D10*
%TO.C,C51*%
X310105636Y-196108328D03*
X308075980Y-196539744D03*
%TD*%
D12*
%TO.C,D104*%
X402067929Y-213207123D03*
X402067929Y-210407123D03*
%TD*%
D19*
%TO.C,D106*%
X284183795Y-160369314D03*
D20*
X289270164Y-159288173D03*
D19*
X288958295Y-157820952D03*
X283871926Y-158902093D03*
%TD*%
D17*
%TO.C,D63*%
X246293130Y-216173180D03*
D18*
X251379499Y-217254321D03*
D17*
X251691368Y-215787100D03*
X246604999Y-214705959D03*
%TD*%
D12*
%TO.C,D3*%
X189700000Y-135499600D03*
X189700000Y-132699600D03*
%TD*%
D21*
%TO.C,D74*%
X349076670Y-138036809D03*
X348494518Y-135297995D03*
%TD*%
D19*
%TO.C,D115*%
X316094936Y-173061991D03*
D20*
X321181305Y-171980850D03*
D19*
X320869436Y-170513629D03*
X315783067Y-171594770D03*
%TD*%
D14*
%TO.C,D37*%
X159682000Y-145352500D03*
D15*
X164882000Y-145352500D03*
D14*
X164882000Y-143852500D03*
X159682000Y-143852500D03*
%TD*%
D13*
%TO.C,D4*%
X210080656Y-141510089D03*
X210662808Y-138771275D03*
%TD*%
D21*
%TO.C,D85*%
X296438371Y-188176585D03*
X295856219Y-185437771D03*
%TD*%
D14*
%TO.C,D50*%
X127642000Y-183452500D03*
D15*
X132842000Y-183452500D03*
D14*
X132842000Y-181952500D03*
X127642000Y-181952500D03*
%TD*%
%TO.C,D65*%
X152042000Y-221552500D03*
D15*
X157242000Y-221552500D03*
D14*
X157242000Y-220052500D03*
X152042000Y-220052500D03*
%TD*%
D12*
%TO.C,D15*%
X138610000Y-175100000D03*
X138610000Y-172300000D03*
%TD*%
D14*
%TO.C,D52*%
X165742000Y-183452500D03*
D15*
X170942000Y-183452500D03*
D14*
X170942000Y-181952500D03*
X165742000Y-181952500D03*
%TD*%
D17*
%TO.C,D53*%
X185035812Y-183676915D03*
D18*
X190122181Y-184758056D03*
D17*
X190434050Y-183290835D03*
X185347681Y-182209694D03*
%TD*%
D14*
%TO.C,D125*%
X381574929Y-183459623D03*
D15*
X386774929Y-183459623D03*
D14*
X386774929Y-181959623D03*
X381574929Y-181959623D03*
%TD*%
D13*
%TO.C,D34*%
X245480307Y-226936872D03*
X246062459Y-224198058D03*
%TD*%
D21*
%TO.C,D86*%
X315072083Y-184215867D03*
X314489931Y-181477053D03*
%TD*%
%TO.C,D78*%
X287819253Y-170533073D03*
X287237101Y-167794259D03*
%TD*%
D12*
%TO.C,D16*%
X157660000Y-175100000D03*
X157660000Y-172300000D03*
%TD*%
%TO.C,D83*%
X383502929Y-156057123D03*
X383502929Y-153257123D03*
%TD*%
D19*
%TO.C,D134*%
X295368067Y-235894362D03*
D20*
X300454436Y-234813221D03*
D19*
X300142567Y-233346000D03*
X295056198Y-234427141D03*
%TD*%
D14*
%TO.C,D119*%
X391584929Y-164409623D03*
D15*
X396784929Y-164409623D03*
D14*
X396784929Y-162909623D03*
X391584929Y-162909623D03*
%TD*%
D16*
%TO.C,C70*%
X413787429Y-223807123D03*
X411712429Y-223807123D03*
%TD*%
D10*
%TO.C,C45*%
X320120230Y-174504099D03*
X318090574Y-174935515D03*
%TD*%
D13*
%TO.C,D32*%
X208212883Y-219015437D03*
X208795035Y-216276623D03*
%TD*%
D14*
%TO.C,D126*%
X400624929Y-183459623D03*
D15*
X405824929Y-183459623D03*
D14*
X405824929Y-181959623D03*
X400624929Y-181959623D03*
%TD*%
D12*
%TO.C,D84*%
X402552929Y-156057123D03*
X402552929Y-153257123D03*
%TD*%
D10*
%TO.C,C36*%
X288209088Y-161811423D03*
X286179432Y-162242839D03*
%TD*%
D16*
%TO.C,C42*%
X400582548Y-147607129D03*
X398507548Y-147607129D03*
%TD*%
D21*
%TO.C,D100*%
X322993519Y-221483292D03*
X322411367Y-218744478D03*
%TD*%
D11*
%TO.C,C18*%
X188126544Y-186631580D03*
X186096888Y-186200164D03*
%TD*%
D12*
%TO.C,D8*%
X137910000Y-156050000D03*
X137910000Y-153250000D03*
%TD*%
D13*
%TO.C,D26*%
X221490613Y-202362143D03*
X222072765Y-199623329D03*
%TD*%
D14*
%TO.C,D64*%
X132992000Y-221552500D03*
D15*
X138192000Y-221552500D03*
D14*
X138192000Y-220052500D03*
X132992000Y-220052500D03*
%TD*%
%TO.C,D111*%
X377895048Y-145359629D03*
D15*
X383095048Y-145359629D03*
D14*
X383095048Y-143859629D03*
X377895048Y-143859629D03*
%TD*%
D11*
%TO.C,C4*%
X200706480Y-150354356D03*
X198676824Y-149922940D03*
%TD*%
D14*
%TO.C,D44*%
X145992000Y-164402500D03*
D15*
X151192000Y-164402500D03*
D14*
X151192000Y-162902500D03*
X145992000Y-162902500D03*
%TD*%
D21*
%TO.C,D79*%
X306452965Y-166572356D03*
X305870813Y-163833542D03*
%TD*%
D14*
%TO.C,D57*%
X132992000Y-202502500D03*
D15*
X138192000Y-202502500D03*
D14*
X138192000Y-201002500D03*
X132992000Y-201002500D03*
%TD*%
D16*
%TO.C,C10*%
X168679500Y-166650000D03*
X166604500Y-166650000D03*
%TD*%
D10*
%TO.C,C53*%
X347373059Y-188186893D03*
X345343403Y-188618309D03*
%TD*%
D13*
%TO.C,D18*%
X197500719Y-177787313D03*
X198082871Y-175048499D03*
%TD*%
D12*
%TO.C,D96*%
X383017929Y-194157123D03*
X383017929Y-191357123D03*
%TD*%
D17*
%TO.C,D54*%
X203669524Y-187637632D03*
D18*
X208755893Y-188718773D03*
D17*
X209067762Y-187251552D03*
X203981393Y-186170411D03*
%TD*%
D11*
%TO.C,C7*%
X256607616Y-162236509D03*
X254577960Y-161805093D03*
%TD*%
D12*
%TO.C,D9*%
X156960000Y-156050000D03*
X156960000Y-153250000D03*
%TD*%
D14*
%TO.C,D51*%
X146692000Y-183452500D03*
D15*
X151892000Y-183452500D03*
D14*
X151892000Y-181952500D03*
X146692000Y-181952500D03*
%TD*%
%TO.C,D110*%
X358845048Y-143859229D03*
D15*
X364045048Y-143859229D03*
D14*
X364045048Y-142359229D03*
X358845048Y-142359229D03*
%TD*%
D17*
%TO.C,D70*%
X251649112Y-236787192D03*
D18*
X256735481Y-237868333D03*
D17*
X257047350Y-236401112D03*
X251960981Y-235319971D03*
%TD*%
D16*
%TO.C,C15*%
X131279500Y-185700000D03*
X129204500Y-185700000D03*
%TD*%
D10*
%TO.C,C59*%
X337358466Y-209791123D03*
X335328810Y-210222539D03*
%TD*%
D11*
%TO.C,C6*%
X237973904Y-158275791D03*
X235944248Y-157844375D03*
%TD*%
D14*
%TO.C,D43*%
X126942000Y-164402500D03*
D15*
X132142000Y-164402500D03*
D14*
X132142000Y-162902500D03*
X126942000Y-162902500D03*
%TD*%
D11*
%TO.C,C11*%
X187428862Y-167007668D03*
X185399206Y-166576252D03*
%TD*%
D13*
%TO.C,D14*%
X252704173Y-170045554D03*
X253286325Y-167306740D03*
%TD*%
D11*
%TO.C,C27*%
X230750150Y-215167128D03*
X228720494Y-214735712D03*
%TD*%
D12*
%TO.C,D24*%
X182060000Y-194150000D03*
X182060000Y-191350000D03*
%TD*%
%TO.C,D29*%
X143960000Y-213200000D03*
X143960000Y-210400000D03*
%TD*%
D10*
%TO.C,C57*%
X300091042Y-217712558D03*
X298061386Y-218143974D03*
%TD*%
D21*
%TO.C,D73*%
X330442959Y-141997526D03*
X329860807Y-139258712D03*
%TD*%
M02*
