%TF.GenerationSoftware,KiCad,Pcbnew,9.0.3*%
%TF.CreationDate,2025-11-25T19:45:44-05:00*%
%TF.ProjectId,Wren,5772656e-2e6b-4696-9361-645f70636258,rev?*%
%TF.SameCoordinates,Original*%
%TF.FileFunction,Copper,L1,Top*%
%TF.FilePolarity,Positive*%
%FSLAX46Y46*%
G04 Gerber Fmt 4.6, Leading zero omitted, Abs format (unit mm)*
G04 Created by KiCad (PCBNEW 9.0.3) date 2025-11-25 19:45:44*
%MOMM*%
%LPD*%
G01*
G04 APERTURE LIST*
%TA.AperFunction,ComponentPad*%
%ADD10C,2.500000*%
%TD*%
%TA.AperFunction,ComponentPad*%
%ADD11C,3.600000*%
%TD*%
%TA.AperFunction,ComponentPad*%
%ADD12C,1.905000*%
%TD*%
%TA.AperFunction,ViaPad*%
%ADD13C,0.600000*%
%TD*%
%TA.AperFunction,Conductor*%
%ADD14C,0.200000*%
%TD*%
G04 APERTURE END LIST*
D10*
%TO.P,SW13,1,1*%
%TO.N,col5*%
X241463155Y-200246123D03*
%TO.P,SW13,2,2*%
%TO.N,Net-(D13-A)*%
X248202488Y-199081868D03*
%TD*%
%TO.P,SW20,1,1*%
%TO.N,col5*%
X242160838Y-219870035D03*
%TO.P,SW20,2,2*%
%TO.N,Net-(D20-A)*%
X248900171Y-218705780D03*
%TD*%
%TO.P,SW24,1,1*%
%TO.N,col2*%
X189132000Y-230837500D03*
%TO.P,SW24,2,2*%
%TO.N,Net-(D24-A)*%
X195482000Y-228297500D03*
%TD*%
%TO.P,SW16,1,1*%
%TO.N,col1*%
X164732000Y-211787500D03*
%TO.P,SW16,2,2*%
%TO.N,Net-(D16-A)*%
X171082000Y-209247500D03*
%TD*%
%TO.P,SW28,1,1*%
%TO.N,col6*%
X266150731Y-244444865D03*
%TO.P,SW28,2,2*%
%TO.N,Net-(D28-A)*%
X272890064Y-243280610D03*
%TD*%
%TO.P,SW8,1,1*%
%TO.N,col0*%
X144982000Y-192737500D03*
%TO.P,SW8,2,2*%
%TO.N,Net-(D8-A)*%
X151332000Y-190197500D03*
%TD*%
%TO.P,SW6,1,1*%
%TO.N,col5*%
X254740774Y-183592811D03*
%TO.P,SW6,2,2*%
%TO.N,Net-(D6-A)*%
X261480107Y-182428556D03*
%TD*%
%TO.P,SW5,1,1*%
%TO.N,col4*%
X236107062Y-179632093D03*
%TO.P,SW5,2,2*%
%TO.N,Net-(D5-A)*%
X242846395Y-178467838D03*
%TD*%
D11*
%TO.P,J4,1,Pin_1*%
%TO.N,GND*%
X144800000Y-238950000D03*
%TD*%
D10*
%TO.P,SW19,1,1*%
%TO.N,col4*%
X223527126Y-215909317D03*
%TO.P,SW19,2,2*%
%TO.N,Net-(D19-A)*%
X230266459Y-214745062D03*
%TD*%
%TO.P,SW25,1,1*%
%TO.N,col3*%
X210249596Y-232562712D03*
%TO.P,SW25,2,2*%
%TO.N,Net-(D25-A)*%
X216988929Y-231398457D03*
%TD*%
%TO.P,SW30,1,1*%
%TO.N,col1*%
X170082000Y-249887500D03*
%TO.P,SW30,2,2*%
%TO.N,Net-(D30-A)*%
X176432000Y-247347500D03*
%TD*%
%TO.P,SW21,1,1*%
%TO.N,col6*%
X260794549Y-223830753D03*
%TO.P,SW21,2,2*%
%TO.N,Net-(D21-A)*%
X267533882Y-222666498D03*
%TD*%
%TO.P,SW3,1,1*%
%TO.N,col2*%
X196772000Y-172187100D03*
%TO.P,SW3,2,2*%
%TO.N,Net-(D3-A)*%
X203122000Y-169647100D03*
%TD*%
%TO.P,SW18,1,1*%
%TO.N,col3*%
X204893414Y-211948600D03*
%TO.P,SW18,2,2*%
%TO.N,Net-(D18-A)*%
X211632747Y-210784345D03*
%TD*%
D11*
%TO.P,J3,1,Pin_1*%
%TO.N,+5V*%
X144800000Y-233300000D03*
%TD*%
D10*
%TO.P,SW23,1,1*%
%TO.N,col1*%
X170082000Y-230837500D03*
%TO.P,SW23,2,2*%
%TO.N,Net-(D23-A)*%
X176432000Y-228297500D03*
%TD*%
%TO.P,SW4,1,1*%
%TO.N,col3*%
X217473350Y-175671376D03*
%TO.P,SW4,2,2*%
%TO.N,Net-(D4-A)*%
X224212683Y-174507121D03*
%TD*%
%TO.P,SW34,1,1*%
%TO.N,col5*%
X252873002Y-261098159D03*
%TO.P,SW34,2,2*%
%TO.N,Net-(D34-A)*%
X259612335Y-259933904D03*
%TD*%
%TO.P,SW11,1,1*%
%TO.N,col3*%
X204195732Y-192324688D03*
%TO.P,SW11,2,2*%
%TO.N,Net-(D11-A)*%
X210935065Y-191160433D03*
%TD*%
%TO.P,SW32,1,1*%
%TO.N,col3*%
X215605578Y-253176724D03*
%TO.P,SW32,2,2*%
%TO.N,Net-(D32-A)*%
X222344911Y-252012469D03*
%TD*%
%TO.P,SW9,1,1*%
%TO.N,col1*%
X164032000Y-192737500D03*
%TO.P,SW9,2,2*%
%TO.N,Net-(D9-A)*%
X170382000Y-190197500D03*
%TD*%
%TO.P,SW7,1,1*%
%TO.N,col6*%
X273374486Y-187553529D03*
%TO.P,SW7,2,2*%
%TO.N,Net-(D7-A)*%
X280113819Y-186389274D03*
%TD*%
%TO.P,SW10,1,1*%
%TO.N,col2*%
X183082000Y-192737500D03*
%TO.P,SW10,2,2*%
%TO.N,Net-(D10-A)*%
X189432000Y-190197500D03*
%TD*%
%TO.P,SW26,1,1*%
%TO.N,col4*%
X228883308Y-236523430D03*
%TO.P,SW26,2,2*%
%TO.N,Net-(D26-A)*%
X235622641Y-235359175D03*
%TD*%
%TO.P,SW15,1,1*%
%TO.N,col0*%
X145682000Y-211787500D03*
%TO.P,SW15,2,2*%
%TO.N,Net-(D15-A)*%
X152032000Y-209247500D03*
%TD*%
%TO.P,SW1,1,1*%
%TO.N,col0*%
X158672000Y-173687500D03*
%TO.P,SW1,2,2*%
%TO.N,Net-(D1-A)*%
X165022000Y-171147500D03*
%TD*%
%TO.P,SW22,1,1*%
%TO.N,col0*%
X151032000Y-230837500D03*
%TO.P,SW22,2,2*%
%TO.N,Net-(D22-A)*%
X157382000Y-228297500D03*
%TD*%
%TO.P,SW33,1,1*%
%TO.N,col4*%
X234239290Y-257137442D03*
%TO.P,SW33,2,2*%
%TO.N,Net-(D33-A)*%
X240978623Y-255973187D03*
%TD*%
%TO.P,SW17,1,1*%
%TO.N,col2*%
X183782000Y-211787500D03*
%TO.P,SW17,2,2*%
%TO.N,Net-(D17-A)*%
X190132000Y-209247500D03*
%TD*%
%TO.P,SW35,1,1*%
%TO.N,col6*%
X271506713Y-265058877D03*
%TO.P,SW35,2,2*%
%TO.N,Net-(D35-A)*%
X278246046Y-263894622D03*
%TD*%
%TO.P,SW12,1,1*%
%TO.N,col4*%
X222829444Y-196285406D03*
%TO.P,SW12,2,2*%
%TO.N,Net-(D12-A)*%
X229568777Y-195121151D03*
%TD*%
%TO.P,SW14,1,1*%
%TO.N,col6*%
X260096867Y-204206841D03*
%TO.P,SW14,2,2*%
%TO.N,Net-(D14-A)*%
X266836200Y-203042586D03*
%TD*%
%TO.P,SW27,1,1*%
%TO.N,col5*%
X247517020Y-240484148D03*
%TO.P,SW27,2,2*%
%TO.N,Net-(D27-A)*%
X254256353Y-239319893D03*
%TD*%
%TO.P,SW31,1,1*%
%TO.N,col2*%
X189132000Y-249887500D03*
%TO.P,SW31,2,2*%
%TO.N,Net-(D31-A)*%
X195482000Y-247347500D03*
%TD*%
D12*
%TO.P,U1,0,GPIO0*%
%TO.N,col0*%
X138310000Y-184250000D03*
%TO.P,U1,1,GPIO1*%
%TO.N,col1*%
X138310000Y-181710000D03*
%TO.P,U1,2,GPIO2*%
%TO.N,col2*%
X138310000Y-179170000D03*
%TO.P,U1,3,GPIO3*%
%TO.N,col3*%
X138310000Y-176630000D03*
%TO.P,U1,3.3,3V3*%
%TO.N,unconnected-(U1-3V3-Pad3.3)*%
X138310000Y-171550000D03*
%TO.P,U1,4,GPIO4*%
%TO.N,col4*%
X138310000Y-174090000D03*
%TO.P,U1,5,GPIO5*%
%TO.N,row0*%
X153550000Y-166470000D03*
%TO.P,U1,5V,5V*%
%TO.N,+5V*%
X138310000Y-166470000D03*
%TO.P,U1,6,GPIO6*%
%TO.N,led*%
X153550000Y-169010000D03*
%TO.P,U1,7,GPIO7*%
%TO.N,row4*%
X153550000Y-171550000D03*
%TO.P,U1,8,GPIO8*%
%TO.N,row3*%
X153550000Y-174090000D03*
%TO.P,U1,9,GPIO9*%
%TO.N,row2*%
X153550000Y-176630000D03*
%TO.P,U1,10,GPIO10*%
%TO.N,row1*%
X153550000Y-179170000D03*
%TO.P,U1,20,GPIO20*%
%TO.N,col6*%
X153550000Y-181710000D03*
%TO.P,U1,21,GPIO21*%
%TO.N,col5*%
X153550000Y-184250000D03*
%TO.P,U1,G,GND*%
%TO.N,GND*%
X138310000Y-169010000D03*
%TD*%
D10*
%TO.P,SW2,1,1*%
%TO.N,col1*%
X177722000Y-173687500D03*
%TO.P,SW2,2,2*%
%TO.N,Net-(D2-A)*%
X184072000Y-171147500D03*
%TD*%
%TO.P,SW29,1,1*%
%TO.N,col0*%
X151032000Y-249887500D03*
%TO.P,SW29,2,2*%
%TO.N,Net-(D29-A)*%
X157382000Y-247347500D03*
%TD*%
D13*
%TO.N,GND*%
X241540330Y-206400000D03*
X167450000Y-224100000D03*
X190300000Y-255900000D03*
X152200000Y-255900000D03*
X253250000Y-273750000D03*
X184250000Y-198750000D03*
X190300000Y-236850000D03*
%TO.N,row1*%
X157150000Y-194450000D03*
%TO.N,+5V*%
X208704374Y-222854374D03*
%TO.N,GND*%
X171250000Y-255900000D03*
%TO.N,+5V*%
X256693948Y-271993948D03*
%TO.N,GND*%
X191850000Y-262200000D03*
X204550000Y-218000000D03*
X147750000Y-205100000D03*
X148400000Y-224100000D03*
X260500000Y-216850000D03*
X242550000Y-232550000D03*
X180450000Y-186050000D03*
%TO.N,+5V*%
X264596018Y-234746018D03*
%TO.N,GND*%
X266550000Y-257100000D03*
X241850000Y-212900000D03*
%TO.N,+5V*%
X245263006Y-211163006D03*
%TO.N,GND*%
X233900000Y-263200000D03*
%TO.N,+5V*%
X227326589Y-226826589D03*
%TO.N,GND*%
X223250000Y-208950000D03*
X165332000Y-198750000D03*
X159850000Y-179700000D03*
X254400000Y-189650000D03*
X146282000Y-198750000D03*
X153750000Y-262200000D03*
X260450000Y-229900000D03*
X191850000Y-243100000D03*
%TO.N,+5V*%
X277197375Y-198447375D03*
%TO.N,GND*%
X165900000Y-217800000D03*
X217900000Y-188350000D03*
X184950000Y-217800000D03*
X166750000Y-205050000D03*
X260174041Y-210350000D03*
X223950000Y-228550000D03*
X271900000Y-277700000D03*
X228550000Y-242600000D03*
X152200000Y-236800000D03*
X197950000Y-178200000D03*
X255150000Y-196250000D03*
X235800000Y-185700000D03*
X204272906Y-198450000D03*
X241800000Y-225950000D03*
X171250000Y-236850000D03*
X247950000Y-253150000D03*
X234650000Y-269800000D03*
X209900000Y-238600000D03*
X153750000Y-243150000D03*
X222906618Y-202450000D03*
X186500000Y-224050000D03*
X172800000Y-243200000D03*
X216000000Y-265800000D03*
X199500000Y-184550000D03*
X161400000Y-186000000D03*
X271150000Y-271100000D03*
X247200000Y-246550000D03*
X261200000Y-236500000D03*
X172800000Y-262150000D03*
X178900000Y-179700000D03*
X217150000Y-181750000D03*
X273800000Y-200250000D03*
X265800000Y-250500000D03*
X252500000Y-267150000D03*
X146850000Y-217800000D03*
X236500000Y-192300000D03*
X215250000Y-259250000D03*
%TO.N,+5V*%
X245973804Y-230773804D03*
%TO.N,GND*%
X205300000Y-224600000D03*
%TO.N,row4*%
X163150000Y-251500000D03*
%TO.N,+5V*%
X150822221Y-202622221D03*
X165078500Y-183578500D03*
X175947221Y-240697221D03*
X238046733Y-268046733D03*
X207961716Y-203211716D03*
X219424518Y-264074518D03*
X176492000Y-259775000D03*
X156872221Y-240722221D03*
X189492000Y-202625000D03*
X239927945Y-190527945D03*
X184132000Y-183550000D03*
X171142000Y-221650000D03*
X195542000Y-240725000D03*
X232686736Y-247436736D03*
X157442000Y-259750000D03*
X195542000Y-259750000D03*
X152092000Y-221675000D03*
X170442000Y-202625000D03*
%TO.N,GND*%
X210650000Y-245250000D03*
%TO.N,+5V*%
X263910221Y-215110221D03*
X269956166Y-255356166D03*
X258550160Y-194500160D03*
X202617021Y-182067021D03*
X221280730Y-186580730D03*
X190192000Y-221650000D03*
%TO.N,row2*%
X157800000Y-213350000D03*
%TO.N,row3*%
X163150000Y-232450000D03*
%TO.N,GND*%
X273050000Y-193600000D03*
X204600000Y-204950000D03*
X185850000Y-205050000D03*
%TO.N,+5V*%
X251333952Y-251383952D03*
X214064522Y-243464522D03*
X275316163Y-275966163D03*
X226650000Y-207200000D03*
%TO.N,GND*%
X223200000Y-222000000D03*
X229300000Y-249200000D03*
%TD*%
D14*
%TO.N,col4*%
X223527126Y-215909317D02*
X222306618Y-214688809D01*
X222829444Y-196285406D02*
X236107062Y-183007788D01*
%TO.N,col2*%
X189132000Y-230837500D02*
X189132000Y-249887500D01*
%TO.N,col6*%
X260794549Y-223830753D02*
X259574041Y-222610245D01*
%TO.N,col3*%
X210249596Y-235965520D02*
X210249596Y-232562712D01*
%TO.N,col4*%
X234239290Y-257137442D02*
X234239290Y-243334588D01*
%TO.N,col5*%
X246599000Y-254824157D02*
X252873002Y-261098159D01*
%TO.N,col6*%
X273374486Y-190929222D02*
X273374486Y-187553529D01*
%TO.N,col4*%
X222306618Y-214688809D02*
X222306618Y-196808232D01*
%TO.N,col1*%
X164732000Y-193437500D02*
X164032000Y-192737500D01*
%TO.N,col2*%
X183782000Y-225487500D02*
X183782000Y-211787500D01*
%TO.N,col6*%
X266150731Y-244444865D02*
X266150731Y-230642111D01*
%TO.N,col3*%
X203672906Y-210728092D02*
X203672906Y-192847514D01*
%TO.N,col5*%
X242160838Y-219870035D02*
X242160838Y-224739219D01*
%TO.N,col0*%
X151032000Y-230837500D02*
X145682000Y-225487500D01*
%TO.N,col3*%
X204195732Y-192324688D02*
X217473350Y-179047070D01*
X204893414Y-215351408D02*
X204893414Y-211948600D01*
%TO.N,col6*%
X268375562Y-250072504D02*
X266150731Y-247847673D01*
%TO.N,col5*%
X240939330Y-218648527D02*
X242160838Y-219870035D01*
X254740774Y-183592811D02*
X254740774Y-186968504D01*
%TO.N,col3*%
X210249596Y-232562712D02*
X210249596Y-218759958D01*
%TO.N,col4*%
X228883308Y-222720675D02*
X227699589Y-221536956D01*
%TO.N,col0*%
X145682000Y-193437500D02*
X144982000Y-192737500D01*
%TO.N,col2*%
X196772000Y-172187100D02*
X196772000Y-179047500D01*
%TO.N,col0*%
X155750000Y-186650000D02*
X151069500Y-186650000D01*
%TO.N,col1*%
X170082000Y-230837500D02*
X164732000Y-225487500D01*
%TO.N,col0*%
X158672000Y-173687500D02*
X158672000Y-183728000D01*
X145682000Y-225487500D02*
X145682000Y-211787500D01*
X145682000Y-211787500D02*
X145682000Y-193437500D01*
X158672000Y-183728000D02*
X155750000Y-186650000D01*
X151069500Y-186650000D02*
X144982000Y-192737500D01*
%TO.N,col3*%
X209065877Y-217576239D02*
X207118245Y-217576239D01*
%TO.N,col6*%
X266150731Y-247847673D02*
X266150731Y-244444865D01*
%TO.N,col0*%
X151032000Y-230837500D02*
X151032000Y-249887500D01*
%TO.N,col3*%
X210249596Y-218759958D02*
X209065877Y-217576239D01*
%TO.N,col6*%
X271506713Y-265058877D02*
X271506713Y-251256023D01*
%TO.N,col4*%
X236107062Y-183007788D02*
X236107062Y-179632093D01*
%TO.N,col6*%
X260794549Y-227233561D02*
X260794549Y-223830753D01*
%TO.N,col4*%
X222306618Y-196808232D02*
X222829444Y-196285406D01*
%TO.N,col1*%
X164032000Y-192737500D02*
X177722000Y-179047500D01*
%TO.N,col3*%
X217473350Y-179047070D02*
X217473350Y-175671376D01*
%TO.N,col5*%
X247517020Y-240484148D02*
X247517020Y-245383037D01*
%TO.N,col1*%
X177722000Y-179047500D02*
X177722000Y-173687500D01*
X164732000Y-225487500D02*
X164732000Y-211787500D01*
X164732000Y-211787500D02*
X164732000Y-193437500D01*
X170082000Y-249887500D02*
X170082000Y-230837500D01*
%TO.N,col2*%
X183082000Y-192737500D02*
X183082000Y-211087500D01*
X189132000Y-230837500D02*
X183782000Y-225487500D01*
X196772000Y-179047500D02*
X183082000Y-192737500D01*
X183082000Y-211087500D02*
X183782000Y-211787500D01*
%TO.N,col3*%
X215605578Y-253176724D02*
X215605578Y-239373870D01*
X203672906Y-192847514D02*
X204195732Y-192324688D01*
X215605578Y-239373870D02*
X214422059Y-238190351D01*
X207118245Y-217576239D02*
X204893414Y-215351408D01*
X212474427Y-238190351D02*
X210249596Y-235965520D01*
X204893414Y-211948600D02*
X203672906Y-210728092D01*
X214422059Y-238190351D02*
X212474427Y-238190351D01*
%TO.N,col4*%
X227699589Y-221536956D02*
X225751957Y-221536956D01*
X228883308Y-236523430D02*
X228883308Y-222720675D01*
X225751957Y-221536956D02*
X223527126Y-219312125D01*
X234239290Y-243334588D02*
X233055771Y-242151069D01*
X233055771Y-242151069D02*
X231108139Y-242151069D01*
X231108139Y-242151069D02*
X228883308Y-239926238D01*
X223527126Y-219312125D02*
X223527126Y-215909317D01*
X228883308Y-239926238D02*
X228883308Y-236523430D01*
%TO.N,col5*%
X242160838Y-224739219D02*
X241199000Y-225701057D01*
X240939330Y-200769948D02*
X240939330Y-218648527D01*
X246599000Y-246301057D02*
X246599000Y-254824157D01*
X254740774Y-186968504D02*
X241463155Y-200246123D01*
X247517020Y-245383037D02*
X246599000Y-246301057D01*
X241463155Y-200246123D02*
X240939330Y-200769948D01*
X241199000Y-225701057D02*
X241199000Y-234166128D01*
X241199000Y-234166128D02*
X247517020Y-240484148D01*
%TO.N,col6*%
X266150731Y-230642111D02*
X264967012Y-229458392D01*
X264967012Y-229458392D02*
X263019380Y-229458392D01*
X263019380Y-229458392D02*
X260794549Y-227233561D01*
X271506713Y-251256023D02*
X270323194Y-250072504D01*
X259574041Y-204729667D02*
X260096867Y-204206841D01*
X270323194Y-250072504D02*
X268375562Y-250072504D01*
X260096867Y-204206841D02*
X273374486Y-190929222D01*
X259574041Y-222610245D02*
X259574041Y-204729667D01*
%TD*%
M02*
