M48
; DRILL file {KiCad 9.0.3} date 2025-11-25T19:45:46-0500
; FORMAT={-:-/ absolute / inch / decimal}
; #@! TF.CreationDate,2025-11-25T19:45:46-05:00
; #@! TF.GenerationSoftware,Kicad,Pcbnew,9.0.3
; #@! TF.FileFunction,Plated,1,4,PTH
FMAT,2
INCH
; #@! TA.AperFunction,Plated,PTH,ViaDrill
T1C0.0118
; #@! TA.AperFunction,Plated,PTH,ComponentDrill
T2C0.0500
; #@! TA.AperFunction,Plated,PTH,ComponentDrill
T3C0.0591
; #@! TA.AperFunction,Plated,PTH,ComponentDrill
T4C0.0787
%
G90
G05
T1
X5.7591Y-7.8248
X5.7815Y-8.5748
X5.8169Y-8.0748
X5.8425Y-8.8228
X5.9379Y-7.9773
X5.9879Y-8.7274
X5.9921Y-9.3228
X5.9921Y-10.0748
X6.0531Y-9.5728
X6.0531Y-10.3228
X6.1761Y-9.4773
X6.187Y-7.6555
X6.1985Y-10.2264
X6.2126Y-8.3996
X6.2933Y-7.0748
X6.3543Y-7.3228
X6.4232Y-9.1516
X6.4232Y-9.9016
X6.4992Y-7.2275
X6.5091Y-7.8248
X6.5315Y-8.5748
X6.565Y-8.0728
X6.5925Y-8.8228
X6.7103Y-7.9774
X6.7379Y-8.7264
X6.7421Y-9.3248
X6.7421Y-10.0748
X6.8031Y-9.5748
X6.8031Y-10.3209
X6.9271Y-9.4763
X6.9485Y-10.2274
X7.0433Y-7.0748
X7.1043Y-7.3248
X7.2493Y-7.2264
X7.2539Y-7.8248
X7.2815Y-8.5748
X7.3169Y-8.0728
X7.3425Y-8.8209
X7.4603Y-7.9774
X7.4879Y-8.7264
X7.4921Y-9.3248
X7.4921Y-10.0748
X7.5531Y-9.5709
X7.5531Y-10.3228
X7.6985Y-9.4774
X7.6985Y-10.2264
X7.7933Y-7.0157
X7.8543Y-7.2657
X7.977Y-7.168
X8.0422Y-7.813
X8.0531Y-8.5827
X8.0551Y-8.0689
X8.0827Y-8.8425
X8.1875Y-8.0005
X8.2167Y-8.7738
X8.2638Y-9.3937
X8.2933Y-9.6555
X8.4277Y-9.5852
X8.4744Y-10.2067
X8.5039Y-10.4646
X8.5492Y-7.1555
X8.5787Y-7.4154
X8.6388Y-10.3966
X8.7118Y-7.3457
X8.7759Y-7.9705
X8.7874Y-8.7402
X8.7894Y-8.2264
X8.8169Y-8.998
X8.9232Y-8.1575
X8.9499Y-8.9302
X8.998Y-9.5512
X9.0276Y-9.811
X9.1609Y-9.7416
X9.2087Y-10.3622
X9.2382Y-10.622
X9.2835Y-7.311
X9.311Y-7.5709
X9.3719Y-10.553
X9.446Y-7.5011
X9.5095Y-8.126
X9.5197Y-8.8957
X9.5217Y-8.3819
X9.5492Y-9.1555
X9.656Y-8.3135
X9.684Y-9.0856
X9.7323Y-9.7067
X9.7618Y-9.9665
X9.895Y-9.897
X9.9409Y-10.5177
X9.9705Y-10.7776
X10.0157Y-7.4665
X10.0453Y-7.7264
X10.1061Y-10.7084
X10.1791Y-7.6575
X10.2431Y-8.2815
X10.2539Y-9.0512
X10.2559Y-8.5374
X10.2835Y-9.311
X10.3902Y-8.4689
X10.4172Y-9.242
X10.4646Y-9.8622
X10.4941Y-10.122
X10.6282Y-10.0534
X10.6752Y-10.6732
X10.7047Y-10.9331
X10.75Y-7.622
X10.7795Y-7.8839
X10.8392Y-10.8648
X10.9133Y-7.8129
T2
X5.4453Y-6.5539
X5.4453Y-6.6539
X5.4453Y-6.7539
X5.4453Y-6.8539
X5.4453Y-6.9539
X5.4453Y-7.0539
X5.4453Y-7.1539
X5.4453Y-7.2539
X6.0453Y-6.5539
X6.0453Y-6.6539
X6.0453Y-6.7539
X6.0453Y-6.8539
X6.0453Y-6.9539
X6.0453Y-7.0539
X6.0453Y-7.1539
X6.0453Y-7.2539
T3
X5.708Y-7.5881
X5.7355Y-8.3381
X5.9461Y-9.0881
X5.9461Y-9.8381
X5.958Y-7.4881
X5.9855Y-8.2381
X6.1961Y-8.9881
X6.1961Y-9.7381
X6.2469Y-6.8381
X6.458Y-7.5881
X6.4855Y-8.3381
X6.4969Y-6.7381
X6.6961Y-9.0881
X6.6961Y-9.8381
X6.708Y-7.4881
X6.7355Y-8.2381
X6.9461Y-8.9881
X6.9461Y-9.7381
X6.9969Y-6.8381
X7.208Y-7.5881
X7.2355Y-8.3381
X7.2469Y-6.7381
X7.4461Y-9.0881
X7.4461Y-9.8381
X7.458Y-7.4881
X7.4855Y-8.2381
X7.6961Y-8.9881
X7.6961Y-9.7381
X7.7469Y-6.779
X7.9969Y-6.679
X8.0392Y-7.5718
X8.0667Y-8.3444
X8.2775Y-9.156
X8.3045Y-7.526
X8.332Y-8.2986
X8.4884Y-9.9676
X8.5429Y-9.1102
X8.5619Y-6.9162
X8.7537Y-9.9218
X8.7728Y-7.7278
X8.8003Y-8.5004
X8.8273Y-6.8704
X9.0112Y-9.3119
X9.0381Y-7.6819
X9.0656Y-8.4545
X9.222Y-10.1235
X9.2765Y-9.2661
X9.2956Y-7.0721
X9.4873Y-10.0777
X9.5064Y-7.8837
X9.5339Y-8.6563
X9.5609Y-7.0263
X9.7448Y-9.4679
X9.7718Y-7.8379
X9.7992Y-8.6105
X9.9556Y-10.2795
X10.0101Y-9.422
X10.0292Y-7.2281
X10.221Y-10.2336
X10.24Y-8.0396
X10.2675Y-8.8122
X10.2945Y-7.1822
X10.4784Y-9.6238
X10.5054Y-7.9938
X10.5328Y-8.7664
X10.6892Y-10.4354
X10.7437Y-9.578
X10.7628Y-7.384
X10.9546Y-10.3896
X11.0281Y-7.3382
T4
X5.7008Y-9.185
X5.7008Y-9.4075
M30
