M48
; DRILL file {KiCad 9.0.3} date 2025-11-25T19:45:46-0500
; FORMAT={-:-/ absolute / inch / decimal}
; #@! TF.CreationDate,2025-11-25T19:45:46-05:00
; #@! TF.GenerationSoftware,Kicad,Pcbnew,9.0.3
; #@! TF.FileFunction,NonPlated,1,4,NPTH
FMAT,2
INCH
; #@! TA.AperFunction,NonPlated,NPTH,ComponentDrill
T1C0.0689
; #@! TA.AperFunction,NonPlated,NPTH,ComponentDrill
T2C0.1260
; #@! TA.AperFunction,NonPlated,NPTH,ComponentDrill
T3C0.1575
%
G90
G05
T1
X5.658Y-7.6881
X5.6855Y-8.4381
X5.8961Y-9.1881
X5.8961Y-9.9381
X6.058Y-7.6881
X6.0855Y-8.4381
X6.1969Y-6.9381
X6.2961Y-9.1881
X6.2961Y-9.9381
X6.408Y-7.6881
X6.4355Y-8.4381
X6.5969Y-6.9381
X6.6461Y-9.1881
X6.6461Y-9.9381
X6.808Y-7.6881
X6.8355Y-8.4381
X6.9469Y-6.9381
X7.0461Y-9.1881
X7.0461Y-9.9381
X7.158Y-7.6881
X7.1855Y-8.4381
X7.3469Y-6.9381
X7.3961Y-9.1881
X7.3961Y-9.9381
X7.558Y-7.6881
X7.5855Y-8.4381
X7.6969Y-6.879
X7.7961Y-9.1881
X7.7961Y-9.9381
X7.9695Y-7.6593
X7.997Y-8.4319
X8.0969Y-6.879
X8.2078Y-9.2434
X8.3608Y-7.7424
X8.3882Y-8.515
X8.4187Y-10.055
X8.4922Y-7.0036
X8.5991Y-9.3266
X8.7031Y-7.8152
X8.7306Y-8.5878
X8.81Y-10.1382
X8.8835Y-7.0868
X8.9415Y-9.3994
X9.0944Y-7.8984
X9.1218Y-8.671
X9.1523Y-10.2109
X9.2259Y-7.1595
X9.3327Y-9.4825
X9.4367Y-7.9711
X9.4642Y-8.7437
X9.5436Y-10.2941
X9.6171Y-7.2427
X9.6751Y-9.5553
X9.828Y-8.0543
X9.8555Y-8.8269
X9.8859Y-10.3669
X9.9595Y-7.3155
X10.0663Y-9.6385
X10.1703Y-8.1271
X10.1978Y-8.8997
X10.2772Y-10.45
X10.3507Y-7.3986
X10.4087Y-9.7112
X10.5616Y-8.2102
X10.5891Y-8.9828
X10.6195Y-10.5228
X10.6931Y-7.4714
X10.7999Y-9.7944
X11.0108Y-10.606
X11.0843Y-7.5546
T2
X5.6004Y-8.9744
X8.0807Y-10.313
X8.3563Y-6.5335
X10.9154Y-8.3445
X11.1122Y-10.0374
T3
X5.858Y-7.6881
X5.8855Y-8.4381
X6.0961Y-9.1881
X6.0961Y-9.9381
X6.3969Y-6.9381
X6.608Y-7.6881
X6.6355Y-8.4381
X6.8461Y-9.1881
X6.8461Y-9.9381
X7.1469Y-6.9381
X7.358Y-7.6881
X7.3855Y-8.4381
X7.5961Y-9.1881
X7.5961Y-9.9381
X7.8969Y-6.879
X8.1651Y-7.7008
X8.1926Y-8.4734
X8.4035Y-9.285
X8.6143Y-10.0966
X8.6879Y-7.0452
X8.8987Y-7.8568
X8.9262Y-8.6294
X9.1371Y-9.4409
X9.348Y-10.2525
X9.4215Y-7.2011
X9.6324Y-8.0127
X9.6598Y-8.7853
X9.8707Y-9.5969
X10.0816Y-10.4085
X10.1551Y-7.3571
X10.366Y-8.1686
X10.3934Y-8.9412
X10.6043Y-9.7528
X10.8152Y-10.5644
X10.8887Y-7.513
M30
