%TF.GenerationSoftware,KiCad,Pcbnew,9.0.3*%
%TF.CreationDate,2025-11-25T19:45:44-05:00*%
%TF.ProjectId,Wren,5772656e-2e6b-4696-9361-645f70636258,rev?*%
%TF.SameCoordinates,Original*%
%TF.FileFunction,Profile,NP*%
%FSLAX46Y46*%
G04 Gerber Fmt 4.6, Leading zero omitted, Abs format (unit mm)*
G04 Created by KiCad (PCBNEW 9.0.3) date 2025-11-25 19:45:44*
%MOMM*%
%LPD*%
G01*
G04 APERTURE LIST*
%TA.AperFunction,Profile*%
%ADD10C,0.050000*%
%TD*%
%TA.AperFunction,Profile*%
%ADD11C,0.120000*%
%TD*%
G04 APERTURE END LIST*
D10*
X289250000Y-178950000D02*
X210250000Y-161950000D01*
X142250000Y-264950000D02*
X199250000Y-264950000D01*
X135250000Y-161950000D02*
X156250000Y-161950000D01*
X135250000Y-161950000D02*
X135250000Y-189950000D01*
X289250000Y-259950000D02*
X284250000Y-282950000D01*
X289250000Y-259950000D02*
X278250000Y-230950000D01*
X289250000Y-178950000D02*
X278250000Y-230950000D01*
X156250000Y-161950000D02*
X210250000Y-161950000D01*
X135250000Y-189950000D02*
X142250000Y-264950000D01*
X199250000Y-264950000D02*
X284250000Y-282950000D01*
D11*
%TO.C,D64*%
X153142000Y-256252500D02*
X153142000Y-259252500D01*
X153142000Y-259252500D02*
X156542000Y-259252500D01*
X156542000Y-256252500D02*
X153142000Y-256252500D01*
X156542000Y-259252500D02*
X156542000Y-256252500D01*
%TO.C,D36*%
X160782000Y-180052500D02*
X160782000Y-183052500D01*
X160782000Y-183052500D02*
X164182000Y-183052500D01*
X164182000Y-180052500D02*
X160782000Y-180052500D01*
X164182000Y-183052500D02*
X164182000Y-180052500D01*
%TO.C,D67*%
X215722378Y-262775771D02*
X219048078Y-263482670D01*
X216346112Y-259841328D02*
X215722378Y-262775771D01*
X219048078Y-263482670D02*
X219671812Y-260548227D01*
X219671812Y-260548227D02*
X216346112Y-259841328D01*
%TO.C,D40*%
X236223862Y-189231140D02*
X239549562Y-189938039D01*
X236847596Y-186296697D02*
X236223862Y-189231140D01*
X239549562Y-189938039D02*
X240173296Y-187003596D01*
X240173296Y-187003596D02*
X236847596Y-186296697D01*
%TO.C,D37*%
X179832000Y-180052500D02*
X179832000Y-183052500D01*
X179832000Y-183052500D02*
X183232000Y-183052500D01*
X183232000Y-180052500D02*
X179832000Y-180052500D01*
X183232000Y-183052500D02*
X183232000Y-180052500D01*
%TO.C,D50*%
X147792000Y-218152500D02*
X147792000Y-221152500D01*
X147792000Y-221152500D02*
X151192000Y-221152500D01*
X151192000Y-218152500D02*
X147792000Y-218152500D01*
X151192000Y-221152500D02*
X151192000Y-218152500D01*
%TO.C,D38*%
X198882000Y-178552100D02*
X198882000Y-181552100D01*
X198882000Y-181552100D02*
X202282000Y-181552100D01*
X202282000Y-178552100D02*
X198882000Y-178552100D01*
X202282000Y-181552100D02*
X202282000Y-178552100D01*
%TO.C,D58*%
X172192000Y-237202500D02*
X172192000Y-240202500D01*
X172192000Y-240202500D02*
X175592000Y-240202500D01*
X175592000Y-237202500D02*
X172192000Y-237202500D01*
X175592000Y-240202500D02*
X175592000Y-237202500D01*
%TO.C,D46*%
X204312532Y-201923735D02*
X207638232Y-202630634D01*
X204936266Y-198989292D02*
X204312532Y-201923735D01*
X207638232Y-202630634D02*
X208261966Y-199696191D01*
X208261966Y-199696191D02*
X204936266Y-198989292D01*
%TO.C,D55*%
X242277638Y-229469082D02*
X245603338Y-230175981D01*
X242901372Y-226534639D02*
X242277638Y-229469082D01*
X245603338Y-230175981D02*
X246227072Y-227241538D01*
X246227072Y-227241538D02*
X242901372Y-226534639D01*
%TO.C,D59*%
X191242000Y-237202500D02*
X191242000Y-240202500D01*
X191242000Y-240202500D02*
X194642000Y-240202500D01*
X194642000Y-237202500D02*
X191242000Y-237202500D01*
X194642000Y-240202500D02*
X194642000Y-237202500D01*
%TO.C,D62*%
X247633820Y-250083194D02*
X250959520Y-250790093D01*
X248257554Y-247148751D02*
X247633820Y-250083194D01*
X250959520Y-250790093D02*
X251583254Y-247855650D01*
X251583254Y-247855650D02*
X248257554Y-247148751D01*
%TO.C,D42*%
X273491286Y-197152576D02*
X276816986Y-197859475D01*
X274115020Y-194218133D02*
X273491286Y-197152576D01*
X276816986Y-197859475D02*
X277440720Y-194925032D01*
X277440720Y-194925032D02*
X274115020Y-194218133D01*
%TO.C,D48*%
X241579956Y-209845170D02*
X244905656Y-210552069D01*
X242203690Y-206910727D02*
X241579956Y-209845170D01*
X244905656Y-210552069D02*
X245529390Y-207617626D01*
X245529390Y-207617626D02*
X242203690Y-206910727D01*
%TO.C,D63*%
X266267532Y-254043912D02*
X269593232Y-254750811D01*
X266891266Y-251109469D02*
X266267532Y-254043912D01*
X269593232Y-254750811D02*
X270216966Y-251816368D01*
X270216966Y-251816368D02*
X266891266Y-251109469D01*
%TO.C,D49*%
X260213667Y-213805888D02*
X263539367Y-214512787D01*
X260837401Y-210871445D02*
X260213667Y-213805888D01*
X263539367Y-214512787D02*
X264163101Y-211578344D01*
X264163101Y-211578344D02*
X260837401Y-210871445D01*
%TO.C,D41*%
X254857574Y-193191858D02*
X258183274Y-193898757D01*
X255481308Y-190257415D02*
X254857574Y-193191858D01*
X258183274Y-193898757D02*
X258807008Y-190964314D01*
X258807008Y-190964314D02*
X255481308Y-190257415D01*
%TO.C,D65*%
X172192000Y-256252500D02*
X172192000Y-259252500D01*
X172192000Y-259252500D02*
X175592000Y-259252500D01*
X175592000Y-256252500D02*
X172192000Y-256252500D01*
X175592000Y-259252500D02*
X175592000Y-256252500D01*
%TO.C,D53*%
X205010214Y-221547647D02*
X208335914Y-222254546D01*
X205633948Y-218613204D02*
X205010214Y-221547647D01*
X208335914Y-222254546D02*
X208959648Y-219320103D01*
X208959648Y-219320103D02*
X205633948Y-218613204D01*
%TO.C,D52*%
X185892000Y-218152500D02*
X185892000Y-221152500D01*
X185892000Y-221152500D02*
X189292000Y-221152500D01*
X189292000Y-218152500D02*
X185892000Y-218152500D01*
X189292000Y-221152500D02*
X189292000Y-218152500D01*
%TO.C,D43*%
X147092000Y-199102500D02*
X147092000Y-202102500D01*
X147092000Y-202102500D02*
X150492000Y-202102500D01*
X150492000Y-199102500D02*
X147092000Y-199102500D01*
X150492000Y-202102500D02*
X150492000Y-199102500D01*
%TO.C,D56*%
X260911350Y-233429800D02*
X264237050Y-234136699D01*
X261535084Y-230495357D02*
X260911350Y-233429800D01*
X264237050Y-234136699D02*
X264860784Y-231202256D01*
X264860784Y-231202256D02*
X261535084Y-230495357D01*
%TO.C,D60*%
X210366396Y-242161759D02*
X213692096Y-242868658D01*
X210990130Y-239227316D02*
X210366396Y-242161759D01*
X213692096Y-242868658D02*
X214315830Y-239934215D01*
X214315830Y-239934215D02*
X210990130Y-239227316D01*
%TO.C,D44*%
X166142000Y-199102500D02*
X166142000Y-202102500D01*
X166142000Y-202102500D02*
X169542000Y-202102500D01*
X169542000Y-199102500D02*
X166142000Y-199102500D01*
X169542000Y-202102500D02*
X169542000Y-199102500D01*
%TO.C,D54*%
X223643926Y-225508364D02*
X226969626Y-226215263D01*
X224267660Y-222573921D02*
X223643926Y-225508364D01*
X226969626Y-226215263D02*
X227593360Y-223280820D01*
X227593360Y-223280820D02*
X224267660Y-222573921D01*
%TO.C,D51*%
X166842000Y-218152500D02*
X166842000Y-221152500D01*
X166842000Y-221152500D02*
X170242000Y-221152500D01*
X170242000Y-218152500D02*
X166842000Y-218152500D01*
X170242000Y-221152500D02*
X170242000Y-218152500D01*
%TO.C,D45*%
X185192000Y-199102500D02*
X185192000Y-202102500D01*
X185192000Y-202102500D02*
X188592000Y-202102500D01*
X188592000Y-199102500D02*
X185192000Y-199102500D01*
X188592000Y-202102500D02*
X188592000Y-199102500D01*
%TO.C,D70*%
X271623514Y-274657924D02*
X274949214Y-275364823D01*
X272247248Y-271723481D02*
X271623514Y-274657924D01*
X274949214Y-275364823D02*
X275572948Y-272430380D01*
X275572948Y-272430380D02*
X272247248Y-271723481D01*
%TO.C,D61*%
X229000108Y-246122477D02*
X232325808Y-246829376D01*
X229623842Y-243188034D02*
X229000108Y-246122477D01*
X232325808Y-246829376D02*
X232949542Y-243894933D01*
X232949542Y-243894933D02*
X229623842Y-243188034D01*
%TO.C,D66*%
X191242000Y-256252500D02*
X191242000Y-259252500D01*
X191242000Y-259252500D02*
X194642000Y-259252500D01*
X194642000Y-256252500D02*
X191242000Y-256252500D01*
X194642000Y-259252500D02*
X194642000Y-256252500D01*
%TO.C,D69*%
X252989802Y-270697206D02*
X256315502Y-271404105D01*
X253613536Y-267762763D02*
X252989802Y-270697206D01*
X256315502Y-271404105D02*
X256939236Y-268469662D01*
X256939236Y-268469662D02*
X253613536Y-267762763D01*
%TO.C,D39*%
X217590151Y-185270422D02*
X220915851Y-185977321D01*
X218213885Y-182335979D02*
X217590151Y-185270422D01*
X220915851Y-185977321D02*
X221539585Y-183042878D01*
X221539585Y-183042878D02*
X218213885Y-182335979D01*
%TO.C,D47*%
X222946244Y-205884452D02*
X226271944Y-206591351D01*
X223569978Y-202950009D02*
X222946244Y-205884452D01*
X226271944Y-206591351D02*
X226895678Y-203656908D01*
X226895678Y-203656908D02*
X223569978Y-202950009D01*
%TO.C,D68*%
X234356090Y-266736488D02*
X237681790Y-267443387D01*
X234979824Y-263802045D02*
X234356090Y-266736488D01*
X237681790Y-267443387D02*
X238305524Y-264508944D01*
X238305524Y-264508944D02*
X234979824Y-263802045D01*
%TO.C,D57*%
X153142000Y-237202500D02*
X153142000Y-240202500D01*
X153142000Y-240202500D02*
X156542000Y-240202500D01*
X156542000Y-237202500D02*
X153142000Y-237202500D01*
X156542000Y-240202500D02*
X156542000Y-237202500D01*
%TD*%
M02*
