%TF.GenerationSoftware,KiCad,Pcbnew,9.0.3*%
%TF.CreationDate,2025-11-25T19:45:44-05:00*%
%TF.ProjectId,Wren,5772656e-2e6b-4696-9361-645f70636258,rev?*%
%TF.SameCoordinates,Original*%
%TF.FileFunction,Copper,L4,Bot*%
%TF.FilePolarity,Positive*%
%FSLAX46Y46*%
G04 Gerber Fmt 4.6, Leading zero omitted, Abs format (unit mm)*
G04 Created by KiCad (PCBNEW 9.0.3) date 2025-11-25 19:45:44*
%MOMM*%
%LPD*%
G01*
G04 APERTURE LIST*
G04 Aperture macros list*
%AMRoundRect*
0 Rectangle with rounded corners*
0 $1 Rounding radius*
0 $2 $3 $4 $5 $6 $7 $8 $9 X,Y pos of 4 corners*
0 Add a 4 corners polygon primitive as box body*
4,1,4,$2,$3,$4,$5,$6,$7,$8,$9,$2,$3,0*
0 Add four circle primitives for the rounded corners*
1,1,$1+$1,$2,$3*
1,1,$1+$1,$4,$5*
1,1,$1+$1,$6,$7*
1,1,$1+$1,$8,$9*
0 Add four rect primitives between the rounded corners*
20,1,$1+$1,$2,$3,$4,$5,0*
20,1,$1+$1,$4,$5,$6,$7,0*
20,1,$1+$1,$6,$7,$8,$9,0*
20,1,$1+$1,$8,$9,$2,$3,0*%
%AMRotRect*
0 Rectangle, with rotation*
0 The origin of the aperture is its center*
0 $1 length*
0 $2 width*
0 $3 Rotation angle, in degrees counterclockwise*
0 Add horizontal line*
21,1,$1,$2,0,0,$3*%
%AMOutline5P*
0 Free polygon, 5 corners , with rotation*
0 The origin of the aperture is its center*
0 number of corners: always 5*
0 $1 to $10 corner X, Y*
0 $11 Rotation angle, in degrees counterclockwise*
0 create outline with 5 corners*
4,1,5,$1,$2,$3,$4,$5,$6,$7,$8,$9,$10,$1,$2,$11*%
%AMOutline6P*
0 Free polygon, 6 corners , with rotation*
0 The origin of the aperture is its center*
0 number of corners: always 6*
0 $1 to $12 corner X, Y*
0 $13 Rotation angle, in degrees counterclockwise*
0 create outline with 6 corners*
4,1,6,$1,$2,$3,$4,$5,$6,$7,$8,$9,$10,$11,$12,$1,$2,$13*%
%AMOutline7P*
0 Free polygon, 7 corners , with rotation*
0 The origin of the aperture is its center*
0 number of corners: always 7*
0 $1 to $14 corner X, Y*
0 $15 Rotation angle, in degrees counterclockwise*
0 create outline with 7 corners*
4,1,7,$1,$2,$3,$4,$5,$6,$7,$8,$9,$10,$11,$12,$13,$14,$1,$2,$15*%
%AMOutline8P*
0 Free polygon, 8 corners , with rotation*
0 The origin of the aperture is its center*
0 number of corners: always 8*
0 $1 to $16 corner X, Y*
0 $17 Rotation angle, in degrees counterclockwise*
0 create outline with 8 corners*
4,1,8,$1,$2,$3,$4,$5,$6,$7,$8,$9,$10,$11,$12,$13,$14,$15,$16,$1,$2,$17*%
G04 Aperture macros list end*
%TA.AperFunction,ComponentPad*%
%ADD10C,2.500000*%
%TD*%
%TA.AperFunction,SMDPad,CuDef*%
%ADD11RoundRect,0.250000X0.428883X0.394450X-0.231367X0.534790X-0.428883X-0.394450X0.231367X-0.534790X0*%
%TD*%
%TA.AperFunction,SMDPad,CuDef*%
%ADD12RoundRect,0.250000X0.533375X-0.496750X0.689309X0.236861X-0.533375X0.496750X-0.689309X-0.236861X0*%
%TD*%
%TA.AperFunction,SMDPad,CuDef*%
%ADD13RoundRect,0.250000X0.625000X-0.375000X0.625000X0.375000X-0.625000X0.375000X-0.625000X-0.375000X0*%
%TD*%
%TA.AperFunction,SMDPad,CuDef*%
%ADD14R,1.800000X0.820000*%
%TD*%
%TA.AperFunction,SMDPad,CuDef*%
%ADD15Outline5P,-0.900000X0.410000X0.900000X0.410000X0.900000X-0.246000X0.736000X-0.410000X-0.900000X-0.410000X0.000000*%
%TD*%
%TA.AperFunction,SMDPad,CuDef*%
%ADD16RoundRect,0.250000X0.337500X0.475000X-0.337500X0.475000X-0.337500X-0.475000X0.337500X-0.475000X0*%
%TD*%
%TA.AperFunction,SMDPad,CuDef*%
%ADD17RotRect,1.800000X0.820000X348.000000*%
%TD*%
%TA.AperFunction,SMDPad,CuDef*%
%ADD18Outline5P,-0.900000X0.410000X0.900000X0.410000X0.900000X-0.246000X0.736000X-0.410000X-0.900000X-0.410000X348.000000*%
%TD*%
%TA.AperFunction,ComponentPad*%
%ADD19C,3.600000*%
%TD*%
%TA.AperFunction,ComponentPad*%
%ADD20C,1.905000*%
%TD*%
%TA.AperFunction,ViaPad*%
%ADD21C,0.600000*%
%TD*%
%TA.AperFunction,Conductor*%
%ADD22C,0.200000*%
%TD*%
G04 APERTURE END LIST*
D10*
%TO.P,SW13,1,1*%
%TO.N,col5*%
X241463155Y-200246123D03*
%TO.P,SW13,2,2*%
%TO.N,Net-(D13-A)*%
X248202488Y-199081868D03*
%TD*%
D11*
%TO.P,C25,1*%
%TO.N,+5V*%
X212732726Y-244195692D03*
%TO.P,C25,2*%
%TO.N,GND*%
X210703070Y-243764276D03*
%TD*%
D12*
%TO.P,D19,1,K*%
%TO.N,row2*%
X235384431Y-218698030D03*
%TO.P,D19,2,A*%
%TO.N,Net-(D19-A)*%
X235966583Y-215959216D03*
%TD*%
%TO.P,D28,1,K*%
%TO.N,row3*%
X278008037Y-247233578D03*
%TO.P,D28,2,A*%
%TO.N,Net-(D28-A)*%
X278590189Y-244494764D03*
%TD*%
D10*
%TO.P,SW20,1,1*%
%TO.N,col5*%
X242160838Y-219870035D03*
%TO.P,SW20,2,2*%
%TO.N,Net-(D20-A)*%
X248900171Y-218705780D03*
%TD*%
D13*
%TO.P,D9,1,K*%
%TO.N,row1*%
X176210000Y-193000000D03*
%TO.P,D9,2,A*%
%TO.N,Net-(D9-A)*%
X176210000Y-190200000D03*
%TD*%
%TO.P,D8,1,K*%
%TO.N,row1*%
X157160000Y-193000000D03*
%TO.P,D8,2,A*%
%TO.N,Net-(D8-A)*%
X157160000Y-190200000D03*
%TD*%
D10*
%TO.P,SW24,1,1*%
%TO.N,col2*%
X189132000Y-230837500D03*
%TO.P,SW24,2,2*%
%TO.N,Net-(D24-A)*%
X195482000Y-228297500D03*
%TD*%
%TO.P,SW16,1,1*%
%TO.N,col1*%
X164732000Y-211787500D03*
%TO.P,SW16,2,2*%
%TO.N,Net-(D16-A)*%
X171082000Y-209247500D03*
%TD*%
D14*
%TO.P,D64,1,DOUT*%
%TO.N,Net-(D64-DOUT)*%
X152242000Y-258502500D03*
D15*
%TO.P,D64,2,VSS*%
%TO.N,+5V*%
X157442000Y-258502500D03*
D14*
%TO.P,D64,3,DIN*%
%TO.N,Net-(D63-DOUT)*%
X157442000Y-257002500D03*
%TO.P,D64,4,VDD*%
%TO.N,GND*%
X152242000Y-257002500D03*
%TD*%
D16*
%TO.P,C31,1*%
%TO.N,+5V*%
X193979500Y-260750000D03*
%TO.P,C31,2*%
%TO.N,GND*%
X191904500Y-260750000D03*
%TD*%
D11*
%TO.P,C35,1*%
%TO.N,+5V*%
X273989843Y-276691857D03*
%TO.P,C35,2*%
%TO.N,GND*%
X271960187Y-276260441D03*
%TD*%
D10*
%TO.P,SW28,1,1*%
%TO.N,col6*%
X266150731Y-244444865D03*
%TO.P,SW28,2,2*%
%TO.N,Net-(D28-A)*%
X272890064Y-243280610D03*
%TD*%
D16*
%TO.P,C16,1*%
%TO.N,+5V*%
X169579500Y-222650000D03*
%TO.P,C16,2*%
%TO.N,GND*%
X167504500Y-222650000D03*
%TD*%
D14*
%TO.P,D36,1,DOUT*%
%TO.N,Net-(D36-DOUT)*%
X159882000Y-182302500D03*
D15*
%TO.P,D36,2,VSS*%
%TO.N,+5V*%
X165082000Y-182302500D03*
D14*
%TO.P,D36,3,DIN*%
%TO.N,led*%
X165082000Y-180802500D03*
%TO.P,D36,4,VDD*%
%TO.N,GND*%
X159882000Y-180802500D03*
%TD*%
D10*
%TO.P,SW8,1,1*%
%TO.N,col0*%
X144982000Y-192737500D03*
%TO.P,SW8,2,2*%
%TO.N,Net-(D8-A)*%
X151332000Y-190197500D03*
%TD*%
D13*
%TO.P,D2,1,K*%
%TO.N,row0*%
X189900000Y-173950000D03*
%TO.P,D2,2,A*%
%TO.N,Net-(D2-A)*%
X189900000Y-171150000D03*
%TD*%
D10*
%TO.P,SW6,1,1*%
%TO.N,col5*%
X254740774Y-183592811D03*
%TO.P,SW6,2,2*%
%TO.N,Net-(D6-A)*%
X261480107Y-182428556D03*
%TD*%
%TO.P,SW5,1,1*%
%TO.N,col4*%
X236107062Y-179632093D03*
%TO.P,SW5,2,2*%
%TO.N,Net-(D5-A)*%
X242846395Y-178467838D03*
%TD*%
D17*
%TO.P,D67,1,DOUT*%
%TO.N,Net-(D67-DOUT)*%
X214997976Y-261855039D03*
D18*
%TO.P,D67,2,VSS*%
%TO.N,+5V*%
X220084345Y-262936180D03*
D17*
%TO.P,D67,3,DIN*%
%TO.N,Net-(D66-DOUT)*%
X220396214Y-261468959D03*
%TO.P,D67,4,VDD*%
%TO.N,GND*%
X215309845Y-260387818D03*
%TD*%
%TO.P,D40,1,DOUT*%
%TO.N,Net-(D40-DOUT)*%
X235499460Y-188310408D03*
D18*
%TO.P,D40,2,VSS*%
%TO.N,+5V*%
X240585829Y-189391549D03*
D17*
%TO.P,D40,3,DIN*%
%TO.N,Net-(D39-DOUT)*%
X240897698Y-187924328D03*
%TO.P,D40,4,VDD*%
%TO.N,GND*%
X235811329Y-186843187D03*
%TD*%
D19*
%TO.P,J4,1,Pin_1*%
%TO.N,GND*%
X144800000Y-238950000D03*
%TD*%
D12*
%TO.P,D34,1,K*%
%TO.N,row4*%
X264730307Y-263886872D03*
%TO.P,D34,2,A*%
%TO.N,Net-(D34-A)*%
X265312459Y-261148058D03*
%TD*%
D10*
%TO.P,SW19,1,1*%
%TO.N,col4*%
X223527126Y-215909317D03*
%TO.P,SW19,2,2*%
%TO.N,Net-(D19-A)*%
X230266459Y-214745062D03*
%TD*%
D11*
%TO.P,C13,1*%
%TO.N,+5V*%
X243946285Y-211879103D03*
%TO.P,C13,2*%
%TO.N,GND*%
X241916629Y-211447687D03*
%TD*%
D10*
%TO.P,SW25,1,1*%
%TO.N,col3*%
X210249596Y-232562712D03*
%TO.P,SW25,2,2*%
%TO.N,Net-(D25-A)*%
X216988929Y-231398457D03*
%TD*%
D11*
%TO.P,C28,1*%
%TO.N,+5V*%
X268633861Y-256077846D03*
%TO.P,C28,2*%
%TO.N,GND*%
X266604205Y-255646430D03*
%TD*%
D14*
%TO.P,D37,1,DOUT*%
%TO.N,Net-(D37-DOUT)*%
X178932000Y-182302500D03*
D15*
%TO.P,D37,2,VSS*%
%TO.N,+5V*%
X184132000Y-182302500D03*
D14*
%TO.P,D37,3,DIN*%
%TO.N,Net-(D36-DOUT)*%
X184132000Y-180802500D03*
%TO.P,D37,4,VDD*%
%TO.N,GND*%
X178932000Y-180802500D03*
%TD*%
D12*
%TO.P,D21,1,K*%
%TO.N,row2*%
X272651855Y-226619466D03*
%TO.P,D21,2,A*%
%TO.N,Net-(D21-A)*%
X273234007Y-223880652D03*
%TD*%
D10*
%TO.P,SW30,1,1*%
%TO.N,col1*%
X170082000Y-249887500D03*
%TO.P,SW30,2,2*%
%TO.N,Net-(D30-A)*%
X176432000Y-247347500D03*
%TD*%
%TO.P,SW21,1,1*%
%TO.N,col6*%
X260794549Y-223830753D03*
%TO.P,SW21,2,2*%
%TO.N,Net-(D21-A)*%
X267533882Y-222666498D03*
%TD*%
%TO.P,SW3,1,1*%
%TO.N,col2*%
X196772000Y-172187100D03*
%TO.P,SW3,2,2*%
%TO.N,Net-(D3-A)*%
X203122000Y-169647100D03*
%TD*%
D14*
%TO.P,D50,1,DOUT*%
%TO.N,Net-(D50-DOUT)*%
X146892000Y-220402500D03*
D15*
%TO.P,D50,2,VSS*%
%TO.N,+5V*%
X152092000Y-220402500D03*
D14*
%TO.P,D50,3,DIN*%
%TO.N,Net-(D49-DOUT)*%
X152092000Y-218902500D03*
%TO.P,D50,4,VDD*%
%TO.N,GND*%
X146892000Y-218902500D03*
%TD*%
D10*
%TO.P,SW18,1,1*%
%TO.N,col3*%
X204893414Y-211948600D03*
%TO.P,SW18,2,2*%
%TO.N,Net-(D18-A)*%
X211632747Y-210784345D03*
%TD*%
D19*
%TO.P,J3,1,Pin_1*%
%TO.N,+5V*%
X144800000Y-233300000D03*
%TD*%
D10*
%TO.P,SW23,1,1*%
%TO.N,col1*%
X170082000Y-230837500D03*
%TO.P,SW23,2,2*%
%TO.N,Net-(D23-A)*%
X176432000Y-228297500D03*
%TD*%
D14*
%TO.P,D38,1,DOUT*%
%TO.N,Net-(D38-DOUT)*%
X197982000Y-180802100D03*
D15*
%TO.P,D38,2,VSS*%
%TO.N,+5V*%
X203182000Y-180802100D03*
D14*
%TO.P,D38,3,DIN*%
%TO.N,Net-(D37-DOUT)*%
X203182000Y-179302100D03*
%TO.P,D38,4,VDD*%
%TO.N,GND*%
X197982000Y-179302100D03*
%TD*%
D10*
%TO.P,SW4,1,1*%
%TO.N,col3*%
X217473350Y-175671376D03*
%TO.P,SW4,2,2*%
%TO.N,Net-(D4-A)*%
X224212683Y-174507121D03*
%TD*%
D12*
%TO.P,D35,1,K*%
%TO.N,row4*%
X283364019Y-267847590D03*
%TO.P,D35,2,A*%
%TO.N,Net-(D35-A)*%
X283946171Y-265108776D03*
%TD*%
D13*
%TO.P,D17,1,K*%
%TO.N,row2*%
X195960000Y-212050000D03*
%TO.P,D17,2,A*%
%TO.N,Net-(D17-A)*%
X195960000Y-209250000D03*
%TD*%
D14*
%TO.P,D58,1,DOUT*%
%TO.N,Net-(D58-DOUT)*%
X171292000Y-239452500D03*
D15*
%TO.P,D58,2,VSS*%
%TO.N,+5V*%
X176492000Y-239452500D03*
D14*
%TO.P,D58,3,DIN*%
%TO.N,Net-(D57-DOUT)*%
X176492000Y-237952500D03*
%TO.P,D58,4,VDD*%
%TO.N,GND*%
X171292000Y-237952500D03*
%TD*%
D17*
%TO.P,D46,1,DOUT*%
%TO.N,Net-(D46-DOUT)*%
X203588130Y-201003003D03*
D18*
%TO.P,D46,2,VSS*%
%TO.N,+5V*%
X208674499Y-202084144D03*
D17*
%TO.P,D46,3,DIN*%
%TO.N,Net-(D45-DOUT)*%
X208986368Y-200616923D03*
%TO.P,D46,4,VDD*%
%TO.N,GND*%
X203899999Y-199535782D03*
%TD*%
D16*
%TO.P,C24,1*%
%TO.N,+5V*%
X193979500Y-241700000D03*
%TO.P,C24,2*%
%TO.N,GND*%
X191904500Y-241700000D03*
%TD*%
D10*
%TO.P,SW34,1,1*%
%TO.N,col5*%
X252873002Y-261098159D03*
%TO.P,SW34,2,2*%
%TO.N,Net-(D34-A)*%
X259612335Y-259933904D03*
%TD*%
D16*
%TO.P,C22,1*%
%TO.N,+5V*%
X155879500Y-241700000D03*
%TO.P,C22,2*%
%TO.N,GND*%
X153804500Y-241700000D03*
%TD*%
D12*
%TO.P,D32,1,K*%
%TO.N,row4*%
X227462883Y-255965437D03*
%TO.P,D32,2,A*%
%TO.N,Net-(D32-A)*%
X228045035Y-253226623D03*
%TD*%
D17*
%TO.P,D55,1,DOUT*%
%TO.N,Net-(D55-DOUT)*%
X241553236Y-228548350D03*
D18*
%TO.P,D55,2,VSS*%
%TO.N,+5V*%
X246639605Y-229629491D03*
D17*
%TO.P,D55,3,DIN*%
%TO.N,Net-(D54-DOUT)*%
X246951474Y-228162270D03*
%TO.P,D55,4,VDD*%
%TO.N,GND*%
X241865105Y-227081129D03*
%TD*%
D11*
%TO.P,C34,1*%
%TO.N,+5V*%
X255356132Y-272731139D03*
%TO.P,C34,2*%
%TO.N,GND*%
X253326476Y-272299723D03*
%TD*%
D12*
%TO.P,D27,1,K*%
%TO.N,row3*%
X259374325Y-243272861D03*
%TO.P,D27,2,A*%
%TO.N,Net-(D27-A)*%
X259956477Y-240534047D03*
%TD*%
D14*
%TO.P,D59,1,DOUT*%
%TO.N,Net-(D59-DOUT)*%
X190342000Y-239452500D03*
D15*
%TO.P,D59,2,VSS*%
%TO.N,+5V*%
X195542000Y-239452500D03*
D14*
%TO.P,D59,3,DIN*%
%TO.N,Net-(D58-DOUT)*%
X195542000Y-237952500D03*
%TO.P,D59,4,VDD*%
%TO.N,GND*%
X190342000Y-237952500D03*
%TD*%
D10*
%TO.P,SW11,1,1*%
%TO.N,col3*%
X204195732Y-192324688D03*
%TO.P,SW11,2,2*%
%TO.N,Net-(D11-A)*%
X210935065Y-191160433D03*
%TD*%
D12*
%TO.P,D12,1,K*%
%TO.N,row1*%
X234686749Y-199074119D03*
%TO.P,D12,2,A*%
%TO.N,Net-(D12-A)*%
X235268901Y-196335305D03*
%TD*%
D10*
%TO.P,SW32,1,1*%
%TO.N,col3*%
X215605578Y-253176724D03*
%TO.P,SW32,2,2*%
%TO.N,Net-(D32-A)*%
X222344911Y-252012469D03*
%TD*%
D11*
%TO.P,C5,1*%
%TO.N,+5V*%
X238590192Y-191265074D03*
%TO.P,C5,2*%
%TO.N,GND*%
X236560536Y-190833658D03*
%TD*%
D10*
%TO.P,SW9,1,1*%
%TO.N,col1*%
X164032000Y-192737500D03*
%TO.P,SW9,2,2*%
%TO.N,Net-(D9-A)*%
X170382000Y-190197500D03*
%TD*%
D11*
%TO.P,C20,1*%
%TO.N,+5V*%
X244643968Y-231503015D03*
%TO.P,C20,2*%
%TO.N,GND*%
X242614312Y-231071599D03*
%TD*%
D17*
%TO.P,D62,1,DOUT*%
%TO.N,Net-(D62-DOUT)*%
X246909418Y-249162462D03*
D18*
%TO.P,D62,2,VSS*%
%TO.N,+5V*%
X251995787Y-250243603D03*
D17*
%TO.P,D62,3,DIN*%
%TO.N,Net-(D61-DOUT)*%
X252307656Y-248776382D03*
%TO.P,D62,4,VDD*%
%TO.N,GND*%
X247221287Y-247695241D03*
%TD*%
D12*
%TO.P,D20,1,K*%
%TO.N,row2*%
X254018143Y-222658748D03*
%TO.P,D20,2,A*%
%TO.N,Net-(D20-A)*%
X254600295Y-219919934D03*
%TD*%
D17*
%TO.P,D42,1,DOUT*%
%TO.N,Net-(D42-DOUT)*%
X272766884Y-196231844D03*
D18*
%TO.P,D42,2,VSS*%
%TO.N,+5V*%
X277853253Y-197312985D03*
D17*
%TO.P,D42,3,DIN*%
%TO.N,Net-(D41-DOUT)*%
X278165122Y-195845764D03*
%TO.P,D42,4,VDD*%
%TO.N,GND*%
X273078753Y-194764623D03*
%TD*%
D10*
%TO.P,SW7,1,1*%
%TO.N,col6*%
X273374486Y-187553529D03*
%TO.P,SW7,2,2*%
%TO.N,Net-(D7-A)*%
X280113819Y-186389274D03*
%TD*%
D13*
%TO.P,D1,1,K*%
%TO.N,row0*%
X170850000Y-173950000D03*
%TO.P,D1,2,A*%
%TO.N,Net-(D1-A)*%
X170850000Y-171150000D03*
%TD*%
D10*
%TO.P,SW10,1,1*%
%TO.N,col2*%
X183082000Y-192737500D03*
%TO.P,SW10,2,2*%
%TO.N,Net-(D10-A)*%
X189432000Y-190197500D03*
%TD*%
D11*
%TO.P,C12,1*%
%TO.N,+5V*%
X225312574Y-207918386D03*
%TO.P,C12,2*%
%TO.N,GND*%
X223282918Y-207486970D03*
%TD*%
D16*
%TO.P,C2,1*%
%TO.N,+5V*%
X182569500Y-184550000D03*
%TO.P,C2,2*%
%TO.N,GND*%
X180494500Y-184550000D03*
%TD*%
D12*
%TO.P,D26,1,K*%
%TO.N,row3*%
X240740613Y-239312143D03*
%TO.P,D26,2,A*%
%TO.N,Net-(D26-A)*%
X241322765Y-236573329D03*
%TD*%
D16*
%TO.P,C17,1*%
%TO.N,+5V*%
X188629500Y-222650000D03*
%TO.P,C17,2*%
%TO.N,GND*%
X186554500Y-222650000D03*
%TD*%
%TO.P,C29,1*%
%TO.N,+5V*%
X155879500Y-260750000D03*
%TO.P,C29,2*%
%TO.N,GND*%
X153804500Y-260750000D03*
%TD*%
D11*
%TO.P,C14,1*%
%TO.N,+5V*%
X262579997Y-215839821D03*
%TO.P,C14,2*%
%TO.N,GND*%
X260550341Y-215408405D03*
%TD*%
D13*
%TO.P,D23,1,K*%
%TO.N,row3*%
X182260000Y-231100000D03*
%TO.P,D23,2,A*%
%TO.N,Net-(D23-A)*%
X182260000Y-228300000D03*
%TD*%
D17*
%TO.P,D48,1,DOUT*%
%TO.N,Net-(D48-DOUT)*%
X240855554Y-208924438D03*
D18*
%TO.P,D48,2,VSS*%
%TO.N,+5V*%
X245941923Y-210005579D03*
D17*
%TO.P,D48,3,DIN*%
%TO.N,Net-(D47-DOUT)*%
X246253792Y-208538358D03*
%TO.P,D48,4,VDD*%
%TO.N,GND*%
X241167423Y-207457217D03*
%TD*%
D10*
%TO.P,SW26,1,1*%
%TO.N,col4*%
X228883308Y-236523430D03*
%TO.P,SW26,2,2*%
%TO.N,Net-(D26-A)*%
X235622641Y-235359175D03*
%TD*%
D17*
%TO.P,D63,1,DOUT*%
%TO.N,Net-(D63-DOUT)*%
X265543130Y-253123180D03*
D18*
%TO.P,D63,2,VSS*%
%TO.N,+5V*%
X270629499Y-254204321D03*
D17*
%TO.P,D63,3,DIN*%
%TO.N,Net-(D62-DOUT)*%
X270941368Y-252737100D03*
%TO.P,D63,4,VDD*%
%TO.N,GND*%
X265854999Y-251655959D03*
%TD*%
D13*
%TO.P,D29,1,K*%
%TO.N,row4*%
X163210000Y-250150000D03*
%TO.P,D29,2,A*%
%TO.N,Net-(D29-A)*%
X163210000Y-247350000D03*
%TD*%
D17*
%TO.P,D49,1,DOUT*%
%TO.N,Net-(D49-DOUT)*%
X259489265Y-212885156D03*
D18*
%TO.P,D49,2,VSS*%
%TO.N,+5V*%
X264575634Y-213966297D03*
D17*
%TO.P,D49,3,DIN*%
%TO.N,Net-(D48-DOUT)*%
X264887503Y-212499076D03*
%TO.P,D49,4,VDD*%
%TO.N,GND*%
X259801134Y-211417935D03*
%TD*%
D12*
%TO.P,D4,1,K*%
%TO.N,row0*%
X229330656Y-178460089D03*
%TO.P,D4,2,A*%
%TO.N,Net-(D4-A)*%
X229912808Y-175721275D03*
%TD*%
D17*
%TO.P,D41,1,DOUT*%
%TO.N,Net-(D41-DOUT)*%
X254133172Y-192271126D03*
D18*
%TO.P,D41,2,VSS*%
%TO.N,+5V*%
X259219541Y-193352267D03*
D17*
%TO.P,D41,3,DIN*%
%TO.N,Net-(D40-DOUT)*%
X259531410Y-191885046D03*
%TO.P,D41,4,VDD*%
%TO.N,GND*%
X254445041Y-190803905D03*
%TD*%
D14*
%TO.P,D65,1,DOUT*%
%TO.N,Net-(D65-DOUT)*%
X171292000Y-258502500D03*
D15*
%TO.P,D65,2,VSS*%
%TO.N,+5V*%
X176492000Y-258502500D03*
D14*
%TO.P,D65,3,DIN*%
%TO.N,Net-(D64-DOUT)*%
X176492000Y-257002500D03*
%TO.P,D65,4,VDD*%
%TO.N,GND*%
X171292000Y-257002500D03*
%TD*%
D12*
%TO.P,D33,1,K*%
%TO.N,row4*%
X246096595Y-259926154D03*
%TO.P,D33,2,A*%
%TO.N,Net-(D33-A)*%
X246678747Y-257187340D03*
%TD*%
D17*
%TO.P,D53,1,DOUT*%
%TO.N,Net-(D53-DOUT)*%
X204285812Y-220626915D03*
D18*
%TO.P,D53,2,VSS*%
%TO.N,+5V*%
X209372181Y-221708056D03*
D17*
%TO.P,D53,3,DIN*%
%TO.N,Net-(D52-DOUT)*%
X209684050Y-220240835D03*
%TO.P,D53,4,VDD*%
%TO.N,GND*%
X204597681Y-219159694D03*
%TD*%
D14*
%TO.P,D52,1,DOUT*%
%TO.N,Net-(D52-DOUT)*%
X184992000Y-220402500D03*
D15*
%TO.P,D52,2,VSS*%
%TO.N,+5V*%
X190192000Y-220402500D03*
D14*
%TO.P,D52,3,DIN*%
%TO.N,Net-(D51-DOUT)*%
X190192000Y-218902500D03*
%TO.P,D52,4,VDD*%
%TO.N,GND*%
X184992000Y-218902500D03*
%TD*%
%TO.P,D43,1,DOUT*%
%TO.N,Net-(D43-DOUT)*%
X146192000Y-201352500D03*
D15*
%TO.P,D43,2,VSS*%
%TO.N,+5V*%
X151392000Y-201352500D03*
D14*
%TO.P,D43,3,DIN*%
%TO.N,Net-(D42-DOUT)*%
X151392000Y-199852500D03*
%TO.P,D43,4,VDD*%
%TO.N,GND*%
X146192000Y-199852500D03*
%TD*%
D17*
%TO.P,D56,1,DOUT*%
%TO.N,Net-(D56-DOUT)*%
X260186948Y-232509068D03*
D18*
%TO.P,D56,2,VSS*%
%TO.N,+5V*%
X265273317Y-233590209D03*
D17*
%TO.P,D56,3,DIN*%
%TO.N,Net-(D55-DOUT)*%
X265585186Y-232122988D03*
%TO.P,D56,4,VDD*%
%TO.N,GND*%
X260498817Y-231041847D03*
%TD*%
D11*
%TO.P,C4,1*%
%TO.N,+5V*%
X219956480Y-187304356D03*
%TO.P,C4,2*%
%TO.N,GND*%
X217926824Y-186872940D03*
%TD*%
D12*
%TO.P,D6,1,K*%
%TO.N,row0*%
X266598079Y-186381524D03*
%TO.P,D6,2,A*%
%TO.N,Net-(D6-A)*%
X267180231Y-183642710D03*
%TD*%
D17*
%TO.P,D60,1,DOUT*%
%TO.N,Net-(D60-DOUT)*%
X209641994Y-241241027D03*
D18*
%TO.P,D60,2,VSS*%
%TO.N,+5V*%
X214728363Y-242322168D03*
D17*
%TO.P,D60,3,DIN*%
%TO.N,Net-(D59-DOUT)*%
X215040232Y-240854947D03*
%TO.P,D60,4,VDD*%
%TO.N,GND*%
X209953863Y-239773806D03*
%TD*%
D14*
%TO.P,D44,1,DOUT*%
%TO.N,Net-(D44-DOUT)*%
X165242000Y-201352500D03*
D15*
%TO.P,D44,2,VSS*%
%TO.N,+5V*%
X170442000Y-201352500D03*
D14*
%TO.P,D44,3,DIN*%
%TO.N,Net-(D43-DOUT)*%
X170442000Y-199852500D03*
%TO.P,D44,4,VDD*%
%TO.N,GND*%
X165242000Y-199852500D03*
%TD*%
D17*
%TO.P,D54,1,DOUT*%
%TO.N,Net-(D54-DOUT)*%
X222919524Y-224587632D03*
D18*
%TO.P,D54,2,VSS*%
%TO.N,+5V*%
X228005893Y-225668773D03*
D17*
%TO.P,D54,3,DIN*%
%TO.N,Net-(D53-DOUT)*%
X228317762Y-224201552D03*
%TO.P,D54,4,VDD*%
%TO.N,GND*%
X223231393Y-223120411D03*
%TD*%
D14*
%TO.P,D51,1,DOUT*%
%TO.N,Net-(D51-DOUT)*%
X165942000Y-220402500D03*
D15*
%TO.P,D51,2,VSS*%
%TO.N,+5V*%
X171142000Y-220402500D03*
D14*
%TO.P,D51,3,DIN*%
%TO.N,Net-(D50-DOUT)*%
X171142000Y-218902500D03*
%TO.P,D51,4,VDD*%
%TO.N,GND*%
X165942000Y-218902500D03*
%TD*%
D11*
%TO.P,C27,1*%
%TO.N,+5V*%
X250000150Y-252117128D03*
%TO.P,C27,2*%
%TO.N,GND*%
X247970494Y-251685712D03*
%TD*%
D16*
%TO.P,C15,1*%
%TO.N,+5V*%
X150529500Y-222650000D03*
%TO.P,C15,2*%
%TO.N,GND*%
X148454500Y-222650000D03*
%TD*%
D11*
%TO.P,C11,1*%
%TO.N,+5V*%
X206678862Y-203957668D03*
%TO.P,C11,2*%
%TO.N,GND*%
X204649206Y-203526252D03*
%TD*%
D10*
%TO.P,SW15,1,1*%
%TO.N,col0*%
X145682000Y-211787500D03*
%TO.P,SW15,2,2*%
%TO.N,Net-(D15-A)*%
X152032000Y-209247500D03*
%TD*%
D14*
%TO.P,D45,1,DOUT*%
%TO.N,Net-(D45-DOUT)*%
X184292000Y-201352500D03*
D15*
%TO.P,D45,2,VSS*%
%TO.N,+5V*%
X189492000Y-201352500D03*
D14*
%TO.P,D45,3,DIN*%
%TO.N,Net-(D44-DOUT)*%
X189492000Y-199852500D03*
%TO.P,D45,4,VDD*%
%TO.N,GND*%
X184292000Y-199852500D03*
%TD*%
D13*
%TO.P,D24,1,K*%
%TO.N,row3*%
X201310000Y-231100000D03*
%TO.P,D24,2,A*%
%TO.N,Net-(D24-A)*%
X201310000Y-228300000D03*
%TD*%
D10*
%TO.P,SW1,1,1*%
%TO.N,col0*%
X158672000Y-173687500D03*
%TO.P,SW1,2,2*%
%TO.N,Net-(D1-A)*%
X165022000Y-171147500D03*
%TD*%
D13*
%TO.P,D3,1,K*%
%TO.N,row0*%
X208950000Y-172449600D03*
%TO.P,D3,2,A*%
%TO.N,Net-(D3-A)*%
X208950000Y-169649600D03*
%TD*%
%TO.P,D30,1,K*%
%TO.N,row4*%
X182260000Y-250150000D03*
%TO.P,D30,2,A*%
%TO.N,Net-(D30-A)*%
X182260000Y-247350000D03*
%TD*%
%TO.P,D16,1,K*%
%TO.N,row2*%
X176910000Y-212050000D03*
%TO.P,D16,2,A*%
%TO.N,Net-(D16-A)*%
X176910000Y-209250000D03*
%TD*%
%TO.P,D31,1,K*%
%TO.N,row4*%
X201310000Y-250150000D03*
%TO.P,D31,2,A*%
%TO.N,Net-(D31-A)*%
X201310000Y-247350000D03*
%TD*%
D10*
%TO.P,SW22,1,1*%
%TO.N,col0*%
X151032000Y-230837500D03*
%TO.P,SW22,2,2*%
%TO.N,Net-(D22-A)*%
X157382000Y-228297500D03*
%TD*%
D16*
%TO.P,C1,1*%
%TO.N,+5V*%
X163519500Y-184550000D03*
%TO.P,C1,2*%
%TO.N,GND*%
X161444500Y-184550000D03*
%TD*%
D11*
%TO.P,C21,1*%
%TO.N,+5V*%
X263277679Y-235463733D03*
%TO.P,C21,2*%
%TO.N,GND*%
X261248023Y-235032317D03*
%TD*%
D12*
%TO.P,D14,1,K*%
%TO.N,row1*%
X271954173Y-206995554D03*
%TO.P,D14,2,A*%
%TO.N,Net-(D14-A)*%
X272536325Y-204256740D03*
%TD*%
D10*
%TO.P,SW33,1,1*%
%TO.N,col4*%
X234239290Y-257137442D03*
%TO.P,SW33,2,2*%
%TO.N,Net-(D33-A)*%
X240978623Y-255973187D03*
%TD*%
D16*
%TO.P,C8,1*%
%TO.N,+5V*%
X149829500Y-203600000D03*
%TO.P,C8,2*%
%TO.N,GND*%
X147754500Y-203600000D03*
%TD*%
D17*
%TO.P,D70,1,DOUT*%
%TO.N,unconnected-(D70-DOUT-Pad1)*%
X270899112Y-273737192D03*
D18*
%TO.P,D70,2,VSS*%
%TO.N,+5V*%
X275985481Y-274818333D03*
D17*
%TO.P,D70,3,DIN*%
%TO.N,Net-(D69-DOUT)*%
X276297350Y-273351112D03*
%TO.P,D70,4,VDD*%
%TO.N,GND*%
X271210981Y-272269971D03*
%TD*%
D16*
%TO.P,C3,1*%
%TO.N,+5V*%
X201619500Y-183049600D03*
%TO.P,C3,2*%
%TO.N,GND*%
X199544500Y-183049600D03*
%TD*%
D10*
%TO.P,SW17,1,1*%
%TO.N,col2*%
X183782000Y-211787500D03*
%TO.P,SW17,2,2*%
%TO.N,Net-(D17-A)*%
X190132000Y-209247500D03*
%TD*%
D12*
%TO.P,D18,1,K*%
%TO.N,row2*%
X216750719Y-214737313D03*
%TO.P,D18,2,A*%
%TO.N,Net-(D18-A)*%
X217332871Y-211998499D03*
%TD*%
%TO.P,D11,1,K*%
%TO.N,row1*%
X216053037Y-195113401D03*
%TO.P,D11,2,A*%
%TO.N,Net-(D11-A)*%
X216635189Y-192374587D03*
%TD*%
D11*
%TO.P,C18,1*%
%TO.N,+5V*%
X207376544Y-223581580D03*
%TO.P,C18,2*%
%TO.N,GND*%
X205346888Y-223150164D03*
%TD*%
D13*
%TO.P,D10,1,K*%
%TO.N,row1*%
X195260000Y-193000000D03*
%TO.P,D10,2,A*%
%TO.N,Net-(D10-A)*%
X195260000Y-190200000D03*
%TD*%
D10*
%TO.P,SW35,1,1*%
%TO.N,col6*%
X271506713Y-265058877D03*
%TO.P,SW35,2,2*%
%TO.N,Net-(D35-A)*%
X278246046Y-263894622D03*
%TD*%
D17*
%TO.P,D61,1,DOUT*%
%TO.N,Net-(D61-DOUT)*%
X228275706Y-245201745D03*
D18*
%TO.P,D61,2,VSS*%
%TO.N,+5V*%
X233362075Y-246282886D03*
D17*
%TO.P,D61,3,DIN*%
%TO.N,Net-(D60-DOUT)*%
X233673944Y-244815665D03*
%TO.P,D61,4,VDD*%
%TO.N,GND*%
X228587575Y-243734524D03*
%TD*%
D11*
%TO.P,C7,1*%
%TO.N,+5V*%
X275857616Y-199186509D03*
%TO.P,C7,2*%
%TO.N,GND*%
X273827960Y-198755093D03*
%TD*%
D10*
%TO.P,SW12,1,1*%
%TO.N,col4*%
X222829444Y-196285406D03*
%TO.P,SW12,2,2*%
%TO.N,Net-(D12-A)*%
X229568777Y-195121151D03*
%TD*%
D14*
%TO.P,D66,1,DOUT*%
%TO.N,Net-(D66-DOUT)*%
X190342000Y-258502500D03*
D15*
%TO.P,D66,2,VSS*%
%TO.N,+5V*%
X195542000Y-258502500D03*
D14*
%TO.P,D66,3,DIN*%
%TO.N,Net-(D65-DOUT)*%
X195542000Y-257002500D03*
%TO.P,D66,4,VDD*%
%TO.N,GND*%
X190342000Y-257002500D03*
%TD*%
D10*
%TO.P,SW14,1,1*%
%TO.N,col6*%
X260096867Y-204206841D03*
%TO.P,SW14,2,2*%
%TO.N,Net-(D14-A)*%
X266836200Y-203042586D03*
%TD*%
D11*
%TO.P,C33,1*%
%TO.N,+5V*%
X236722420Y-268770422D03*
%TO.P,C33,2*%
%TO.N,GND*%
X234692764Y-268339006D03*
%TD*%
%TO.P,C26,1*%
%TO.N,+5V*%
X231366438Y-248156410D03*
%TO.P,C26,2*%
%TO.N,GND*%
X229336782Y-247724994D03*
%TD*%
D12*
%TO.P,D13,1,K*%
%TO.N,row1*%
X253320461Y-203034836D03*
%TO.P,D13,2,A*%
%TO.N,Net-(D13-A)*%
X253902613Y-200296022D03*
%TD*%
D11*
%TO.P,C32,1*%
%TO.N,+5V*%
X218088708Y-264809704D03*
%TO.P,C32,2*%
%TO.N,GND*%
X216059052Y-264378288D03*
%TD*%
D17*
%TO.P,D69,1,DOUT*%
%TO.N,Net-(D69-DOUT)*%
X252265400Y-269776474D03*
D18*
%TO.P,D69,2,VSS*%
%TO.N,+5V*%
X257351769Y-270857615D03*
D17*
%TO.P,D69,3,DIN*%
%TO.N,Net-(D68-DOUT)*%
X257663638Y-269390394D03*
%TO.P,D69,4,VDD*%
%TO.N,GND*%
X252577269Y-268309253D03*
%TD*%
D13*
%TO.P,D15,1,K*%
%TO.N,row2*%
X157860000Y-212050000D03*
%TO.P,D15,2,A*%
%TO.N,Net-(D15-A)*%
X157860000Y-209250000D03*
%TD*%
D11*
%TO.P,C6,1*%
%TO.N,+5V*%
X257223904Y-195225791D03*
%TO.P,C6,2*%
%TO.N,GND*%
X255194248Y-194794375D03*
%TD*%
D16*
%TO.P,C10,1*%
%TO.N,+5V*%
X187929500Y-203600000D03*
%TO.P,C10,2*%
%TO.N,GND*%
X185854500Y-203600000D03*
%TD*%
D12*
%TO.P,D5,1,K*%
%TO.N,row0*%
X247964368Y-182420806D03*
%TO.P,D5,2,A*%
%TO.N,Net-(D5-A)*%
X248546520Y-179681992D03*
%TD*%
D16*
%TO.P,C30,1*%
%TO.N,+5V*%
X174929500Y-260750000D03*
%TO.P,C30,2*%
%TO.N,GND*%
X172854500Y-260750000D03*
%TD*%
D17*
%TO.P,D39,1,DOUT*%
%TO.N,Net-(D39-DOUT)*%
X216865749Y-184349690D03*
D18*
%TO.P,D39,2,VSS*%
%TO.N,+5V*%
X221952118Y-185430831D03*
D17*
%TO.P,D39,3,DIN*%
%TO.N,Net-(D38-DOUT)*%
X222263987Y-183963610D03*
%TO.P,D39,4,VDD*%
%TO.N,GND*%
X217177618Y-182882469D03*
%TD*%
D12*
%TO.P,D25,1,K*%
%TO.N,row3*%
X222106901Y-235351425D03*
%TO.P,D25,2,A*%
%TO.N,Net-(D25-A)*%
X222689053Y-232612611D03*
%TD*%
D10*
%TO.P,SW27,1,1*%
%TO.N,col5*%
X247517020Y-240484148D03*
%TO.P,SW27,2,2*%
%TO.N,Net-(D27-A)*%
X254256353Y-239319893D03*
%TD*%
D11*
%TO.P,C19,1*%
%TO.N,+5V*%
X226010256Y-227542298D03*
%TO.P,C19,2*%
%TO.N,GND*%
X223980600Y-227110882D03*
%TD*%
D17*
%TO.P,D47,1,DOUT*%
%TO.N,Net-(D47-DOUT)*%
X222221842Y-204963720D03*
D18*
%TO.P,D47,2,VSS*%
%TO.N,+5V*%
X227308211Y-206044861D03*
D17*
%TO.P,D47,3,DIN*%
%TO.N,Net-(D46-DOUT)*%
X227620080Y-204577640D03*
%TO.P,D47,4,VDD*%
%TO.N,GND*%
X222533711Y-203496499D03*
%TD*%
D10*
%TO.P,SW31,1,1*%
%TO.N,col2*%
X189132000Y-249887500D03*
%TO.P,SW31,2,2*%
%TO.N,Net-(D31-A)*%
X195482000Y-247347500D03*
%TD*%
D16*
%TO.P,C9,1*%
%TO.N,+5V*%
X168879500Y-203600000D03*
%TO.P,C9,2*%
%TO.N,GND*%
X166804500Y-203600000D03*
%TD*%
D20*
%TO.P,U1,0,GPIO0*%
%TO.N,col0*%
X138310000Y-184250000D03*
%TO.P,U1,1,GPIO1*%
%TO.N,col1*%
X138310000Y-181710000D03*
%TO.P,U1,2,GPIO2*%
%TO.N,col2*%
X138310000Y-179170000D03*
%TO.P,U1,3,GPIO3*%
%TO.N,col3*%
X138310000Y-176630000D03*
%TO.P,U1,3.3,3V3*%
%TO.N,unconnected-(U1-3V3-Pad3.3)*%
X138310000Y-171550000D03*
%TO.P,U1,4,GPIO4*%
%TO.N,col4*%
X138310000Y-174090000D03*
%TO.P,U1,5,GPIO5*%
%TO.N,row0*%
X153550000Y-166470000D03*
%TO.P,U1,5V,5V*%
%TO.N,+5V*%
X138310000Y-166470000D03*
%TO.P,U1,6,GPIO6*%
%TO.N,led*%
X153550000Y-169010000D03*
%TO.P,U1,7,GPIO7*%
%TO.N,row4*%
X153550000Y-171550000D03*
%TO.P,U1,8,GPIO8*%
%TO.N,row3*%
X153550000Y-174090000D03*
%TO.P,U1,9,GPIO9*%
%TO.N,row2*%
X153550000Y-176630000D03*
%TO.P,U1,10,GPIO10*%
%TO.N,row1*%
X153550000Y-179170000D03*
%TO.P,U1,20,GPIO20*%
%TO.N,col6*%
X153550000Y-181710000D03*
%TO.P,U1,21,GPIO21*%
%TO.N,col5*%
X153550000Y-184250000D03*
%TO.P,U1,G,GND*%
%TO.N,GND*%
X138310000Y-169010000D03*
%TD*%
D12*
%TO.P,D7,2,A*%
%TO.N,Net-(D7-A)*%
X285813943Y-187603428D03*
%TO.P,D7,1,K*%
%TO.N,row0*%
X285231791Y-190342242D03*
%TD*%
D13*
%TO.P,D22,1,K*%
%TO.N,row3*%
X163210000Y-231100000D03*
%TO.P,D22,2,A*%
%TO.N,Net-(D22-A)*%
X163210000Y-228300000D03*
%TD*%
D10*
%TO.P,SW2,1,1*%
%TO.N,col1*%
X177722000Y-173687500D03*
%TO.P,SW2,2,2*%
%TO.N,Net-(D2-A)*%
X184072000Y-171147500D03*
%TD*%
D17*
%TO.P,D68,1,DOUT*%
%TO.N,Net-(D68-DOUT)*%
X233631688Y-265815756D03*
D18*
%TO.P,D68,2,VSS*%
%TO.N,+5V*%
X238718057Y-266896897D03*
D17*
%TO.P,D68,3,DIN*%
%TO.N,Net-(D67-DOUT)*%
X239029926Y-265429676D03*
%TO.P,D68,4,VDD*%
%TO.N,GND*%
X233943557Y-264348535D03*
%TD*%
D10*
%TO.P,SW29,1,1*%
%TO.N,col0*%
X151032000Y-249887500D03*
%TO.P,SW29,2,2*%
%TO.N,Net-(D29-A)*%
X157382000Y-247347500D03*
%TD*%
D14*
%TO.P,D57,1,DOUT*%
%TO.N,Net-(D57-DOUT)*%
X152242000Y-239452500D03*
D15*
%TO.P,D57,2,VSS*%
%TO.N,+5V*%
X157442000Y-239452500D03*
D14*
%TO.P,D57,3,DIN*%
%TO.N,Net-(D56-DOUT)*%
X157442000Y-237952500D03*
%TO.P,D57,4,VDD*%
%TO.N,GND*%
X152242000Y-237952500D03*
%TD*%
D16*
%TO.P,C23,1*%
%TO.N,+5V*%
X174929500Y-241700000D03*
%TO.P,C23,2*%
%TO.N,GND*%
X172854500Y-241700000D03*
%TD*%
D21*
%TO.N,GND*%
X241540330Y-206400000D03*
X167450000Y-224100000D03*
X190300000Y-255900000D03*
X152200000Y-255900000D03*
X253250000Y-273750000D03*
X184250000Y-198750000D03*
X190300000Y-236850000D03*
%TO.N,row1*%
X157150000Y-194450000D03*
%TO.N,+5V*%
X208704374Y-222854374D03*
%TO.N,GND*%
X171250000Y-255900000D03*
%TO.N,+5V*%
X256693948Y-271993948D03*
%TO.N,GND*%
X191850000Y-262200000D03*
X204550000Y-218000000D03*
X147750000Y-205100000D03*
X148400000Y-224100000D03*
X260500000Y-216850000D03*
X242550000Y-232550000D03*
X180450000Y-186050000D03*
%TO.N,+5V*%
X264596018Y-234746018D03*
%TO.N,GND*%
X266550000Y-257100000D03*
X241850000Y-212900000D03*
%TO.N,+5V*%
X245263006Y-211163006D03*
%TO.N,GND*%
X233900000Y-263200000D03*
%TO.N,+5V*%
X227326589Y-226826589D03*
%TO.N,GND*%
X223250000Y-208950000D03*
X165332000Y-198750000D03*
X159850000Y-179700000D03*
X254400000Y-189650000D03*
X146282000Y-198750000D03*
X153750000Y-262200000D03*
X260450000Y-229900000D03*
X191850000Y-243100000D03*
%TO.N,+5V*%
X277197375Y-198447375D03*
%TO.N,GND*%
X165900000Y-217800000D03*
X217900000Y-188350000D03*
X184950000Y-217800000D03*
X166750000Y-205050000D03*
X260174041Y-210350000D03*
X223950000Y-228550000D03*
X271900000Y-277700000D03*
X228550000Y-242600000D03*
X152200000Y-236800000D03*
X197950000Y-178200000D03*
X255150000Y-196250000D03*
X235800000Y-185700000D03*
X204272906Y-198450000D03*
X241800000Y-225950000D03*
X171250000Y-236850000D03*
X247950000Y-253150000D03*
X234650000Y-269800000D03*
X209900000Y-238600000D03*
X153750000Y-243150000D03*
X222906618Y-202450000D03*
X186500000Y-224050000D03*
X172800000Y-243200000D03*
X216000000Y-265800000D03*
X199500000Y-184550000D03*
X161400000Y-186000000D03*
X271150000Y-271100000D03*
X247200000Y-246550000D03*
X261200000Y-236500000D03*
X172800000Y-262150000D03*
X178900000Y-179700000D03*
X217150000Y-181750000D03*
X273800000Y-200250000D03*
X265800000Y-250500000D03*
X252500000Y-267150000D03*
X146850000Y-217800000D03*
X236500000Y-192300000D03*
X215250000Y-259250000D03*
%TO.N,+5V*%
X245973804Y-230773804D03*
%TO.N,GND*%
X205300000Y-224600000D03*
%TO.N,row4*%
X163150000Y-251500000D03*
%TO.N,+5V*%
X150822221Y-202622221D03*
X165078500Y-183578500D03*
X175947221Y-240697221D03*
X238046733Y-268046733D03*
X207961716Y-203211716D03*
X219424518Y-264074518D03*
X176492000Y-259775000D03*
X156872221Y-240722221D03*
X189492000Y-202625000D03*
X239927945Y-190527945D03*
X184132000Y-183550000D03*
X171142000Y-221650000D03*
X195542000Y-240725000D03*
X232686736Y-247436736D03*
X157442000Y-259750000D03*
X195542000Y-259750000D03*
X152092000Y-221675000D03*
X170442000Y-202625000D03*
%TO.N,GND*%
X210650000Y-245250000D03*
%TO.N,+5V*%
X263910221Y-215110221D03*
X269956166Y-255356166D03*
X258550160Y-194500160D03*
X202617021Y-182067021D03*
X221280730Y-186580730D03*
X190192000Y-221650000D03*
%TO.N,row2*%
X157800000Y-213350000D03*
%TO.N,row3*%
X163150000Y-232450000D03*
%TO.N,GND*%
X273050000Y-193600000D03*
X204600000Y-204950000D03*
X185850000Y-205050000D03*
%TO.N,+5V*%
X251333952Y-251383952D03*
X214064522Y-243464522D03*
X275316163Y-275966163D03*
X226650000Y-207200000D03*
%TO.N,GND*%
X223200000Y-222000000D03*
X229300000Y-249200000D03*
%TD*%
D22*
%TO.N,row0*%
X170850000Y-173950000D02*
X172663500Y-172136500D01*
%TO.N,GND*%
X184292000Y-198792000D02*
X184250000Y-198750000D01*
%TO.N,+5V*%
X243946285Y-211879103D02*
X244546910Y-211879103D01*
%TO.N,Net-(D46-DOUT)*%
X222649000Y-209198943D02*
X223001057Y-209551000D01*
%TO.N,row4*%
X262456847Y-261613412D02*
X264730307Y-263886872D01*
%TO.N,Net-(D49-DOUT)*%
X268454360Y-229389583D02*
X266344196Y-227279419D01*
%TO.N,+5V*%
X194567000Y-241700000D02*
X195542000Y-240725000D01*
%TO.N,row3*%
X201310000Y-231100000D02*
X201398288Y-231011712D01*
%TO.N,GND*%
X259801134Y-211417935D02*
X259801134Y-210722907D01*
%TO.N,row1*%
X235213704Y-198547164D02*
X241957642Y-198547164D01*
%TO.N,Net-(D48-DOUT)*%
X245199000Y-217098943D02*
X259899000Y-217098943D01*
%TO.N,GND*%
X247970494Y-253129506D02*
X247950000Y-253150000D01*
X271960187Y-276260441D02*
X271960187Y-277639813D01*
%TO.N,Net-(D60-DOUT)*%
X231526572Y-249801000D02*
X234628652Y-246698920D01*
%TO.N,Net-(D32-A)*%
X226830881Y-252012469D02*
X228045035Y-253226623D01*
%TO.N,Net-(D39-DOUT)*%
X217751000Y-181501057D02*
X221406609Y-181501057D01*
%TO.N,Net-(D5-A)*%
X242846395Y-178467838D02*
X247332366Y-178467838D01*
%TO.N,+5V*%
X250000150Y-252117128D02*
X250600775Y-252117128D01*
X188629500Y-222650000D02*
X189217000Y-222650000D01*
%TO.N,Net-(D65-DOUT)*%
X196743000Y-259585160D02*
X196743000Y-257713500D01*
%TO.N,row3*%
X196091054Y-231100000D02*
X201310000Y-231100000D01*
%TO.N,Net-(D37-DOUT)*%
X202178842Y-177599000D02*
X203182000Y-178602158D01*
%TO.N,GND*%
X241167423Y-206772907D02*
X241540330Y-206400000D01*
X165942000Y-218902500D02*
X165942000Y-217842000D01*
%TO.N,+5V*%
X151392000Y-202052442D02*
X151392000Y-201352500D01*
%TO.N,Net-(D56-DOUT)*%
X162349840Y-230174000D02*
X163568900Y-230174000D01*
%TO.N,+5V*%
X256693948Y-271993948D02*
X257351769Y-271336127D01*
%TO.N,GND*%
X215309845Y-260387818D02*
X215309845Y-259309845D01*
%TO.N,+5V*%
X233362075Y-246761398D02*
X233362075Y-246282886D01*
%TO.N,Net-(D53-DOUT)*%
X204285813Y-224435756D02*
X209001057Y-229151000D01*
%TO.N,Net-(D50-DOUT)*%
X146601057Y-217199000D02*
X145691000Y-218109057D01*
%TO.N,GND*%
X153804500Y-241700000D02*
X153804500Y-243095500D01*
%TO.N,Net-(D21-A)*%
X267533882Y-222666498D02*
X272019853Y-222666498D01*
%TO.N,+5V*%
X183157000Y-184550000D02*
X184132000Y-183575000D01*
%TO.N,row2*%
X264581793Y-222131793D02*
X269069466Y-226619466D01*
%TO.N,Net-(D61-DOUT)*%
X228301057Y-241999000D02*
X228798943Y-241999000D01*
%TO.N,+5V*%
X220084345Y-263414692D02*
X220084345Y-262936180D01*
%TO.N,Net-(D49-DOUT)*%
X222274125Y-219355764D02*
X214298825Y-219355764D01*
%TO.N,Net-(D60-DOUT)*%
X229051057Y-249801000D02*
X231526572Y-249801000D01*
%TO.N,Net-(D20-A)*%
X248900171Y-218705780D02*
X253386141Y-218705780D01*
%TO.N,row0*%
X245690908Y-180147346D02*
X247964368Y-182420806D01*
%TO.N,Net-(D12-A)*%
X234054747Y-195121151D02*
X235268901Y-196335305D01*
%TO.N,Net-(D63-DOUT)*%
X248884957Y-270802000D02*
X252834957Y-274752000D01*
%TO.N,row3*%
X222633856Y-234824470D02*
X232894490Y-234824470D01*
%TO.N,row1*%
X178023500Y-191186500D02*
X186125816Y-191186500D01*
%TO.N,Net-(D49-DOUT)*%
X230000000Y-219135367D02*
X227416396Y-216551763D01*
%TO.N,row0*%
X277385668Y-185854569D02*
X281873341Y-190342242D01*
%TO.N,Net-(D2-A)*%
X184072000Y-171147500D02*
X189897500Y-171147500D01*
%TO.N,Net-(D49-DOUT)*%
X240907837Y-223316482D02*
X233035272Y-223316482D01*
%TO.N,Net-(D55-DOUT)*%
X266539894Y-234006243D02*
X266539894Y-233077697D01*
%TO.N,Net-(D60-DOUT)*%
X228699000Y-249448943D02*
X229051057Y-249801000D01*
%TO.N,Net-(D57-DOUT)*%
X151951057Y-236199000D02*
X151041000Y-237109057D01*
%TO.N,+5V*%
X193979500Y-260750000D02*
X194567000Y-260750000D01*
%TO.N,row0*%
X225972205Y-178460089D02*
X229330656Y-178460089D01*
%TO.N,Net-(D46-DOUT)*%
X225484683Y-209551000D02*
X228574788Y-206460895D01*
%TO.N,row2*%
X157860000Y-213290000D02*
X157800000Y-213350000D01*
%TO.N,Net-(D63-DOUT)*%
X265551057Y-249899000D02*
X262326877Y-253123180D01*
%TO.N,Net-(D46-DOUT)*%
X203588131Y-204788074D02*
X207999000Y-209198943D01*
%TO.N,+5V*%
X263878304Y-235463733D02*
X264596018Y-234746018D01*
%TO.N,row2*%
X235384431Y-218698030D02*
X235911386Y-218171075D01*
%TO.N,+5V*%
X149844442Y-203600000D02*
X150822221Y-202622221D01*
%TO.N,Net-(D56-DOUT)*%
X261051000Y-229651057D02*
X260698943Y-229299000D01*
%TO.N,Net-(D49-DOUT)*%
X274474946Y-220481344D02*
X274474946Y-228975054D01*
%TO.N,GND*%
X203899999Y-198822907D02*
X204272906Y-198450000D01*
%TO.N,Net-(D57-DOUT)*%
X175438442Y-236199000D02*
X151951057Y-236199000D01*
%TO.N,row0*%
X229857611Y-177933134D02*
X236601549Y-177933134D01*
%TO.N,Net-(D49-DOUT)*%
X153293000Y-221485160D02*
X153293000Y-219613500D01*
X266344196Y-227279419D02*
X266344196Y-226133576D01*
%TO.N,row0*%
X182867554Y-172136500D02*
X184681054Y-173950000D01*
%TO.N,Net-(D16-A)*%
X171082000Y-209247500D02*
X176907500Y-209247500D01*
%TO.N,GND*%
X204649206Y-204900794D02*
X204600000Y-204950000D01*
%TO.N,Net-(D49-DOUT)*%
X208782684Y-212591046D02*
X206444414Y-212591046D01*
%TO.N,GND*%
X273078753Y-194764623D02*
X273078753Y-193628753D01*
%TO.N,+5V*%
X155879500Y-260750000D02*
X156467000Y-260750000D01*
X150529500Y-222650000D02*
X151117000Y-222650000D01*
%TO.N,Net-(D42-DOUT)*%
X238023574Y-197383685D02*
X271615044Y-197383685D01*
%TO.N,GND*%
X147754500Y-205095500D02*
X147750000Y-205100000D01*
%TO.N,Net-(D57-DOUT)*%
X151041000Y-238741500D02*
X151752000Y-239452500D01*
%TO.N,GND*%
X199544500Y-183049600D02*
X199544500Y-184505500D01*
%TO.N,row0*%
X198323000Y-171544654D02*
X208045054Y-171544654D01*
%TO.N,GND*%
X146192000Y-199852500D02*
X146192000Y-198840000D01*
X172854500Y-241700000D02*
X172854500Y-243145500D01*
%TO.N,Net-(D43-DOUT)*%
X144991000Y-199141500D02*
X144991000Y-200641500D01*
%TO.N,row1*%
X253847416Y-202507881D02*
X260591353Y-202507881D01*
%TO.N,GND*%
X159882000Y-180802500D02*
X159882000Y-179732000D01*
%TO.N,row0*%
X255235260Y-181893851D02*
X257449473Y-184108064D01*
%TO.N,row1*%
X216053037Y-195113401D02*
X216579992Y-194586446D01*
%TO.N,Net-(D42-DOUT)*%
X144590000Y-198975400D02*
X145817400Y-197748000D01*
%TO.N,Net-(D63-DOUT)*%
X234234957Y-270802000D02*
X248884957Y-270802000D01*
%TO.N,GND*%
X209953863Y-238653863D02*
X209900000Y-238600000D01*
%TO.N,row1*%
X186125816Y-191186500D02*
X187939316Y-193000000D01*
%TO.N,+5V*%
X275857616Y-199186509D02*
X276458241Y-199186509D01*
%TO.N,GND*%
X265854999Y-251655959D02*
X265854999Y-250554999D01*
%TO.N,Net-(D53-DOUT)*%
X229272470Y-225156261D02*
X228317761Y-224201552D01*
%TO.N,Net-(D68-DOUT)*%
X233631689Y-265815756D02*
X232676980Y-264861047D01*
%TO.N,Net-(D59-DOUT)*%
X189141000Y-237159057D02*
X190051057Y-236249000D01*
%TO.N,GND*%
X233943557Y-264348535D02*
X233943557Y-263243557D01*
X234692764Y-269757236D02*
X234650000Y-269800000D01*
%TO.N,Net-(D52-DOUT)*%
X184502000Y-220402500D02*
X183791000Y-219691500D01*
%TO.N,+5V*%
X195542000Y-240725000D02*
X195542000Y-239452500D01*
%TO.N,Net-(D68-DOUT)*%
X238156482Y-262951057D02*
X241021181Y-265815756D01*
%TO.N,row0*%
X248491323Y-181893851D02*
X255235260Y-181893851D01*
%TO.N,row2*%
X157860000Y-212050000D02*
X159673500Y-210236500D01*
%TO.N,Net-(D55-DOUT)*%
X263445137Y-237101000D02*
X266539894Y-234006243D01*
%TO.N,Net-(D39-DOUT)*%
X237323059Y-184349690D02*
X239143688Y-186170319D01*
%TO.N,Net-(D46-DOUT)*%
X223001057Y-209551000D02*
X225484683Y-209551000D01*
%TO.N,GND*%
X252577269Y-268309253D02*
X252577269Y-267227269D01*
%TO.N,+5V*%
X277853253Y-197791497D02*
X277853253Y-197312985D01*
%TO.N,row0*%
X247964368Y-182420806D02*
X248491323Y-181893851D01*
%TO.N,Net-(D33-A)*%
X245464594Y-255973187D02*
X246678747Y-257187340D01*
%TO.N,GND*%
X210703070Y-245196930D02*
X210650000Y-245250000D01*
%TO.N,Net-(D56-DOUT)*%
X201542660Y-226746500D02*
X205406872Y-230610712D01*
%TO.N,Net-(D28-A)*%
X272890064Y-243280610D02*
X277376035Y-243280610D01*
%TO.N,+5V*%
X157442000Y-259775000D02*
X157442000Y-259750000D01*
%TO.N,Net-(D46-DOUT)*%
X228574788Y-206460895D02*
X228574788Y-205532349D01*
%TO.N,+5V*%
X174929500Y-260750000D02*
X175517000Y-260750000D01*
X264575634Y-214444809D02*
X264575634Y-213966297D01*
%TO.N,Net-(D67-DOUT)*%
X239984634Y-266384385D02*
X239029925Y-265429676D01*
%TO.N,Net-(D11-A)*%
X210935065Y-191160433D02*
X215421035Y-191160433D01*
%TO.N,row0*%
X208045054Y-171544654D02*
X208950000Y-172449600D01*
%TO.N,+5V*%
X251995787Y-250722116D02*
X251995787Y-250243603D01*
%TO.N,row4*%
X163210000Y-250150000D02*
X165023500Y-248336500D01*
%TO.N,Net-(D42-DOUT)*%
X158807400Y-190785500D02*
X167241916Y-190785500D01*
%TO.N,Net-(D56-DOUT)*%
X264718430Y-229651057D02*
X261051000Y-229651057D01*
%TO.N,GND*%
X146892000Y-217842000D02*
X146850000Y-217800000D01*
%TO.N,+5V*%
X269234486Y-256077846D02*
X269956166Y-255356166D01*
%TO.N,row4*%
X265257262Y-263359917D02*
X272001199Y-263359917D01*
%TO.N,+5V*%
X188517000Y-203600000D02*
X189492000Y-202625000D01*
%TO.N,Net-(D54-DOUT)*%
X246595530Y-226705429D02*
X246951473Y-227061372D01*
%TO.N,Net-(D27-A)*%
X254256353Y-239319893D02*
X258742323Y-239319893D01*
%TO.N,GND*%
X273078753Y-193628753D02*
X273050000Y-193600000D01*
%TO.N,Net-(D63-DOUT)*%
X208534217Y-259751260D02*
X215584957Y-266802000D01*
%TO.N,+5V*%
X263180622Y-215839821D02*
X263910221Y-215110221D01*
%TO.N,GND*%
X217926824Y-186872940D02*
X217926824Y-188323176D01*
%TO.N,+5V*%
X238590192Y-191265074D02*
X239190817Y-191265074D01*
%TO.N,GND*%
X184292000Y-199852500D02*
X184292000Y-198792000D01*
X190342000Y-257002500D02*
X190342000Y-255942000D01*
%TO.N,row0*%
X229330656Y-178460089D02*
X229857611Y-177933134D01*
%TO.N,Net-(D66-DOUT)*%
X220396213Y-260368061D02*
X220396213Y-261468959D01*
%TO.N,GND*%
X205346888Y-224553112D02*
X205300000Y-224600000D01*
%TO.N,Net-(D49-DOUT)*%
X274060417Y-229389583D02*
X268454360Y-229389583D01*
%TO.N,row3*%
X201398288Y-231011712D02*
X211945420Y-231011712D01*
%TO.N,GND*%
X184992000Y-217842000D02*
X184950000Y-217800000D01*
%TO.N,+5V*%
X219956480Y-187304356D02*
X220557105Y-187304356D01*
%TO.N,GND*%
X260550341Y-216799659D02*
X260500000Y-216850000D01*
%TO.N,row3*%
X222106901Y-235351425D02*
X222633856Y-234824470D01*
%TO.N,+5V*%
X226665792Y-207165792D02*
X227308211Y-206523374D01*
%TO.N,Net-(D38-DOUT)*%
X197982000Y-180802100D02*
X197982000Y-183881943D01*
%TO.N,GND*%
X191904500Y-243045500D02*
X191850000Y-243100000D01*
%TO.N,row3*%
X163210000Y-232390000D02*
X163150000Y-232450000D01*
%TO.N,+5V*%
X168879500Y-203600000D02*
X169467000Y-203600000D01*
%TO.N,Net-(D47-DOUT)*%
X221267134Y-202954148D02*
X222372282Y-201849000D01*
%TO.N,row1*%
X157160000Y-193000000D02*
X157160000Y-194440000D01*
%TO.N,row2*%
X209052556Y-210397600D02*
X213392269Y-214737313D01*
%TO.N,Net-(D59-DOUT)*%
X210871583Y-238587691D02*
X214684288Y-239398106D01*
%TO.N,GND*%
X222533711Y-202822907D02*
X222906618Y-202450000D01*
X159882000Y-179732000D02*
X159850000Y-179700000D01*
%TO.N,row3*%
X182260000Y-231100000D02*
X184073500Y-229286500D01*
X211945420Y-231011712D02*
X216285133Y-235351425D01*
%TO.N,GND*%
X252577269Y-267227269D02*
X252500000Y-267150000D01*
X261248023Y-236451977D02*
X261200000Y-236500000D01*
%TO.N,Net-(D68-DOUT)*%
X254088999Y-265815756D02*
X255909628Y-267636385D01*
%TO.N,Net-(D55-DOUT)*%
X266539894Y-233077697D02*
X265585185Y-232122988D01*
%TO.N,GND*%
X241916629Y-211447687D02*
X241916629Y-212833371D01*
X184992000Y-218902500D02*
X184992000Y-217842000D01*
X171292000Y-236892000D02*
X171250000Y-236850000D01*
X178932000Y-179732000D02*
X178900000Y-179700000D01*
X190342000Y-237952500D02*
X190342000Y-236892000D01*
X165242000Y-199852500D02*
X165242000Y-198840000D01*
%TO.N,Net-(D47-DOUT)*%
X222221843Y-204963720D02*
X221267134Y-204009011D01*
%TO.N,GND*%
X153804500Y-243095500D02*
X153750000Y-243150000D01*
X171292000Y-237952500D02*
X171292000Y-236892000D01*
%TO.N,+5V*%
X228005893Y-226147286D02*
X228005893Y-225668773D01*
%TO.N,GND*%
X191904500Y-241700000D02*
X191904500Y-243045500D01*
X216059052Y-265740948D02*
X216000000Y-265800000D01*
%TO.N,Net-(D56-DOUT)*%
X259266842Y-232509068D02*
X260186949Y-232509068D01*
%TO.N,GND*%
X255194248Y-194794375D02*
X255194248Y-196205752D01*
%TO.N,Net-(D32-A)*%
X222344911Y-252012469D02*
X226830881Y-252012469D01*
%TO.N,GND*%
X204597681Y-218047681D02*
X204550000Y-218000000D01*
%TO.N,Net-(D58-DOUT)*%
X172551057Y-243801000D02*
X193477160Y-243801000D01*
%TO.N,GND*%
X259801134Y-210722907D02*
X260174041Y-210350000D01*
%TO.N,Net-(D48-DOUT)*%
X260251057Y-217451000D02*
X262773542Y-217451000D01*
%TO.N,Net-(D60-DOUT)*%
X234628652Y-245770374D02*
X233673943Y-244815665D01*
%TO.N,Net-(D22-A)*%
X163207500Y-228297500D02*
X163210000Y-228300000D01*
%TO.N,Net-(D50-DOUT)*%
X145691000Y-218109057D02*
X145691000Y-219691500D01*
%TO.N,Net-(D47-DOUT)*%
X226848672Y-202201057D02*
X229611335Y-204963720D01*
%TO.N,GND*%
X186554500Y-222650000D02*
X186554500Y-223995500D01*
%TO.N,Net-(D49-DOUT)*%
X146434957Y-216798000D02*
X145290000Y-217942957D01*
%TO.N,Net-(D53-DOUT)*%
X209001057Y-229151000D02*
X226206277Y-229151000D01*
%TO.N,row0*%
X208950000Y-172449600D02*
X219961716Y-172449600D01*
%TO.N,Net-(D39-DOUT)*%
X240897697Y-186823430D02*
X240897697Y-187924328D01*
%TO.N,GND*%
X260550341Y-215408405D02*
X260550341Y-216799659D01*
%TO.N,row2*%
X167775816Y-210236500D02*
X169589316Y-212050000D01*
%TO.N,GND*%
X197982000Y-178232000D02*
X197950000Y-178200000D01*
%TO.N,Net-(D37-DOUT)*%
X177731000Y-180019057D02*
X178651057Y-179099000D01*
%TO.N,GND*%
X217177618Y-182882469D02*
X217177618Y-181777618D01*
%TO.N,Net-(D40-DOUT)*%
X235499461Y-188310408D02*
X235499461Y-192149404D01*
%TO.N,Net-(D66-DOUT)*%
X190051057Y-255299000D02*
X195750500Y-255299000D01*
%TO.N,Net-(D49-DOUT)*%
X262062356Y-224756392D02*
X259541548Y-227277200D01*
%TO.N,+5V*%
X214064522Y-243464522D02*
X214728363Y-242800680D01*
X195542000Y-259775000D02*
X195542000Y-259750000D01*
%TO.N,Net-(D42-DOUT)*%
X158192500Y-205701000D02*
X147501057Y-205701000D01*
%TO.N,GND*%
X255194248Y-196205752D02*
X255150000Y-196250000D01*
X185854500Y-205045500D02*
X185850000Y-205050000D01*
%TO.N,Net-(D50-DOUT)*%
X170138442Y-217199000D02*
X146601057Y-217199000D01*
%TO.N,Net-(D69-DOUT)*%
X271651057Y-278301000D02*
X274185425Y-278301000D01*
%TO.N,Net-(D39-DOUT)*%
X221406609Y-181501057D02*
X224255242Y-184349690D01*
%TO.N,Net-(D49-DOUT)*%
X258534557Y-211930447D02*
X258534557Y-210875584D01*
%TO.N,+5V*%
X163519500Y-184550000D02*
X164107000Y-184550000D01*
%TO.N,Net-(D8-A)*%
X157157500Y-190197500D02*
X157160000Y-190200000D01*
%TO.N,+5V*%
X236722420Y-268770422D02*
X237323045Y-268770422D01*
%TO.N,GND*%
X204649206Y-203526252D02*
X204649206Y-204900794D01*
%TO.N,Net-(D64-DOUT)*%
X151041000Y-256209057D02*
X151041000Y-257791500D01*
%TO.N,Net-(D55-DOUT)*%
X241553237Y-228548350D02*
X241553237Y-232403180D01*
%TO.N,Net-(D58-DOUT)*%
X171292000Y-242541943D02*
X172551057Y-243801000D01*
%TO.N,row3*%
X259901280Y-242745906D02*
X270161914Y-242745906D01*
%TO.N,GND*%
X216059052Y-264378288D02*
X216059052Y-265740948D01*
%TO.N,row4*%
X272001199Y-263359917D02*
X274215412Y-265574130D01*
%TO.N,Net-(D68-DOUT)*%
X241021181Y-265815756D02*
X254088999Y-265815756D01*
%TO.N,GND*%
X147754500Y-203600000D02*
X147754500Y-205095500D01*
X203899999Y-199535782D02*
X203899999Y-198822907D01*
%TO.N,+5V*%
X239190817Y-191265074D02*
X239927945Y-190527945D01*
X157442000Y-240152442D02*
X157442000Y-239452500D01*
%TO.N,Net-(D30-A)*%
X176432000Y-247347500D02*
X182257500Y-247347500D01*
%TO.N,GND*%
X146892000Y-218902500D02*
X146892000Y-217842000D01*
X165942000Y-217842000D02*
X165900000Y-217800000D01*
X271960187Y-277639813D02*
X271900000Y-277700000D01*
X235811329Y-185711329D02*
X235800000Y-185700000D01*
X265854999Y-250554999D02*
X265800000Y-250500000D01*
%TO.N,+5V*%
X275316163Y-275966163D02*
X275985481Y-275296844D01*
%TO.N,GND*%
X247221287Y-247695241D02*
X247221287Y-246571287D01*
%TO.N,Net-(D34-A)*%
X264098305Y-259933904D02*
X265312459Y-261148058D01*
%TO.N,GND*%
X148454500Y-224045500D02*
X148400000Y-224100000D01*
%TO.N,Net-(D59-DOUT)*%
X215040231Y-239754049D02*
X215040231Y-240854947D01*
%TO.N,GND*%
X166804500Y-204995500D02*
X166750000Y-205050000D01*
X167504500Y-222650000D02*
X167504500Y-224045500D01*
%TO.N,Net-(D27-A)*%
X258742323Y-239319893D02*
X259956477Y-240534047D01*
%TO.N,Net-(D23-A)*%
X176432000Y-228297500D02*
X182257500Y-228297500D01*
%TO.N,Net-(D47-DOUT)*%
X223155561Y-201849000D02*
X223507618Y-202201057D01*
%TO.N,GND*%
X215309845Y-259309845D02*
X215250000Y-259250000D01*
%TO.N,Net-(D42-DOUT)*%
X151392000Y-199852500D02*
X164041000Y-199852500D01*
%TO.N,GND*%
X185854500Y-203600000D02*
X185854500Y-205045500D01*
X152242000Y-255942000D02*
X152200000Y-255900000D01*
X234692764Y-268339006D02*
X234692764Y-269757236D01*
X217177618Y-181777618D02*
X217150000Y-181750000D01*
X223231393Y-223120411D02*
X223231393Y-222031393D01*
%TO.N,+5V*%
X182569500Y-184550000D02*
X183157000Y-184550000D01*
X245941923Y-210484090D02*
X245941923Y-210005579D01*
%TO.N,GND*%
X242614312Y-232485688D02*
X242550000Y-232550000D01*
%TO.N,row1*%
X168889316Y-193000000D02*
X176210000Y-193000000D01*
%TO.N,GND*%
X229336782Y-249163218D02*
X229300000Y-249200000D01*
%TO.N,Net-(D56-DOUT)*%
X153501057Y-243751000D02*
X150640000Y-240889943D01*
%TO.N,GND*%
X236560536Y-192239464D02*
X236500000Y-192300000D01*
%TO.N,row2*%
X226860358Y-214210358D02*
X231348030Y-218698030D01*
%TO.N,+5V*%
X218689333Y-264809704D02*
X219424518Y-264074518D01*
%TO.N,Net-(D25-A)*%
X216988929Y-231398457D02*
X221474899Y-231398457D01*
%TO.N,GND*%
X153804500Y-262145500D02*
X153750000Y-262200000D01*
%TO.N,Net-(D45-DOUT)*%
X204873906Y-198201057D02*
X207671399Y-198201057D01*
%TO.N,GND*%
X223980600Y-227110882D02*
X223980600Y-228519400D01*
%TO.N,Net-(D55-DOUT)*%
X241553237Y-232403180D02*
X246251057Y-237101000D01*
%TO.N,GND*%
X180494500Y-184550000D02*
X180494500Y-186005500D01*
%TO.N,+5V*%
X262579997Y-215839821D02*
X263180622Y-215839821D01*
%TO.N,GND*%
X271210981Y-271160981D02*
X271150000Y-271100000D01*
X146192000Y-198840000D02*
X146282000Y-198750000D01*
%TO.N,+5V*%
X245263006Y-211163006D02*
X245941923Y-210484090D01*
%TO.N,GND*%
X260498817Y-231041847D02*
X260498817Y-229948817D01*
X254445041Y-190803905D02*
X254445041Y-189695041D01*
%TO.N,Net-(D39-DOUT)*%
X240541754Y-186467487D02*
X240897697Y-186823430D01*
%TO.N,GND*%
X273827960Y-200222040D02*
X273800000Y-200250000D01*
%TO.N,Net-(D4-A)*%
X224212683Y-174507121D02*
X228698654Y-174507121D01*
%TO.N,Net-(D42-DOUT)*%
X157518900Y-192074000D02*
X158807400Y-190785500D01*
%TO.N,+5V*%
X207977169Y-223581580D02*
X208704374Y-222854374D01*
X201619500Y-183049600D02*
X201634442Y-183049600D01*
%TO.N,GND*%
X241167423Y-207457217D02*
X241167423Y-206772907D01*
%TO.N,Net-(D9-A)*%
X176207500Y-190197500D02*
X176210000Y-190200000D01*
%TO.N,row2*%
X250358748Y-222658748D02*
X254018143Y-222658748D01*
%TO.N,Net-(D67-DOUT)*%
X234401057Y-270401000D02*
X236896565Y-270401000D01*
%TO.N,GND*%
X242614312Y-231071599D02*
X242614312Y-232485688D01*
%TO.N,Net-(D49-DOUT)*%
X259489266Y-212885156D02*
X258534557Y-211930447D01*
%TO.N,GND*%
X236560536Y-190833658D02*
X236560536Y-192239464D01*
%TO.N,Net-(D58-DOUT)*%
X196743000Y-238663500D02*
X196032000Y-237952500D01*
%TO.N,GND*%
X199544500Y-184505500D02*
X199500000Y-184550000D01*
X266604205Y-257045795D02*
X266550000Y-257100000D01*
%TO.N,+5V*%
X174944442Y-241700000D02*
X175947221Y-240697221D01*
%TO.N,GND*%
X210703070Y-243764276D02*
X210703070Y-245196930D01*
X228587575Y-242637575D02*
X228550000Y-242600000D01*
X223231393Y-222031393D02*
X223200000Y-222000000D01*
%TO.N,row1*%
X262805566Y-204722094D02*
X269680713Y-204722094D01*
%TO.N,GND*%
X233943557Y-263243557D02*
X233900000Y-263200000D01*
X223282918Y-208917082D02*
X223250000Y-208950000D01*
X165242000Y-198840000D02*
X165332000Y-198750000D01*
X148454500Y-222650000D02*
X148454500Y-224045500D01*
X271210981Y-272269971D02*
X271210981Y-271160981D01*
%TO.N,row1*%
X157160000Y-194440000D02*
X157150000Y-194450000D01*
%TO.N,GND*%
X190342000Y-255942000D02*
X190300000Y-255900000D01*
%TO.N,Net-(D25-A)*%
X221474899Y-231398457D02*
X222689053Y-232612611D01*
%TO.N,Net-(D56-DOUT)*%
X259600305Y-229299000D02*
X258288593Y-230610712D01*
%TO.N,Net-(D65-DOUT)*%
X171292000Y-258502500D02*
X171292000Y-261491943D01*
%TO.N,+5V*%
X187929500Y-203600000D02*
X188517000Y-203600000D01*
%TO.N,row4*%
X227989838Y-255438482D02*
X234733776Y-255438482D01*
%TO.N,GND*%
X190342000Y-236892000D02*
X190300000Y-236850000D01*
X247221287Y-246571287D02*
X247200000Y-246550000D01*
X253326476Y-273673524D02*
X253250000Y-273750000D01*
X180494500Y-186005500D02*
X180450000Y-186050000D01*
X260498817Y-229948817D02*
X260450000Y-229900000D01*
X273827960Y-198755093D02*
X273827960Y-200222040D01*
X191904500Y-262145500D02*
X191850000Y-262200000D01*
%TO.N,Net-(D54-DOUT)*%
X222919525Y-224587632D02*
X221964816Y-223632923D01*
%TO.N,GND*%
X229336782Y-247724994D02*
X229336782Y-249163218D01*
%TO.N,Net-(D56-DOUT)*%
X263611237Y-237502000D02*
X266940894Y-234172343D01*
%TO.N,row2*%
X176910000Y-212050000D02*
X178723500Y-210236500D01*
%TO.N,GND*%
X186554500Y-223995500D02*
X186500000Y-224050000D01*
X161444500Y-185955500D02*
X161400000Y-186000000D01*
%TO.N,row2*%
X159673500Y-210236500D02*
X167775816Y-210236500D01*
%TO.N,Net-(D49-DOUT)*%
X206444414Y-212591046D02*
X202237460Y-216798000D01*
%TO.N,GND*%
X254445041Y-189695041D02*
X254400000Y-189650000D01*
X153804500Y-260750000D02*
X153804500Y-262145500D01*
X209953863Y-239773806D02*
X209953863Y-238653863D01*
%TO.N,Net-(D50-DOUT)*%
X171142000Y-218202558D02*
X170138442Y-217199000D01*
%TO.N,Net-(D7-A)*%
X280113819Y-186389274D02*
X284599789Y-186389274D01*
%TO.N,row1*%
X244171854Y-200761376D02*
X251047001Y-200761376D01*
%TO.N,Net-(D49-DOUT)*%
X247710485Y-223860485D02*
X247710485Y-222172858D01*
%TO.N,row1*%
X187939316Y-193000000D02*
X195260000Y-193000000D01*
%TO.N,GND*%
X152242000Y-257002500D02*
X152242000Y-255942000D01*
%TO.N,Net-(D35-A)*%
X278246046Y-263894622D02*
X282732017Y-263894622D01*
%TO.N,Net-(D42-DOUT)*%
X168530416Y-192074000D02*
X176568900Y-192074000D01*
%TO.N,GND*%
X172854500Y-262095500D02*
X172800000Y-262150000D01*
%TO.N,Net-(D61-DOUT)*%
X227320998Y-244247036D02*
X227320998Y-242979059D01*
%TO.N,GND*%
X161444500Y-184550000D02*
X161444500Y-185955500D01*
X217926824Y-188323176D02*
X217900000Y-188350000D01*
%TO.N,Net-(D68-DOUT)*%
X233651057Y-262599000D02*
X234148943Y-262599000D01*
%TO.N,GND*%
X241916629Y-212833371D02*
X241850000Y-212900000D01*
%TO.N,Net-(D68-DOUT)*%
X255909628Y-267636385D02*
X257307694Y-267933553D01*
%TO.N,row4*%
X227462883Y-255965437D02*
X227989838Y-255438482D01*
%TO.N,Net-(D49-DOUT)*%
X210443061Y-215500000D02*
X210443061Y-214251423D01*
%TO.N,+5V*%
X268633861Y-256077846D02*
X269234486Y-256077846D01*
X231967063Y-248156410D02*
X232686736Y-247436736D01*
%TO.N,GND*%
X191904500Y-260750000D02*
X191904500Y-262145500D01*
%TO.N,row0*%
X189900000Y-173950000D02*
X193213900Y-170636100D01*
%TO.N,+5V*%
X165082000Y-183575000D02*
X165082000Y-183550000D01*
X149829500Y-203600000D02*
X149844442Y-203600000D01*
%TO.N,GND*%
X166804500Y-203600000D02*
X166804500Y-204995500D01*
%TO.N,row3*%
X175227554Y-229286500D02*
X177041054Y-231100000D01*
%TO.N,+5V*%
X190192000Y-221650000D02*
X190192000Y-220402500D01*
X169579500Y-222650000D02*
X170167000Y-222650000D01*
%TO.N,row1*%
X234686749Y-199074119D02*
X235213704Y-198547164D01*
%TO.N,Net-(D29-A)*%
X163207500Y-247347500D02*
X163210000Y-247350000D01*
%TO.N,+5V*%
X184132000Y-183550000D02*
X184132000Y-182302500D01*
X244546910Y-211879103D02*
X245263006Y-211163006D01*
X226610881Y-227542298D02*
X227326589Y-226826589D01*
X155894442Y-241700000D02*
X156872221Y-240722221D01*
X255956757Y-272731139D02*
X256693948Y-271993948D01*
%TO.N,GND*%
X223282918Y-207486970D02*
X223282918Y-208917082D01*
%TO.N,Net-(D1-A)*%
X170847500Y-171147500D02*
X170850000Y-171150000D01*
%TO.N,Net-(D20-A)*%
X253386141Y-218705780D02*
X254600295Y-219919934D01*
%TO.N,+5V*%
X275985481Y-275296844D02*
X275985481Y-274818333D01*
X238718057Y-267375410D02*
X238718057Y-266896897D01*
X265273317Y-234068720D02*
X265273317Y-233590209D01*
X246639605Y-230108003D02*
X246639605Y-229629491D01*
X274590468Y-276691857D02*
X275316163Y-275966163D01*
X259219541Y-193830779D02*
X259219541Y-193352267D01*
X276458241Y-199186509D02*
X277197375Y-198447375D01*
X214728363Y-242800680D02*
X214728363Y-242322168D01*
%TO.N,row2*%
X245871075Y-218171075D02*
X250358748Y-222658748D01*
%TO.N,+5V*%
X189217000Y-222650000D02*
X190192000Y-221675000D01*
X269956166Y-255356166D02*
X270629499Y-254682833D01*
%TO.N,GND*%
X204597681Y-219159694D02*
X204597681Y-218047681D01*
%TO.N,+5V*%
X150822221Y-202622221D02*
X151392000Y-202052442D01*
X244643968Y-231503015D02*
X245244593Y-231503015D01*
%TO.N,Net-(D43-DOUT)*%
X169438442Y-198149000D02*
X145983500Y-198149000D01*
%TO.N,row4*%
X236947988Y-257652694D02*
X243823135Y-257652694D01*
%TO.N,Net-(D24-A)*%
X195482000Y-228297500D02*
X201307500Y-228297500D01*
%TO.N,+5V*%
X238046733Y-268046733D02*
X238718057Y-267375410D01*
%TO.N,row4*%
X281090559Y-265574130D02*
X283364019Y-267847590D01*
%TO.N,+5V*%
X175947221Y-240697221D02*
X176492000Y-240152442D01*
%TO.N,Net-(D29-A)*%
X157382000Y-247347500D02*
X163207500Y-247347500D01*
%TO.N,+5V*%
X184132000Y-183575000D02*
X184132000Y-183550000D01*
%TO.N,GND*%
X167504500Y-224045500D02*
X167450000Y-224100000D01*
%TO.N,Net-(D47-DOUT)*%
X229611335Y-204963720D02*
X242679153Y-204963720D01*
%TO.N,+5V*%
X237323045Y-268770422D02*
X238046733Y-268046733D01*
%TO.N,row2*%
X254545098Y-222131793D02*
X264581793Y-222131793D01*
%TO.N,Net-(D41-DOUT)*%
X253178464Y-190021593D02*
X254151057Y-189049000D01*
%TO.N,Net-(D61-DOUT)*%
X232814511Y-242351057D02*
X235665199Y-245201745D01*
%TO.N,Net-(D56-DOUT)*%
X266940894Y-234172343D02*
X266940894Y-231873521D01*
%TO.N,+5V*%
X151117000Y-222650000D02*
X152092000Y-221675000D01*
X226010256Y-227542298D02*
X226610881Y-227542298D01*
%TO.N,Net-(D41-DOUT)*%
X254648943Y-189049000D02*
X255001000Y-189401057D01*
%TO.N,GND*%
X171292000Y-257002500D02*
X171292000Y-255942000D01*
%TO.N,row4*%
X174939316Y-250150000D02*
X182260000Y-250150000D01*
%TO.N,Net-(D67-DOUT)*%
X230401057Y-266401000D02*
X234401057Y-270401000D01*
%TO.N,+5V*%
X176492000Y-240152442D02*
X176492000Y-239452500D01*
X213333351Y-244195692D02*
X214064522Y-243464522D01*
%TO.N,Net-(D56-DOUT)*%
X215161799Y-233660991D02*
X242243948Y-233660991D01*
%TO.N,Net-(D61-DOUT)*%
X235665199Y-245201745D02*
X248733018Y-245201745D01*
%TO.N,Net-(D11-A)*%
X215421035Y-191160433D02*
X216635189Y-192374587D01*
%TO.N,GND*%
X228587575Y-243734524D02*
X228587575Y-242637575D01*
%TO.N,Net-(D67-DOUT)*%
X214997977Y-265647920D02*
X215751057Y-266401000D01*
%TO.N,+5V*%
X257824529Y-195225791D02*
X258550160Y-194500160D01*
%TO.N,GND*%
X171292000Y-255942000D02*
X171250000Y-255900000D01*
%TO.N,Net-(D13-A)*%
X252688459Y-199081868D02*
X253902613Y-200296022D01*
%TO.N,+5V*%
X206678862Y-203957668D02*
X207215764Y-203957668D01*
%TO.N,Net-(D36-DOUT)*%
X182067160Y-186651000D02*
X185333000Y-183385160D01*
%TO.N,+5V*%
X232686736Y-247436736D02*
X233362075Y-246761398D01*
X165078500Y-183578500D02*
X165082000Y-183575000D01*
%TO.N,Net-(D37-DOUT)*%
X178442000Y-182302500D02*
X177731000Y-181591500D01*
%TO.N,row0*%
X266598079Y-186381524D02*
X267125034Y-185854569D01*
%TO.N,+5V*%
X156872221Y-240722221D02*
X157442000Y-240152442D01*
%TO.N,row0*%
X238815761Y-180147346D02*
X245690908Y-180147346D01*
%TO.N,Net-(D49-DOUT)*%
X246050108Y-220512481D02*
X243711838Y-220512481D01*
%TO.N,+5V*%
X193979500Y-241700000D02*
X194567000Y-241700000D01*
X273989843Y-276691857D02*
X274590468Y-276691857D01*
%TO.N,Net-(D58-DOUT)*%
X171292000Y-239452500D02*
X171292000Y-242541943D01*
%TO.N,+5V*%
X171142000Y-221650000D02*
X171142000Y-220402500D01*
X264596018Y-234746018D02*
X265273317Y-234068720D01*
%TO.N,Net-(D39-DOUT)*%
X215911041Y-182139016D02*
X216901057Y-181149000D01*
%TO.N,+5V*%
X225913199Y-207918386D02*
X226665792Y-207165792D01*
X257351769Y-271336127D02*
X257351769Y-270857615D01*
%TO.N,GND*%
X261248023Y-235032317D02*
X261248023Y-236451977D01*
%TO.N,+5V*%
X190192000Y-221675000D02*
X190192000Y-221650000D01*
X195542000Y-259750000D02*
X195542000Y-258502500D01*
X219424518Y-264074518D02*
X220084345Y-263414692D01*
%TO.N,GND*%
X222533711Y-203496499D02*
X222533711Y-202822907D01*
X178932000Y-180802500D02*
X178932000Y-179732000D01*
%TO.N,+5V*%
X152092000Y-221675000D02*
X152092000Y-220402500D01*
X202617021Y-182067021D02*
X203182000Y-181502042D01*
%TO.N,Net-(D49-DOUT)*%
X202237460Y-216798000D02*
X146434957Y-216798000D01*
%TO.N,+5V*%
X220557105Y-187304356D02*
X221280730Y-186580730D01*
%TO.N,Net-(D56-DOUT)*%
X150640000Y-236942957D02*
X151784957Y-235798000D01*
%TO.N,+5V*%
X225312574Y-207918386D02*
X225913199Y-207918386D01*
X245973804Y-230773804D02*
X246639605Y-230108003D01*
X245244593Y-231503015D02*
X245973804Y-230773804D01*
X221280730Y-186580730D02*
X221952118Y-185909343D01*
%TO.N,row0*%
X193213900Y-170636100D02*
X197414446Y-170636100D01*
%TO.N,+5V*%
X169467000Y-203600000D02*
X170442000Y-202625000D01*
X170167000Y-222650000D02*
X171142000Y-221675000D01*
X208674499Y-202498933D02*
X208674499Y-202084144D01*
X207961716Y-203211716D02*
X208674499Y-202498933D01*
X212732726Y-244195692D02*
X213333351Y-244195692D01*
X175517000Y-260750000D02*
X176492000Y-259775000D01*
X255356132Y-272731139D02*
X255956757Y-272731139D01*
X258550160Y-194500160D02*
X259219541Y-193830779D01*
%TO.N,Net-(D54-DOUT)*%
X223448943Y-221399000D02*
X223801000Y-221751057D01*
%TO.N,+5V*%
X239927945Y-190527945D02*
X240585829Y-189870062D01*
X165082000Y-183550000D02*
X165082000Y-182302500D01*
X170442000Y-202625000D02*
X170442000Y-201352500D01*
X209372181Y-222186568D02*
X209372181Y-221708056D01*
%TO.N,GND*%
X247970494Y-251685712D02*
X247970494Y-253129506D01*
%TO.N,+5V*%
X174929500Y-241700000D02*
X174944442Y-241700000D01*
%TO.N,GND*%
X172854500Y-260750000D02*
X172854500Y-262095500D01*
%TO.N,+5V*%
X171142000Y-221675000D02*
X171142000Y-221650000D01*
%TO.N,GND*%
X241865105Y-227081129D02*
X241865105Y-226015105D01*
%TO.N,row1*%
X223323930Y-194586446D02*
X225538143Y-196800659D01*
%TO.N,+5V*%
X155879500Y-241700000D02*
X155894442Y-241700000D01*
X218088708Y-264809704D02*
X218689333Y-264809704D01*
X257223904Y-195225791D02*
X257824529Y-195225791D01*
%TO.N,Net-(D17-A)*%
X195957500Y-209247500D02*
X195960000Y-209250000D01*
%TO.N,+5V*%
X227326589Y-226826589D02*
X228005893Y-226147286D01*
X251333952Y-251383952D02*
X251995787Y-250722116D01*
%TO.N,Net-(D42-DOUT)*%
X155025834Y-192389840D02*
X155984000Y-192389840D01*
%TO.N,+5V*%
X164107000Y-184550000D02*
X165078500Y-183578500D01*
X176492000Y-259775000D02*
X176492000Y-258502500D01*
X203182000Y-181502042D02*
X203182000Y-180802100D01*
%TO.N,GND*%
X197982000Y-179302100D02*
X197982000Y-178232000D01*
%TO.N,Net-(D44-DOUT)*%
X166501057Y-205651000D02*
X165242000Y-204391943D01*
%TO.N,Net-(D1-A)*%
X165022000Y-171147500D02*
X170847500Y-171147500D01*
%TO.N,+5V*%
X231366438Y-248156410D02*
X231967063Y-248156410D01*
%TO.N,Net-(D54-DOUT)*%
X230309017Y-224587632D02*
X243376835Y-224587632D01*
%TO.N,+5V*%
X156467000Y-260750000D02*
X157442000Y-259775000D01*
%TO.N,row3*%
X194277554Y-229286500D02*
X196091054Y-231100000D01*
%TO.N,Net-(D42-DOUT)*%
X186291916Y-190785500D02*
X187580416Y-192074000D01*
%TO.N,+5V*%
X157442000Y-259750000D02*
X157442000Y-258502500D01*
%TO.N,row4*%
X246096595Y-259926154D02*
X246623550Y-259399199D01*
%TO.N,+5V*%
X189492000Y-202625000D02*
X189492000Y-201352500D01*
%TO.N,Net-(D68-DOUT)*%
X232676980Y-264861047D02*
X232676980Y-263573077D01*
%TO.N,row2*%
X254018143Y-222658748D02*
X254545098Y-222131793D01*
%TO.N,+5V*%
X221952118Y-185909343D02*
X221952118Y-185430831D01*
%TO.N,row0*%
X267125034Y-185854569D02*
X277385668Y-185854569D01*
%TO.N,row1*%
X176210000Y-193000000D02*
X178023500Y-191186500D01*
%TO.N,Net-(D39-DOUT)*%
X224255242Y-184349690D02*
X237323059Y-184349690D01*
%TO.N,row0*%
X184681054Y-173950000D02*
X189900000Y-173950000D01*
X157720000Y-166470000D02*
X153550000Y-166470000D01*
%TO.N,row4*%
X274215412Y-265574130D02*
X281090559Y-265574130D01*
%TO.N,row0*%
X197414446Y-170636100D02*
X198323000Y-171544654D01*
X257449473Y-184108064D02*
X264324619Y-184108064D01*
X170850000Y-173950000D02*
X165200000Y-173950000D01*
X172663500Y-172136500D02*
X182867554Y-172136500D01*
X264324619Y-184108064D02*
X266598079Y-186381524D01*
%TO.N,Net-(D42-DOUT)*%
X195618900Y-192074000D02*
X198083467Y-189609433D01*
%TO.N,row0*%
X219961716Y-172449600D02*
X225972205Y-178460089D01*
X165200000Y-173950000D02*
X157720000Y-166470000D01*
X236601549Y-177933134D02*
X238815761Y-180147346D01*
X281873341Y-190342242D02*
X285231791Y-190342242D01*
%TO.N,led*%
X165082000Y-180802500D02*
X165082000Y-175502684D01*
X165082000Y-175502684D02*
X158589316Y-169010000D01*
%TO.N,row2*%
X231348030Y-218698030D02*
X235384431Y-218698030D01*
%TO.N,led*%
X158589316Y-169010000D02*
X153550000Y-169010000D01*
%TO.N,+5V*%
X207215764Y-203957668D02*
X207961716Y-203211716D01*
%TO.N,Net-(D43-DOUT)*%
X145702000Y-201352500D02*
X146192000Y-201352500D01*
%TO.N,+5V*%
X207376544Y-223581580D02*
X207977169Y-223581580D01*
%TO.N,Net-(D43-DOUT)*%
X170442000Y-199152558D02*
X169438442Y-198149000D01*
%TO.N,GND*%
X152242000Y-237952500D02*
X152242000Y-236842000D01*
%TO.N,Net-(D43-DOUT)*%
X170442000Y-199852500D02*
X170442000Y-199152558D01*
X145983500Y-198149000D02*
X144991000Y-199141500D01*
X144991000Y-200641500D02*
X145702000Y-201352500D01*
%TO.N,+5V*%
X227308211Y-206523374D02*
X227308211Y-206044861D01*
%TO.N,Net-(D42-DOUT)*%
X144590000Y-202789943D02*
X144590000Y-198975400D01*
%TO.N,row3*%
X184073500Y-229286500D02*
X194277554Y-229286500D01*
%TO.N,+5V*%
X277197375Y-198447375D02*
X277853253Y-197791497D01*
%TO.N,Net-(D24-A)*%
X201307500Y-228297500D02*
X201310000Y-228300000D01*
%TO.N,GND*%
X241865105Y-226015105D02*
X241800000Y-225950000D01*
X253326476Y-272299723D02*
X253326476Y-273673524D01*
%TO.N,+5V*%
X263277679Y-235463733D02*
X263878304Y-235463733D01*
%TO.N,Net-(D65-DOUT)*%
X193527160Y-262801000D02*
X196743000Y-259585160D01*
%TO.N,+5V*%
X194567000Y-260750000D02*
X195542000Y-259775000D01*
%TO.N,row1*%
X212694587Y-195113401D02*
X216053037Y-195113401D01*
%TO.N,+5V*%
X208704374Y-222854374D02*
X209372181Y-222186568D01*
%TO.N,Net-(D66-DOUT)*%
X195750500Y-255299000D02*
X198954000Y-258502500D01*
%TO.N,Net-(D45-DOUT)*%
X208986367Y-199516025D02*
X208986367Y-200616923D01*
%TO.N,GND*%
X235811329Y-186843187D02*
X235811329Y-185711329D01*
%TO.N,Net-(D56-DOUT)*%
X258288593Y-231530819D02*
X259266842Y-232509068D01*
%TO.N,+5V*%
X263910221Y-215110221D02*
X264575634Y-214444809D01*
%TO.N,Net-(D41-DOUT)*%
X254133173Y-192271126D02*
X253178464Y-191316417D01*
%TO.N,row1*%
X157160000Y-193000000D02*
X158973500Y-191186500D01*
%TO.N,Net-(D2-A)*%
X189897500Y-171147500D02*
X189900000Y-171150000D01*
%TO.N,Net-(D3-A)*%
X203122000Y-169647100D02*
X208947500Y-169647100D01*
X208947500Y-169647100D02*
X208950000Y-169649600D01*
%TO.N,Net-(D4-A)*%
X228698654Y-174507121D02*
X229912808Y-175721275D01*
%TO.N,Net-(D5-A)*%
X247332366Y-178467838D02*
X248546520Y-179681992D01*
%TO.N,Net-(D6-A)*%
X261480107Y-182428556D02*
X265966077Y-182428556D01*
%TO.N,Net-(D19-A)*%
X230266459Y-214745062D02*
X234752429Y-214745062D01*
%TO.N,Net-(D6-A)*%
X265966077Y-182428556D02*
X267180231Y-183642710D01*
%TO.N,Net-(D7-A)*%
X284599789Y-186389274D02*
X285813943Y-187603428D01*
%TO.N,row1*%
X216579992Y-194586446D02*
X223323930Y-194586446D01*
X158973500Y-191186500D02*
X167075816Y-191186500D01*
X225538143Y-196800659D02*
X232413289Y-196800659D01*
%TO.N,Net-(D42-DOUT)*%
X230249322Y-189609433D02*
X238023574Y-197383685D01*
%TO.N,row1*%
X269680713Y-204722094D02*
X271954173Y-206995554D01*
%TO.N,Net-(D26-A)*%
X235622641Y-235359175D02*
X240108611Y-235359175D01*
%TO.N,Net-(D63-DOUT)*%
X266048943Y-249899000D02*
X265551057Y-249899000D01*
%TO.N,row1*%
X208354874Y-190773688D02*
X212694587Y-195113401D01*
X167075816Y-191186500D02*
X168889316Y-193000000D01*
X251047001Y-200761376D02*
X253320461Y-203034836D01*
%TO.N,GND*%
X266604205Y-255646430D02*
X266604205Y-257045795D01*
X205346888Y-223150164D02*
X205346888Y-224553112D01*
%TO.N,row1*%
X260591353Y-202507881D02*
X262805566Y-204722094D01*
%TO.N,Net-(D41-DOUT)*%
X255001000Y-189401057D02*
X258652596Y-189401057D01*
%TO.N,row1*%
X195260000Y-193000000D02*
X197486312Y-190773688D01*
X241957642Y-198547164D02*
X244171854Y-200761376D01*
%TO.N,Net-(D62-DOUT)*%
X246909419Y-252959362D02*
X251651057Y-257701000D01*
%TO.N,row1*%
X197486312Y-190773688D02*
X208354874Y-190773688D01*
X253320461Y-203034836D02*
X253847416Y-202507881D01*
X232413289Y-196800659D02*
X234686749Y-199074119D01*
%TO.N,Net-(D8-A)*%
X151332000Y-190197500D02*
X157157500Y-190197500D01*
%TO.N,Net-(D9-A)*%
X170382000Y-190197500D02*
X176207500Y-190197500D01*
%TO.N,Net-(D10-A)*%
X195257500Y-190197500D02*
X195260000Y-190200000D01*
%TO.N,Net-(D51-DOUT)*%
X188177160Y-224701000D02*
X167201057Y-224701000D01*
%TO.N,Net-(D10-A)*%
X189432000Y-190197500D02*
X195257500Y-190197500D01*
%TO.N,row3*%
X241267568Y-238785188D02*
X251528202Y-238785188D01*
%TO.N,Net-(D55-DOUT)*%
X246251057Y-237101000D02*
X263445137Y-237101000D01*
%TO.N,Net-(D12-A)*%
X229568777Y-195121151D02*
X234054747Y-195121151D01*
%TO.N,+5V*%
X201634442Y-183049600D02*
X202617021Y-182067021D01*
%TO.N,Net-(D13-A)*%
X248202488Y-199081868D02*
X252688459Y-199081868D01*
%TO.N,Net-(D56-DOUT)*%
X158643000Y-240535160D02*
X155427160Y-243751000D01*
%TO.N,Net-(D14-A)*%
X271322171Y-203042586D02*
X272536325Y-204256740D01*
X266836200Y-203042586D02*
X271322171Y-203042586D01*
%TO.N,row2*%
X157860000Y-212050000D02*
X157860000Y-213290000D01*
%TO.N,+5V*%
X250600775Y-252117128D02*
X251333952Y-251383952D01*
%TO.N,row2*%
X216750719Y-214737313D02*
X217277674Y-214210358D01*
X235911386Y-218171075D02*
X245871075Y-218171075D01*
%TO.N,GND*%
X152242000Y-236842000D02*
X152200000Y-236800000D01*
%TO.N,Net-(D26-A)*%
X240108611Y-235359175D02*
X241322765Y-236573329D01*
%TO.N,row2*%
X169589316Y-212050000D02*
X176910000Y-212050000D01*
X188639316Y-212050000D02*
X195960000Y-212050000D01*
X217277674Y-214210358D02*
X226860358Y-214210358D01*
X186825816Y-210236500D02*
X188639316Y-212050000D01*
%TO.N,Net-(D17-A)*%
X190132000Y-209247500D02*
X195957500Y-209247500D01*
%TO.N,row3*%
X240740613Y-239312143D02*
X241267568Y-238785188D01*
%TO.N,row2*%
X197612400Y-210397600D02*
X209052556Y-210397600D01*
X178723500Y-210236500D02*
X186825816Y-210236500D01*
X213392269Y-214737313D02*
X216750719Y-214737313D01*
%TO.N,GND*%
X223980600Y-228519400D02*
X223950000Y-228550000D01*
%TO.N,row2*%
X269069466Y-226619466D02*
X272651855Y-226619466D01*
%TO.N,Net-(D52-DOUT)*%
X184992000Y-220402500D02*
X184502000Y-220402500D01*
%TO.N,Net-(D15-A)*%
X157857500Y-209247500D02*
X157860000Y-209250000D01*
X152032000Y-209247500D02*
X157857500Y-209247500D01*
%TO.N,Net-(D16-A)*%
X176907500Y-209247500D02*
X176910000Y-209250000D01*
%TO.N,Net-(D18-A)*%
X211632747Y-210784345D02*
X216118717Y-210784345D01*
X216118717Y-210784345D02*
X217332871Y-211998499D01*
%TO.N,Net-(D19-A)*%
X234752429Y-214745062D02*
X235966583Y-215959216D01*
%TO.N,Net-(D21-A)*%
X272019853Y-222666498D02*
X273234007Y-223880652D01*
%TO.N,row3*%
X237382163Y-239312143D02*
X240740613Y-239312143D01*
%TO.N,GND*%
X172854500Y-243145500D02*
X172800000Y-243200000D01*
%TO.N,row3*%
X163210000Y-231100000D02*
X165023500Y-229286500D01*
X165023500Y-229286500D02*
X175227554Y-229286500D01*
X256015875Y-243272861D02*
X259374325Y-243272861D01*
X270161914Y-242745906D02*
X274649586Y-247233578D01*
%TO.N,+5V*%
X270629499Y-254682833D02*
X270629499Y-254204321D01*
%TO.N,Net-(D48-DOUT)*%
X265842211Y-213453785D02*
X264887502Y-212499076D01*
%TO.N,row3*%
X251528202Y-238785188D02*
X256015875Y-243272861D01*
%TO.N,Net-(D46-DOUT)*%
X207999000Y-209198943D02*
X222649000Y-209198943D01*
%TO.N,row3*%
X177041054Y-231100000D02*
X182260000Y-231100000D01*
X163210000Y-231100000D02*
X163210000Y-232390000D01*
X216285133Y-235351425D02*
X222106901Y-235351425D01*
X259374325Y-243272861D02*
X259901280Y-242745906D01*
X274649586Y-247233578D02*
X278008037Y-247233578D01*
X232894490Y-234824470D02*
X237382163Y-239312143D01*
%TO.N,row2*%
X195960000Y-212050000D02*
X197612400Y-210397600D01*
%TO.N,Net-(D49-DOUT)*%
X243711838Y-220512481D02*
X240907837Y-223316482D01*
%TO.N,Net-(D22-A)*%
X157382000Y-228297500D02*
X163207500Y-228297500D01*
%TO.N,Net-(D23-A)*%
X182257500Y-228297500D02*
X182260000Y-228300000D01*
%TO.N,Net-(D28-A)*%
X277376035Y-243280610D02*
X278590189Y-244494764D01*
%TO.N,row4*%
X173125816Y-248336500D02*
X174939316Y-250150000D01*
X243823135Y-257652694D02*
X246096595Y-259926154D01*
%TO.N,+5V*%
X240585829Y-189870062D02*
X240585829Y-189391549D01*
%TO.N,row4*%
X163210000Y-251440000D02*
X163150000Y-251500000D01*
X234733776Y-255438482D02*
X236947988Y-257652694D01*
X218288996Y-250150000D02*
X224104433Y-255965437D01*
X224104433Y-255965437D02*
X227462883Y-255965437D01*
%TO.N,Net-(D63-DOUT)*%
X267534957Y-274752000D02*
X271484957Y-278702000D01*
X157442000Y-257002500D02*
X157932000Y-257002500D01*
%TO.N,row4*%
X165023500Y-248336500D02*
X173125816Y-248336500D01*
%TO.N,Net-(D59-DOUT)*%
X190051057Y-236249000D02*
X208532892Y-236249000D01*
%TO.N,row4*%
X253367488Y-259399199D02*
X255581701Y-261613412D01*
X192175816Y-248336500D02*
X193989316Y-250150000D01*
X193989316Y-250150000D02*
X201310000Y-250150000D01*
X255581701Y-261613412D02*
X262456847Y-261613412D01*
X182260000Y-250150000D02*
X184073500Y-248336500D01*
X184073500Y-248336500D02*
X192175816Y-248336500D01*
%TO.N,Net-(D57-DOUT)*%
X176492000Y-237952500D02*
X176492000Y-237252558D01*
%TO.N,row4*%
X163210000Y-250150000D02*
X163210000Y-251440000D01*
X264730307Y-263886872D02*
X265257262Y-263359917D01*
X201310000Y-250150000D02*
X218288996Y-250150000D01*
%TO.N,Net-(D63-DOUT)*%
X252834957Y-274752000D02*
X267534957Y-274752000D01*
%TO.N,row4*%
X246623550Y-259399199D02*
X253367488Y-259399199D01*
%TO.N,Net-(D47-DOUT)*%
X246253791Y-207437460D02*
X246253791Y-208538358D01*
%TO.N,Net-(D56-DOUT)*%
X157442000Y-237952500D02*
X157677678Y-237952500D01*
%TO.N,Net-(D30-A)*%
X182257500Y-247347500D02*
X182260000Y-247350000D01*
%TO.N,Net-(D31-A)*%
X201307500Y-247347500D02*
X201310000Y-247350000D01*
X195482000Y-247347500D02*
X201307500Y-247347500D01*
%TO.N,Net-(D33-A)*%
X240978623Y-255973187D02*
X245464594Y-255973187D01*
%TO.N,Net-(D34-A)*%
X259612335Y-259933904D02*
X264098305Y-259933904D01*
%TO.N,Net-(D35-A)*%
X282732017Y-263894622D02*
X283946171Y-265108776D01*
%TO.N,Net-(D36-DOUT)*%
X185333000Y-181513500D02*
X184622000Y-180802500D01*
X159882000Y-182302500D02*
X159882000Y-185331943D01*
X159882000Y-185331943D02*
X161201057Y-186651000D01*
X185333000Y-183385160D02*
X185333000Y-181513500D01*
X184622000Y-180802500D02*
X184132000Y-180802500D01*
X161201057Y-186651000D02*
X182067160Y-186651000D01*
%TO.N,Net-(D37-DOUT)*%
X178932000Y-182302500D02*
X178442000Y-182302500D01*
X197701057Y-177599000D02*
X202178842Y-177599000D01*
X178651057Y-179099000D02*
X196201057Y-179099000D01*
%TO.N,Net-(D51-DOUT)*%
X190192000Y-218902500D02*
X190682000Y-218902500D01*
%TO.N,Net-(D37-DOUT)*%
X196201057Y-179099000D02*
X197701057Y-177599000D01*
X203182000Y-178602158D02*
X203182000Y-179302100D01*
X177731000Y-181591500D02*
X177731000Y-180019057D01*
%TO.N,Net-(D38-DOUT)*%
X223218695Y-185846865D02*
X223218695Y-184918319D01*
X203051057Y-188951000D02*
X220114560Y-188951000D01*
X197982000Y-183881943D02*
X203051057Y-188951000D01*
X220114560Y-188951000D02*
X223218695Y-185846865D01*
X223218695Y-184918319D02*
X222263986Y-183963610D01*
%TO.N,Net-(D39-DOUT)*%
X216865750Y-184349690D02*
X215911041Y-183394981D01*
X217398943Y-181149000D02*
X217751000Y-181501057D01*
%TO.N,Net-(D63-DOUT)*%
X285187110Y-264643422D02*
X270794745Y-250251057D01*
%TO.N,Net-(D39-DOUT)*%
X216901057Y-181149000D02*
X217398943Y-181149000D01*
X215911041Y-183394981D02*
X215911041Y-182139016D01*
X239143688Y-186170319D02*
X240541754Y-186467487D01*
%TO.N,Net-(D40-DOUT)*%
X260486118Y-193768301D02*
X260486118Y-192839755D01*
X240201057Y-196851000D02*
X257403419Y-196851000D01*
X260486118Y-192839755D02*
X259531409Y-191885046D01*
X235499461Y-192149404D02*
X240201057Y-196851000D01*
%TO.N,Net-(D49-DOUT)*%
X227416396Y-216551763D02*
X225078126Y-216551763D01*
%TO.N,Net-(D40-DOUT)*%
X257403419Y-196851000D02*
X260486118Y-193768301D01*
%TO.N,Net-(D41-DOUT)*%
X254151057Y-189049000D02*
X254648943Y-189049000D01*
X258652596Y-189401057D02*
X261522665Y-192271126D01*
X276411112Y-194091755D02*
X277809178Y-194388923D01*
X274590483Y-192271126D02*
X276411112Y-194091755D01*
X253178464Y-191316417D02*
X253178464Y-190021593D01*
X278165121Y-194744866D02*
X278165121Y-195845764D01*
X261522665Y-192271126D02*
X274590483Y-192271126D01*
%TO.N,Net-(D44-DOUT)*%
X189492000Y-199852500D02*
X189982000Y-199852500D01*
%TO.N,Net-(D41-DOUT)*%
X277809178Y-194388923D02*
X278165121Y-194744866D01*
%TO.N,Net-(D42-DOUT)*%
X147501057Y-205701000D02*
X144590000Y-202789943D01*
X176568900Y-192074000D02*
X177857400Y-190785500D01*
X271615044Y-197383685D02*
X272766885Y-196231844D01*
X155984000Y-192389840D02*
X156299840Y-192074000D01*
X187580416Y-192074000D02*
X195618900Y-192074000D01*
X164041000Y-199852500D02*
X158192500Y-205701000D01*
X145817400Y-197748000D02*
X149667674Y-197748000D01*
X167241916Y-190785500D02*
X168530416Y-192074000D01*
X177857400Y-190785500D02*
X186291916Y-190785500D01*
X149667674Y-197748000D02*
X155025834Y-192389840D01*
X198083467Y-189609433D02*
X230249322Y-189609433D01*
X156299840Y-192074000D02*
X157518900Y-192074000D01*
%TO.N,Net-(D44-DOUT)*%
X190693000Y-202435160D02*
X187477160Y-205651000D01*
X165242000Y-204391943D02*
X165242000Y-201352500D01*
X190693000Y-200563500D02*
X190693000Y-202435160D01*
X187477160Y-205651000D02*
X166501057Y-205651000D01*
X189982000Y-199852500D02*
X190693000Y-200563500D01*
%TO.N,Net-(D45-DOUT)*%
X184301057Y-197849000D02*
X204521849Y-197849000D01*
X183091000Y-199059057D02*
X184301057Y-197849000D01*
X204521849Y-197849000D02*
X204873906Y-198201057D01*
X184292000Y-201352500D02*
X183802000Y-201352500D01*
X183091000Y-200641500D02*
X183091000Y-199059057D01*
%TO.N,Net-(D62-DOUT)*%
X271896076Y-253691809D02*
X270941367Y-252737100D01*
%TO.N,Net-(D45-DOUT)*%
X207671399Y-198201057D02*
X208986367Y-199516025D01*
X183802000Y-201352500D02*
X183091000Y-200641500D01*
%TO.N,Net-(D49-DOUT)*%
X259661141Y-209749000D02*
X260422984Y-209749000D01*
%TO.N,Net-(D46-DOUT)*%
X203588131Y-201003003D02*
X203588131Y-204788074D01*
X228574788Y-205532349D02*
X227620079Y-204577640D01*
%TO.N,Net-(D47-DOUT)*%
X221267134Y-204009011D02*
X221267134Y-202954148D01*
X242679153Y-204963720D02*
X244499782Y-206784349D01*
X245897848Y-207081517D02*
X246253791Y-207437460D01*
X222372282Y-201849000D02*
X223155561Y-201849000D01*
X244499782Y-206784349D02*
X245897848Y-207081517D01*
X223507618Y-202201057D02*
X226848672Y-202201057D01*
%TO.N,Net-(D48-DOUT)*%
X240855555Y-212755498D02*
X245199000Y-217098943D01*
X262773542Y-217451000D02*
X265842211Y-214382331D01*
X259899000Y-217098943D02*
X260251057Y-217451000D01*
X240855555Y-208924438D02*
X240855555Y-212755498D01*
X265842211Y-214382331D02*
X265842211Y-213453785D01*
%TO.N,Net-(D49-DOUT)*%
X225078126Y-216551763D02*
X222274125Y-219355764D01*
X214298825Y-219355764D02*
X210443061Y-215500000D01*
X266344196Y-226133576D02*
X264967012Y-224756392D01*
X150077160Y-224701000D02*
X153293000Y-221485160D01*
X260775041Y-210101057D02*
X264094659Y-210101057D01*
X152582000Y-218902500D02*
X152092000Y-218902500D01*
%TO.N,Net-(D63-DOUT)*%
X215584957Y-266802000D02*
X230234957Y-266802000D01*
%TO.N,Net-(D49-DOUT)*%
X274474946Y-228975054D02*
X274060417Y-229389583D01*
X145290000Y-221839943D02*
X148151057Y-224701000D01*
X230000000Y-220281210D02*
X230000000Y-219135367D01*
X251127200Y-227277200D02*
X247710485Y-223860485D01*
X145290000Y-217942957D02*
X145290000Y-221839943D01*
X258534557Y-210875584D02*
X259661141Y-209749000D01*
X210443061Y-214251423D02*
X208782684Y-212591046D01*
X148151057Y-224701000D02*
X150077160Y-224701000D01*
X259541548Y-227277200D02*
X251127200Y-227277200D01*
X260422984Y-209749000D02*
X260775041Y-210101057D01*
X233035272Y-223316482D02*
X230000000Y-220281210D01*
X153293000Y-219613500D02*
X152582000Y-218902500D01*
X264094659Y-210101057D02*
X274474946Y-220481344D01*
X247710485Y-222172858D02*
X246050108Y-220512481D01*
X264967012Y-224756392D02*
X262062356Y-224756392D01*
%TO.N,Net-(D50-DOUT)*%
X145691000Y-219691500D02*
X146402000Y-220402500D01*
X146402000Y-220402500D02*
X146892000Y-220402500D01*
X171142000Y-218902500D02*
X171142000Y-218202558D01*
%TO.N,Net-(D51-DOUT)*%
X165942000Y-223441943D02*
X165942000Y-220402500D01*
X191393000Y-221485160D02*
X188177160Y-224701000D01*
X190682000Y-218902500D02*
X191393000Y-219613500D01*
%TO.N,Net-(D52-DOUT)*%
X205515401Y-217973579D02*
X209328106Y-218783994D01*
%TO.N,Net-(D51-DOUT)*%
X167201057Y-224701000D02*
X165942000Y-223441943D01*
X191393000Y-219613500D02*
X191393000Y-221485160D01*
%TO.N,Net-(D52-DOUT)*%
X184701057Y-217199000D02*
X204740822Y-217199000D01*
X183791000Y-219691500D02*
X183791000Y-218109057D01*
X183791000Y-218109057D02*
X184701057Y-217199000D01*
X209684049Y-219139937D02*
X209684049Y-220240835D01*
X204740822Y-217199000D02*
X205515401Y-217973579D01*
X209328106Y-218783994D02*
X209684049Y-219139937D01*
%TO.N,Net-(D53-DOUT)*%
X226206277Y-229151000D02*
X229272470Y-226084807D01*
X229272470Y-226084807D02*
X229272470Y-225156261D01*
X204285813Y-220626915D02*
X204285813Y-224435756D01*
%TO.N,Net-(D54-DOUT)*%
X221964816Y-223632923D02*
X221964816Y-222385241D01*
X227472442Y-221751057D02*
X230309017Y-224587632D01*
X223801000Y-221751057D02*
X227472442Y-221751057D01*
X246951473Y-227061372D02*
X246951473Y-228162270D01*
X222951057Y-221399000D02*
X223448943Y-221399000D01*
X243376835Y-224587632D02*
X245197464Y-226408261D01*
X221964816Y-222385241D02*
X222951057Y-221399000D01*
%TO.N,Net-(D61-DOUT)*%
X228275707Y-245201745D02*
X227320998Y-244247036D01*
%TO.N,Net-(D54-DOUT)*%
X245197464Y-226408261D02*
X246595530Y-226705429D01*
%TO.N,Net-(D56-DOUT)*%
X161762822Y-235798000D02*
X161762822Y-230761018D01*
X166996400Y-226746500D02*
X201542660Y-226746500D01*
X163568900Y-230174000D02*
X166996400Y-226746500D01*
X258288593Y-230610712D02*
X258288593Y-231530819D01*
X246084957Y-237502000D02*
X263611237Y-237502000D01*
X205406872Y-230610712D02*
X212111520Y-230610712D01*
X150640000Y-240889943D02*
X150640000Y-236942957D01*
X161762822Y-230761018D02*
X162349840Y-230174000D01*
X212111520Y-230610712D02*
X215161799Y-233660991D01*
X266940894Y-231873521D02*
X264718430Y-229651057D01*
X155427160Y-243751000D02*
X153501057Y-243751000D01*
X157677678Y-237952500D02*
X158643000Y-238917822D01*
X260698943Y-229299000D02*
X259600305Y-229299000D01*
X151784957Y-235798000D02*
X161762822Y-235798000D01*
X158643000Y-238917822D02*
X158643000Y-240535160D01*
X242243948Y-233660991D02*
X246084957Y-237502000D01*
%TO.N,Net-(D57-DOUT)*%
X151752000Y-239452500D02*
X152242000Y-239452500D01*
X151041000Y-237109057D02*
X151041000Y-238741500D01*
X176492000Y-237252558D02*
X175438442Y-236199000D01*
%TO.N,Net-(D58-DOUT)*%
X193477160Y-243801000D02*
X196743000Y-240535160D01*
X196032000Y-237952500D02*
X195542000Y-237952500D01*
X196743000Y-240535160D02*
X196743000Y-238663500D01*
%TO.N,Net-(D59-DOUT)*%
X190342000Y-239452500D02*
X189852000Y-239452500D01*
X214684288Y-239398106D02*
X215040231Y-239754049D01*
X189852000Y-239452500D02*
X189141000Y-238741500D01*
X208532892Y-236249000D02*
X210871583Y-238587691D01*
X189141000Y-238741500D02*
X189141000Y-237159057D01*
%TO.N,Net-(D60-DOUT)*%
X234628652Y-246698920D02*
X234628652Y-245770374D01*
X209641995Y-241241027D02*
X209641995Y-245091938D01*
X213999000Y-249448943D02*
X228699000Y-249448943D01*
X209641995Y-245091938D02*
X213999000Y-249448943D01*
%TO.N,Net-(D62-DOUT)*%
X246909419Y-249162462D02*
X246909419Y-252959362D01*
%TO.N,Net-(D61-DOUT)*%
X250553646Y-247022373D02*
X251951712Y-247319541D01*
X229151000Y-242351057D02*
X232814511Y-242351057D01*
X248733018Y-245201745D02*
X250553646Y-247022373D01*
X227320998Y-242979059D02*
X228301057Y-241999000D01*
X252307655Y-247675484D02*
X252307655Y-248776382D01*
X228798943Y-241999000D02*
X229151000Y-242351057D01*
X251951712Y-247319541D02*
X252307655Y-247675484D01*
%TO.N,Net-(D62-DOUT)*%
X251651057Y-257701000D02*
X268815431Y-257701000D01*
X271896076Y-254620355D02*
X271896076Y-253691809D01*
X268815431Y-257701000D02*
X271896076Y-254620355D01*
%TO.N,Net-(D63-DOUT)*%
X157932000Y-257002500D02*
X164131500Y-263202000D01*
X164131500Y-263202000D02*
X193693260Y-263202000D01*
X274351525Y-278702000D02*
X285187110Y-267866415D01*
X262326877Y-253123180D02*
X265543131Y-253123180D01*
X193693260Y-263202000D02*
X197144000Y-259751260D01*
X230234957Y-266802000D02*
X234234957Y-270802000D01*
X271484957Y-278702000D02*
X274351525Y-278702000D01*
X197144000Y-259751260D02*
X208534217Y-259751260D01*
X270794745Y-250251057D02*
X266401000Y-250251057D01*
X266401000Y-250251057D02*
X266048943Y-249899000D01*
X285187110Y-267866415D02*
X285187110Y-264643422D01*
%TO.N,Net-(D64-DOUT)*%
X151752000Y-258502500D02*
X152242000Y-258502500D01*
X175488442Y-255299000D02*
X151951057Y-255299000D01*
X151951057Y-255299000D02*
X151041000Y-256209057D01*
X151041000Y-257791500D02*
X151752000Y-258502500D01*
X176492000Y-256302558D02*
X175488442Y-255299000D01*
X176492000Y-257002500D02*
X176492000Y-256302558D01*
%TO.N,Net-(D65-DOUT)*%
X172601057Y-262801000D02*
X193527160Y-262801000D01*
X196032000Y-257002500D02*
X195542000Y-257002500D01*
X196743000Y-257713500D02*
X196032000Y-257002500D01*
X171292000Y-261491943D02*
X172601057Y-262801000D01*
%TO.N,Net-(D66-DOUT)*%
X220040270Y-260012118D02*
X220396213Y-260368061D01*
X189141000Y-257791500D02*
X189141000Y-256209057D01*
X198954000Y-258502500D02*
X217429754Y-258502500D01*
X218642204Y-259714950D02*
X220040270Y-260012118D01*
X217429754Y-258502500D02*
X218642204Y-259714950D01*
X190342000Y-258502500D02*
X189852000Y-258502500D01*
X189141000Y-256209057D02*
X190051057Y-255299000D01*
X189852000Y-258502500D02*
X189141000Y-257791500D01*
%TO.N,Net-(D67-DOUT)*%
X215751057Y-266401000D02*
X230401057Y-266401000D01*
X239984634Y-267312931D02*
X239984634Y-266384385D01*
X236896565Y-270401000D02*
X239984634Y-267312931D01*
X214997977Y-261855039D02*
X214997977Y-265647920D01*
%TO.N,Net-(D68-DOUT)*%
X234501000Y-262951057D02*
X238156482Y-262951057D01*
X234148943Y-262599000D02*
X234501000Y-262951057D01*
X232676980Y-263573077D02*
X233651057Y-262599000D01*
X257663637Y-268289496D02*
X257663637Y-269390394D01*
X257307694Y-267933553D02*
X257663637Y-268289496D01*
%TO.N,Net-(D69-DOUT)*%
X277252058Y-274305821D02*
X276297349Y-273351112D01*
X253001057Y-274351000D02*
X267701057Y-274351000D01*
X277252058Y-275234367D02*
X277252058Y-274305821D01*
X252265401Y-273615344D02*
X253001057Y-274351000D01*
X252265401Y-269776474D02*
X252265401Y-273615344D01*
X267701057Y-274351000D02*
X271651057Y-278301000D01*
X274185425Y-278301000D02*
X277252058Y-275234367D01*
%TD*%
M02*
