%TF.GenerationSoftware,KiCad,Pcbnew,9.0.3*%
%TF.CreationDate,2025-11-25T19:45:44-05:00*%
%TF.ProjectId,Wren,5772656e-2e6b-4696-9361-645f70636258,rev?*%
%TF.SameCoordinates,Original*%
%TF.FileFunction,Paste,Bot*%
%TF.FilePolarity,Positive*%
%FSLAX46Y46*%
G04 Gerber Fmt 4.6, Leading zero omitted, Abs format (unit mm)*
G04 Created by KiCad (PCBNEW 9.0.3) date 2025-11-25 19:45:44*
%MOMM*%
%LPD*%
G01*
G04 APERTURE LIST*
G04 Aperture macros list*
%AMRoundRect*
0 Rectangle with rounded corners*
0 $1 Rounding radius*
0 $2 $3 $4 $5 $6 $7 $8 $9 X,Y pos of 4 corners*
0 Add a 4 corners polygon primitive as box body*
4,1,4,$2,$3,$4,$5,$6,$7,$8,$9,$2,$3,0*
0 Add four circle primitives for the rounded corners*
1,1,$1+$1,$2,$3*
1,1,$1+$1,$4,$5*
1,1,$1+$1,$6,$7*
1,1,$1+$1,$8,$9*
0 Add four rect primitives between the rounded corners*
20,1,$1+$1,$2,$3,$4,$5,0*
20,1,$1+$1,$4,$5,$6,$7,0*
20,1,$1+$1,$6,$7,$8,$9,0*
20,1,$1+$1,$8,$9,$2,$3,0*%
%AMRotRect*
0 Rectangle, with rotation*
0 The origin of the aperture is its center*
0 $1 length*
0 $2 width*
0 $3 Rotation angle, in degrees counterclockwise*
0 Add horizontal line*
21,1,$1,$2,0,0,$3*%
%AMOutline5P*
0 Free polygon, 5 corners , with rotation*
0 The origin of the aperture is its center*
0 number of corners: always 5*
0 $1 to $10 corner X, Y*
0 $11 Rotation angle, in degrees counterclockwise*
0 create outline with 5 corners*
4,1,5,$1,$2,$3,$4,$5,$6,$7,$8,$9,$10,$1,$2,$11*%
%AMOutline6P*
0 Free polygon, 6 corners , with rotation*
0 The origin of the aperture is its center*
0 number of corners: always 6*
0 $1 to $12 corner X, Y*
0 $13 Rotation angle, in degrees counterclockwise*
0 create outline with 6 corners*
4,1,6,$1,$2,$3,$4,$5,$6,$7,$8,$9,$10,$11,$12,$1,$2,$13*%
%AMOutline7P*
0 Free polygon, 7 corners , with rotation*
0 The origin of the aperture is its center*
0 number of corners: always 7*
0 $1 to $14 corner X, Y*
0 $15 Rotation angle, in degrees counterclockwise*
0 create outline with 7 corners*
4,1,7,$1,$2,$3,$4,$5,$6,$7,$8,$9,$10,$11,$12,$13,$14,$1,$2,$15*%
%AMOutline8P*
0 Free polygon, 8 corners , with rotation*
0 The origin of the aperture is its center*
0 number of corners: always 8*
0 $1 to $16 corner X, Y*
0 $17 Rotation angle, in degrees counterclockwise*
0 create outline with 8 corners*
4,1,8,$1,$2,$3,$4,$5,$6,$7,$8,$9,$10,$11,$12,$13,$14,$15,$16,$1,$2,$17*%
G04 Aperture macros list end*
%ADD10RoundRect,0.250000X0.428883X0.394450X-0.231367X0.534790X-0.428883X-0.394450X0.231367X-0.534790X0*%
%ADD11RoundRect,0.250000X0.533375X-0.496750X0.689309X0.236861X-0.533375X0.496750X-0.689309X-0.236861X0*%
%ADD12RoundRect,0.250000X0.625000X-0.375000X0.625000X0.375000X-0.625000X0.375000X-0.625000X-0.375000X0*%
%ADD13R,1.800000X0.820000*%
%ADD14Outline5P,-0.900000X0.410000X0.900000X0.410000X0.900000X-0.246000X0.736000X-0.410000X-0.900000X-0.410000X0.000000*%
%ADD15RoundRect,0.250000X0.337500X0.475000X-0.337500X0.475000X-0.337500X-0.475000X0.337500X-0.475000X0*%
%ADD16RotRect,1.800000X0.820000X348.000000*%
%ADD17Outline5P,-0.900000X0.410000X0.900000X0.410000X0.900000X-0.246000X0.736000X-0.410000X-0.900000X-0.410000X348.000000*%
G04 APERTURE END LIST*
D10*
%TO.C,C25*%
X212732726Y-244195692D03*
X210703070Y-243764276D03*
%TD*%
D11*
%TO.C,D19*%
X235384431Y-218698030D03*
X235966583Y-215959216D03*
%TD*%
%TO.C,D28*%
X278008037Y-247233578D03*
X278590189Y-244494764D03*
%TD*%
D12*
%TO.C,D9*%
X176210000Y-193000000D03*
X176210000Y-190200000D03*
%TD*%
%TO.C,D8*%
X157160000Y-193000000D03*
X157160000Y-190200000D03*
%TD*%
D13*
%TO.C,D64*%
X152242000Y-258502500D03*
D14*
X157442000Y-258502500D03*
D13*
X157442000Y-257002500D03*
X152242000Y-257002500D03*
%TD*%
D15*
%TO.C,C31*%
X193979500Y-260750000D03*
X191904500Y-260750000D03*
%TD*%
D10*
%TO.C,C35*%
X273989843Y-276691857D03*
X271960187Y-276260441D03*
%TD*%
D15*
%TO.C,C16*%
X169579500Y-222650000D03*
X167504500Y-222650000D03*
%TD*%
D13*
%TO.C,D36*%
X159882000Y-182302500D03*
D14*
X165082000Y-182302500D03*
D13*
X165082000Y-180802500D03*
X159882000Y-180802500D03*
%TD*%
D12*
%TO.C,D2*%
X189900000Y-173950000D03*
X189900000Y-171150000D03*
%TD*%
D16*
%TO.C,D67*%
X214997976Y-261855039D03*
D17*
X220084345Y-262936180D03*
D16*
X220396214Y-261468959D03*
X215309845Y-260387818D03*
%TD*%
%TO.C,D40*%
X235499460Y-188310408D03*
D17*
X240585829Y-189391549D03*
D16*
X240897698Y-187924328D03*
X235811329Y-186843187D03*
%TD*%
D11*
%TO.C,D34*%
X264730307Y-263886872D03*
X265312459Y-261148058D03*
%TD*%
D10*
%TO.C,C13*%
X243946285Y-211879103D03*
X241916629Y-211447687D03*
%TD*%
%TO.C,C28*%
X268633861Y-256077846D03*
X266604205Y-255646430D03*
%TD*%
D13*
%TO.C,D37*%
X178932000Y-182302500D03*
D14*
X184132000Y-182302500D03*
D13*
X184132000Y-180802500D03*
X178932000Y-180802500D03*
%TD*%
D11*
%TO.C,D21*%
X272651855Y-226619466D03*
X273234007Y-223880652D03*
%TD*%
D13*
%TO.C,D50*%
X146892000Y-220402500D03*
D14*
X152092000Y-220402500D03*
D13*
X152092000Y-218902500D03*
X146892000Y-218902500D03*
%TD*%
%TO.C,D38*%
X197982000Y-180802100D03*
D14*
X203182000Y-180802100D03*
D13*
X203182000Y-179302100D03*
X197982000Y-179302100D03*
%TD*%
D11*
%TO.C,D35*%
X283364019Y-267847590D03*
X283946171Y-265108776D03*
%TD*%
D12*
%TO.C,D17*%
X195960000Y-212050000D03*
X195960000Y-209250000D03*
%TD*%
D13*
%TO.C,D58*%
X171292000Y-239452500D03*
D14*
X176492000Y-239452500D03*
D13*
X176492000Y-237952500D03*
X171292000Y-237952500D03*
%TD*%
D16*
%TO.C,D46*%
X203588130Y-201003003D03*
D17*
X208674499Y-202084144D03*
D16*
X208986368Y-200616923D03*
X203899999Y-199535782D03*
%TD*%
D15*
%TO.C,C24*%
X193979500Y-241700000D03*
X191904500Y-241700000D03*
%TD*%
%TO.C,C22*%
X155879500Y-241700000D03*
X153804500Y-241700000D03*
%TD*%
D11*
%TO.C,D32*%
X227462883Y-255965437D03*
X228045035Y-253226623D03*
%TD*%
D16*
%TO.C,D55*%
X241553236Y-228548350D03*
D17*
X246639605Y-229629491D03*
D16*
X246951474Y-228162270D03*
X241865105Y-227081129D03*
%TD*%
D10*
%TO.C,C34*%
X255356132Y-272731139D03*
X253326476Y-272299723D03*
%TD*%
D11*
%TO.C,D27*%
X259374325Y-243272861D03*
X259956477Y-240534047D03*
%TD*%
D13*
%TO.C,D59*%
X190342000Y-239452500D03*
D14*
X195542000Y-239452500D03*
D13*
X195542000Y-237952500D03*
X190342000Y-237952500D03*
%TD*%
D11*
%TO.C,D12*%
X234686749Y-199074119D03*
X235268901Y-196335305D03*
%TD*%
D10*
%TO.C,C5*%
X238590192Y-191265074D03*
X236560536Y-190833658D03*
%TD*%
%TO.C,C20*%
X244643968Y-231503015D03*
X242614312Y-231071599D03*
%TD*%
D16*
%TO.C,D62*%
X246909418Y-249162462D03*
D17*
X251995787Y-250243603D03*
D16*
X252307656Y-248776382D03*
X247221287Y-247695241D03*
%TD*%
D11*
%TO.C,D20*%
X254018143Y-222658748D03*
X254600295Y-219919934D03*
%TD*%
D16*
%TO.C,D42*%
X272766884Y-196231844D03*
D17*
X277853253Y-197312985D03*
D16*
X278165122Y-195845764D03*
X273078753Y-194764623D03*
%TD*%
D12*
%TO.C,D1*%
X170850000Y-173950000D03*
X170850000Y-171150000D03*
%TD*%
D10*
%TO.C,C12*%
X225312574Y-207918386D03*
X223282918Y-207486970D03*
%TD*%
D15*
%TO.C,C2*%
X182569500Y-184550000D03*
X180494500Y-184550000D03*
%TD*%
D11*
%TO.C,D26*%
X240740613Y-239312143D03*
X241322765Y-236573329D03*
%TD*%
D15*
%TO.C,C17*%
X188629500Y-222650000D03*
X186554500Y-222650000D03*
%TD*%
%TO.C,C29*%
X155879500Y-260750000D03*
X153804500Y-260750000D03*
%TD*%
D10*
%TO.C,C14*%
X262579997Y-215839821D03*
X260550341Y-215408405D03*
%TD*%
D12*
%TO.C,D23*%
X182260000Y-231100000D03*
X182260000Y-228300000D03*
%TD*%
D16*
%TO.C,D48*%
X240855554Y-208924438D03*
D17*
X245941923Y-210005579D03*
D16*
X246253792Y-208538358D03*
X241167423Y-207457217D03*
%TD*%
%TO.C,D63*%
X265543130Y-253123180D03*
D17*
X270629499Y-254204321D03*
D16*
X270941368Y-252737100D03*
X265854999Y-251655959D03*
%TD*%
D12*
%TO.C,D29*%
X163210000Y-250150000D03*
X163210000Y-247350000D03*
%TD*%
D16*
%TO.C,D49*%
X259489265Y-212885156D03*
D17*
X264575634Y-213966297D03*
D16*
X264887503Y-212499076D03*
X259801134Y-211417935D03*
%TD*%
D11*
%TO.C,D4*%
X229330656Y-178460089D03*
X229912808Y-175721275D03*
%TD*%
D16*
%TO.C,D41*%
X254133172Y-192271126D03*
D17*
X259219541Y-193352267D03*
D16*
X259531410Y-191885046D03*
X254445041Y-190803905D03*
%TD*%
D13*
%TO.C,D65*%
X171292000Y-258502500D03*
D14*
X176492000Y-258502500D03*
D13*
X176492000Y-257002500D03*
X171292000Y-257002500D03*
%TD*%
D11*
%TO.C,D33*%
X246096595Y-259926154D03*
X246678747Y-257187340D03*
%TD*%
D16*
%TO.C,D53*%
X204285812Y-220626915D03*
D17*
X209372181Y-221708056D03*
D16*
X209684050Y-220240835D03*
X204597681Y-219159694D03*
%TD*%
D13*
%TO.C,D52*%
X184992000Y-220402500D03*
D14*
X190192000Y-220402500D03*
D13*
X190192000Y-218902500D03*
X184992000Y-218902500D03*
%TD*%
%TO.C,D43*%
X146192000Y-201352500D03*
D14*
X151392000Y-201352500D03*
D13*
X151392000Y-199852500D03*
X146192000Y-199852500D03*
%TD*%
D16*
%TO.C,D56*%
X260186948Y-232509068D03*
D17*
X265273317Y-233590209D03*
D16*
X265585186Y-232122988D03*
X260498817Y-231041847D03*
%TD*%
D10*
%TO.C,C4*%
X219956480Y-187304356D03*
X217926824Y-186872940D03*
%TD*%
D11*
%TO.C,D6*%
X266598079Y-186381524D03*
X267180231Y-183642710D03*
%TD*%
D16*
%TO.C,D60*%
X209641994Y-241241027D03*
D17*
X214728363Y-242322168D03*
D16*
X215040232Y-240854947D03*
X209953863Y-239773806D03*
%TD*%
D13*
%TO.C,D44*%
X165242000Y-201352500D03*
D14*
X170442000Y-201352500D03*
D13*
X170442000Y-199852500D03*
X165242000Y-199852500D03*
%TD*%
D16*
%TO.C,D54*%
X222919524Y-224587632D03*
D17*
X228005893Y-225668773D03*
D16*
X228317762Y-224201552D03*
X223231393Y-223120411D03*
%TD*%
D13*
%TO.C,D51*%
X165942000Y-220402500D03*
D14*
X171142000Y-220402500D03*
D13*
X171142000Y-218902500D03*
X165942000Y-218902500D03*
%TD*%
D10*
%TO.C,C27*%
X250000150Y-252117128D03*
X247970494Y-251685712D03*
%TD*%
D15*
%TO.C,C15*%
X150529500Y-222650000D03*
X148454500Y-222650000D03*
%TD*%
D10*
%TO.C,C11*%
X206678862Y-203957668D03*
X204649206Y-203526252D03*
%TD*%
D13*
%TO.C,D45*%
X184292000Y-201352500D03*
D14*
X189492000Y-201352500D03*
D13*
X189492000Y-199852500D03*
X184292000Y-199852500D03*
%TD*%
D12*
%TO.C,D24*%
X201310000Y-231100000D03*
X201310000Y-228300000D03*
%TD*%
%TO.C,D3*%
X208950000Y-172449600D03*
X208950000Y-169649600D03*
%TD*%
%TO.C,D30*%
X182260000Y-250150000D03*
X182260000Y-247350000D03*
%TD*%
%TO.C,D16*%
X176910000Y-212050000D03*
X176910000Y-209250000D03*
%TD*%
%TO.C,D31*%
X201310000Y-250150000D03*
X201310000Y-247350000D03*
%TD*%
D15*
%TO.C,C1*%
X163519500Y-184550000D03*
X161444500Y-184550000D03*
%TD*%
D10*
%TO.C,C21*%
X263277679Y-235463733D03*
X261248023Y-235032317D03*
%TD*%
D11*
%TO.C,D14*%
X271954173Y-206995554D03*
X272536325Y-204256740D03*
%TD*%
D15*
%TO.C,C8*%
X149829500Y-203600000D03*
X147754500Y-203600000D03*
%TD*%
D16*
%TO.C,D70*%
X270899112Y-273737192D03*
D17*
X275985481Y-274818333D03*
D16*
X276297350Y-273351112D03*
X271210981Y-272269971D03*
%TD*%
D15*
%TO.C,C3*%
X201619500Y-183049600D03*
X199544500Y-183049600D03*
%TD*%
D11*
%TO.C,D18*%
X216750719Y-214737313D03*
X217332871Y-211998499D03*
%TD*%
%TO.C,D11*%
X216053037Y-195113401D03*
X216635189Y-192374587D03*
%TD*%
D10*
%TO.C,C18*%
X207376544Y-223581580D03*
X205346888Y-223150164D03*
%TD*%
D12*
%TO.C,D10*%
X195260000Y-193000000D03*
X195260000Y-190200000D03*
%TD*%
D16*
%TO.C,D61*%
X228275706Y-245201745D03*
D17*
X233362075Y-246282886D03*
D16*
X233673944Y-244815665D03*
X228587575Y-243734524D03*
%TD*%
D10*
%TO.C,C7*%
X275857616Y-199186509D03*
X273827960Y-198755093D03*
%TD*%
D13*
%TO.C,D66*%
X190342000Y-258502500D03*
D14*
X195542000Y-258502500D03*
D13*
X195542000Y-257002500D03*
X190342000Y-257002500D03*
%TD*%
D10*
%TO.C,C33*%
X236722420Y-268770422D03*
X234692764Y-268339006D03*
%TD*%
%TO.C,C26*%
X231366438Y-248156410D03*
X229336782Y-247724994D03*
%TD*%
D11*
%TO.C,D13*%
X253320461Y-203034836D03*
X253902613Y-200296022D03*
%TD*%
D10*
%TO.C,C32*%
X218088708Y-264809704D03*
X216059052Y-264378288D03*
%TD*%
D16*
%TO.C,D69*%
X252265400Y-269776474D03*
D17*
X257351769Y-270857615D03*
D16*
X257663638Y-269390394D03*
X252577269Y-268309253D03*
%TD*%
D12*
%TO.C,D15*%
X157860000Y-212050000D03*
X157860000Y-209250000D03*
%TD*%
D10*
%TO.C,C6*%
X257223904Y-195225791D03*
X255194248Y-194794375D03*
%TD*%
D15*
%TO.C,C10*%
X187929500Y-203600000D03*
X185854500Y-203600000D03*
%TD*%
D11*
%TO.C,D5*%
X247964368Y-182420806D03*
X248546520Y-179681992D03*
%TD*%
D15*
%TO.C,C30*%
X174929500Y-260750000D03*
X172854500Y-260750000D03*
%TD*%
D16*
%TO.C,D39*%
X216865749Y-184349690D03*
D17*
X221952118Y-185430831D03*
D16*
X222263987Y-183963610D03*
X217177618Y-182882469D03*
%TD*%
D11*
%TO.C,D25*%
X222106901Y-235351425D03*
X222689053Y-232612611D03*
%TD*%
D10*
%TO.C,C19*%
X226010256Y-227542298D03*
X223980600Y-227110882D03*
%TD*%
D16*
%TO.C,D47*%
X222221842Y-204963720D03*
D17*
X227308211Y-206044861D03*
D16*
X227620080Y-204577640D03*
X222533711Y-203496499D03*
%TD*%
D15*
%TO.C,C9*%
X168879500Y-203600000D03*
X166804500Y-203600000D03*
%TD*%
D11*
%TO.C,D7*%
X285813943Y-187603428D03*
X285231791Y-190342242D03*
%TD*%
D12*
%TO.C,D22*%
X163210000Y-231100000D03*
X163210000Y-228300000D03*
%TD*%
D16*
%TO.C,D68*%
X233631688Y-265815756D03*
D17*
X238718057Y-266896897D03*
D16*
X239029926Y-265429676D03*
X233943557Y-264348535D03*
%TD*%
D13*
%TO.C,D57*%
X152242000Y-239452500D03*
D14*
X157442000Y-239452500D03*
D13*
X157442000Y-237952500D03*
X152242000Y-237952500D03*
%TD*%
D15*
%TO.C,C23*%
X174929500Y-241700000D03*
X172854500Y-241700000D03*
%TD*%
M02*
